<?xml version="1.0" encoding="UTF-8"?>
<svg version="1.1" xmlns="http://www.w3.org/2000/svg" width="286" height="428">
<path d="M0 0 C3.84321017 3.06973391 6.51989757 5.90302625 8.05078125 10.67578125 C8.82746868 17.99414589 8.35779251 23.41406733 3.73828125 29.3671875 C2.54252016 30.83131542 1.30037643 32.25732186 0.05078125 33.67578125 C0.84484375 34.30226562 1.63890625 34.92875 2.45703125 35.57421875 C3.47796875 36.39148437 4.49890625 37.20875 5.55078125 38.05078125 C6.57171875 38.86289062 7.59265625 39.675 8.64453125 40.51171875 C9.43859375 41.22585937 10.23265625 41.94 11.05078125 42.67578125 C11.05078125 43.33578125 11.05078125 43.99578125 11.05078125 44.67578125 C11.59089844 44.8665625 12.13101563 45.05734375 12.6875 45.25390625 C16.17186845 47.35028661 18.35442626 50.26350856 20.86328125 53.42578125 C21.39300537 54.09246826 21.92272949 54.75915527 22.46850586 55.44604492 C27.37179151 61.79671756 30.95211016 68.27340032 34.05078125 75.67578125 C34.40914062 76.51238281 34.7675 77.34898438 35.13671875 78.2109375 C39.13432175 89.19517694 38.16171109 101.27715626 33.62109375 111.86328125 C32.10034664 114.58700741 30.55295652 116.47694416 28.36328125 118.67578125 C24.2919983 122.81725873 24.09764132 126.91381162 23.515625 132.53125 C22.87176001 136.88680727 21.26825174 139.90608142 19.05078125 143.67578125 C19.93830078 144.03929687 19.93830078 144.03929687 20.84375 144.41015625 C31.72572949 149.02567773 31.72572949 149.02567773 34.05078125 153.67578125 C34.54091627 158.57713144 34.66198219 160.68257971 32.05078125 164.92578125 C27.13201196 170.03907814 20.72231194 171.84311981 14.05078125 173.67578125 C11.93434435 200.73593871 11.22548561 229.7472339 26.05078125 253.67578125 C26.34597656 254.371875 26.64117187 255.06796875 26.9453125 255.78515625 C28.33283454 258.15816214 29.55976487 258.59634082 32.05078125 259.67578125 C38.63664234 263.87895276 38.63664234 263.87895276 39.53515625 267.77734375 C39.55611415 270.65905551 39.34930188 273.07873998 38.05078125 275.67578125 C37.62767134 280.60053064 37.62767134 280.60053064 39.55078125 284.98828125 C40.04578125 285.54515625 40.54078125 286.10203125 41.05078125 286.67578125 C41.05078125 287.33578125 41.05078125 287.99578125 41.05078125 288.67578125 C42.11619141 289.03349609 42.11619141 289.03349609 43.203125 289.3984375 C50.46905168 292.65763918 56.82865842 298.80723013 59.73828125 306.23828125 C62.14270474 314.60661792 61.50483854 320.7602333 58.05078125 328.67578125 C58.64890625 328.84078125 59.24703125 329.00578125 59.86328125 329.17578125 C63.32202487 331.54749116 64.17523267 334.75133656 65.05078125 338.67578125 C66.05281582 345.89836707 65.63730436 352.22586031 61.453125 358.359375 C56.05962918 363.55993275 48.9554067 366.04623708 42.05078125 368.67578125 C41.05546387 369.06854248 41.05546387 369.06854248 40.04003906 369.46923828 C29.37502846 373.59141414 18.71976025 374.74890664 7.36865234 375.51269531 C5.45421637 375.64739546 3.54277835 375.82399639 1.6328125 376.01171875 C-30.1197311 379.11566621 -70.42633679 378.80316163 -97.94921875 360.67578125 C-101.70259487 357.36892746 -104.78388063 353.97779658 -105.15234375 348.84765625 C-105.25253831 341.53345311 -105.25312271 336.32146838 -100.13671875 330.67578125 C-99.74484375 330.01578125 -99.35296875 329.35578125 -98.94921875 328.67578125 C-99.55930539 326.65780237 -100.23778787 324.66029896 -100.94921875 322.67578125 C-101.80807201 315.44262644 -100.62228713 309.28318603 -96.26171875 303.3984375 C-94.55954936 301.38065753 -92.90588658 299.44856945 -90.94921875 297.67578125 C-90.28921875 297.67578125 -89.62921875 297.67578125 -88.94921875 297.67578125 C-88.94921875 297.01578125 -88.94921875 296.35578125 -88.94921875 295.67578125 C-87.37252506 294.30562861 -85.73678037 293.00286423 -84.07421875 291.73828125 C-81.0673433 289.44671663 -79.0586785 287.83997087 -76.94921875 284.67578125 C-76.6696043 281.99954291 -76.6696043 281.99954291 -76.76171875 279.11328125 C-76.76816406 278.14261719 -76.77460937 277.17195313 -76.78125 276.171875 C-76.78777204 273.67688141 -76.78777204 273.67688141 -77.94921875 271.67578125 C-78.33894218 268.16827037 -78.31837598 266.27566175 -76.44921875 263.23828125 C-74.39077993 261.12838145 -72.31824653 259.26339672 -70.07421875 257.36328125 C-55.16897805 244.47674662 -49.8827366 221.95237557 -48.11230469 202.92773438 C-47.45564454 193.86031938 -47.21248203 184.76157487 -46.94921875 175.67578125 C-48.13902344 175.56878906 -49.32882813 175.46179688 -50.5546875 175.3515625 C-54.53941352 174.85028941 -57.66620302 173.70534184 -61.26171875 171.86328125 C-62.26847656 171.36183594 -63.27523437 170.86039063 -64.3125 170.34375 C-66.97901824 168.65693031 -68.38277734 167.3933994 -69.94921875 164.67578125 C-70.3201818 160.52099504 -70.53141395 157.07958401 -67.94921875 153.67578125 C-62.72699653 149.67578125 -62.72699653 149.67578125 -58.94921875 149.67578125 C-59.64789063 148.79277344 -60.3465625 147.90976563 -61.06640625 147 C-71.49912282 133.42187453 -71.49912282 133.42187453 -70.94921875 124.67578125 C-69.69028931 119.82957974 -67.7174999 115.82820298 -64.94921875 111.67578125 C-65.24498732 108.42232701 -65.98404394 105.56612178 -66.97265625 102.453125 C-70.05932393 90.51389443 -68.25342911 78.57591419 -62.40625 67.84375 C-56.88494525 58.81003628 -50.24471202 50.81765946 -42.82421875 43.30078125 C-42.33348877 42.80070557 -41.84275879 42.30062988 -41.3371582 41.78540039 C-38.09371685 38.57019593 -34.79680647 36.08480501 -30.94921875 33.67578125 C-31.71234375 32.95390625 -32.47546875 32.23203125 -33.26171875 31.48828125 C-38.24459441 26.27364393 -40.10150652 21.86844957 -39.94921875 14.67578125 C-39.03367533 8.234664 -36.32971156 4.12391293 -31.25390625 0.1171875 C-21.61592087 -5.91063726 -9.49153547 -6.44815736 0 0 Z " fill="#9A4040" transform="translate(160.94921875,24.32421875)"/>
<path d="M0 0 C-0.144375 0.64839844 -0.28875 1.29679688 -0.4375 1.96484375 C-5.08088938 26.50386677 -3.58620728 57.03204666 9.6875 78.9375 C13.00625822 83.52859716 17.41796026 87.01604005 21.8046875 90.54296875 C24 93 24 93 24.3828125 96.17578125 C24 99 24 99 23 101 C22.63138843 105.42333888 22.51351946 107.98473627 24.4375 112 C28.85529341 117.17205082 34.01670084 121.4589224 39.375 125.625 C44.5817102 130.33583304 45.62481178 135.39998205 46.05859375 142.18359375 C45.93495346 148.12657031 44.49744158 152.39298952 40.4375 156.75 C39.31660428 157.53678257 38.1680414 158.28507811 37 159 C36.071875 159.61101562 36.071875 159.61101562 35.125 160.234375 C29.44511183 163.52059602 23.38418608 165.13039451 17.0625 166.6875 C16.25997803 166.88988281 15.45745605 167.09226562 14.63061523 167.30078125 C-0.66863365 170.83988461 -16.42299124 171.38198464 -32.0625 171.3125 C-32.90151855 171.31100952 -33.74053711 171.30951904 -34.60498047 171.3079834 C-88.79186388 171.13611627 -88.79186388 171.13611627 -106 156.4375 C-109.95368306 151.61894877 -110.45573567 147.95393152 -110.30078125 141.8046875 C-109.17013497 131.26177805 -100.21865911 124.70881337 -92.625 118.25 C-87.57741786 113.84805247 -87.57741786 113.84805247 -85.796875 107.5390625 C-85.59514138 102.60932262 -85.59514138 102.60932262 -87 98 C-87.40625 95.1875 -87.40625 95.1875 -87 92 C-85.19251396 90.0720149 -83.55929804 88.60130132 -81.5 87 C-64.88561016 72.88572689 -59.32246843 48.39862791 -57.19677734 27.45898438 C-56.80992863 22.62481532 -56.62397709 17.78284723 -56.4375 12.9375 C-56.37272461 11.35291992 -56.37272461 11.35291992 -56.30664062 9.73632812 C-56.20162663 7.15765121 -56.09947123 4.57889565 -56 2 C-54.86159668 2.01571045 -53.72319336 2.0314209 -52.55029297 2.04760742 C-48.26000256 2.10258475 -43.96974214 2.1365924 -39.67919922 2.16479492 C-37.83474463 2.17972913 -35.99032457 2.20008395 -34.14599609 2.22631836 C-23.89374648 2.36832399 -14.49240185 2.19436426 -4.52392578 -0.44799805 C-2 -1 -2 -1 0 0 Z " fill="#973F3F" transform="translate(173,198)"/>
<path d="M0 0 C3.84321017 3.06973391 6.51989757 5.90302625 8.05078125 10.67578125 C8.82746868 17.99414589 8.35779251 23.41406733 3.73828125 29.3671875 C2.54252016 30.83131542 1.30037643 32.25732186 0.05078125 33.67578125 C0.84484375 34.30226562 1.63890625 34.92875 2.45703125 35.57421875 C3.47796875 36.39148437 4.49890625 37.20875 5.55078125 38.05078125 C6.57171875 38.86289062 7.59265625 39.675 8.64453125 40.51171875 C9.43859375 41.22585937 10.23265625 41.94 11.05078125 42.67578125 C11.05078125 43.33578125 11.05078125 43.99578125 11.05078125 44.67578125 C11.59089844 44.8665625 12.13101563 45.05734375 12.6875 45.25390625 C16.17186845 47.35028661 18.35442626 50.26350856 20.86328125 53.42578125 C21.39300537 54.09246826 21.92272949 54.75915527 22.46850586 55.44604492 C27.37179151 61.79671756 30.95211016 68.27340032 34.05078125 75.67578125 C34.40914062 76.51238281 34.7675 77.34898438 35.13671875 78.2109375 C39.13432175 89.19517694 38.16171109 101.27715626 33.62109375 111.86328125 C32.10034664 114.58700741 30.55295652 116.47694416 28.36328125 118.67578125 C24.2919983 122.81725873 24.09764132 126.91381162 23.515625 132.53125 C22.87176001 136.88680727 21.26825174 139.90608142 19.05078125 143.67578125 C19.93830078 144.03929687 19.93830078 144.03929687 20.84375 144.41015625 C31.72572949 149.02567773 31.72572949 149.02567773 34.05078125 153.67578125 C34.54091627 158.57713144 34.66198219 160.68257971 32.05078125 164.92578125 C27.13201196 170.03907814 20.72231194 171.84311981 14.05078125 173.67578125 C11.93434435 200.73593871 11.22548561 229.7472339 26.05078125 253.67578125 C26.34597656 254.371875 26.64117187 255.06796875 26.9453125 255.78515625 C28.33283454 258.15816214 29.55976487 258.59634082 32.05078125 259.67578125 C38.63664234 263.87895276 38.63664234 263.87895276 39.53515625 267.77734375 C39.55611415 270.65905551 39.34930188 273.07873998 38.05078125 275.67578125 C37.62767134 280.60053064 37.62767134 280.60053064 39.55078125 284.98828125 C40.04578125 285.54515625 40.54078125 286.10203125 41.05078125 286.67578125 C41.05078125 287.33578125 41.05078125 287.99578125 41.05078125 288.67578125 C42.11619141 289.03349609 42.11619141 289.03349609 43.203125 289.3984375 C50.46905168 292.65763918 56.82865842 298.80723013 59.73828125 306.23828125 C62.14270474 314.60661792 61.50483854 320.7602333 58.05078125 328.67578125 C58.64890625 328.84078125 59.24703125 329.00578125 59.86328125 329.17578125 C63.32202487 331.54749116 64.17523267 334.75133656 65.05078125 338.67578125 C66.05281582 345.89836707 65.63730436 352.22586031 61.453125 358.359375 C56.05962918 363.55993275 48.9554067 366.04623708 42.05078125 368.67578125 C41.05546387 369.06854248 41.05546387 369.06854248 40.04003906 369.46923828 C29.37502846 373.59141414 18.71976025 374.74890664 7.36865234 375.51269531 C5.45421637 375.64739546 3.54277835 375.82399639 1.6328125 376.01171875 C-30.1197311 379.11566621 -70.42633679 378.80316163 -97.94921875 360.67578125 C-101.70259487 357.36892746 -104.78388063 353.97779658 -105.15234375 348.84765625 C-105.25253831 341.53345311 -105.25312271 336.32146838 -100.13671875 330.67578125 C-99.74484375 330.01578125 -99.35296875 329.35578125 -98.94921875 328.67578125 C-99.55930539 326.65780237 -100.23778787 324.66029896 -100.94921875 322.67578125 C-101.80807201 315.44262644 -100.62228713 309.28318603 -96.26171875 303.3984375 C-94.55954936 301.38065753 -92.90588658 299.44856945 -90.94921875 297.67578125 C-90.28921875 297.67578125 -89.62921875 297.67578125 -88.94921875 297.67578125 C-88.94921875 297.01578125 -88.94921875 296.35578125 -88.94921875 295.67578125 C-87.37252506 294.30562861 -85.73678037 293.00286423 -84.07421875 291.73828125 C-81.0673433 289.44671663 -79.0586785 287.83997087 -76.94921875 284.67578125 C-76.6696043 281.99954291 -76.6696043 281.99954291 -76.76171875 279.11328125 C-76.76816406 278.14261719 -76.77460937 277.17195313 -76.78125 276.171875 C-76.78777204 273.67688141 -76.78777204 273.67688141 -77.94921875 271.67578125 C-78.33894218 268.16827037 -78.31837598 266.27566175 -76.44921875 263.23828125 C-74.39077993 261.12838145 -72.31824653 259.26339672 -70.07421875 257.36328125 C-55.16897805 244.47674662 -49.8827366 221.95237557 -48.11230469 202.92773438 C-47.45564454 193.86031938 -47.21248203 184.76157487 -46.94921875 175.67578125 C-48.13902344 175.56878906 -49.32882813 175.46179688 -50.5546875 175.3515625 C-54.53941352 174.85028941 -57.66620302 173.70534184 -61.26171875 171.86328125 C-62.26847656 171.36183594 -63.27523437 170.86039063 -64.3125 170.34375 C-66.97901824 168.65693031 -68.38277734 167.3933994 -69.94921875 164.67578125 C-70.3201818 160.52099504 -70.53141395 157.07958401 -67.94921875 153.67578125 C-62.72699653 149.67578125 -62.72699653 149.67578125 -58.94921875 149.67578125 C-59.64789063 148.79277344 -60.3465625 147.90976563 -61.06640625 147 C-71.49912282 133.42187453 -71.49912282 133.42187453 -70.94921875 124.67578125 C-69.69028931 119.82957974 -67.7174999 115.82820298 -64.94921875 111.67578125 C-65.24498732 108.42232701 -65.98404394 105.56612178 -66.97265625 102.453125 C-70.05932393 90.51389443 -68.25342911 78.57591419 -62.40625 67.84375 C-56.88494525 58.81003628 -50.24471202 50.81765946 -42.82421875 43.30078125 C-42.33348877 42.80070557 -41.84275879 42.30062988 -41.3371582 41.78540039 C-38.09371685 38.57019593 -34.79680647 36.08480501 -30.94921875 33.67578125 C-31.71234375 32.95390625 -32.47546875 32.23203125 -33.26171875 31.48828125 C-38.24459441 26.27364393 -40.10150652 21.86844957 -39.94921875 14.67578125 C-39.03367533 8.234664 -36.32971156 4.12391293 -31.25390625 0.1171875 C-21.61592087 -5.91063726 -9.49153547 -6.44815736 0 0 Z M-29.328125 34.8359375 C-31.90662974 37.08232714 -34.45378426 39.33631141 -36.94921875 41.67578125 C-37.5009375 42.18657227 -38.05265625 42.69736328 -38.62109375 43.22363281 C-52.68803015 56.3491426 -65.25708279 71.01129011 -66.171875 91.13671875 C-65.86361244 96.03647096 -64.51180727 100.27073949 -62.76171875 104.8359375 C-61.66416924 108.6720841 -62.18552752 111.08157581 -63.88671875 114.6328125 C-64.23734375 115.24511719 -64.58796875 115.85742188 -64.94921875 116.48828125 C-67.46356964 121.4337876 -68.61213761 125.4990741 -67.4609375 131.015625 C-64.88901998 138.73137756 -59.59542015 144.01072776 -53.94921875 149.67578125 C-53.05396484 150.57490234 -53.05396484 150.57490234 -52.140625 151.4921875 C-51.74746094 151.88277344 -51.35429688 152.27335937 -50.94921875 152.67578125 C-52.43421875 151.68578125 -52.43421875 151.68578125 -53.94921875 150.67578125 C-59.17711954 150.9081324 -63.23356704 152.96012954 -66.94921875 156.67578125 C-67.42710544 161.53129487 -67.42710544 161.53129487 -65.51171875 165.86328125 C-46.95551993 178.98839749 -17.73444891 176.54412946 3.4921875 173.02050781 C12.95520331 171.26706665 22.4127596 168.82805074 30.05078125 162.67578125 C31.61508373 159.5471763 31.40705409 157.119752 31.05078125 153.67578125 C27.73497674 149.94550118 22.92601008 147.71285776 18.05078125 146.67578125 C14.63767704 147.08401528 12.63516535 148.55419399 9.98828125 150.67578125 C7.55474523 152.61887335 6.04692294 153.67706735 3.05078125 154.67578125 C3.57027344 154.31226563 4.08976562 153.94875 4.625 153.57421875 C12.5350181 147.87198759 19.30284787 140.60958085 21.05078125 130.67578125 C21.11976367 128.08204211 21.14512877 125.51767928 21.11328125 122.92578125 C21.10876953 122.22839844 21.10425781 121.53101563 21.09960938 120.8125 C21.08788145 119.10022322 21.06994778 117.38799092 21.05078125 115.67578125 C21.38078125 116.99578125 21.71078125 118.31578125 22.05078125 119.67578125 C27.58072461 117.33935083 29.54855664 112.8352219 32.03515625 107.60546875 C36.04128749 97.3633785 34.72893094 85.82330061 31.05078125 75.67578125 C24.8518549 61.86759081 15.36197319 51.36984856 4.51074219 41.07910156 C3.29663624 39.91209806 2.12483133 38.70127965 0.96484375 37.48046875 C-2.2255608 34.48511077 -4.07204047 33.69783054 -8.5234375 33.5859375 C-11.11025269 33.76582377 -13.69354489 34.01454516 -16.265625 34.34375 C-19.94921875 34.67578125 -19.94921875 34.67578125 -23.62890625 34.03515625 C-26.88748452 33.38432796 -26.88748452 33.38432796 -29.328125 34.8359375 Z M7.52685547 173.32543945 C-3.31546026 176.08379781 -13.7065107 176.02142364 -24.82421875 175.86328125 C-26.68748908 175.8481947 -28.55077134 175.83451338 -30.4140625 175.82226562 C-34.92608224 175.78960324 -39.4375144 175.73804469 -43.94921875 175.67578125 C-43.96380127 176.27302002 -43.97838379 176.87025879 -43.9934082 177.4855957 C-44.79060338 206.94801387 -47.47076535 240.11076323 -69.94921875 261.67578125 C-71.31046875 262.70638672 -71.31046875 262.70638672 -72.69921875 263.7578125 C-75.28972047 265.52683512 -75.28972047 265.52683512 -75.32421875 268.80078125 C-75.11712192 271.61311882 -75.11712192 271.61311882 -73.94921875 273.67578125 C-73.7109375 275.84765625 -73.7109375 275.84765625 -73.63671875 278.42578125 C-73.59933594 279.26625 -73.56195313 280.10671875 -73.5234375 280.97265625 C-74.76584135 288.86021094 -82.43119166 293.97888078 -88.10546875 298.93359375 C-93.47185953 303.77936453 -97.17257461 308.3756854 -98.48046875 315.6171875 C-98.41049409 321.48631236 -98.17484443 326.3074721 -93.94921875 330.67578125 C-81.84628643 340.29308255 -65.79904711 341.90400911 -50.94921875 343.67578125 C-50.15370605 343.77294434 -49.35819336 343.87010742 -48.53857422 343.97021484 C-39.49086942 344.93806035 -30.41346989 344.91937601 -21.32421875 344.92578125 C-20.46261139 344.92645599 -19.60100403 344.92713074 -18.71328735 344.92782593 C20.58095975 345.30324485 20.58095975 345.30324485 54.55078125 328.23828125 C58.47662539 321.53163084 58.65743041 315.12675153 57.05078125 307.67578125 C54.5531281 300.91384223 49.18026573 297.10262965 43.65234375 292.7890625 C40.07414839 289.88245035 37.13155768 286.83733411 35.05078125 282.67578125 C34.91796875 280.80078125 34.91796875 280.80078125 34.92578125 278.67578125 C34.92320312 277.97453125 34.920625 277.27328125 34.91796875 276.55078125 C35.05078125 274.67578125 35.05078125 274.67578125 36.05078125 272.67578125 C36.64616073 269.83011502 36.64616073 269.83011502 36.05078125 266.67578125 C34.04530243 264.55128292 32.18451644 262.85441182 29.92578125 261.05078125 C16.85941211 249.74780935 11.53650454 230.84182501 10.17529297 213.8984375 C9.4041568 200.13290092 9.33398197 186.2355205 12.05078125 172.67578125 C9.93922622 172.59268975 9.93922622 172.59268975 7.52685547 173.32543945 Z " fill="#150808" transform="translate(160.94921875,24.32421875)"/>
<path d="M0 0 C4.875 2.75 4.875 2.75 6 5 C7.32351925 19.96479154 7.32351925 19.96479154 4.89453125 25.53515625 C3.06778471 27.51525929 1.3565432 28.69037366 -1 30 C-1.88816406 30.51304687 -2.77632812 31.02609375 -3.69140625 31.5546875 C-40.4685984 50.43646431 -96.13502308 48.6282947 -134.80322266 36.74755859 C-140.57009996 34.78510268 -145.80297044 32.18318061 -151 29 C-151.721875 28.58621094 -152.44375 28.17242187 -153.1875 27.74609375 C-155.21884663 26.24609473 -156.01971725 25.34203299 -157 23 C-157.85212686 17.2593559 -158.4961599 11.03859278 -155.86328125 5.69140625 C-154.5 4.0625 -154.5 4.0625 -152 2 C-149.16626076 2.43595988 -147.69958139 3.21059824 -145.30859375 4.88671875 C-141.87244779 7.08147077 -138.55855463 8.40701889 -134.6875 9.5625 C-133.99889893 9.77229492 -133.31029785 9.98208984 -132.60083008 10.19824219 C-117.99628686 14.4769234 -102.89042615 16.12660965 -87.70703125 16.203125 C-86.76593002 16.21018463 -85.8248288 16.21724426 -84.85520935 16.22451782 C-40.56943375 17.95610857 -40.56943375 17.95610857 -1 1 C-0.67 0.67 -0.34 0.34 0 0 Z " fill="#943E3E" transform="translate(216,354)"/>
<path d="M0 0 C3.31163065 2.48372299 3.95627414 3.69877743 4.5625 7.875 C4.349402 11.57328137 3.24289208 13.957954 0.6171875 16.6875 C-4.3176482 20.69258405 -9.94702316 22.33725455 -16 24 C-18.1164369 51.06015746 -18.82529564 80.07145265 -4 104 C-3.55720703 105.04414063 -3.55720703 105.04414063 -3.10546875 106.109375 C-1.71794671 108.48238089 -0.49101638 108.92055957 2 110 C8.58586109 114.20317151 8.58586109 114.20317151 9.484375 118.1015625 C9.5053329 120.98327426 9.29852063 123.40295873 8 126 C7.57689009 130.92474939 7.57689009 130.92474939 9.5 135.3125 C9.995 135.869375 10.49 136.42625 11 137 C11 137.66 11 138.32 11 139 C11.71027344 139.23847656 12.42054688 139.47695313 13.15234375 139.72265625 C20.41827043 142.98185793 26.77787717 149.13144888 29.6875 156.5625 C32.09192349 164.93083667 31.45405729 171.08445205 28 179 C28.598125 179.165 29.19625 179.33 29.8125 179.5 C33.27124362 181.87170991 34.12445142 185.07555531 35 189 C36.00203457 196.22258582 35.58652311 202.55007906 31.40234375 208.68359375 C26.00884793 213.8841515 18.90462545 216.37045583 12 219 C11.00468262 219.39276123 11.00468262 219.39276123 9.98925781 219.79345703 C-0.67575279 223.91563289 -11.331021 225.07312539 -22.68212891 225.83691406 C-24.59656488 225.97161421 -26.5080029 226.14821514 -28.41796875 226.3359375 C-60.17051235 229.43988496 -100.47711804 229.12738038 -128 211 C-131.75337612 207.69314621 -134.83466188 204.30201533 -135.203125 199.171875 C-135.30331956 191.85767186 -135.30390396 186.64568713 -130.1875 181 C-129.5996875 180.01 -129.5996875 180.01 -129 179 C-129.78715124 176.05429073 -129.78715124 176.05429073 -131 173 C-131.31034483 167.62068966 -131.31034483 167.62068966 -130 165 C-129.34 165 -128.68 165 -128 165 C-127.96261719 165.59167969 -127.92523438 166.18335938 -127.88671875 166.79296875 C-127.48131892 171.66571569 -126.85719103 174.90055199 -124 179 C-124 179.66 -124 180.32 -124 181 C-86.93185874 199.79268557 -30.85558746 199.83868739 8.22265625 187.3828125 C14.65310496 185.14041607 19.90297147 182.25046964 24.5625 177.25 C27.72588123 170.09800766 27.55172734 163.29064954 25 156 C22.29510381 150.59020762 18.17170657 147.63758733 13.48046875 144.02734375 C9.69609401 140.93428786 6.20667882 137.41335764 4 133 C3.8671875 131.125 3.8671875 131.125 3.875 129 C3.87242187 128.29875 3.86984375 127.5975 3.8671875 126.875 C4 125 4 125 5 123 C5.55330715 120.13797059 5.55330715 120.13797059 5 117 C3.15206152 114.9786304 1.49008305 113.43113225 -0.625 111.75 C-15.08134312 99.31361897 -19.50742716 80.43458384 -21 62 C-21.63185616 49.23326533 -21.60528398 36.54876177 -19 24 C-19.86310791 24.21438721 -20.72621582 24.42877441 -21.61547852 24.6496582 C-32.16511867 27.0401862 -42.15482249 27.360101 -52.9375 27.1875 C-54.60350332 27.17240321 -56.26952011 27.15872377 -57.93554688 27.14648438 C-61.95737329 27.11392611 -65.97853097 27.06243026 -70 27 C-70 26.67 -70 26.34 -70 26 C-65.05453481 25.16779758 -60.2326255 24.85343563 -55.22192383 24.7097168 C-37.03268331 24.18008128 -16.62273048 23.41515365 -1 13 C0.32229189 10.35541621 0.09677194 8.32238699 0.0625 5.375 C0.05347656 4.37210938 0.04445312 3.36921875 0.03515625 2.3359375 C0.02355469 1.56507813 0.01195312 0.79421875 0 0 Z M21.8125 182.6875 C16.17526291 186.99952765 9.68729679 188.85882377 3 191 C1.59621094 191.51433594 1.59621094 191.51433594 0.1640625 192.0390625 C-15.99139499 196.94553478 -33.66931185 196.29880681 -50.375 196.3125 C-51.84706909 196.3176059 -51.84706909 196.3176059 -53.34887695 196.32281494 C-69.7702693 196.35535086 -85.99236501 195.67946463 -102 191.6875 C-102.88083252 191.47311279 -103.76166504 191.25872559 -104.66918945 191.0378418 C-111.67483031 189.25247252 -118.7709228 187.2290772 -124 182 C-126.98832018 182.09961067 -127.97043741 182.97016009 -130.08203125 185.1015625 C-133.69212378 190.55714021 -133.17320538 196.79783 -132 203 C-129.63121234 206.745858 -126.78547462 208.76768335 -123 211 C-121.83984375 211.69802734 -121.83984375 211.69802734 -120.65625 212.41015625 C-85.82482158 230.43211368 -29.81171304 228.52731331 6.8125 217.44921875 C15.41557036 214.60331357 25.83208434 210.87352875 31 203 C31.80843392 199.93911672 31.79859262 197.08684661 31.6875 193.9375 C31.70232422 193.14794922 31.71714844 192.35839844 31.73242188 191.54492188 C31.66983758 187.1529767 31.37916699 185.46753977 28.51953125 181.94140625 C24.90178945 179.15378195 25.02913395 179.96467766 21.8125 182.6875 Z " fill="#170909" transform="translate(191,174)"/>
<path d="M0 0 C4.56712993 2.72104794 7.33483498 6.48349812 9.4375 11.3125 C10.15325914 15.8900294 9.89257127 19.40235746 7.8125 23.5625 C4.78283537 27.07053272 1.63258555 30.21495723 -2.5625 32.3125 C-20.60572384 33.49598027 -20.60572384 33.49598027 -27.5625 28.3125 C-31.72522069 23.08241503 -33.11845148 18.98391773 -32.5625 12.3125 C-29.83458256 6.22714571 -26.38377562 2.1646489 -20.265625 -0.80078125 C-13.8999413 -2.88894628 -6.12036157 -2.84159644 0 0 Z " fill="#983F3F" transform="translate(156.5625,24.6875)"/>
<path d="M0 0 C1.65 0 3.3 0 5 0 C13.49142617 16.98285235 3.87870411 50.7747225 -1.75390625 68.0234375 C-2.89718491 70.75440407 -4.09252868 72.75526564 -6 75 C-9.96 74.505 -9.96 74.505 -14 74 C-13.45982945 68.93268576 -12.26151149 64.91587716 -10.25 60.25 C-2.72248844 41.34454066 -1.18270518 20.13368611 0 0 Z " fill="#BD4F4F" transform="translate(125,210)"/>
<path d="M0 0 C3.125 0.4375 3.125 0.4375 5.4375 2.75 C7.94033556 6.73599738 8.28367027 9.68821129 8.3125 14.3125 C8.32667969 15.34117188 8.34085938 16.36984375 8.35546875 17.4296875 C8.12081369 20.49213488 7.41684572 22.66998861 6.125 25.4375 C8.435 25.7675 10.745 26.0975 13.125 26.4375 C13.125 26.7675 13.125 27.0975 13.125 27.4375 C12.37734375 27.46328125 11.6296875 27.4890625 10.859375 27.515625 C4.8670594 27.76516957 4.8670594 27.76516957 -0.5 30.125 C-2.23415239 33.04152901 -2.80557411 35.0356315 -2.875 38.4375 C-1.6549342 41.26291554 -0.58545681 42.90465739 1.875 44.75 C6.37094645 46.12376142 10.01191553 45.86560941 14.375 44.1875 C17.04691336 42.4871915 18.46997891 41.10392287 20.125 38.4375 C19.85552832 41.67116021 19.3262532 43.2037866 17.1875 45.6875 C12.91526309 48.12877823 9.01800867 48.64921672 4.125 48.4375 C0.53978576 47.13378573 -2.69804853 45.64563902 -4.875 42.4375 C-6.00571827 37.74067025 -6.10097431 34.75850896 -3.875 30.4375 C-5.80754772 28.4129262 -7.50658688 27.01644208 -9.875 25.4375 C-9.215 25.4375 -8.555 25.4375 -7.875 25.4375 C-8.205 24.7775 -8.535 24.1175 -8.875 23.4375 C-9.05103147 21.02500308 -9.14244968 18.60599105 -9.1875 16.1875 C-9.22488281 14.88296875 -9.26226562 13.5784375 -9.30078125 12.234375 C-8.68325355 6.72761421 -5.87973432 0.89474218 0 0 Z " fill="#1F0D0D" transform="translate(118.875,110.5625)"/>
<path d="M0 0 C5.61126336 0.33007432 8.6460668 1.70800172 13 5 C12.67 5.66 12.34 6.32 12 7 C9.525 6.01 9.525 6.01 7 5 C6.74347656 5.60585937 6.48695313 6.21171875 6.22265625 6.8359375 C2.29057095 15.44151138 -3.35601724 23.63786629 -12 28 C-16.78168087 29.2838275 -21.37930442 29.76285978 -25.875 27.4375 C-29.72142308 24.43729 -32.0185727 21.3834663 -33.875 16.875 C-35.59135536 14.01440774 -38.21616199 12.76120364 -41 11 C-42.875 9.25 -42.875 9.25 -44 8 C-44.99 8.33 -45.98 8.66 -47 9 C-46.67 8.01 -46.34 7.02 -46 6 C-42.535 5.505 -42.535 5.505 -39 5 C-39.99 5.495 -39.99 5.495 -41 6 C-37.44315336 11.00181559 -34.18880907 13.80793405 -28 15 C-16.73655929 16.02524365 -8.5112814 14.34192869 0.46875 7.5 C2.26352601 5.97010571 2.26352601 5.97010571 3 3 C1.68 2.34 0.36 1.68 -1 1 C-0.67 0.67 -0.34 0.34 0 0 Z " fill="#1B0B0B" transform="translate(152,148)"/>
<path d="M0 0 C1.47906892 -0.02689216 2.95827483 -0.04634621 4.4375 -0.0625 C5.26121094 -0.07410156 6.08492187 -0.08570313 6.93359375 -0.09765625 C9 0 9 0 10 1 C10.6495428 6.59803334 8.78030871 10.25760526 6.25 15.0625 C5.90195313 15.75666016 5.55390625 16.45082031 5.1953125 17.16601562 C3.1730559 21.10941599 1.14957985 24.83214406 -2 28 C-4.25390625 28.55859375 -4.25390625 28.55859375 -6.5625 28.4375 C-7.32691406 28.41558594 -8.09132813 28.39367187 -8.87890625 28.37109375 C-11 28 -11 28 -14 26 C-13.38155925 22.46605287 -11.95934706 20.34350604 -9.8125 17.5 C-5.83084905 11.98821046 -2.88159108 6.1431722 0 0 Z " fill="#BF5050" transform="translate(105,313)"/>
<path d="M0 0 C0.763125 0.20625 1.52625 0.4125 2.3125 0.625 C-0.76978819 8.93377685 -4.64926971 16.75271961 -8.6875 24.625 C-9.61046875 24.58503906 -10.5334375 24.54507813 -11.484375 24.50390625 C-15.58629542 24.65897885 -17.45262582 26.19884436 -20.6875 28.625 C-21.3475 28.955 -22.0075 29.285 -22.6875 29.625 C-20.69198347 20.8637322 -11.62447027 -1.62201911 0 0 Z " fill="#C45252" transform="translate(131.6875,69.375)"/>
<path d="M0 0 C3.92510962 1.43601571 5.7346125 4.28172499 7.5625 7.9375 C7.602492 9.93710012 7.60596799 11.93797242 7.5625 13.9375 C6.5725 13.2775 5.5825 12.6175 4.5625 11.9375 C1.94334878 12.09451426 1.94334878 12.09451426 -0.4375 12.9375 C-2.02623246 16.11496491 -1.84776221 19.47762202 -1.4375 22.9375 C-0.09919042 25.3970774 -0.09919042 25.3970774 1.5625 26.9375 C-0.0875 27.5975 -1.7375 28.2575 -3.4375 28.9375 C-7.54299385 25.14781337 -9.10928194 23.10130691 -9.67578125 17.640625 C-9.8586414 11.59661575 -9.07385637 6.89948462 -5.4375 1.9375 C-2.4375 -0.0625 -2.4375 -0.0625 0 0 Z " fill="#CB5555" transform="translate(150.4375,111.0625)"/>
<path d="M0 0 C3.6875 0.4375 3.6875 0.4375 6.5 2.625 C10.73989705 8.07629621 11.20589244 12.69839827 10.6875 19.4375 C10.38619247 20.7784335 10.06229518 22.11522262 9.6875 23.4375 C10.409375 23.1075 11.13125 22.7775 11.875 22.4375 C14.70447427 21.43146471 16.71645466 21.26772598 19.6875 21.4375 C17.01105669 23.22179554 15.37957932 23.90415125 12.375 24.75 C9.13180146 25.76809145 6.98043605 26.80205195 4.5 29.125 C1.6875 31.4375 1.6875 31.4375 -1.4375 32.0625 C-4.3125 31.4375 -4.3125 31.4375 -6.625 29.125 C-10.26957371 23.32067891 -9.90124422 17.09423462 -9.3125 10.4375 C-7.6642092 5.31295608 -5.6714279 0.74905651 0 0 Z M-3.875 3.625 C-8.14275049 8.54932748 -8.71472048 12.55545471 -8.5625 18.9296875 C-8.1811351 22.75525418 -7.31139888 25.12897772 -5.3125 28.4375 C-2.76881001 29.94202457 -2.76881001 29.94202457 -0.3125 30.4375 C0.6775 29.4475 1.6675 28.4575 2.6875 27.4375 C2.1925 27.1075 1.6975 26.7775 1.1875 26.4375 C-0.84722907 23.72452791 -0.63208316 21.68413673 -0.61328125 18.375 C-0.3125 16.4375 -0.3125 16.4375 1.6875 13.4375 C6.4375 14.3125 6.4375 14.3125 8.6875 15.4375 C9.19182107 10.1421288 7.97507779 7.57045494 4.6875 3.4375 C0.7851405 0.835927 -0.26790697 0.54577424 -3.875 3.625 Z " fill="#1D0C0C" transform="translate(149.3125,109.5625)"/>
<path d="M0 0 C0.495 1.485 0.495 1.485 1 3 C-20.96238816 15.09666526 -44.90912012 15.27638836 -69.375 15.3125 C-70.35701385 15.31608521 -71.33902771 15.31967041 -72.35079956 15.32336426 C-85.03806442 15.34823891 -97.42507902 14.70694537 -110 13 C-106.23954285 10.48260957 -102.73807907 10.97220478 -98.4375 11.359375 C-88.95291209 12.06080837 -79.50847628 12.24308934 -70 12.25 C-68.73006699 12.25101212 -68.73006699 12.25101212 -67.43447876 12.25204468 C-45.07268779 12.22393118 -19.64874936 12.01891033 0 0 Z " fill="#291111" transform="translate(210,356)"/>
<path d="M0 0 C3.34530523 1.33812209 4.08688976 2.72753419 5.5 6 C5.6875 8.8125 5.6875 8.8125 5.5 11 C3.85 10.67 2.2 10.34 0.5 10 C-1.41862691 11.84188184 -2.48016332 13.19330817 -2.546875 15.90625 C-2.13191103 19.61326146 -1.50677396 22.78916167 0.5 26 C-1.15 26.33 -2.8 26.66 -4.5 27 C-9.0090917 21.31462351 -9.07553868 16.05792176 -8.5 9 C-5.125 0 -5.125 0 0 0 Z " fill="#CF5757" transform="translate(119.5,112)"/>
<path d="M0 0 C0.33 0 0.66 0 1 0 C1.1953125 2.05078125 1.390625 4.1015625 1.5859375 6.15234375 C1.79089844 7.06693359 1.79089844 7.06693359 2 8 C2.66 8.33 3.32 8.66 4 9 C3.62515526 14.99751586 2.45204597 19.75068836 -2 24 C-11.10075652 29.83097505 -26.00081634 37 -37 37 C-37 36.34 -37 35.68 -37 35 C-32.69341388 32.12894259 -29.52087291 30.51632635 -24.5 29.25 C-15.65284515 26.78889901 -6.85399049 23.38377895 -1 16 C-0.28870715 13.22435347 -0.21046943 10.54336604 -0.1875 7.6875 C-0.16236328 6.94693359 -0.13722656 6.20636719 -0.11132812 5.44335938 C-0.05281557 3.62947031 -0.02345651 1.81468097 0 0 Z " fill="#170808" transform="translate(222,361)"/>
<path d="M0 0 C0.33 0.66 0.66 1.32 1 2 C-8.18133129 16.51798011 -8.18133129 16.51798011 -16.28515625 18.58203125 C-18.5 18.875 -18.5 18.875 -22 19 C-22.33 17.35 -22.66 15.7 -23 14 C-18.44793736 9.57438355 -13.83543242 7.51536676 -7.90234375 5.30859375 C-4.81600035 3.91703919 -2.54801352 2.21139522 0 0 Z " fill="#652A2A" transform="translate(154,156)"/>
<path d="M0 0 C4.53087282 0.45308728 6.32147546 1.39367431 9.75 4.375 C13.19994379 8.74554874 15.3264202 12.72726935 15.75 18.375 C15.04875 17.6325 14.3475 16.89 13.625 16.125 C7.2744719 10.05058182 2.33260509 8.375 -6.25 8.375 C-5.23641766 0.60420204 -5.23641766 0.60420204 0 0 Z " fill="#150909" transform="translate(149.25,90.625)"/>
<path d="M0 0 C2.83481891 1.22586764 3.90193385 2.25723248 5.3125 5 C4.8828125 7.13671875 4.8828125 7.13671875 4.3125 9 C3.4771875 8.87818359 3.4771875 8.87818359 2.625 8.75390625 C-1.24350216 8.43370928 -3.74414853 8.38194214 -7.06640625 10.55859375 C-9.02973246 12.30416285 -10.89240915 14.08262775 -12.6875 16 C-13.55366491 13.589802 -13.8538451 12.42372482 -12.90234375 10 C-9.73040731 5.03354295 -6.48025264 0 0 0 Z " fill="#1A0B0B" transform="translate(119.6875,93)"/>
<path d="M0 0 C4.55352244 0.6274638 9.0714432 1.34825974 13.58984375 2.19140625 C14.78544922 2.41376953 15.98105469 2.63613281 17.21289062 2.86523438 C19.05657227 3.21038086 19.05657227 3.21038086 20.9375 3.5625 C22.82178711 3.91344727 22.82178711 3.91344727 24.74414062 4.27148438 C27.82967221 4.84635528 30.91494711 5.42256667 34 6 C34 6.99 34 7.98 34 9 C33 10 33 10 31.15234375 10.09765625 C29.1015625 10.06510417 27.05078125 10.03255208 25 10 C25 9.67 25 9.34 25 9 C23.27192682 8.66104344 21.54248026 8.32908475 19.8125 8 C18.84957031 7.814375 17.88664062 7.62875 16.89453125 7.4375 C14.2065794 7.03122388 11.71228981 6.92066428 9 7 C9 6.34 9 5.68 9 5 C6.03 4.01 3.06 3.02 0 2 C0 1.34 0 0.68 0 0 Z " fill="#BE5050" transform="translate(93,293)"/>
<path d="M0 0 C-0.32433508 5.35152885 -3.49704824 8.28280043 -7 12 C-8.32 11.67 -9.64 11.34 -11 11 C-10.7618484 6.87203885 -10.60339108 4.65367367 -7.75 1.5625 C-4.8188749 -0.10291199 -3.3053906 -0.37775893 0 0 Z " fill="#C65353" transform="translate(141,28)"/>
<path d="M0 0 C0.495 0.99 0.495 0.99 1 2 C-3.84332905 2.96799592 -8.54138016 3.13122086 -13.4609375 3.09765625 C-14.25150543 3.0962413 -15.04207336 3.09482635 -15.8565979 3.09336853 C-18.36277166 3.08780504 -20.86885358 3.07525944 -23.375 3.0625 C-25.08202995 3.05748028 -26.78906132 3.0529182 -28.49609375 3.04882812 C-32.66409748 3.03784759 -36.83203321 3.02060839 -41 3 C-41 2.67 -41 2.34 -41 2 C-34.88275116 0.97189095 -28.81859387 0.7160556 -22.625 0.5 C-17.02028076 0.30295909 -11.46663151 0.10143869 -5.8984375 -0.59375 C-2 -1 -2 -1 0 0 Z " fill="#271010" transform="translate(162,198)"/>
<path d="M0 0 C-5.69265489 3.89935215 -9.42062224 4.48865242 -16.21484375 3.953125 C-17.07058487 3.90307312 -17.92632599 3.85302124 -18.80799866 3.80145264 C-21.51958127 3.63815189 -24.22800102 3.44458494 -26.9375 3.25 C-28.78437938 3.13340612 -30.63138552 3.01880208 -32.47851562 2.90625 C-36.98746968 2.6271672 -41.49383975 2.32093984 -46 2 C-46 1.67 -46 1.34 -46 1 C-44.67778442 0.96241577 -44.67778442 0.96241577 -43.32885742 0.92407227 C-40.00568796 0.82797904 -36.68263771 0.72881599 -33.35961914 0.62768555 C-31.93126918 0.5848206 -30.50288371 0.54312034 -29.07446289 0.50268555 C-21.42659424 0.28540131 -13.83260741 0.01318729 -6.2277832 -0.89868164 C-3.93234194 -1.00307705 -2.18561886 -0.67363034 0 0 Z " fill="#773232" transform="translate(179,370)"/>
<path d="M0 0 C0.33 0 0.66 0 1 0 C1.1953125 2.05078125 1.390625 4.1015625 1.5859375 6.15234375 C1.72257813 6.76207031 1.85921875 7.37179687 2 8 C2.66 8.33 3.32 8.66 4 9 C3.62571398 14.98857631 1.90898236 19.37635604 -2 24 C-4.8125 25.5 -4.8125 25.5 -7 26 C-6.69199952 22.40666111 -6.29376564 21.25337286 -3.5 18.84375 C-0.20406175 15.09462025 -0.22633892 12.51647242 -0.1875 7.6875 C-0.16236328 6.94693359 -0.13722656 6.20636719 -0.11132812 5.44335938 C-0.05281557 3.62947031 -0.02345651 1.81468097 0 0 Z " fill="#2A1010" transform="translate(222,361)"/>
<path d="M0 0 C1.918125 0.4021875 1.918125 0.4021875 3.875 0.8125 C11.87847239 2.4201339 19.94461478 3.68376059 28 5 C28 5.66 28 6.32 28 7 C17.58657652 7.39881196 9.15769877 6.08761043 0 1 C0 0.67 0 0.34 0 0 Z " fill="#BF5050" transform="translate(102,186)"/>
<path d="M0 0 C0.33 0.99 0.66 1.98 1 3 C-5.56342244 6.65875889 -11.54928441 8.93787671 -19 10 C-19 9.34 -19 8.68 -19 8 C-17.87980469 7.59007812 -16.75960937 7.18015625 -15.60546875 6.7578125 C-14.132737 6.21374599 -12.66008489 5.66946389 -11.1875 5.125 C-10.44951172 4.85558594 -9.71152344 4.58617187 -8.95117188 4.30859375 C-8.23896484 4.04433594 -7.52675781 3.78007812 -6.79296875 3.5078125 C-6.1383667 3.26691895 -5.48376465 3.02602539 -4.80932617 2.77783203 C-2.72104063 1.94473832 -2.72104063 1.94473832 0 0 Z " fill="#1F0D0D" transform="translate(210,356)"/>
<path d="M0 0 C0.33 0.99 0.66 1.98 1 3 C-3.71159603 6.73678306 -7.01903338 7.11284843 -13 7 C-11.59654131 4.19308262 -9.95890933 4.03040625 -7.0625 2.9375 C-3.47975239 1.58576094 -3.47975239 1.58576094 0 0 Z " fill="#8A3A3A" transform="translate(136,150)"/>
<path d="M0 0 C3.63 0.33 7.26 0.66 11 1 C11 1.99 11 2.98 11 4 C7.37 4 3.74 4 0 4 C0 2.68 0 1.36 0 0 Z " fill="#200D0D" transform="translate(104,395)"/>
<path d="M0 0 C9.41002278 -0.18451025 9.41002278 -0.18451025 14 1 C14 1.66 14 2.32 14 3 C12.04174127 3.02694851 10.08337774 3.04637218 8.125 3.0625 C7.03445312 3.07410156 5.94390625 3.08570313 4.8203125 3.09765625 C2 3 2 3 0 2 C0 1.34 0 0.68 0 0 Z " fill="#190A0A" transform="translate(115,397)"/>
<path d="M0 0 C5.61126336 0.33007432 8.6460668 1.70800172 13 5 C12.67 5.66 12.34 6.32 12 7 C11.236875 6.67 10.47375 6.34 9.6875 6 C7.00930865 4.82563314 7.00930865 4.82563314 4 5 C3.67 4.34 3.34 3.68 3 3 C0.98330173 1.86649466 0.98330173 1.86649466 -1 1 C-0.67 0.67 -0.34 0.34 0 0 Z " fill="#2A1111" transform="translate(152,148)"/>
<path d="M0 0 C0 0.99 0 1.98 0 3 C-2.31 3.33 -4.62 3.66 -7 4 C-7 2.68 -7 1.36 -7 0 C-4.3333581 -1.33332095 -2.83319697 -0.67102033 0 0 Z " fill="#B34B4B" transform="translate(165,139)"/>
<path d="M0 0 C-0.125 1.8125 -0.125 1.8125 -1 4 C-3.875 5.8125 -3.875 5.8125 -7 7 C-7.99 6.67 -8.98 6.34 -10 6 C-4.4 0 -4.4 0 0 0 Z " fill="#190A0A" transform="translate(215,384)"/>
<path d="M0 0 C0.33 0.99 0.66 1.98 1 3 C-0.53158108 4.15927975 -2.07579793 5.30187547 -3.625 6.4375 C-4.48351562 7.07558594 -5.34203125 7.71367187 -6.2265625 8.37109375 C-9.22437238 10.13177927 -11.56671931 10.64257635 -15 11 C-11.45160517 8.28604505 -7.76244976 5.84326039 -4.0234375 3.40234375 C-1.90268525 2.02161308 -1.90268525 2.02161308 0 0 Z " fill="#261010" transform="translate(173,171)"/>
<path d="M0 0 C-4.1196377 1.29243536 -7.66831683 2.26252625 -12 2 C-12.33 1.34 -12.66 0.68 -13 0 C-11.58800422 -0.39222105 -10.17007236 -0.76311059 -8.75 -1.125 C-7.96109375 -1.33382812 -7.1721875 -1.54265625 -6.359375 -1.7578125 C-3.5796929 -2.04314411 -2.34112451 -1.44977894 0 0 Z " fill="#8E3B3B" transform="translate(135,197)"/>
<path d="M0 0 C-0.99 0.495 -0.99 0.495 -2 1 C-0.68 2.98 0.64 4.96 2 7 C-1.26954202 6.43628586 -2.82575883 5.50037734 -5 3 C-5.99 3.33 -6.98 3.66 -8 4 C-7.67 3.01 -7.34 2.02 -7 1 C-4.53721199 -0.231394 -2.7204945 -0.07159196 0 0 Z " fill="#230F0F" transform="translate(113,153)"/>
<path d="M0 0 C0.66 0.33 1.32 0.66 2 1 C1.01 1 0.02 1 -1 1 C-0.67 0.67 -0.34 0.34 0 0 Z M-3 2 C-1.68 2.66 -0.36 3.32 1 4 C-2.22791555 6.1519437 -3.28400809 6.20086443 -7 6 C-5.68 4.68 -4.36 3.36 -3 2 Z " fill="#702F2F" transform="translate(170,176)"/>
<path d="M0 0 C0.8971875 0.309375 0.8971875 0.309375 1.8125 0.625 C-1.47554981 3.53727269 -3.78635603 5.12201212 -8.1875 5.625 C-8.1875 4.965 -8.1875 4.305 -8.1875 3.625 C-2.1875 -0.375 -2.1875 -0.375 0 0 Z " fill="#391414" transform="translate(193.1875,392.375)"/>
<path d="M0 0 C0.33 0.66 0.66 1.32 1 2 C1.66 2 2.32 2 3 2 C2.75 4.375 2.75 4.375 2 7 C0.02 7.99 0.02 7.99 -2 9 C-1.34 6.03 -0.68 3.06 0 0 Z " fill="#200E0E" transform="translate(197,292)"/>
<path d="M0 0 C2.97 0.495 2.97 0.495 6 1 C5.01 2.485 5.01 2.485 4 4 C2.35 3.67 0.7 3.34 -1 3 C-0.67 2.01 -0.34 1.02 0 0 Z " fill="#361818" transform="translate(104,395)"/>
<path d="M0 0 C2.31 0 4.62 0 7 0 C6.67 0.99 6.34 1.98 6 3 C3.69 3 1.38 3 -1 3 C-0.67 2.01 -0.34 1.02 0 0 Z " fill="#301414" transform="translate(142,57)"/>
</svg>
