<?xml version="1.0" encoding="UTF-8"?>
<svg version="1.1" xmlns="http://www.w3.org/2000/svg" width="232" height="432">
<path d="M0 0 C2.56644038 0.95418937 4.99778022 2.13170261 7.4453125 3.35546875 C9.61063233 3.59702997 11.77760743 3.82384204 13.9453125 4.04296875 C21.04952844 5.01634803 25.66330739 7.26452293 31.4453125 11.35546875 C32.79364846 12.21881004 34.14757685 13.07350025 35.5078125 13.91796875 C36.1471875 14.32273437 36.7865625 14.7275 37.4453125 15.14453125 C39.59336384 16.44510921 41.78964979 17.61644326 44.0078125 18.79296875 C51.37581513 22.87644009 56.6965943 27.71686722 60.4453125 35.35546875 C61.2578125 38.35546875 61.2578125 38.35546875 61.4453125 40.35546875 C62.1053125 40.35546875 62.7653125 40.35546875 63.4453125 40.35546875 C71.11558197 48.72475293 74.37004621 58.86729329 74.8828125 70.04296875 C75.14589531 75.61492774 76.5028733 79.43143838 79.2890625 84.234375 C81.55917764 88.3988092 81.55508412 92.15296017 81.5078125 96.8515625 C81.50007812 98.13353516 81.49234375 99.41550781 81.484375 100.73632812 C81.47197979 102.08854755 81.45895639 103.44076135 81.4453125 104.79296875 C81.3712564 112.28374346 81.3177911 119.65930504 82.0859375 127.1171875 C82.62689704 133.36555793 81.72497181 138.68474739 80.1953125 144.73046875 C79.72554591 146.72371902 79.25679737 148.71720949 78.7890625 150.7109375 C78.55832031 151.66919434 78.32757813 152.62745117 78.08984375 153.61474609 C77.19806636 157.40682678 76.43293062 161.21838978 75.6953125 165.04296875 C74.52716404 171.03991696 74.52716404 171.03991696 73.87890625 173.5390625 C72.93097507 177.51012555 73.04097173 181.24192711 74.4296875 185.06640625 C76.92596567 193.15050708 76.88370012 203.53592472 73.1953125 211.23046875 C71.79746213 213.70690736 70.74132999 215.14304614 68.42578125 216.8046875 C65.98430924 218.71645158 65.23650129 220.46570908 64.0078125 223.29296875 C60.3317918 230.94486683 55.02264099 233.25190066 47.4453125 236.35546875 C48.2496875 237.30421875 49.0540625 238.25296875 49.8828125 239.23046875 C52.70753447 242.5621921 53.76861541 244.74656714 53.75 249.2421875 C53.37916842 251.81423731 52.46121991 253.80662839 51.3828125 256.16796875 C49.11252502 261.53854127 48.78124021 265.74259788 50.4453125 271.35546875 C54.37403284 279.8748916 61.82814314 285.50906281 68.87890625 291.3828125 C75.92686832 297.38487126 81.87645989 303.9423531 83.4453125 313.35546875 C83.80014198 319.36442894 84.04625887 325.09326168 82.1328125 330.85546875 C81.9059375 332.01046875 81.6790625 333.16546875 81.4453125 334.35546875 C83.61120095 337.02197675 83.61120095 337.02197675 86.4453125 339.35546875 C89.33020926 344.76977737 89.93925795 349.21225423 89.8828125 355.29296875 C89.90279297 356.05287109 89.92277344 356.81277344 89.94335938 357.59570312 C89.93791243 363.97407708 88.25043068 369.28281805 83.89404297 374.0546875 C72.5521118 384.755314 56.50723512 388.88129441 41.6953125 392.04296875 C40.7566333 392.24543213 39.8179541 392.44789551 38.85083008 392.65649414 C21.77809558 396.11661833 4.87518058 396.72881096 -12.4921875 396.66796875 C-13.57118317 396.66614594 -14.65017883 396.66432312 -15.76187134 396.66244507 C-47.57650856 396.57201153 -92.98736177 396.33785815 -117.5546875 372.35546875 C-122.72639524 363.79540076 -122.2963932 353.55209995 -119.9921875 344.03125 C-118.7607068 340.917563 -116.99199132 338.69602896 -114.7421875 336.29296875 C-114.0203125 335.32359375 -113.2984375 334.35421875 -112.5546875 333.35546875 C-113.23118092 330.56812791 -113.23118092 330.56812791 -114.5546875 327.35546875 C-115.42277556 316.29876818 -113.24838613 309.10647342 -106.5546875 300.35546875 C-101.72799085 294.74720634 -96.19335581 290.55731804 -90.17578125 286.30078125 C-84.59425807 282.1583095 -78.63928492 277.15989638 -77.0546875 270.140625 C-76.01389351 263.10442399 -77.40597303 257.65289769 -80.5546875 251.35546875 C-80.5997789 246.76516414 -80.12694542 243.24154553 -77.6171875 239.35546875 C-75.5546875 237.35546875 -75.5546875 237.35546875 -73.5546875 236.35546875 C-74.039375 235.37578125 -74.5240625 234.39609375 -75.0234375 233.38671875 C-76.81574087 229.17649668 -77.09413534 225.39394283 -77.0546875 220.85546875 C-77.04824219 220.07010742 -77.04179688 219.28474609 -77.03515625 218.47558594 C-76.40030623 197.80119395 -63.48667506 180.76288022 -49.96704102 166.22485352 C-41.86495097 157.43757393 -33.72212269 148.21335889 -28.5546875 137.35546875 C-27.55565054 135.35498752 -26.55582177 133.35490121 -25.5546875 131.35546875 C-40.35793562 136.36820885 -47.16688273 140.46342151 -55.09765625 154.0859375 C-57.94327458 158.51838857 -61.25102205 161.17870871 -66.3671875 162.66796875 C-75.54667145 164.50037524 -84.17241976 163.14774547 -92.8046875 159.73046875 C-96.20353116 158.48422607 -98.05133081 158.22258281 -101.5546875 158.35546875 C-104.15059192 151.43708161 -105.90600152 145.13980571 -106.33984375 137.75390625 C-106.6075994 134.76477956 -107.58969061 132.18612628 -108.5546875 129.35546875 C-109.0354366 124.06722869 -108.2415863 119.92642326 -105.5546875 115.35546875 C-103.53331693 113.39289151 -101.6467104 111.73503332 -99.4296875 110.04296875 C-88.50417159 101.2601298 -79.0600554 90.87157245 -74.5546875 77.35546875 C-74.05710938 76.906875 -73.55953125 76.45828125 -73.046875 75.99609375 C-71.02779893 73.77616718 -71.01802513 72.05973387 -70.6796875 69.10546875 C-69.37765396 60.94892807 -65.2440891 57.04487035 -59.5546875 51.35546875 C-55.76114591 46.82429408 -55.27219913 43.6555505 -54.984375 37.9921875 C-54.48491044 34.92729133 -53.35914452 33.05285468 -51.7421875 30.41796875 C-50.00835709 27.29510375 -49.42840186 26.00619057 -50.1171875 22.45703125 C-51.19388823 19.55726482 -51.19388823 19.55726482 -52.50390625 16.8984375 C-53.63686939 14.15658247 -53.8263031 12.29199212 -53.5546875 9.35546875 C-52.5546875 8.35546875 -52.5546875 8.35546875 -49.4296875 8.10546875 C-46.04890186 8.32358395 -44.68886707 8.59360793 -41.8046875 9.98046875 C-40.7321875 10.43421875 -39.6596875 10.88796875 -38.5546875 11.35546875 C-35.48149865 9.71263034 -35.48149865 9.71263034 -34.7421875 7.35546875 C-33.5546875 5.35546875 -33.5546875 5.35546875 -30.8671875 4.16796875 C-27.5546875 3.35546875 -27.5546875 3.35546875 -23.9921875 2.91796875 C-20.58560198 2.59783663 -20.58560198 2.59783663 -18.234375 0.84375 C-12.89762835 -2.12024486 -5.80791883 -1.46530062 0 0 Z " fill="#371717" transform="translate(134.5546875,15.64453125)"/>
<path d="M0 0 C3.14547828 1.89653837 5.50899852 4.32090249 8 7 C8.63164063 7.64839844 9.26328125 8.29679687 9.9140625 8.96484375 C15.47624819 14.94123475 18.6594474 21.19815799 21 29 C21 27.02 21 25.04 21 23 C32.050496 21.59593698 42.77765522 26.15416018 51.4375 32.8125 C70.326011 49.32036948 78.22497639 70.7431762 80.17578125 95.20410156 C81.22664276 111.46993656 79.20137721 129.71536553 73.68481445 145.04418945 C71.88270047 150.19097559 71.0712844 155.66555309 70 161 C69.71769531 162.26199219 69.43539062 163.52398437 69.14453125 164.82421875 C66.69403953 176.13015368 65.97443949 187.557513 67.49609375 199.0625 C68.68587012 208.35935723 69.83792488 218.10799044 64 226 C63.41992188 226.81984375 62.83984375 227.6396875 62.2421875 228.484375 C56.14794082 235.3218225 46.54013622 238.29863192 37.72265625 239.69140625 C36.94864975 239.81605759 36.17464325 239.94070892 35.37718201 240.06913757 C27.26421475 241.26871137 19.21113241 241.41990622 11.02319336 241.33618164 C8.56655889 241.31253906 6.11101726 241.31566351 3.65429688 241.32226562 C-4.69345038 241.30830262 -12.95760929 240.95746355 -21.265625 240.125 C-22.03494858 240.0503804 -22.80427216 239.9757608 -23.59690857 239.89888 C-32.7876652 238.87844272 -42.77169566 236.18650501 -49 229 C-53.99532968 220.60091255 -54.34725547 211.65728073 -52.1171875 202.29296875 C-47.17429177 186.40041327 -38.61956908 174.0078034 -27.52734375 161.796875 C-13.35274212 146.3894787 -13.35274212 146.3894787 -3.875 127.9375 C-2.6953125 125.18359375 -2.6953125 125.18359375 -1 123 C3.27166739 121.47771203 7.50332067 121.32080946 12 121 C22.1431461 118.83859901 29.09105234 112.90934767 35.234375 104.734375 C41.95335165 94.32888019 42.42205322 82.03611471 41 70 C38.88508128 61.45610269 33.91804721 54.19990774 29 47 C30.03022974 49.07463695 31.07318997 51.13965842 32.1484375 53.19140625 C33.48337065 55.77199359 34.7530309 58.37578144 36 61 C36.40089844 61.83660156 36.80179687 62.67320313 37.21484375 63.53515625 C41.51766306 73.68735982 41.58949425 84.59824477 37.9375 94.9375 C33.06286877 106.05000678 25.34022293 114.46391083 14 119 C8.598696 120.78625802 3.34972669 121.09294427 -2.3125 121.3125 C-12.69434958 121.91585398 -22.51808292 125.55296365 -30 133 C-31.9053266 135.548949 -33.4638703 138.21715633 -35 141 C-37.96619342 145.8200643 -40.86008577 149.43004289 -46 152 C-47.44848582 152.08342159 -48.90070869 152.10732861 -50.3515625 152.09765625 C-51.20234375 152.09443359 -52.053125 152.09121094 -52.9296875 152.08789062 C-53.81914063 152.07951172 -54.70859375 152.07113281 -55.625 152.0625 C-56.5221875 152.05798828 -57.419375 152.05347656 -58.34375 152.04882812 C-60.56256648 152.03702591 -62.78125018 152.02056155 -65 152 C-64 150 -64 150 -61.99609375 149.24609375 C-61.15175781 148.97925781 -60.30742188 148.71242187 -59.4375 148.4375 C-53.32215472 146.07196529 -49.59010992 142.44139551 -46 137 C-44.97117439 134.59203181 -44.19647476 132.28992579 -43.5703125 129.75 C-43.38210937 129.1725 -43.19390625 128.595 -43 128 C-42.34 127.67 -41.68 127.34 -41 127 C-42.98 127 -44.96 127 -47 127 C-46.01 127.495 -46.01 127.495 -45 128 C-45.77074173 136.0927882 -50.17313168 140.42661845 -56 145.58203125 C-61.30190559 149.34099947 -68.80524662 148.69966123 -75 148 C-79.02479728 145.23788422 -80.45891835 142.52529485 -82 138 C-82.25625399 135.96581886 -82.44195434 133.92171145 -82.5625 131.875 C-82.76108519 128.62468726 -82.96713663 126.09859011 -84 123 C-84.61300277 117.91207702 -84.73103152 114.18792622 -82 109.75 C-79.94581215 107.67279604 -77.68384019 106.0104373 -75.3125 104.3125 C-62.39822369 94.98010787 -50.5732928 79.34387343 -47.75 63.5 C-46.23181736 56.10104091 -42.38055447 52.06959423 -37 47 C-35.97696159 45.9604989 -34.9555918 44.91934632 -33.9375 43.875 C-32.9784375 42.946875 -32.9784375 42.946875 -32 42 C-29.69 43.98 -27.38 45.96 -25 48 C-24.41992188 47.26394531 -23.83984375 46.52789062 -23.2421875 45.76953125 C-19.14098974 40.64641788 -15.27731422 35.92415673 -10 32 C-7.50638429 33.20381448 -5.31856917 34.45428722 -3 36 C-3.5775 35.38125 -4.155 34.7625 -4.75 34.125 C-12.2137627 23.75866291 -11.46465026 13.27748953 -11 1 C-7.43638124 -0.78180938 -3.873471 -0.74489827 0 0 Z " fill="#AD4848" transform="translate(114,23)"/>
<path d="M0 0 C6.21668598 2.18424102 6.21668598 2.18424102 8 5 C8.44209726 9.49465543 8.62672317 11.80577161 6.51171875 15.8359375 C3.86650251 21.3724366 4.16688087 27.0069172 5 33 C7.42071023 38.64832387 11.54315488 42.85409756 16 47 C17.46048108 48.47704609 18.91858635 49.95644314 20.375 51.4375 C23.04059005 54.12519279 25.7055362 56.61011362 28.6875 58.9375 C34.537639 63.80579749 38.51180333 70.91795269 39.23828125 78.48046875 C39.45309699 86.3155901 38.41489766 92.22312318 33.046875 98.16015625 C7.62883843 121.93401913 -37.42903929 121.05497638 -70.07958984 120.16113281 C-79.80087372 119.76157824 -89.40048217 118.54355883 -99 117 C-100.11761719 116.82380127 -100.11761719 116.82380127 -101.2578125 116.64404297 C-117.83407079 113.93779548 -139.36155652 109.1845913 -150 95 C-153.43876679 89.23174603 -153.94818566 83.55602657 -153 77 C-149.6043194 66.76768246 -142.77387004 60.06909079 -134.125 54.125 C-126.40514947 48.81428228 -118.15430144 42.49707897 -115.36328125 33.13671875 C-114.12411472 25.84828767 -114.51345068 20.53727998 -118 14 C-118.56817018 11.02894341 -118.39456835 9.10722576 -118 6 C-115.75 2.9375 -115.75 2.9375 -113 1 C-109.88475673 1.36429194 -107.89759073 2.62474331 -105.3828125 4.421875 C-100.75233442 7.40305357 -96.25075577 8.34732437 -90.875 9.25 C-90.00746094 9.40984375 -89.13992187 9.5696875 -88.24609375 9.734375 C-85.83342257 10.17504554 -83.41869743 10.59383671 -81 11 C-80.08178467 11.17724609 -79.16356934 11.35449219 -78.2175293 11.53710938 C-74.41618423 12.0839908 -70.67180003 12.18019112 -66.83984375 12.203125 C-66.06098816 12.21009399 -65.28213257 12.21706299 -64.47967529 12.22424316 C-61.96556192 12.24161592 -59.45167097 12.24796692 -56.9375 12.25 C-56.08362701 12.25100708 -55.22975403 12.25201416 -54.3500061 12.25305176 C-44.41053724 12.24510289 -34.54627823 12.16305737 -24.6875 10.75 C-23.90947021 10.64075195 -23.13144043 10.53150391 -22.32983398 10.41894531 C-14.48808136 9.08856226 -5.73082049 5.73082049 0 0 Z " fill="#B14A4A" transform="translate(176,254)"/>
<path d="M0 0 C2.69958293 0.67489573 4.51280712 1.33491762 6.1875 3.62109375 C10.49592914 11.2400438 11.03120325 18.37478486 10 27 C7.51500849 34.29430697 1.39465614 38.81674193 -5.125 42.4375 C-45.63527156 61.46957162 -100.66380547 60.6533803 -143.8125 52.375 C-144.84858902 52.17908768 -144.84858902 52.17908768 -145.90560913 51.97921753 C-181.31382368 45.20625717 -181.31382368 45.20625717 -191.71875 32.98046875 C-194.4292846 28.79070947 -194.21708371 24.56400772 -194.25 19.75 C-194.270625 19.01136719 -194.29125 18.27273438 -194.3125 17.51171875 C-194.35487682 11.50480434 -193.40137999 6.47884386 -189.0625 2 C-187 1 -187 1 -185.10327148 1.26196289 C-182.71232581 2.10094476 -181.23889083 3.20282283 -179.28515625 4.80859375 C-175.22758512 7.94513835 -171.16220872 10.10097467 -166.4375 12.0625 C-165.62667969 12.39975098 -164.81585938 12.73700195 -163.98046875 13.08447266 C-157.61073046 15.60703378 -151.18589237 17.40239385 -144.5 18.875 C-143.63689209 19.06586182 -142.77378418 19.25672363 -141.88452148 19.45336914 C-125.16806422 22.83217866 -108.31320481 23.37637887 -91.3125 23.3125 C-90.30319427 23.31067719 -89.29388855 23.30885437 -88.2539978 23.30697632 C-59.99489599 23.2211096 -22.88170976 22.51774253 -1.29296875 1.32421875 C-0.86628906 0.88722656 -0.43960938 0.45023437 0 0 Z " fill="#B04A4A" transform="translate(211,352)"/>
<path d="M0 0 C9.00392908 2.69702945 13.98967899 7.47842297 18.66796875 15.46484375 C19.96267331 17.92895887 21.0176686 20.39752013 22 23 C20.10463724 16.48180123 17.4821006 10.82185199 14 5 C21.71562727 5.42864596 28.41976235 7.54044452 34.0859375 13.015625 C40.40049104 20.63571914 42.2316115 28.31830492 43 38 C43.52268749 31.1760245 42.69539206 26.24069961 39.77734375 20.03125 C39.39255859 19.02578125 39.39255859 19.02578125 39 18 C39.33 17.34 39.66 16.68 40 16 C50.66388887 21.76898906 57.58456426 28.16912852 63 39 C63.0716735 41.55157655 63.09308442 44.07472971 63.0625 46.625 C63.05798828 47.33140625 63.05347656 48.0378125 63.04882812 48.765625 C63.03703875 50.51045275 63.01910324 52.255237 63 54 C63.99 50.7 64.98 47.4 66 44 C71.34915628 48.20290851 73.71529234 55.47368507 75 62 C75.06548492 63.58211573 75.08578381 65.16670081 75.0625 66.75 C75.05347656 67.54921875 75.04445313 68.3484375 75.03515625 69.171875 C75.02355469 69.77515625 75.01195312 70.3784375 75 71 C74.44570312 70.57847656 73.89140625 70.15695313 73.3203125 69.72265625 C72.23363281 68.90087891 72.23363281 68.90087891 71.125 68.0625 C70.04605469 67.24458984 70.04605469 67.24458984 68.9453125 66.41015625 C67.05642921 64.96035376 67.05642921 64.96035376 65 64 C65.845625 64.61875 66.69125 65.2375 67.5625 65.875 C75.17066137 72.27808616 81.24329327 82.00716425 82.19091797 92.01660156 C82.62489198 100.05142339 82.17825599 107.23669564 80 115 C76.95950199 111.35140239 75.03481238 107.2555467 73 103 C74.46803493 107.64877727 76.23912989 112.13026938 78.09765625 116.6328125 C79.48672697 120.27686815 80.12553661 123.42487404 80.09765625 127.328125 C80.09282227 128.52695312 80.09282227 128.52695312 80.08789062 129.75 C80.07951172 130.575 80.07113281 131.4 80.0625 132.25 C80.05798828 133.09046875 80.05347656 133.9309375 80.04882812 134.796875 C80.03707961 136.86461401 80.01914522 138.93231624 80 141 C80.66 141 81.32 141 82 141 C81.9592334 140.32420898 81.9184668 139.64841797 81.87646484 138.95214844 C81.69789059 135.88530682 81.53627015 132.81779817 81.375 129.75 C81.31054688 128.68652344 81.24609375 127.62304688 81.1796875 126.52734375 C81.128125 125.50253906 81.0765625 124.47773438 81.0234375 123.421875 C80.97106934 122.47924805 80.91870117 121.53662109 80.86474609 120.56542969 C81.00788073 117.85052215 81.6089092 116.30740658 83 114 C89.49069218 125.50010607 84.49963913 139.40183882 81.64013672 151.27685547 C80.76922219 154.98172987 80.03442004 158.70072219 79.3125 162.4375 C78.34986023 167.33821155 77.28065326 172.17292232 76 177 C74 176 74 176 73 173 C72.34 173 71.68 173 71 173 C71.3609375 173.94359375 71.721875 174.8871875 72.09375 175.859375 C76.25033202 187.1601286 77.96936707 196.50369504 73.265625 208.0390625 C71.78299396 210.33622541 70.51486822 211.01729939 68 212 C67.54560547 210.83984375 67.54560547 210.83984375 67.08203125 209.65625 C64.53765832 203.33054745 61.80743931 197.65676698 58 192 C58.86625 193.7015625 58.86625 193.7015625 59.75 195.4375 C60.50082722 196.95792511 61.25078103 198.47878175 62 200 C62.3815625 200.74378906 62.763125 201.48757812 63.15625 202.25390625 C65.69781222 207.47318581 66.54412381 211.19395166 66 217 C63.72080435 222.60302263 61.01029884 225.11267633 55.90234375 228.25 C54 229 54 229 51 228 C51.4640625 226.63875 51.4640625 226.63875 51.9375 225.25 C53.47689013 219.95493464 53.65820302 214.47774637 54 209 C54.66 209.33 55.32 209.66 56 210 C55.71125 209.52175781 55.4225 209.04351562 55.125 208.55078125 C45.50901346 189.41897469 54.27804549 162.58506084 60.29956055 143.49731445 C63.90628047 131.58839018 64.39208508 119.04389242 64.375 106.6875 C64.37445618 106.01534454 64.37391235 105.34318909 64.37335205 104.65066528 C64.29128083 82.48454157 58.70339791 63.67085788 45 46 C44.12408203 45.13955078 44.12408203 45.13955078 43.23046875 44.26171875 C42 43 42 43 42 41 C41.41734375 40.72929688 40.8346875 40.45859375 40.234375 40.1796875 C38.01083007 39.00571797 36.21258413 37.69020139 34.25 36.125 C26.08858234 29.95892894 16.62841728 26 6.25 26 C0.55995617 24.24921728 -1.80372271 18.77163188 -5 14 C-8.09168906 10.09807519 -11.41044874 6.45149159 -15 3 C-10.35721338 -1.0800246 -5.918579 -0.72881013 0 0 Z " fill="#893939" transform="translate(131,18)"/>
<path d="M0 0 C9.00392908 2.69702945 13.98967899 7.47842297 18.66796875 15.46484375 C19.96267331 17.92895887 21.0176686 20.39752013 22 23 C20.10463724 16.48180123 17.4821006 10.82185199 14 5 C21.71562727 5.42864596 28.41976235 7.54044452 34.0859375 13.015625 C40.40049104 20.63571914 42.2316115 28.31830492 43 38 C43.52268749 31.1760245 42.69539206 26.24069961 39.77734375 20.03125 C39.39255859 19.02578125 39.39255859 19.02578125 39 18 C39.33 17.34 39.66 16.68 40 16 C50.66388887 21.76898906 57.58456426 28.16912852 63 39 C63.0716735 41.55157655 63.09308442 44.07472971 63.0625 46.625 C63.05798828 47.33140625 63.05347656 48.0378125 63.04882812 48.765625 C63.03703875 50.51045275 63.01910324 52.255237 63 54 C63.99 50.7 64.98 47.4 66 44 C71.34915628 48.20290851 73.71529234 55.47368507 75 62 C75.06548492 63.58211573 75.08578381 65.16670081 75.0625 66.75 C75.05347656 67.54921875 75.04445313 68.3484375 75.03515625 69.171875 C75.02355469 69.77515625 75.01195312 70.3784375 75 71 C74.44570312 70.57847656 73.89140625 70.15695313 73.3203125 69.72265625 C72.23363281 68.90087891 72.23363281 68.90087891 71.125 68.0625 C70.04605469 67.24458984 70.04605469 67.24458984 68.9453125 66.41015625 C67.05642921 64.96035376 67.05642921 64.96035376 65 64 C65.845625 64.61875 66.69125 65.2375 67.5625 65.875 C75.19680502 72.30008885 81.2831404 82.06504262 82.19091797 92.11328125 C82.44660267 97.09541969 82.47307177 102.03274639 82 107 C81.34 107.66 80.68 108.32 80 109 C79.92523438 108.12859375 79.85046875 107.2571875 79.7734375 106.359375 C78.51882282 94.99404203 74.96166822 85.98911779 67.58984375 77.20703125 C66.00076462 75.77875441 66.00076462 75.77875441 63.51953125 75.77734375 C61 75 61 75 59.296875 71.859375 C58.76673903 70.49513374 58.25200391 69.12484196 57.75 67.75 C54.32780978 59.16262266 49.9153855 50.81751278 43.234375 44.26953125 C42 43 42 43 42 41 C41.41734375 40.72929688 40.8346875 40.45859375 40.234375 40.1796875 C38.01083007 39.00571797 36.21258413 37.69020139 34.25 36.125 C26.08858234 29.95892894 16.62841728 26 6.25 26 C0.55995617 24.24921728 -1.80372271 18.77163188 -5 14 C-8.09168906 10.09807519 -11.41044874 6.45149159 -15 3 C-10.35721338 -1.0800246 -5.918579 -0.72881013 0 0 Z " fill="#943E3E" transform="translate(131,18)"/>
<path d="M0 0 C2.56644038 0.95418937 4.99778022 2.13170261 7.4453125 3.35546875 C9.61063233 3.59702997 11.77760743 3.82384204 13.9453125 4.04296875 C21.04952844 5.01634803 25.66330739 7.26452293 31.4453125 11.35546875 C32.79364846 12.21881004 34.14757685 13.07350025 35.5078125 13.91796875 C36.1471875 14.32273437 36.7865625 14.7275 37.4453125 15.14453125 C39.59336384 16.44510921 41.78964979 17.61644326 44.0078125 18.79296875 C51.37581513 22.87644009 56.6965943 27.71686722 60.4453125 35.35546875 C61.2578125 38.35546875 61.2578125 38.35546875 61.4453125 40.35546875 C62.1053125 40.35546875 62.7653125 40.35546875 63.4453125 40.35546875 C71.11558197 48.72475293 74.37004621 58.86729329 74.8828125 70.04296875 C75.14589531 75.61492774 76.5028733 79.43143838 79.2890625 84.234375 C82.24753294 89.66156908 81.66524512 95.65073401 81.6953125 101.66796875 C81.72625 103.1984082 81.72625 103.1984082 81.7578125 104.75976562 C81.78133369 109.30817513 81.76248552 112.62061594 79.94140625 116.83984375 C77.75683387 121.97330366 78.12437928 126.78115022 78.2578125 132.29296875 C78.27134766 133.35837891 78.28488281 134.42378906 78.29882812 135.52148438 C78.33396526 138.13334463 78.38316066 140.74413509 78.4453125 143.35546875 C77.7853125 143.35546875 77.1253125 143.35546875 76.4453125 143.35546875 C76.40664063 141.61523438 76.40664063 141.61523438 76.3671875 139.83984375 C76.01260532 128.89241243 74.67002412 119.69369503 69.6328125 109.79296875 C68.4453125 107.35546875 68.4453125 107.35546875 69.4453125 104.35546875 C71.4253125 107.98546875 73.4053125 111.61546875 75.4453125 115.35546875 C79.10974426 105.95156556 78.76577032 94.8032687 75.3828125 85.35546875 C71.73116656 77.10316154 66.61316321 70.77506319 59.4453125 65.35546875 C63.22441728 65.35546875 63.90637351 66.35250837 66.6328125 68.85546875 C67.34824219 69.50515625 68.06367188 70.15484375 68.80078125 70.82421875 C69.61482422 71.5821875 69.61482422 71.5821875 70.4453125 72.35546875 C71.15744813 63.09770559 68.17407781 55.23674426 63.4453125 47.35546875 C62.1253125 50.98546875 60.8053125 54.61546875 59.4453125 58.35546875 C57.96097268 53.9024493 58.53337895 49.55646891 58.703125 44.8984375 C58.10080764 36.62113687 52.23964686 30.81415569 46.4453125 25.35546875 C43.23122723 23.09668105 39.93820332 21.14931247 36.4453125 19.35546875 C36.7340625 20.03351562 37.0228125 20.7115625 37.3203125 21.41015625 C39.83244253 27.70792668 41.59346269 33.53332056 40.4453125 40.35546875 C39.4553125 41.34546875 39.4553125 41.34546875 38.4453125 42.35546875 C38.38923828 41.32099609 38.38923828 41.32099609 38.33203125 40.265625 C37.64080906 30.38521371 35.84848028 21.46436836 28.4453125 14.35546875 C23.09212336 10.79550963 17.8490149 8.77310152 11.4453125 8.35546875 C11.85523438 9.01933594 12.26515625 9.68320312 12.6875 10.3671875 C13.22632813 11.25019531 13.76515625 12.13320313 14.3203125 13.04296875 C14.85398437 13.91308594 15.38765625 14.78320312 15.9375 15.6796875 C19.62800063 22.22889198 19.62800063 22.22889198 19.0703125 25.66796875 C18.8640625 26.22484375 18.6578125 26.78171875 18.4453125 27.35546875 C17.99800781 26.40285156 17.55070312 25.45023438 17.08984375 24.46875 C16.4797147 23.2015589 15.86900665 21.93464647 15.2578125 20.66796875 C14.96583984 20.04212891 14.67386719 19.41628906 14.37304688 18.77148438 C11.20389396 12.26279398 6.50561226 7.23707108 -0.1171875 4.16796875 C-4.87642411 3.04305828 -9.696833 2.64623725 -14.5546875 3.35546875 C-15.5446875 4.34546875 -16.5346875 5.33546875 -17.5546875 6.35546875 C-14.9146875 8.66546875 -12.2746875 10.97546875 -9.5546875 13.35546875 C-10.5446875 14.01546875 -11.5346875 14.67546875 -12.5546875 15.35546875 C-13.00457031 14.85015625 -13.45445313 14.34484375 -13.91796875 13.82421875 C-16.96477893 10.74687941 -19.15539147 8.57370758 -23.53515625 7.890625 C-26.23931982 7.9151129 -28.86916072 8.04446105 -31.5546875 8.35546875 C-31.40209 22.39443921 -30.97458032 34.12792059 -21.5546875 45.35546875 C-24.43906529 44.06247181 -26.42688171 42.69605512 -28.5546875 40.35546875 C-32.96856623 41.74113086 -35.13672541 43.73684885 -38.1171875 47.23046875 C-40.83721427 50.38890539 -43.56933745 53.44458322 -46.5546875 56.35546875 C-48.8646875 54.37546875 -51.1746875 52.39546875 -53.5546875 50.35546875 C-54.61814075 51.56296322 -55.68039211 52.77151621 -56.7421875 53.98046875 C-57.62970703 54.98980469 -57.62970703 54.98980469 -58.53515625 56.01953125 C-59.20160156 56.79039063 -59.86804688 57.56125 -60.5546875 58.35546875 C-61.41707031 59.27457031 -62.27945313 60.19367188 -63.16796875 61.140625 C-65.92040975 64.45843509 -66.75923296 68.0022467 -67.5546875 72.16796875 C-68.94566019 78.56703128 -70.84128709 83.87668126 -74.5546875 89.35546875 C-74.8846875 88.69546875 -75.2146875 88.03546875 -75.5546875 87.35546875 C-76.2146875 87.35546875 -76.8746875 87.35546875 -77.5546875 87.35546875 C-76.18984818 78.95093189 -76.18984818 78.95093189 -73.5546875 76.48046875 C-71.11859264 73.89211796 -71.11174452 72.51428799 -70.6171875 69.04296875 C-69.38168503 60.9038253 -65.22188042 57.02266167 -59.5546875 51.35546875 C-55.76114591 46.82429408 -55.27219913 43.6555505 -54.984375 37.9921875 C-54.48491044 34.92729133 -53.35914452 33.05285468 -51.7421875 30.41796875 C-50.00835709 27.29510375 -49.42840186 26.00619057 -50.1171875 22.45703125 C-51.19388823 19.55726482 -51.19388823 19.55726482 -52.50390625 16.8984375 C-53.63686939 14.15658247 -53.8263031 12.29199212 -53.5546875 9.35546875 C-52.5546875 8.35546875 -52.5546875 8.35546875 -49.4296875 8.10546875 C-46.04890186 8.32358395 -44.68886707 8.59360793 -41.8046875 9.98046875 C-40.7321875 10.43421875 -39.6596875 10.88796875 -38.5546875 11.35546875 C-35.48149865 9.71263034 -35.48149865 9.71263034 -34.7421875 7.35546875 C-33.5546875 5.35546875 -33.5546875 5.35546875 -30.8671875 4.16796875 C-27.5546875 3.35546875 -27.5546875 3.35546875 -23.9921875 2.91796875 C-20.58560198 2.59783663 -20.58560198 2.59783663 -18.234375 0.84375 C-12.89762835 -2.12024486 -5.80791883 -1.46530062 0 0 Z " fill="#441D1D" transform="translate(134.5546875,15.64453125)"/>
<path d="M0 0 C3.84280285 1.24631444 6.07319896 2.36048692 8 6 C7.46851313 10.50847482 4.89838902 12.4241176 1.546875 15.19921875 C-7.8892896 21.87110814 -18.84512485 24.70543783 -30 27 C-30.77778305 27.16898804 -31.5555661 27.33797607 -32.35691833 27.51208496 C-39.57005817 28.96982071 -46.4945222 29.29200441 -53.83984375 29.265625 C-55.04202042 29.26753845 -56.24419708 29.2694519 -57.48280334 29.27142334 C-60.01661387 29.27277736 -62.55043153 29.26913599 -65.08422852 29.26074219 C-68.89551033 29.25011706 -72.7063116 29.26062072 -76.51757812 29.2734375 C-95.22374691 29.28541035 -113.35607913 28.20806896 -131.75 24.6875 C-132.89033691 24.4723877 -134.03067383 24.25727539 -135.20556641 24.03564453 C-157.11506196 19.75690742 -157.11506196 19.75690742 -166 14 C-164 13 -164 13 -161.87084961 13.68286133 C-160.55612671 14.22076294 -160.55612671 14.22076294 -159.21484375 14.76953125 C-152.77299723 17.21002223 -146.33198904 18.49873033 -139.5625 19.6875 C-138.42490234 19.89955078 -137.28730469 20.11160156 -136.11523438 20.33007812 C-121.3277571 23.0041399 -106.73405056 23.24116904 -91.75 23.25 C-90.72321136 23.25067474 -89.69642273 23.25134949 -88.63851929 23.25204468 C-60.26382744 23.22240547 -22.99140897 22.62543352 -1.29296875 1.32421875 C-0.86628906 0.88722656 -0.43960938 0.45023437 0 0 Z " fill="#984040" transform="translate(211,352)"/>
<path d="M0 0 C9.00392908 2.69702945 13.98967899 7.47842297 18.66796875 15.46484375 C19.96267331 17.92895887 21.0176686 20.39752013 22 23 C20.10463724 16.48180123 17.4821006 10.82185199 14 5 C21.71562727 5.42864596 28.41976235 7.54044452 34.0859375 13.015625 C40.7664814 21.0773784 42.58132505 28.68686297 42 39 C37.70167134 39 37.32248467 38.81463597 34.25 36.25 C26.16268746 29.93178708 16.65670263 26 6.25 26 C0.55995617 24.24921728 -1.80372271 18.77163188 -5 14 C-8.09168906 10.09807519 -11.41044874 6.45149159 -15 3 C-10.35721338 -1.0800246 -5.918579 -0.72881013 0 0 Z " fill="#A24444" transform="translate(131,18)"/>
<path d="M0 0 C0.66 0.33 1.32 0.66 2 1 C4.16531983 1.24156122 6.33229493 1.46837329 8.5 1.6875 C15.60421594 2.66087928 20.21799489 4.90905418 26 9 C27.34833596 9.86334129 28.70226435 10.7180315 30.0625 11.5625 C30.701875 11.96726562 31.34125 12.37203125 32 12.7890625 C34.14805134 14.08964046 36.34433729 15.26097451 38.5625 16.4375 C45.93050263 20.52097134 51.2512818 25.36139847 55 33 C55.8125 36 55.8125 36 56 38 C56.66 38 57.32 38 58 38 C65.67026947 46.36928418 68.92473371 56.51182454 69.4375 67.6875 C69.70058281 73.25945899 71.0575608 77.07596963 73.84375 81.87890625 C76.80222044 87.30610033 76.21993262 93.29526526 76.25 99.3125 C76.270625 100.33279297 76.29125 101.35308594 76.3125 102.40429688 C76.33602119 106.95270638 76.31717302 110.26514719 74.49609375 114.484375 C72.31152137 119.61783491 72.67906678 124.42568147 72.8125 129.9375 C72.82603516 131.00291016 72.83957031 132.06832031 72.85351562 133.16601562 C72.88865276 135.77787588 72.93784816 138.38866634 73 141 C72.34 141 71.68 141 71 141 C70.97421875 139.83984375 70.9484375 138.6796875 70.921875 137.484375 C70.56729282 126.53694368 69.22471162 117.33822628 64.1875 107.4375 C63 105 63 105 64 102 C65.98 105.63 67.96 109.26 70 113 C73.66443176 103.59609681 73.32045782 92.44779995 69.9375 83 C66.28585406 74.74769279 61.16785071 68.41959444 54 63 C57.77910478 63 58.46106101 63.99703962 61.1875 66.5 C61.90292969 67.1496875 62.61835938 67.799375 63.35546875 68.46875 C64.16951172 69.22671875 64.16951172 69.22671875 65 70 C65.71213563 60.74223684 62.72876531 52.88127551 58 45 C56.68 48.63 55.36 52.26 54 56 C52.51566018 51.54698055 53.08806645 47.20100016 53.2578125 42.54296875 C52.65549514 34.26566812 46.79433436 28.45868694 41 23 C37.78591473 20.7412123 34.49289082 18.79384372 31 17 C31.28875 17.67804687 31.5775 18.35609375 31.875 19.0546875 C34.38713003 25.35245793 36.14815019 31.17785181 35 38 C34.34 38.66 33.68 39.32 33 40 C32.94392578 38.96552734 32.94392578 38.96552734 32.88671875 37.91015625 C32.19549656 28.02974496 30.40316778 19.10889961 23 12 C17.64681086 8.44004088 12.4037024 6.41763277 6 6 C6.40992188 6.66386719 6.81984375 7.32773437 7.2421875 8.01171875 C7.78101563 8.89472656 8.31984375 9.77773438 8.875 10.6875 C9.40867188 11.55761719 9.94234375 12.42773438 10.4921875 13.32421875 C14.18268813 19.87342323 14.18268813 19.87342323 13.625 23.3125 C13.41875 23.869375 13.2125 24.42625 13 25 C12.55269531 24.04738281 12.10539062 23.09476563 11.64453125 22.11328125 C11.0344022 20.84609015 10.42369415 19.57917772 9.8125 18.3125 C9.52052734 17.68666016 9.22855469 17.06082031 8.92773438 16.41601562 C5.78744655 9.96660729 1.0899416 4.6467554 -5.66796875 1.92578125 C-9.38845011 0.89207189 -12.52117843 0.80228639 -16.375 0.875 C-18.24285156 0.90207031 -18.24285156 0.90207031 -20.1484375 0.9296875 C-21.08945313 0.95289063 -22.03046875 0.97609375 -23 1 C-23.33 0.01 -23.66 -0.98 -24 -2 C-16.03291969 -4.65569344 -7.46314234 -3.52035016 0 0 Z " fill="#371717" transform="translate(140,18)"/>
<path d="M0 0 C0.33 0 0.66 0 1 0 C1.185625 1.216875 1.37125 2.43375 1.5625 3.6875 C3.04395237 10.41752646 6.6497162 16.05035808 10 22 C12.75617202 27.22524279 15.3346845 32.31017206 17 38 C17.33 38.99 17.66 39.98 18 41 C16.1875 44.1875 16.1875 44.1875 14 47 C13.34 47 12.68 47 12 47 C11.69707031 46.2265625 11.39414063 45.453125 11.08203125 44.65625 C8.53765832 38.33054745 5.80743931 32.65676698 2 27 C2.5775 28.134375 3.155 29.26875 3.75 30.4375 C4.50082722 31.95792511 5.25078103 33.47878175 6 35 C6.3815625 35.74378906 6.763125 36.48757812 7.15625 37.25390625 C9.69781222 42.47318581 10.54412381 46.19395166 10 52 C7.72080435 57.60302263 5.01029884 60.11267633 -0.09765625 63.25 C-2 64 -2 64 -5 63 C-4.5359375 61.63875 -4.5359375 61.63875 -4.0625 60.25 C-2.52310987 54.95493464 -2.34179698 49.47774637 -2 44 C-1.34 44.33 -0.68 44.66 0 45 C-0.433125 44.28263672 -0.433125 44.28263672 -0.875 43.55078125 C-6.8792271 31.60487108 -5.08615514 15.75942516 -1.75390625 3.203125 C-1 1 -1 1 0 0 Z " fill="#893939" transform="translate(187,183)"/>
<path d="M0 0 C0.19916016 1.33804688 0.19916016 1.33804688 0.40234375 2.703125 C0.57894531 3.87359375 0.75554687 5.0440625 0.9375 6.25 C1.11152344 7.41015625 1.28554687 8.5703125 1.46484375 9.765625 C1.8727736 12.23106961 2.33901303 14.59424562 3 17 C1.75160501 18.105981 0.50120766 19.20970201 -0.75 20.3125 C-1.44609375 20.92738281 -2.1421875 21.54226562 -2.859375 22.17578125 C-4.85114506 23.87314734 -6.88898915 25.45477809 -9 27 C-8.88490339 25.58249437 -8.75746342 24.16598831 -8.625 22.75 C-8.55539063 21.96109375 -8.48578125 21.1721875 -8.4140625 20.359375 C-7.98492887 17.914123 -7.21399362 16.15163097 -6 14 C-9.32575612 19.5825192 -10.46450943 23.49686791 -10 30 C-11.98 30.99 -11.98 30.99 -14 32 C-17.45938123 28.84143453 -18.19642362 25.97736719 -18.4375 21.375 C-18.35611256 14.39602718 -14.95530026 9.91246983 -10.11328125 5.140625 C-4.275 0 -4.275 0 0 0 Z " fill="#BE4F4F" transform="translate(101,36)"/>
<path d="M0 0 C0.66 0 1.32 0 2 0 C3 3 3 3 3 6 C4.53353564 7.67845419 4.53353564 7.67845419 6.5 9.1875 C7.47453125 9.98220703 7.47453125 9.98220703 8.46875 10.79296875 C8.9740625 11.19128906 9.479375 11.58960938 10 12 C9.01 12.66 8.02 13.32 7 14 C6.55011719 13.4946875 6.10023437 12.989375 5.63671875 12.46875 C2.58990857 9.39141066 0.39929603 7.21823883 -3.98046875 6.53515625 C-6.68463232 6.55964415 -9.31447322 6.6889923 -12 7 C-11.8474025 21.03897046 -11.41989282 32.77245184 -2 44 C-4.27292941 42.98110061 -5.83024561 42.19097369 -7.5 40.3125 C-7.995 39.879375 -8.49 39.44625 -9 39 C-11.05396726 39.40929986 -11.05396726 39.40929986 -13 40 C-13.66 39.34 -14.32 38.68 -15 38 C-13.68 37.34 -12.36 36.68 -11 36 C-11.2165625 35.443125 -11.433125 34.88625 -11.65625 34.3125 C-13.61352595 28.94811407 -14.31098961 24.70147617 -14 19 C-15.27208622 19.62244599 -16.54261882 20.24806767 -17.8125 20.875 C-18.52019531 21.22304688 -19.22789063 21.57109375 -19.95703125 21.9296875 C-22.21246418 23.0656486 -22.21246418 23.0656486 -25 25 C-27.81532819 19.95859836 -29.5188509 15.77378925 -30 10 C-25.76570244 11.31061591 -21.92592596 12.94356259 -18 15 C-18.66 13.68 -19.32 12.36 -20 11 C-19.071875 10.38125 -19.071875 10.38125 -18.125 9.75 C-15.89094409 8.1849926 -15.89094409 8.1849926 -15.125 5.9375 C-14 4 -14 4 -11.3125 2.8125 C-7.88724 1.97234189 -4.49151409 1.47922742 -1 1 C-0.67 0.67 -0.34 0.34 0 0 Z " fill="#441C1C" transform="translate(115,17)"/>
<path d="M0 0 C6.49069218 11.50010607 1.49963913 25.40183882 -1.35986328 37.27685547 C-2.23077781 40.98172987 -2.96557996 44.70072219 -3.6875 48.4375 C-4.65013977 53.33821155 -5.71934674 58.17292232 -7 63 C-9 62 -9 62 -10 59 C-10.99 59 -11.98 59 -13 59 C-13.70088156 57.25531628 -14.38524009 55.50398839 -15.0625 53.75 C-15.44535156 52.77546875 -15.82820312 51.8009375 -16.22265625 50.796875 C-17 48 -17 48 -16 44 C-14.68 47.63 -13.36 51.26 -12 55 C-10.85156506 51.10491649 -9.70615578 47.20898673 -8.5625 43.3125 C-8.23701172 42.20970703 -7.91152344 41.10691406 -7.57617188 39.97070312 C-7.26357422 38.90400391 -6.95097656 37.83730469 -6.62890625 36.73828125 C-6.34088135 35.75899658 -6.05285645 34.77971191 -5.75610352 33.77075195 C-5.05242507 31.19211241 -4.48849151 28.62695222 -4 26 C-3.01 26.33 -2.02 26.66 -1 27 C-1.0407666 26.32420898 -1.0815332 25.64841797 -1.12353516 24.95214844 C-1.30210941 21.88530682 -1.46372985 18.81779817 -1.625 15.75 C-1.68945312 14.68652344 -1.75390625 13.62304688 -1.8203125 12.52734375 C-1.89765625 10.99013672 -1.89765625 10.99013672 -1.9765625 9.421875 C-2.02893066 8.47924805 -2.08129883 7.53662109 -2.13525391 6.56542969 C-1.99211927 3.85052215 -1.3910908 2.30740658 0 0 Z " fill="#411B1B" transform="translate(214,132)"/>
<path d="M0 0 C0.33 0 0.66 0 1 0 C1.4526465 1.63649117 1.90487287 3.27309927 2.35546875 4.91015625 C2.95655604 6.9890455 2.95655604 6.9890455 3.80078125 8.87109375 C7.21613144 17.17476507 7.64458426 27.62899664 5.015625 36.21484375 C2.90656961 40.64776573 0.92934647 43.09324985 -3 46 C-4.26847685 48.58498512 -4.26847685 48.58498512 -5 51 C-5.99 51 -6.98 51 -8 51 C-7.9071875 50.33097656 -7.814375 49.66195312 -7.71875 48.97265625 C-7.08775664 40.57819107 -9.44645924 34.88998045 -13.2421875 27.61352539 C-14.20563933 25.76471069 -15.10834486 23.884491 -16 22 C-15.67 21.34 -15.34 20.68 -15 20 C-13.50939242 22.53553855 -12.03251938 25.07756126 -10.5625 27.625 C-9.93118164 28.69427734 -9.93118164 28.69427734 -9.28710938 29.78515625 C-6.94499448 33.86980462 -5.41502823 37.21585645 -5 42 C-0.2014621 38.02879622 1.60895183 33.29328518 2.32421875 27.26953125 C2.5951081 20.19838517 1.17608953 14.28075928 -1.125 7.6171875 C-2 5 -2 5 -2 3 C-1.34 3 -0.68 3 0 3 C0 2.01 0 1.02 0 0 Z " fill="#371616" transform="translate(204,188)"/>
<path d="M0 0 C3.38082291 0.85404943 6.18183088 1.92602273 9 4 C10.875 7.3125 10.875 7.3125 12 11 C12.57309966 12.23397133 13.15629402 13.46330979 13.75 14.6875 C15.03426201 18.09079434 15.04724627 18.75212136 14 22 C4.58073615 17.25313778 -0.26717019 11.8332415 -4 2 C-6.3431213 2.25561323 -8.67843403 2.59270772 -11 3 C-11.33 3.66 -11.66 4.32 -12 5 C-12.99 4.67 -13.98 4.34 -15 4 C-11.36320948 -1.54177603 -5.92944428 -0.77618906 0 0 Z " fill="#C05050" transform="translate(131,18)"/>
<path d="M0 0 C6.96050253 0.38669459 11.9394075 2.63438409 18 6 C17.67 6.99 17.34 7.98 17 9 C17.53529917 11.14470373 17.53529917 11.14470373 18.4375 13.375 C19.64035747 16.7265983 20.34883384 19.39538361 20 23 C12.1862598 19.93578816 7.84770479 16.69960459 4.25 8.875 C3.79560547 7.92560547 3.79560547 7.92560547 3.33203125 6.95703125 C2.54490947 5.309323 1.77153385 3.65506456 1 2 C0.67 1.34 0.34 0.68 0 0 Z " fill="#B64C4C" transform="translate(145,23)"/>
<path d="M0 0 C4.14218516 0.2716187 6.38312288 0.93716427 9.8125 3.25 C11.1875 5.9375 11.1875 5.9375 11.8125 8.25 C8.80032888 7.60550393 6.29594164 6.59977818 3.5625 5.1875 C2.85609375 4.82527344 2.1496875 4.46304687 1.421875 4.08984375 C0.89078125 3.81269531 0.3596875 3.53554688 -0.1875 3.25 C0.19664063 4.21421875 0.58078125 5.1784375 0.9765625 6.171875 C1.46434365 7.44761031 1.95127879 8.72366933 2.4375 10 C2.69273438 10.63421875 2.94796875 11.2684375 3.2109375 11.921875 C4.99473505 16.67866848 4.99473505 16.67866848 4.08984375 19.515625 C3.66832031 20.08796875 3.24679688 20.6603125 2.8125 21.25 C-1.45386488 27.45562164 -1.94225984 32.78243722 -2.1875 40.25 C-3.5075 39.59 -4.8275 38.93 -6.1875 38.25 C-6.79131682 31.30610663 -4.68236884 25.1638255 -0.9375 19.2890625 C0.16541019 16.29052541 -0.8370769 14.69985312 -2.0625 11.8125 C-3.62302048 8.09722111 -4.54493351 5.30329601 -4.1875 1.25 C-3.1875 0.25 -3.1875 0.25 0 0 Z " fill="#361414" transform="translate(85.1875,23.75)"/>
<path d="M0 0 C3.2355565 1.34318084 4.59034053 2.43626754 6.10546875 5.58984375 C6.62077148 6.64268555 6.62077148 6.64268555 7.14648438 7.71679688 C7.49001953 8.44962891 7.83355469 9.18246094 8.1875 9.9375 C8.54263672 10.66646484 8.89777344 11.39542969 9.26367188 12.14648438 C11.48920069 16.75379356 13.13793888 20.48221751 13.0625 25.6875 C13.05347656 26.49574219 13.04445313 27.30398437 13.03515625 28.13671875 C13.02355469 28.75160156 13.01195313 29.36648437 13 30 C12.67 30 12.34 30 12 30 C12 28.02 12 26.04 12 24 C8.04 24.495 8.04 24.495 4 25 C1.69255169 21.26736303 1.34980863 17.33188582 0.875 13.0625 C0.78863281 12.35931641 0.70226562 11.65613281 0.61328125 10.93164062 C0.18091848 7.27028292 -0.10100461 3.68666836 0 0 Z " fill="#9C4141" transform="translate(108,27)"/>
<path d="M0 0 C0.79019531 0.33773438 1.58039063 0.67546875 2.39453125 1.0234375 C21.54538018 8.59623033 42.69587773 7.50275619 63 8 C63 8.33 63 8.66 63 9 C65.97 9.495 65.97 9.495 69 10 C69 10.33 69 10.66 69 11 C18.36872848 12.02380857 18.36872848 12.02380857 1 4 C0.28173828 1.89916992 0.28173828 1.89916992 0 0 Z " fill="#4D2020" transform="translate(70,256)"/>
<path d="M0 0 C0.7425 0.2475 1.485 0.495 2.25 0.75 C1.26 1.245 1.26 1.245 0.25 1.75 C0.58 2.74 0.91 3.73 1.25 4.75 C0.92 5.41 0.59 6.07 0.25 6.75 C1.57 7.08 2.89 7.41 4.25 7.75 C4.61300778 14.04213483 4.61300778 14.04213483 3 17.1875 C1.25 18.75 1.25 18.75 -2.75 18.75 C-5.78248936 16.12184256 -7.56516316 14.53367546 -7.984375 10.48828125 C-7.7099386 6.71478075 -7.11441648 4.29662472 -5 1.125 C-2.75 -0.25 -2.75 -0.25 0 0 Z " fill="#240F0F" transform="translate(101.75,86.25)"/>
<path d="M0 0 C5.04779418 4.34082021 5.75392869 11.10292046 6.29296875 17.44921875 C6.633614 32.19429159 2.32929001 43.12423344 -7.4375 54.1875 C-11.24546787 57.80057188 -15.55453399 60.17512294 -20.1875 62.5625 C-20.87706787 62.92174561 -21.56663574 63.28099121 -22.27709961 63.65112305 C-25.38227106 65.15726471 -27.51370073 66.04640503 -30.98828125 65.71484375 C-31.65214844 65.47894531 -32.31601563 65.24304688 -33 65 C-29.46588679 62.87953208 -26.05606165 62.46800711 -22 62 C-22 61.34 -22 60.68 -22 60 C-21.01 60 -20.02 60 -19 60 C-18.67 59.34 -18.34 58.68 -18 58 C-16.66666667 57.33333333 -15.33333333 56.66666667 -14 56 C-13.46375 55.46375 -12.9275 54.9275 -12.375 54.375 C-11.92125 53.92125 -11.4675 53.4675 -11 53 C-10.34 53 -9.68 53 -9 53 C-8.773125 52.484375 -8.54625 51.96875 -8.3125 51.4375 C-7 49 -7 49 -4.625 45.8125 C2.94643901 35.41857189 3.90942842 24.48779946 3 12 C2.27160227 7.89641046 1.28300492 3.96356878 0 0 Z " fill="#843737" transform="translate(158,86)"/>
<path d="M0 0 C1.258125 0.391875 2.51625 0.78375 3.8125 1.1875 C5.87351995 1.7966965 7.9362619 2.40007613 10 3 C11.23234375 3.36351562 12.4646875 3.72703125 13.734375 4.1015625 C29.56693684 8.59613394 45.80156387 11.20046718 62 14 C62 14.33 62 14.66 62 15 C41.08731351 16.15646193 18.30404656 11.3400263 0 1 C0 0.67 0 0.34 0 0 Z " fill="#CF5757" transform="translate(30,372)"/>
<path d="M0 0 C7.55954407 6.41415861 14.01580608 17.36686859 15.29882812 27.31762695 C15.43746006 29.80370938 15.46737539 32.26030448 15.4375 34.75 C15.43065186 35.62599854 15.42380371 36.50199707 15.41674805 37.40454102 C15.21463668 45.6093541 14.18500998 53.99173999 8.375 60.25 C6 62 6 62 4 62 C4.27714844 61.4534375 4.55429688 60.906875 4.83984375 60.34375 C6.12474342 57.7479931 7.35172996 55.13116593 8.5625 52.5 C9.21412109 51.09234375 9.21412109 51.09234375 9.87890625 49.65625 C14.41553677 38.90743901 12.71890367 26.73475917 8.5078125 16.20703125 C6.66577111 12.28911421 4.59839187 8.6135133 2.234375 4.98828125 C1 3 1 3 0 0 Z " fill="#421B1B" transform="translate(141,68)"/>
<path d="M0 0 C4.75 0.75 4.75 0.75 7 3 C7.27324531 7.63606216 6.5288904 11.2146779 3.9375 15.0625 C2.9784375 16.0215625 2.9784375 16.0215625 2 17 C-1.16115776 15.63016497 -1.9927092 15.0109362 -4 12 C-4.47925039 7.6867465 -4.47260063 5.69413218 -2 2.0625 C-1.34 1.381875 -0.68 0.70125 0 0 Z " fill="#8C3A3A" transform="translate(47,136)"/>
<path d="M0 0 C3.97627233 1.60742924 7.12395006 3.02718836 9 7 C9.08404657 11.62256143 8.51371192 13.43736314 5.375 16.875 C1.63729995 19.2283667 -0.57982978 20.16371001 -5 20 C-7.4375 17.5625 -7.4375 17.5625 -9 15 C-8.34 14.34 -7.68 13.68 -7 13 C-6.34 14.65 -5.68 16.3 -5 18 C-1.27385847 16.88145414 -1.27385847 16.88145414 1 14 C1.04022391 11.6670134 1.04320247 9.33293334 1 7 C0.01 6.67 -0.98 6.34 -2 6 C-2 4.35 -2 2.7 -2 1 C-1.34 0.67 -0.68 0.34 0 0 Z " fill="#3F1A1A" transform="translate(104,87)"/>
<path d="M0 0 C6.93 0.99 13.86 1.98 21 3 C20 5 19 7 18 9 C7.70848057 9.41166078 7.70848057 9.41166078 3 7 C1.6875 4.5 1.6875 4.5 1 2 C0.67 1.34 0.34 0.68 0 0 Z " fill="#D55959" transform="translate(74,267)"/>
<path d="M0 0 C-1.98 0.33 -3.96 0.66 -6 1 C-6 1.66 -6 2.32 -6 3 C-5.34 3.33 -4.68 3.66 -4 4 C-7.57350041 4.81898622 -10.85659479 5.11811958 -14.51953125 5.09765625 C-15.54111328 5.09443359 -16.56269531 5.09121094 -17.61523438 5.08789062 C-18.67033203 5.07951172 -19.72542969 5.07113281 -20.8125 5.0625 C-21.88693359 5.05798828 -22.96136719 5.05347656 -24.06835938 5.04882812 C-26.71229683 5.03707729 -29.35611952 5.02064787 -32 5 C-32 4.34 -32 3.68 -32 3 C-34.31 3 -36.62 3 -39 3 C-39 2.67 -39 2.34 -39 2 C-38.15574463 1.970271 -38.15574463 1.970271 -37.29443359 1.93994141 C-26.9911831 1.55989487 -16.88256845 1.10406666 -6.71484375 -0.6953125 C-4.10903043 -0.98776349 -2.45843342 -0.83716438 0 0 Z " fill="#9C4141" transform="translate(157,265)"/>
<path d="M0 0 C4.9088925 1.59207324 6.79077823 3.66078134 9.1328125 8.19140625 C11.75995641 14.46965961 12.7418881 20.2116571 13 27 C12.34 27.33 11.68 27.66 11 28 C8.04315623 23.66329581 6.7505415 20.34877139 6.0625 15.125 C5.25287749 9.2273828 3.2635237 4.93265414 0 0 Z " fill="#B04A4A" transform="translate(176,38)"/>
<path d="M0 0 C0.99 0 1.98 0 3 0 C3.66 2.97 4.32 5.94 5 9 C3.75160501 10.105981 2.50120766 11.20970201 1.25 12.3125 C0.55390625 12.92738281 -0.1421875 13.54226562 -0.859375 14.17578125 C-2.85114506 15.87314734 -4.88898915 17.45477809 -7 19 C-6.66465679 11.95779251 -5.1994225 5.1994225 0 0 Z " fill="#9F4242" transform="translate(99,44)"/>
<path d="M0 0 C0.99 0.33 1.98 0.66 3 1 C1.43771247 11.03153048 -0.88332693 19.10791768 -6 28 C-6.33 27.34 -6.66 26.68 -7 26 C-7.66 26 -8.32 26 -9 26 C-7.63516068 17.59546314 -7.63516068 17.59546314 -5 15.125 C-2.05511547 11.99606019 -1.9918287 8.62527298 -1.39453125 4.4609375 C-1 2 -1 2 0 0 Z " fill="#441C1C" transform="translate(66,77)"/>
<path d="M0 0 C0.58845703 0.1868335 1.17691406 0.37366699 1.78320312 0.56616211 C8.29487538 2.58292221 14.83259218 4.15533071 21.5 5.5625 C22.46808594 5.77068359 23.43617187 5.97886719 24.43359375 6.19335938 C30.61182044 7.51608039 36.80129613 8.77706294 43 10 C42.67 10.66 42.34 11.32 42 12 C32.63563714 11.60320496 23.9909108 9.45457381 15 7 C13.98679687 6.72800781 12.97359375 6.45601563 11.9296875 6.17578125 C7.57178693 4.94646303 3.70244764 3.71512827 0 1 C0 0.67 0 0.34 0 0 Z " fill="#A74646" transform="translate(45,365)"/>
<path d="M0 0 C3.95820859 0.56545837 6.6659053 1.80902348 10 4 C9.67 4.99 9.34 5.98 9 7 C9.53529917 9.14470373 9.53529917 9.14470373 10.4375 11.375 C11.64035747 14.7265983 12.34883384 17.39538361 12 21 C7.11456344 17.09165075 5.34890838 12.61460699 3.11328125 6.83984375 C2.18618561 4.47493664 1.17963572 2.24615569 0 0 Z " fill="#C35252" transform="translate(153,25)"/>
<path d="M0 0 C5.04652662 8.6808565 2.93222085 19.18006046 0.69140625 28.39453125 C0.34916016 29.68423828 0.34916016 29.68423828 0 31 C-0.33 31 -0.66 31 -1 31 C-1.2258868 26.58404696 -1.42767834 22.16731435 -1.625 17.75 C-1.68945312 16.49574219 -1.75390625 15.24148437 -1.8203125 13.94921875 C-1.871875 12.74394531 -1.9234375 11.53867188 -1.9765625 10.296875 C-2.02893066 9.18666992 -2.08129883 8.07646484 -2.13525391 6.93261719 C-2.00051254 4.01111303 -1.52929484 2.45313506 0 0 Z " fill="#803838" transform="translate(214,132)"/>
<path d="M0 0 C-0.33 0.66 -0.66 1.32 -1 2 C-1.66 1.67 -2.32 1.34 -3 1 C-2.94714844 1.73347656 -2.89429687 2.46695313 -2.83984375 3.22265625 C-3.19156253 9.32197458 -8.13257489 14.46888209 -12.5 18.4375 C-17.17449993 22.11177942 -20.96253171 23.24396152 -26.875 22.625 C-28.25189728 22.42959874 -29.62773731 22.22566098 -31 22 C-31 21.67 -31 21.34 -31 21 C-30.154375 20.93683594 -29.30875 20.87367188 -28.4375 20.80859375 C-21.44623243 20.05385464 -16.61174395 19.0963196 -11.59375 14.00390625 C-9.16312875 10.94775747 -6.99796451 7.8111243 -6 4 C-6.34555685 1.8167865 -6.34555685 1.8167865 -7 0 C-4.3333581 -1.33332095 -2.83319697 -0.67102033 0 0 Z " fill="#481E1E" transform="translate(74,150)"/>
<path d="M0 0 C0.66 1.32 1.32 2.64 2 4 C0.8553125 5.299375 0.8553125 5.299375 -0.3125 6.625 C-4.24217659 11.36732926 -6.26809014 15.85195714 -7 22 C-7.66 22 -8.32 22 -9 22 C-10.06855352 10.87347442 -10.06855352 10.87347442 -7.51171875 6.390625 C-5.21131558 3.78064376 -3.1285278 1.5642639 0 0 Z " fill="#D05757" transform="translate(95,38)"/>
<path d="M0 0 C5.19822672 1.36144033 8.09543873 3.46730171 12 7 C9.38485683 9.12038635 6.80362384 11.13091744 4 13 C3.32404685 11.58774074 2.65959941 10.16997095 2 8.75 C1.62875 7.96109375 1.2575 7.1721875 0.875 6.359375 C0 4 0 4 0 0 Z " fill="#C35252" transform="translate(85,27)"/>
<path d="M0 0 C1.134375 0.474375 2.26875 0.94875 3.4375 1.4375 C7.91298952 3.1348234 12.24712186 3.68094105 17 4 C16.34 4.66 15.68 5.32 15 6 C17.31 6.66 19.62 7.32 22 8 C21.01 9.485 21.01 9.485 20 11 C13.72322661 9.87225821 7.44895634 8.44944661 2 5 C0.4375 2.25 0.4375 2.25 0 0 Z " fill="#321515" transform="translate(35,168)"/>
<path d="M0 0 C0.66 0.33 1.32 0.66 2 1 C1.95359375 1.74765625 1.9071875 2.4953125 1.859375 3.265625 C1.44155974 9.38123316 1.44155974 9.38123316 4 14.6875 C4.99 15.3371875 4.99 15.3371875 6 16 C5.34 17.32 4.68 18.64 4 20 C1.62663712 19.05065485 0.26866462 18.42460283 -1.1171875 16.234375 C-2.12838466 13.67506183 -2.26674013 11.74538172 -2.25 9 C-2.25515625 8.154375 -2.2603125 7.30875 -2.265625 6.4375 C-1.98531155 3.86521189 -1.2948187 2.2196892 0 0 Z " fill="#AF4949" transform="translate(85,48)"/>
<path d="M0 0 C1.59671264 2.53595537 2.06525738 3.60845574 1.5625 6.625 C1.376875 7.40875 1.19125 8.1925 1 9 C1.33 9.66 1.66 10.32 2 11 C1.45730469 11.26554687 0.91460937 11.53109375 0.35546875 11.8046875 C-0.35996094 12.15789063 -1.07539062 12.51109375 -1.8125 12.875 C-2.87404297 13.39707031 -2.87404297 13.39707031 -3.95703125 13.9296875 C-6.21246418 15.0656486 -6.21246418 15.0656486 -9 17 C-9 14 -9 14 -7.6875 12.61328125 C-6.125 11.40885417 -4.5625 10.20442708 -3 9 C-3.33 8.34 -3.66 7.68 -4 7 C-3.34 7 -2.68 7 -2 7 C-2.66 5.68 -3.32 4.36 -4 3 C-2.68 2.01 -1.36 1.02 0 0 Z " fill="#3F1A1A" transform="translate(99,25)"/>
<path d="M0 0 C0.33 0 0.66 0 1 0 C0.63131401 9.73331009 -1.45111638 18.65804514 -4 28 C-4.33 28 -4.66 28 -5 28 C-5.79088561 17.57788525 -3.70348657 9.5629314 0 0 Z " fill="#7F3333" transform="translate(211,167)"/>
<path d="M0 0 C3.84162002 1.24593082 6.1145859 2.33391703 8 6 C7.91378072 9.44877113 7.24583917 10.72436215 4.9375 13.3125 C3.9784375 14.1478125 3.9784375 14.1478125 3 15 C2.34 14.67 1.68 14.34 1 14 C1.33 13.34 1.66 12.68 2 12 C2.04022391 9.6670134 2.04320247 7.33293334 2 5 C1.01 4.67 0.02 4.34 -1 4 C-0.67 2.68 -0.34 1.36 0 0 Z " fill="#CA5555" transform="translate(103,89)"/>
<path d="M0 0 C3.24796824 2.70996123 4.82030465 6.26825708 6.625 10 C6.93695313 10.6290625 7.24890625 11.258125 7.5703125 11.90625 C9.75011722 16.34102512 11.1341749 19.74193215 11.0625 24.6875 C11.05347656 25.49574219 11.04445313 26.30398437 11.03515625 27.13671875 C11.02355469 27.75160156 11.01195313 28.36648437 11 29 C10.67 29 10.34 29 10 29 C9.86464844 28.30777344 9.72929688 27.61554687 9.58984375 26.90234375 C8.00996338 19.72192937 5.57684234 13.45755709 2.33764648 6.90209961 C0 2.16609668 0 2.16609668 0 0 Z " fill="#451D1D" transform="translate(110,28)"/>
<path d="M0 0 C0.92941406 0.33773438 1.85882813 0.67546875 2.81640625 1.0234375 C4.67072266 1.69246094 4.67072266 1.69246094 6.5625 2.375 C8.38974609 3.03628906 8.38974609 3.03628906 10.25390625 3.7109375 C13.81766039 4.9372554 17.36847363 5.99981127 21 7 C21 7.33 21 7.66 21 8 C14.30078054 8.37217886 6.60355583 7.9754851 1.20703125 3.51953125 C0 2 0 2 0 0 Z " fill="#491E1E" transform="translate(70,256)"/>
<path d="M0 0 C2.4375 0.8125 2.4375 0.8125 4.4375 2.8125 C4.60774827 7.01195732 4.06614939 10.78151499 1.875 14.375 C1.400625 14.849375 0.92625 15.32375 0.4375 15.8125 C-0.2225 15.4825 -0.8825 15.1525 -1.5625 14.8125 C-1.0675 13.966875 -0.5725 13.12125 -0.0625 12.25 C1.58497708 8.47453168 1.68180947 5.88432452 1.4375 1.8125 C-1.05254504 2.37326801 -1.05254504 2.37326801 -3.5625 3.8125 C-4.93439827 6.84232306 -4.93439827 6.84232306 -5.5625 9.8125 C-5.8925 9.8125 -6.2225 9.8125 -6.5625 9.8125 C-5.9625 3.4525 -5.9625 3.4525 -4.3125 0.8125 C-2.5625 -0.1875 -2.5625 -0.1875 0 0 Z " fill="#401A1A" transform="translate(49.5625,136.1875)"/>
<path d="M0 0 C0.33 0.99 0.66 1.98 1 3 C-5.69613196 3.797837 -12.25766581 4.12910853 -19 4 C-18.67 3.01 -18.34 2.02 -18 1 C-11.96445452 0.30739642 -6.07593562 -0.11251733 0 0 Z " fill="#461D1D" transform="translate(152,372)"/>
<path d="M0 0 C0.99 0.33 1.98 0.66 3 1 C1.63629701 3.99220268 0.05091917 6.29026529 -2.125 8.75 C-2.93324219 9.67039062 -2.93324219 9.67039062 -3.7578125 10.609375 C-4.16773437 11.06828125 -4.57765625 11.5271875 -5 12 C-5.99 11.67 -6.98 11.34 -8 11 C-6.60366572 6.55711819 -4.39598172 4.13475236 -1 1 C-0.67 0.67 -0.34 0.34 0 0 Z " fill="#381919" transform="translate(75,67)"/>
<path d="M0 0 C4.15882353 8.02058824 4.15882353 8.02058824 3.625 11.3125 C3.41875 11.869375 3.2125 12.42625 3 13 C2.01 12.67 1.02 12.34 0 12 C-0.94921875 9.71484375 -0.94921875 9.71484375 -1.6875 6.9375 C-1.93886719 6.01839844 -2.19023438 5.09929688 -2.44921875 4.15234375 C-2.63097656 3.44207031 -2.81273438 2.73179688 -3 2 C-2.01 1.34 -1.02 0.68 0 0 Z " fill="#3E1A1A" transform="translate(84,27)"/>
<path d="M0 0 C0.99 0.33 1.98 0.66 3 1 C2 4 2 4 0 5 C-0.47001033 8.27555608 -0.47001033 8.27555608 -0.625 12.0625 C-0.69976562 13.35285156 -0.77453125 14.64320312 -0.8515625 15.97265625 C-0.90054688 16.97167969 -0.94953125 17.97070312 -1 19 C-1.12375 18.360625 -1.2475 17.72125 -1.375 17.0625 C-1.58125 16.381875 -1.7875 15.70125 -2 15 C-2.66 14.67 -3.32 14.34 -4 14 C-3.7525 12.9790625 -3.7525 12.9790625 -3.5 11.9375 C-2.87998901 8.89012254 -2.87998901 8.89012254 -3.125 5.3125 C-3.08375 4.219375 -3.0425 3.12625 -3 2 C-2.01 1.34 -1.02 0.68 0 0 Z " fill="#361414" transform="translate(103,20)"/>
<path d="M0 0 C0.66 4.62 1.32 9.24 2 14 C1.34 14 0.68 14 0 14 C-0.33 15.32 -0.66 16.64 -1 18 C-1.66 12.39 -2.32 6.78 -3 1 C-1 0 -1 0 0 0 Z " fill="#4A1F1F" transform="translate(194,98)"/>
<path d="M0 0 C-0.33 0.99 -0.66 1.98 -1 3 C-1.60585937 2.79503906 -2.21171875 2.59007812 -2.8359375 2.37890625 C-8.90341521 0.4279788 -14.64303124 -0.6077615 -21 -1 C-21 -1.33 -21 -1.66 -21 -2 C-13.36522275 -3.20549115 -7.34173626 -2.68600107 0 0 Z " fill="#461D1D" transform="translate(156,47)"/>
<path d="M0 0 C0.99 0 1.98 0 3 0 C3.48828125 1.98567708 3.9765625 3.97135417 4.46484375 5.95703125 C4.91010705 7.65683202 5.44433985 9.33301954 6 11 C5.01 11.33 4.02 11.66 3 12 C-1.06153846 5.72307692 -1.06153846 5.72307692 -0.75 2.0625 C-0.5025 1.381875 -0.255 0.70125 0 0 Z " fill="#3E1B1B" transform="translate(55,262)"/>
<path d="M0 0 C4.29 0 8.58 0 13 0 C12.67 1.32 12.34 2.64 12 4 C9.36 4 6.72 4 4 4 C4 3.34 4 2.68 4 2 C2.68 1.34 1.36 0.68 0 0 Z " fill="#4B2121" transform="translate(52,175)"/>
<path d="M0 0 C5.38567718 4.56966549 9.06910459 10.61028393 12 17 C11.67 17.99 11.34 18.98 11 20 C8.25166571 18.62583286 8.20285715 17.23528269 7.1875 14.375 C5.37468472 9.60011295 3.05068093 6.06757457 0 2 C0 1.34 0 0.68 0 0 Z " fill="#723030" transform="translate(141,68)"/>
<path d="M0 0 C0.99 1.485 0.99 1.485 2 3 C2.66 2.34 3.32 1.68 4 1 C7.125 7.625 7.125 7.625 6 11 C5.67 9.68 5.34 8.36 5 7 C4.34 7 3.68 7 3 7 C2.67 10.3 2.34 13.6 2 17 C1.67 17 1.34 17 1 17 C0.67 11.39 0.34 5.78 0 0 Z " fill="#552323" transform="translate(181,220)"/>
<path d="M0 0 C0.66 0.99 1.32 1.98 2 3 C-3.79622721 5.32637691 -7.86090397 6.43680971 -14 5 C-14 4.67 -14 4.34 -14 4 C-13.15695313 3.79503906 -12.31390625 3.59007812 -11.4453125 3.37890625 C-10.34960938 3.10949219 -9.25390625 2.84007812 -8.125 2.5625 C-7.03445312 2.29566406 -5.94390625 2.02882812 -4.8203125 1.75390625 C-2.07515279 1.1213522 -2.07515279 1.1213522 0 0 Z " fill="#411B1B" transform="translate(133,139)"/>
<path d="M0 0 C0 0.66 0 1.32 0 2 C-1.98 2.99 -1.98 2.99 -4 4 C-4 3.34 -4 2.68 -4 2 C-6.3431213 2.25561323 -8.67843403 2.59270772 -11 3 C-11.33 3.66 -11.66 4.32 -12 5 C-12.99 4.67 -13.98 4.34 -15 4 C-11.3460697 -1.5678938 -5.94143168 -0.36877852 0 0 Z " fill="#B64C4C" transform="translate(131,18)"/>
<path d="M0 0 C0.875 2.6875 0.875 2.6875 1 6 C-0.79296632 8.13500912 -2.67836428 9.38906909 -5 11 C-4.91291331 9.54054712 -4.80473093 8.08234132 -4.6875 6.625 C-4.62949219 5.81289063 -4.57148437 5.00078125 -4.51171875 4.1640625 C-3.93288652 1.71617658 -2.91559758 0 0 0 Z " fill="#913C3C" transform="translate(97,52)"/>
<path d="M0 0 C2.62286742 2.35980697 4.18405224 4.81669954 5.8125 7.9375 C6.50279297 9.21947266 6.50279297 9.21947266 7.20703125 10.52734375 C8 13 8 13 7.13671875 15.31640625 C6.76160156 15.87199219 6.38648438 16.42757812 6 17 C5.18167278 15.10667466 4.37057732 13.21022267 3.5625 11.3125 C3.11003906 10.25675781 2.65757812 9.20101562 2.19140625 8.11328125 C1.14552545 5.38027471 0.46479252 2.87957663 0 0 Z " fill="#491E1E" transform="translate(203,120)"/>
<path d="M0 0 C0.77085938 -0.01417969 1.54171875 -0.02835937 2.3359375 -0.04296875 C4.84334888 0.20948393 6.45761902 0.93556533 8.625 2.1875 C6.02320337 3.48839831 4.0280812 3.35590078 1.125 3.375 C0.1453125 3.38917969 -0.834375 3.40335937 -1.84375 3.41796875 C-4.375 3.1875 -4.375 3.1875 -6.375 1.1875 C-4.04904054 0.02452027 -2.58776769 0.02149309 0 0 Z " fill="#B94D4D" transform="translate(104.375,68.8125)"/>
<path d="M0 0 C5.17930997 1.24303439 8.70166639 2.85487785 13 6 C9.74048884 7.62975558 7.45293671 6.89300087 4 6 C1.5625 2.9375 1.5625 2.9375 0 0 Z " fill="#933D3D" transform="translate(130,37)"/>
<path d="M0 0 C3.90156658 3.03455179 6.79575992 5.46906205 9 10 C9 10.66 9 11.32 9 12 C7.171875 11.77734375 7.171875 11.77734375 5 11 C3.515625 9.00390625 3.515625 9.00390625 2.25 6.5625 C1.82203125 5.75941406 1.3940625 4.95632812 0.953125 4.12890625 C0 2 0 2 0 0 Z " fill="#C95454" transform="translate(128,21)"/>
<path d="M0 0 C3.96 0.33 7.92 0.66 12 1 C9 4 9 4 6.30078125 4.07421875 C4.82158203 3.88279297 4.82158203 3.88279297 3.3125 3.6875 C1.82169922 3.50767578 1.82169922 3.50767578 0.30078125 3.32421875 C-0.45847656 3.21722656 -1.21773438 3.11023438 -2 3 C-1.34 2.67 -0.68 2.34 0 2 C0 1.34 0 0.68 0 0 Z " fill="#481E1E" transform="translate(80,371)"/>
<path d="M0 0 C6.93 0.495 6.93 0.495 14 1 C12.68 1.33 11.36 1.66 10 2 C10 2.66 10 3.32 10 4 C6.37 3.67 2.74 3.34 -1 3 C-0.67 2.01 -0.34 1.02 0 0 Z " fill="#4F2121" transform="translate(89,262)"/>
<path d="M0 0 C1.65 0 3.3 0 5 0 C3.68 2.64 2.36 5.28 1 8 C0.67 7.34 0.34 6.68 0 6 C-0.66 6 -1.32 6 -2 6 C-1.34 4.02 -0.68 2.04 0 0 Z " fill="#592727" transform="translate(59,97)"/>
<path d="M0 0 C0.99 0.33 1.98 0.66 3 1 C3 3.64 3 6.28 3 9 C1.68 9 0.36 9 -1 9 C-0.67 6.03 -0.34 3.06 0 0 Z " fill="#481E1E" transform="translate(210,158)"/>
<path d="M0 0 C0.33 0 0.66 0 1 0 C1.33951619 1.56116819 1.67132544 3.12401338 2 4.6875 C2.185625 5.55761719 2.37125 6.42773438 2.5625 7.32421875 C2.98972047 9.93712964 3.07616201 12.35813038 3 15 C2.01 15.495 2.01 15.495 1 16 C-0.06723961 12.53777385 -0.10173486 9.35960734 -0.0625 5.75 C-0.04896484 4.13351563 -0.04896484 4.13351563 -0.03515625 2.484375 C-0.02355469 1.66453125 -0.01195312 0.8446875 0 0 Z " fill="#291111" transform="translate(181,208)"/>
<path d="M0 0 C0.99 0 1.98 0 3 0 C2.8125 1.8125 2.8125 1.8125 2 4 C-0.5625 5.75 -0.5625 5.75 -3 7 C-3.33 6.34 -3.66 5.68 -4 5 C-2.1875 2.5 -2.1875 2.5 0 0 Z " fill="#311414" transform="translate(56,103)"/>
<path d="M0 0 C1.76462683 3.08809695 2 4.23312136 2 8 C-1.16115776 6.63016497 -1.9927092 6.0109362 -4 3 C-2.68 2.01 -1.36 1.02 0 0 Z " fill="#7D3434" transform="translate(99,25)"/>
<path d="M0 0 C3.36720387 1.39332574 4.9859524 2.9789286 7 6 C5.02 6.99 5.02 6.99 3 8 C0 2.25 0 2.25 0 0 Z " fill="#994040" transform="translate(88,30)"/>
<path d="M0 0 C5.1358421 1.87655769 7.84442256 3.32974539 11 8 C7.63486826 7.41980487 6.36548527 6.36548527 4 4 C1.89667109 3.28552357 1.89667109 3.28552357 0 3 C0 2.01 0 1.02 0 0 Z " fill="#B14A4A" transform="translate(86,27)"/>
<path d="M0 0 C0.66 0.33 1.32 0.66 2 1 C2.36923077 6.53846154 2.36923077 6.53846154 0.5 8.875 C-0.2425 9.431875 -0.2425 9.431875 -1 10 C-1.66 9.67 -2.32 9.34 -3 9 C-2.01 6.03 -1.02 3.06 0 0 Z " fill="#C65353" transform="translate(107,94)"/>
<path d="M0 0 C3.25543229 0.34879632 4.01873107 1.02133261 6.25 3.5625 C6.8275 4.366875 7.405 5.17125 8 6 C7.01 6.33 6.02 6.66 5 7 C3.29115995 5.37660195 1.62553283 3.70680947 0 2 C0 1.34 0 0.68 0 0 Z " fill="#4B1F1F" transform="translate(117,24)"/>
<path d="M0 0 C2.26609984 4.53219967 1.92735976 6.17772925 1 11 C-0.32 10.34 -1.64 9.68 -3 9 C-2.01 6.03 -1.02 3.06 0 0 Z " fill="#3E1A1A" transform="translate(182,237)"/>
<path d="M0 0 C0.66 0.66 1.32 1.32 2 2 C1.875 4.4375 1.875 4.4375 1 7 C-1.0625 8.8125 -1.0625 8.8125 -3 10 C-3.66 9.67 -4.32 9.34 -5 9 C-4.360625 8.443125 -3.72125 7.88625 -3.0625 7.3125 C-0.80319013 4.77933439 -0.36850953 3.31658576 0 0 Z " fill="#883939" transform="translate(219,361)"/>
<path d="M0 0 C3 2 3 2 3.75 4.5 C4 7 4 7 3 9 C2.34 9 1.68 9 1 9 C-0.4783226 6.04335481 -0.06032783 3.25770263 0 0 Z " fill="#251010" transform="translate(26,138)"/>
<path d="M0 0 C2.99220268 1.36370299 5.29026529 2.94908083 7.75 5.125 C8.67039063 5.93324219 8.67039063 5.93324219 9.609375 6.7578125 C10.06828125 7.16773437 10.5271875 7.57765625 11 8 C10.34 8.66 9.68 9.32 9 10 C5.73991357 6.83047153 2.77762123 3.60062011 0 0 Z " fill="#4E2020" transform="translate(194,80)"/>
<path d="M0 0 C1.45922693 0.11409593 2.91740598 0.24165544 4.375 0.375 C5.59316406 0.47941406 5.59316406 0.47941406 6.8359375 0.5859375 C9 1 9 1 11 3 C3.43365385 3.37211538 3.43365385 3.37211538 1.23828125 1.48828125 C0.82964844 0.99714844 0.42101562 0.50601562 0 0 Z " fill="#3A1818" transform="translate(80,261)"/>
<path d="M0 0 C0.66 0.33 1.32 0.66 2 1 C-0.31 3.31 -2.62 5.62 -5 8 C-5.33 7.01 -5.66 6.02 -6 5 C-4.02 3.35 -2.04 1.7 0 0 Z " fill="#C75454" transform="translate(37,129)"/>
<path d="M0 0 C0 1.32 0 2.64 0 4 C-1.98 4.66 -3.96 5.32 -6 6 C-5.67 4.35 -5.34 2.7 -5 1 C-2 0 -2 0 0 0 Z " fill="#3E1919" transform="translate(98,147)"/>
<path d="M0 0 C2.29633824 3.44450737 2.54016485 5.93812283 3 10 C2.34 10 1.68 10 1 10 C-0.60725635 6.78548731 -0.05748185 3.56387464 0 0 Z " fill="#3E1A1A" transform="translate(102,41)"/>
<path d="M0 0 C2.475 0.99 2.475 0.99 5 2 C4.01 2.99 3.02 3.98 2 5 C1.01 4.67 0.02 4.34 -1 4 C-0.67 2.68 -0.34 1.36 0 0 Z " fill="#AA4747" transform="translate(103,89)"/>
<path d="M0 0 C2.25 0.25 2.25 0.25 4 1 C2.824375 1.928125 2.824375 1.928125 1.625 2.875 C-0.96837647 4.89858661 -0.96837647 4.89858661 -3 7 C-3.33 6.01 -3.66 5.02 -4 4 C-2.25 1.9375 -2.25 1.9375 0 0 Z " fill="#3B1919" transform="translate(99,86)"/>
<path d="M0 0 C0.66 0.33 1.32 0.66 2 1 C1.67 4.3 1.34 7.6 1 11 C0.67 11 0.34 11 0 11 C-0.19491452 9.54263913 -0.38069358 8.08405407 -0.5625 6.625 C-0.66691406 5.81289063 -0.77132812 5.00078125 -0.87890625 4.1640625 C-1 2 -1 2 0 0 Z " fill="#BC4F4F" transform="translate(85,48)"/>
</svg>
