<?xml version="1.0" encoding="UTF-8"?>
<svg version="1.1" xmlns="http://www.w3.org/2000/svg" width="206" height="332">
<path d="M0 0 C14.17380367 -0.41984016 26.27002979 3.34615963 37.296875 12.40234375 C38.225 13.30984375 39.153125 14.21734375 40.109375 15.15234375 C40.109375 15.81234375 40.109375 16.47234375 40.109375 17.15234375 C40.769375 17.15234375 41.429375 17.15234375 42.109375 17.15234375 C46.80650593 23.20768122 50.28381916 29.709693 52.109375 37.15234375 C52.29371094 37.90257812 52.47804687 38.6528125 52.66796875 39.42578125 C53.23401743 42.92225892 53.30102679 46.36999727 53.296875 49.90234375 C53.29606934 50.61100586 53.29526367 51.31966797 53.29443359 52.04980469 C53.22612371 57.90302452 52.94831769 63.74128535 50.11328125 69 C48.83847874 71.7331369 48.45000334 74.37310937 47.921875 77.33984375 C46.37358408 84.45556421 43.19975188 89.06196687 38.109375 94.15234375 C39.41261719 94.60673828 39.41261719 94.60673828 40.7421875 95.0703125 C53.06994244 99.55187889 53.06994244 99.55187889 57.109375 104.15234375 C58.234375 107.15234375 58.234375 107.15234375 58.109375 110.15234375 C55.39652492 115.1062439 51.2437094 117.26921797 46.109375 119.15234375 C35.26322115 122.15234375 35.26322115 122.15234375 30.109375 122.15234375 C30.05898398 126.29254709 30.02320105 130.43257609 29.99951172 134.57299805 C29.98961014 135.97407143 29.97608531 137.37512508 29.95849609 138.77612305 C29.78253364 153.17916765 31.27178103 166.74457261 35.484375 180.58984375 C35.77570313 181.59982422 36.06703125 182.60980469 36.3671875 183.65039062 C38.10397 189.49679664 40.01209031 194.88270024 43.109375 200.15234375 C46.51601008 201.89804714 46.51601008 201.89804714 50.109375 203.15234375 C52.921875 205.02734375 52.921875 205.02734375 55.109375 208.15234375 C55.3948063 210.22871658 55.61677836 212.31419616 55.796875 214.40234375 C56.61477598 221.30387011 59.11180024 223.94893436 64.4453125 228.17578125 C65.32445312 228.82804688 66.20359375 229.4803125 67.109375 230.15234375 C73.6340722 235.39499518 80.57408916 241.50356685 82.109375 250.15234375 C82.49776179 254.77685626 82.31957046 258.02664556 80.109375 262.15234375 C80.36006915 266.03810303 82.74443294 268.21408241 85.109375 271.15234375 C87.600543 275.63644615 87.64320846 280.14980761 87.109375 285.15234375 C85.00138437 292.46831123 80.87963161 295.80267667 74.65234375 299.68359375 C59.8987074 307.77230067 42.60473347 310.1604254 26.109375 312.15234375 C25.35035889 312.24805664 24.59134277 312.34376953 23.80932617 312.44238281 C2.76529708 314.85185613 -19.05216233 313.57189533 -39.890625 310.15234375 C-41.21271973 309.93553955 -41.21271973 309.93553955 -42.56152344 309.71435547 C-57.75748666 307.10859117 -74.31623817 303.19539542 -84.890625 291.15234375 C-87.6227143 286.59886159 -87.56083809 281.30363274 -86.890625 276.15234375 C-85.80821451 273.22983541 -84.48975159 270.85086987 -82.890625 268.15234375 C-82.230625 268.15234375 -81.570625 268.15234375 -80.890625 268.15234375 C-80.890625 267.49234375 -80.890625 266.83234375 -80.890625 266.15234375 C-80.230625 266.15234375 -79.570625 266.15234375 -78.890625 266.15234375 C-79.385625 265.03859375 -79.880625 263.92484375 -80.390625 262.77734375 C-82.4534837 257.19084603 -83.10987997 251.53534696 -81.05859375 245.84375 C-79.55091302 242.76627435 -77.79242839 240.00504884 -75.890625 237.15234375 C-75.230625 237.15234375 -74.570625 237.15234375 -73.890625 237.15234375 C-73.890625 236.49234375 -73.890625 235.83234375 -73.890625 235.15234375 C-73.230625 235.15234375 -72.570625 235.15234375 -71.890625 235.15234375 C-71.890625 234.49234375 -71.890625 233.83234375 -71.890625 233.15234375 C-69.27585368 231.01745098 -66.59300041 229.03162413 -63.86328125 227.04882812 C-57.56861801 222.49013479 -57.56861801 222.49013479 -54.421875 215.65234375 C-54.4115625 214.82734375 -54.40125 214.00234375 -54.390625 213.15234375 C-54.15997728 209.77786738 -53.93967845 208.24101729 -52.265625 205.21484375 C-49.890625 203.15234375 -49.890625 203.15234375 -46.453125 201.96484375 C-38.11109247 197.72065176 -35.53436313 184.31791652 -32.71655273 175.8894043 C-27.10275771 158.18435845 -26.44785532 139.59858887 -25.890625 121.15234375 C-26.93089844 121.1884375 -27.97117188 121.22453125 -29.04296875 121.26171875 C-36.65803941 121.04524974 -43.95078622 117.87375406 -49.890625 113.15234375 C-51.890625 110.15234375 -51.890625 110.15234375 -51.890625 106.71484375 C-50.890625 103.15234375 -50.890625 103.15234375 -48.203125 100.90234375 C-45.11816495 99.27255353 -42.04087016 97.65246049 -38.890625 96.15234375 C-39.715625 95.53359375 -40.540625 94.91484375 -41.390625 94.27734375 C-42.215625 93.57609375 -43.040625 92.87484375 -43.890625 92.15234375 C-43.890625 91.49234375 -43.890625 90.83234375 -43.890625 90.15234375 C-44.550625 90.15234375 -45.210625 90.15234375 -45.890625 90.15234375 C-50.12120145 83.89713428 -52.1414242 78.74834307 -50.890625 71.15234375 C-49.92300892 69.13647691 -48.92495404 67.13480773 -47.890625 65.15234375 C-47.65316608 61.59045992 -47.66929395 58.45496919 -48.265625 54.9453125 C-50.02805362 43.87505773 -45.98523099 31.44157782 -39.890625 22.15234375 C-31.26700057 10.87271024 -20.3457242 3.62354902 -6.453125 0.33984375 C-4.30207974 0.22663084 -2.15103723 0.11336548 0 0 Z " fill="#2E1313" transform="translate(98.890625,8.84765625)"/>
<path d="M0 0 C0.2475 1.36125 0.2475 1.36125 0.5 2.75 C2.33611889 6.7282576 3.83221504 7.49865103 7.73046875 9.19140625 C19.02786641 13.21646875 31.11858548 13.20787034 42.97460938 13.24023438 C45.10066646 13.24988949 47.22573277 13.28099164 49.3515625 13.3125 C61.55838231 13.40921424 74.60127945 13.03303029 85 6 C86.05175552 2.87311572 86.05175552 2.87311572 86 0 C92.68035376 1.92987997 92.68035376 1.92987997 95 5 C95.40609809 7.72299453 95.43854907 10.36264538 95.49609375 13.11328125 C96.73063576 20.18558005 102.25660789 24.24051951 107.5 28.5625 C120.89025925 39.6777152 120.89025925 39.6777152 122 48.625 C122.35286054 54.25041131 121.53420858 57.52622343 118.0703125 61.96484375 C108.84714889 71.0313876 97.23692301 74.24698636 85 77 C83.2977124 77.38973999 83.2977124 77.38973999 81.56103516 77.78735352 C69.46974863 80.24394942 57.59514267 80.49211605 45.28198242 80.44604492 C41.83516195 80.43755581 38.3900166 80.46636759 34.94335938 80.49804688 C13.9658288 80.56484354 -14.86512326 79.75172664 -31 64 C-35.8737695 58.62635671 -36.47935541 54.23034848 -36.40234375 47.13671875 C-35.3080059 38.6051334 -28.42472466 33.03968438 -22 28 C-19.6700695 26.21094622 -17.34002966 24.42561491 -14.98046875 22.67578125 C-12.11774672 20.253478 -10.21387163 18.38453737 -9.62890625 14.59765625 C-9.60699219 13.76105469 -9.58507812 12.92445313 -9.5625 12.0625 C-9.22945873 7.5397995 -8.45471908 5.1586003 -5 2 C-1.66666667 0 -1.66666667 0 0 0 Z " fill="#BB4E4E" transform="translate(56,212)"/>
<path d="M0 0 C10.93953406 7.4015792 17.94033744 17.38174176 21.01171875 30.203125 C21.32968694 33.2706648 21.39261287 36.30799959 21.38671875 39.390625 C21.3853894 40.64854858 21.3853894 40.64854858 21.3840332 41.93188477 C21.27111907 47.88767524 20.30929212 52.86349407 18.0859375 58.42578125 C16.91772113 61.44615158 16.21171623 64.41846786 15.51171875 67.578125 C12.63597958 79.27888384 3.8724696 85.40476588 -5.97265625 91.49609375 C-16.58343905 97.50245655 -27.01047568 102.59263184 -39.40234375 99.625 C-52.12594931 94.94407488 -69.52188937 85.42038906 -76.21484375 73.33984375 C-77.67058751 69.31816782 -77.74530653 65.38568965 -76.98828125 61.203125 C-76.48167969 60.17703125 -75.97507813 59.1509375 -75.453125 58.09375 C-73.23902501 53.20279389 -73.83843588 48.27042516 -74.05078125 43.015625 C-74.32401405 28.09570701 -70.98537474 17.89010859 -60.76953125 6.79296875 C-44.19722688 -9.32198306 -19.65726369 -11.82005398 0 0 Z " fill="#C15050" transform="translate(127.98828125,18.796875)"/>
<path d="M0 0 C16.5 0 33 0 50 0 C49.875 14.625 49.875 14.625 49.81982422 19.14306641 C49.78393504 27.93591563 50.4562993 36.31702997 52 45 C52.14083008 45.79567383 52.28166016 46.59134766 52.42675781 47.41113281 C54.4376501 57.92014485 57.96366905 67.41883764 62.24316406 77.18505859 C63.30997662 79.74334394 64.16968507 82.35696782 65 85 C54.56452809 94.76221566 36.25366717 94.4266628 22.765625 94.19140625 C-8.68595146 92.59272653 -8.68595146 92.59272653 -18 86 C-19 83 -19 83 -17.8125 80.1640625 C-16.9153125 78.41222656 -16.9153125 78.41222656 -16 76.625 C-12.88917212 70.29809365 -10.41253293 63.87570125 -8.1875 57.1875 C-7.89810547 56.32914551 -7.60871094 55.47079102 -7.31054688 54.58642578 C-3.3575127 42.47386401 -2.32516592 30.51032628 -1.375 17.875 C-0.92125 11.97625 -0.4675 6.0775 0 0 Z " fill="#B64C4C" transform="translate(76,131)"/>
<path d="M0 0 C6.95348837 5.29069767 6.95348837 5.29069767 8 10 C8.52197511 14.86089322 8.55993311 18.73406428 6.5625 23.25 C-6.86525956 37.66027856 -29.3926597 40.59974927 -48 43 C-48.72840088 43.09788818 -49.45680176 43.19577637 -50.20727539 43.29663086 C-58.42336808 44.26909838 -66.67678584 44.19928356 -74.9375 44.1875 C-75.71689941 44.18689575 -76.49629883 44.1862915 -77.29931641 44.18566895 C-102.5537212 44.13248266 -139.54509703 43.45490297 -158.625 24.375 C-160.85626292 18.89826373 -161.34872143 12.59200299 -159.234375 6.9609375 C-157.32339455 3.88213566 -155.21094524 2.47055895 -152 1 C-151.56171875 1.37511719 -151.1234375 1.75023437 -150.671875 2.13671875 C-124.39590253 23.33907865 -79.57080937 21.14228406 -47.91625977 18.12255859 C-30.56549634 16.1006408 -13.62200674 11.281879 0 0 Z " fill="#B24A4A" transform="translate(175,275)"/>
<path d="M0 0 C13.6121499 3.60928217 13.6121499 3.60928217 17.578125 8.68359375 C17.765625 11.05859375 17.765625 11.05859375 16.578125 13.68359375 C3.35961035 24.74398356 -17.5930402 23.91849635 -33.859375 23.93359375 C-34.98897141 23.93510437 -34.98897141 23.93510437 -36.14138794 23.93664551 C-74.80311457 23.90170727 -74.80311457 23.90170727 -86.421875 12.68359375 C-86.421875 9.93359375 -86.421875 9.93359375 -85.421875 6.68359375 C-82.96462949 4.81368985 -80.31678017 3.72085619 -77.421875 2.68359375 C-75.75318359 2.02230469 -75.75318359 2.02230469 -74.05078125 1.34765625 C-70.421875 0.68359375 -70.421875 0.68359375 -67.17578125 2.09765625 C-66.12261719 2.82726562 -65.06945312 3.556875 -63.984375 4.30859375 C-62.85308826 5.06478757 -61.7202783 5.81870772 -60.5859375 6.5703125 C-59.54179688 7.26769531 -58.49765625 7.96507813 -57.421875 8.68359375 C-48.62483919 13.63712968 -40.51956279 15.25626603 -30.609375 12.62109375 C-23.01400699 10.10130342 -15.80350759 6.07856546 -9.2890625 1.46484375 C-5.62748135 -0.80992601 -4.08518993 -0.67391739 0 0 Z " fill="#C15151" transform="translate(136.421875,106.31640625)"/>
<path d="M0 0 C3.02198795 2.46550935 4.76505657 5.29516972 6 9 C6.09504628 11.14413223 6.12987226 13.2912677 6.125 15.4375 C6.12886719 17.13712891 6.12886719 17.13712891 6.1328125 18.87109375 C6.02325193 21.45221183 5.75864877 23.54944405 5 26 C6.32 26.33 7.64 26.66 9 27 C7.93458984 27.41572266 7.93458984 27.41572266 6.84765625 27.83984375 C5.92855469 28.20207031 5.00945312 28.56429687 4.0625 28.9375 C3.14597656 29.29714844 2.22945312 29.65679687 1.28515625 30.02734375 C-0.92418533 30.7996218 -0.92418533 30.7996218 -2 32 C-5.73731056 31.78845412 -8.25329377 31.54489374 -11.3125 29.3125 C-15.12199266 24.09208414 -15.87323221 18.29366139 -15 12 C-12.41979308 4.45887979 -8.76557491 -1.53782016 0 0 Z " fill="#291111" transform="translate(114,46)"/>
<path d="M0 0 C2.88374919 2.30699935 4.67859693 4.57009725 6 8 C6.23046875 11.56640625 6.23046875 11.56640625 6.1875 15.5625 C6.18685547 16.23474609 6.18621094 16.90699219 6.18554688 17.59960938 C6.1581579 20.66413171 5.9757613 23.0727161 5 26 C6.98 26 8.96 26 11 26 C11.33 26.66 11.66 27.32 12 28 C11.32453125 28.02578125 10.6490625 28.0515625 9.953125 28.078125 C4.34525026 28.40745429 4.34525026 28.40745429 -0.6875 30.6875 C-2.25194448 33.00073453 -2.25194448 33.00073453 -2 36.0625 C-0.83162169 39.49461129 -0.10349546 40.22954957 3 42 C6.0477445 42.36157879 6.0477445 42.36157879 9.25 42.1875 C10.32765625 42.16042969 11.4053125 42.13335937 12.515625 42.10546875 C13.74539062 42.05326172 13.74539062 42.05326172 15 42 C13.36425762 43.9691421 12.46896036 44.9104233 9.9140625 45.3984375 C5.15448771 45.34970465 1.77463171 45.21953881 -2 42 C-4.90547505 38.29301459 -5.32494469 35.65754061 -5 31 C-9.455 29.02 -9.455 29.02 -14 27 C-13.01 26.34 -12.02 25.68 -11 25 C-11.33 24.34 -11.66 23.68 -12 23 C-12.17603147 20.58750308 -12.26744968 18.16849105 -12.3125 15.75 C-12.34988281 14.44546875 -12.38726562 13.1409375 -12.42578125 11.796875 C-11.93549926 7.42481905 -10.76868372 5.37230666 -8 2 C-4.75173326 -0.16551116 -3.76905843 -0.55156953 0 0 Z " fill="#2C1212" transform="translate(80,47)"/>
<path d="M0 0 C13.6121499 3.60928217 13.6121499 3.60928217 17.578125 8.68359375 C17.765625 11.05859375 17.765625 11.05859375 16.578125 13.68359375 C0.86033637 26.83521281 -24.45966768 23.89184883 -43.421875 22.68359375 C-43.421875 22.02359375 -43.421875 21.36359375 -43.421875 20.68359375 C-42.71281006 20.66377441 -42.00374512 20.64395508 -41.27319336 20.62353516 C-15.70429757 20.09500564 -15.70429757 20.09500564 8.84765625 13.70703125 C11.578125 12.68359375 11.578125 12.68359375 13.578125 12.68359375 C13.908125 11.03359375 14.238125 9.38359375 14.578125 7.68359375 C7.16681098 8.98451589 -0.19523137 10.29935189 -7.46044922 12.27587891 C-16.00781773 14.5973076 -24.52186479 16.01651184 -33.421875 15.68359375 C-34.081875 15.02359375 -34.741875 14.36359375 -35.421875 13.68359375 C-34.56529297 13.48056641 -34.56529297 13.48056641 -33.69140625 13.2734375 C-24.81785867 10.91750356 -16.77386408 6.76580048 -9.2890625 1.46484375 C-5.62748135 -0.80992601 -4.08518993 -0.67391739 0 0 Z " fill="#953E3E" transform="translate(136.421875,106.31640625)"/>
<path d="M0 0 C0.66 0.33 1.32 0.66 2 1 C7.19140154 16.57420463 2.46725855 37.38989605 -1 53 C-1.17611816 53.79744629 -1.35223633 54.59489258 -1.53369141 55.41650391 C-3.19843142 62.79072053 -5.08741463 70.00979512 -8 77 C-9.45922693 76.88590407 -10.91740598 76.75834456 -12.375 76.625 C-13.18710938 76.55539063 -13.99921875 76.48578125 -14.8359375 76.4140625 C-17 76 -17 76 -19 74 C-18.01 74 -17.02 74 -16 74 C-7.66099062 49.44060044 -2.73078605 25.75953702 0 0 Z " fill="#D95B5B" transform="translate(83,145)"/>
<path d="M0 0 C-0.33 0.66 -0.66 1.32 -1 2 C-2.32 2 -3.64 2 -5 2 C-0.50828561 8.17610729 4.52108636 11.3576594 12 13 C23.94756002 14.07695897 33.60477112 13.63767112 43.0625 5.75 C44.05151293 4.84396548 45.03464992 3.93120586 46 3 C44.68 2.01 43.36 1.02 42 0 C49.42857143 -0.28571429 49.42857143 -0.28571429 53 2 C52.67 2.66 52.34 3.32 52 4 C50.68 3.67 49.36 3.34 48 3 C47.75507812 3.54914063 47.51015625 4.09828125 47.2578125 4.6640625 C42.76677019 13.00456965 35.21592147 21.92802618 26 25 C21.20958756 25.38560595 16.63926842 25.64145286 12.125 23.875 C9.92308747 21.932136 8.06606224 19.83873065 6.2421875 17.5390625 C2.40374542 12.78325691 -2.33655003 8.91084709 -7 5 C-7.99 5.495 -7.99 5.495 -9 6 C-8.6875 4.125 -8.6875 4.125 -8 2 C-4.77208445 -0.1519437 -3.71599191 -0.20086443 0 0 Z " fill="#562424" transform="translate(73,85)"/>
<path d="M0 0 C2.51605133 2.99206104 3.90851969 4.94797649 4.25 8.875 C4.1675 9.57625 4.085 10.2775 4 11 C1.69 10.67 -0.62 10.34 -3 10 C-5.72397763 14.25621505 -5.32736761 18.51200615 -4.6875 23.375 C-4.460625 23.91125 -4.23375 24.4475 -4 25 C-3.01 25.33 -2.02 25.66 -1 26 C-1 26.33 -1 26.66 -1 27 C-7.35903614 27.48915663 -7.35903614 27.48915663 -10.375 25.1875 C-13.80527831 20.56981766 -13.44849331 15.51239048 -13 10 C-12.11607133 5.85179934 -10.90425593 2.78527489 -7.625 -0.0625 C-4.42622205 -1.20492069 -3.12559479 -1.36243876 0 0 Z " fill="#DD5C5C" transform="translate(114,49)"/>
<path d="M0 0 C3.38535469 1.32111403 4.64568459 2.94729397 6.5625 6 C6.5625 7.32 6.5625 8.64 6.5625 10 C5.386875 9.9071875 5.386875 9.9071875 4.1875 9.8125 C2.888125 9.9053125 2.888125 9.9053125 1.5625 10 C-1.13484626 14.04601939 -0.86968852 17.25423764 -0.4375 22 C0.42903414 24.93080674 0.42903414 24.93080674 1.5625 27 C-0.6875 27.3125 -0.6875 27.3125 -3.4375 27 C-8.15616495 22.15026102 -8.72645118 18.00471558 -8.66015625 11.5078125 C-8.28407724 7.27197518 -6.46562692 4.4487243 -4.0625 1.0625 C-2.4375 0 -2.4375 0 0 0 Z " fill="#DF5D5D" transform="translate(77.4375,49)"/>
<path d="M0 0 C0.66 0.33 1.32 0.66 2 1 C1 4 1 4 -0.93359375 5.09765625 C-18.58239446 11.89836417 -36.42976372 11.18327903 -55 10 C-55 9.34 -55 8.68 -55 8 C-53.93640259 7.970271 -53.93640259 7.970271 -52.85131836 7.93994141 C-27.25897923 7.43837629 -27.25897923 7.43837629 -2.73046875 0.92578125 C-1.82941406 0.62027344 -0.92835938 0.31476563 0 0 Z " fill="#A64545" transform="translate(148,119)"/>
<path d="M0 0 C-0.33 0.66 -0.66 1.32 -1 2 C-2.32 2 -3.64 2 -5 2 C-0.51932691 8.1609255 4.52444916 11.38655331 12 13 C13.37027675 13.08815813 14.74407962 13.13058395 16.1171875 13.1328125 C17.27541016 13.13474609 17.27541016 13.13474609 18.45703125 13.13671875 C19.65392578 13.13091797 19.65392578 13.13091797 20.875 13.125 C22.06029297 13.13080078 22.06029297 13.13080078 23.26953125 13.13671875 C27.6251962 13.12947139 31.71160502 12.86871024 36 12 C34 15 34 15 32.15258789 15.67919922 C29.9225274 16.01154576 27.81319085 16.12944851 25.55859375 16.1328125 C24.31239258 16.13474609 24.31239258 16.13474609 23.04101562 16.13671875 C21.75227539 16.13091797 21.75227539 16.13091797 20.4375 16.125 C19.57447266 16.12886719 18.71144531 16.13273437 17.82226562 16.13671875 C16.99275391 16.13542969 16.16324219 16.13414063 15.30859375 16.1328125 C14.55376709 16.13168457 13.79894043 16.13055664 13.02124023 16.12939453 C11 16 11 16 8 15 C10.19789943 19.51790439 12.27938809 21.27516103 17 23 C22.880906 23.66576294 27.58402813 22.06322738 33 20 C29.94719141 23.26334712 28.05509929 24.83457405 23.4765625 25.203125 C13.81029227 25.36202259 13.81029227 25.36202259 10 22 C8.7242218 20.53285507 7.45033675 19.06238112 6.2421875 17.5390625 C2.40374542 12.78325691 -2.33655003 8.91084709 -7 5 C-7.99 5.495 -7.99 5.495 -9 6 C-8.6875 4.125 -8.6875 4.125 -8 2 C-4.77208445 -0.1519437 -3.71599191 -0.20086443 0 0 Z " fill="#291111" transform="translate(73,85)"/>
<path d="M0 0 C2.81000862 2.24800689 4.85521859 4.56565577 6 8 C5.625 10.75 5.625 10.75 5 13 C4.34 12.67 3.68 12.34 3 12 C2.855625 11.05125 2.71125 10.1025 2.5625 9.125 C2.21881755 6.06647727 2.21881755 6.06647727 0.75 4.0625 C-1.01516392 2.77516383 -1.01516392 2.77516383 -3.5 3.0625 C-6.50300776 4.18862791 -7.39127243 5.26516313 -9 8 C-10.83140731 13.49422192 -10.66593984 19.03722995 -8.8125 24.5 C-6.75605654 27.33647374 -5.3418448 28.0967987 -2 29 C-2.1546875 30.8253125 -2.1546875 30.8253125 -2.3125 32.6875 C-2.27158249 35.97843689 -1.98314805 37.02888905 -0.25 40 C4.65938291 43.02115871 9.38007475 42.40334392 15 42 C13.36425762 43.9691421 12.46896036 44.9104233 9.9140625 45.3984375 C5.15448771 45.34970465 1.77463171 45.21953881 -2 42 C-4.90547505 38.29301459 -5.32494469 35.65754061 -5 31 C-9.455 29.02 -9.455 29.02 -14 27 C-13.01 26.34 -12.02 25.68 -11 25 C-11.33 24.34 -11.66 23.68 -12 23 C-12.17603147 20.58750308 -12.26744968 18.16849105 -12.3125 15.75 C-12.34988281 14.44546875 -12.38726562 13.1409375 -12.42578125 11.796875 C-11.93549926 7.42481905 -10.76868372 5.37230666 -8 2 C-4.75173326 -0.16551116 -3.76905843 -0.55156953 0 0 Z " fill="#371717" transform="translate(80,47)"/>
<path d="M0 0 C-0.39208719 5.35852494 -2.3357387 9.14168125 -6 13 C-6.66 13 -7.32 13 -8 13 C-8 12.34 -8 11.68 -8 11 C-11.63 11.66 -15.26 12.32 -19 13 C-15.52326989 6.04653978 -8.20244911 -0.70306707 0 0 Z " fill="#D85A5A" transform="translate(91,18)"/>
<path d="M0 0 C3.52928693 3.29911604 5.74877939 6.10119816 6 11 C5.5625 13.8125 5.5625 13.8125 5 16 C3 14 3 14 2.625 10.625 C2.26516299 7.00104395 2.26516299 7.00104395 0.25 4.5 C-1.90490058 2.75203707 -1.90490058 2.75203707 -4.5625 3.0625 C-8.31106116 4.50425429 -9.5035555 5.92872502 -11.1875 9.5625 C-12.52769176 15.23254206 -13.07908571 20.70107827 -10.5625 26.0625 C-7.70539729 29.60530736 -5.54470999 29.42158236 -1 30 C-1.33 30.66 -1.66 31.32 -2 32 C-8.29299363 31.51592357 -8.29299363 31.51592357 -11.3125 29.3125 C-15.12199266 24.09208414 -15.87323221 18.29366139 -15 12 C-12.41979308 4.45887979 -8.76557491 -1.53782016 0 0 Z " fill="#3D1919" transform="translate(114,46)"/>
<path d="M0 0 C5.27255858 1.40601562 9.15062783 4.27844538 11.94140625 9.02734375 C12.93416039 11.44928017 12.89402203 13.4076035 12.75 16 C7.75 11 7.75 11 6.46875 9.40625 C3.99267475 7.38037025 1.70060925 7.25116043 -1.4375 6.8125 C-3.06751953 6.57466797 -3.06751953 6.57466797 -4.73046875 6.33203125 C-5.97763672 6.16767578 -5.97763672 6.16767578 -7.25 6 C-6.9375 4.125 -6.9375 4.125 -6.25 2 C-3.25 0 -3.25 0 0 0 Z " fill="#311414" transform="translate(113.25,27)"/>
<path d="M0 0 C1.485 0.99 1.485 0.99 3 2 C3.41650391 4.50268555 3.41650391 4.50268555 3.4765625 7.63671875 C3.5075 8.77173828 3.5384375 9.90675781 3.5703125 11.07617188 C3.58835938 12.26791016 3.60640625 13.45964844 3.625 14.6875 C3.78538162 24.88977562 3.78538162 24.88977562 5 35 C4.34 35 3.68 35 3 35 C3 35.66 3 36.32 3 37 C2.34 37 1.68 37 1 37 C-0.08806442 29.12652596 -0.11529603 21.37720997 -0.0625 13.4375 C-0.05798828 12.14263672 -0.05347656 10.84777344 -0.04882812 9.51367188 C-0.03712601 6.342399 -0.02073113 3.17122454 0 0 Z " fill="#3C1919" transform="translate(125,134)"/>
<path d="M0 0 C0.495 1.98 0.495 1.98 1 4 C-6.54813652 4.87514626 -14.03288723 5.10887373 -21.625 5.125 C-22.92957153 5.13176758 -22.92957153 5.13176758 -24.26049805 5.13867188 C-30.2267826 5.12517985 -36.07553914 4.69671533 -42 4 C-42 3.67 -42 3.34 -42 3 C-41.08299316 2.94465088 -40.16598633 2.88930176 -39.22119141 2.83227539 C-35.77317659 2.6232191 -32.32527847 2.41239974 -28.87744141 2.20043945 C-27.39375963 2.10957882 -25.91003637 2.0193926 -24.42626953 1.92993164 C-16.26591484 1.43744901 -8.12892638 0.88985289 0 0 Z " fill="#A34444" transform="translate(135,292)"/>
<path d="M0 0 C-2.81188415 2.81188415 -5.76879905 2.72466796 -9.5625 3.125 C-10.3344873 3.20991699 -11.10647461 3.29483398 -11.90185547 3.38232422 C-22.89870941 4.44958382 -33.96611987 4.17428972 -45 4 C-45 3.34 -45 2.68 -45 2 C-40.03802528 1.71188287 -35.07587006 1.42718159 -30.11352539 1.14550781 C-28.42890258 1.04941869 -26.74433074 0.95243109 -25.05981445 0.85449219 C-22.62464364 0.7130719 -20.18930172 0.57499093 -17.75390625 0.4375 C-16.64239952 0.37187866 -16.64239952 0.37187866 -15.50843811 0.30493164 C-10.33177864 0.01706795 -5.18474753 -0.03586509 0 0 Z " fill="#271010" transform="translate(133,291)"/>
<path d="M0 0 C0.33 1.65 0.66 3.3 1 5 C0.12988281 5.14695312 0.12988281 5.14695312 -0.7578125 5.296875 C-7.00553442 6.49280857 -11.66807002 8.20168402 -15.875 13.25 C-16.24625 13.8275 -16.6175 14.405 -17 15 C-16.84238796 8.69551854 -13.32392365 5.18412011 -9 1 C-6.04335481 -0.4783226 -3.25770263 -0.06032783 0 0 Z " fill="#2E1313" transform="translate(83,29)"/>
<path d="M0 0 C0 0.99 0 1.98 0 3 C-6.24674816 6.39722442 -12.39157067 8.48327988 -19.25 10.3125 C-20.2296875 10.58900391 -21.209375 10.86550781 -22.21875 11.15039062 C-23.16234375 11.40626953 -24.1059375 11.66214844 -25.078125 11.92578125 C-25.92793945 12.15692627 -26.77775391 12.38807129 -27.65332031 12.6262207 C-30.17240471 13.02746063 -31.62816244 12.90329923 -34 12 C-34.66 11.34 -35.32 10.68 -36 10 C-34.83984375 9.82984375 -33.6796875 9.6596875 -32.484375 9.484375 C-21.12028842 7.74880451 -10.16614647 5.64785915 0 0 Z " fill="#2A1111" transform="translate(165,280)"/>
<path d="M0 0 C7.42857143 -0.28571429 7.42857143 -0.28571429 11 2 C10.67 2.66 10.34 3.32 10 4 C8.68 3.67 7.36 3.34 6 3 C5.76152344 3.54398437 5.52304688 4.08796875 5.27734375 4.6484375 C3.6736215 7.60085583 1.69349086 10.02862034 -0.4375 12.625 C-1.21996094 13.58664063 -2.00242187 14.54828125 -2.80859375 15.5390625 C-5 18 -5 18 -8 20 C-7.33333333 18.33333333 -6.66666667 16.66666667 -6 15 C-5.79375 14.21625 -5.5875 13.4325 -5.375 12.625 C-3.20498916 8.48225203 0.39957726 5.90545742 4 3 C2.68 2.01 1.36 1.02 0 0 Z " fill="#2E1313" transform="translate(115,85)"/>
<path d="M0 0 C0.66 0 1.32 0 2 0 C2.33 6.93 2.66 13.86 3 21 C2.01 21 1.02 21 0 21 C-2.98589894 5.97179788 -2.98589894 5.97179788 0 0 Z " fill="#4B2020" transform="translate(52,52)"/>
<path d="M0 0 C10.06759374 2.42806673 20.03181267 5.19783178 30 8 C29.67 8.66 29.34 9.32 29 10 C7.33160622 5.56246402 7.33160622 5.56246402 1 2 C0.67 1.34 0.34 0.68 0 0 Z " fill="#D25858" transform="translate(29,293)"/>
<path d="M0 0 C11.22 0 22.44 0 34 0 C34 0.33 34 0.66 34 1 C27.07 1 20.14 1 13 1 C13 1.66 13 2.32 13 3 C8.71 2.67 4.42 2.34 0 2 C0 1.34 0 0.68 0 0 Z " fill="#491E1E" transform="translate(75,292)"/>
<path d="M0 0 C3.77545388 1.09068668 6.47043472 1.9083091 9 5 C8.67 5.99 8.34 6.98 8 8 C7.67 7.34 7.34 6.68 7 6 C2.545 7.485 2.545 7.485 -2 9 C-1.505 7.88625 -1.505 7.88625 -1 6.75 C0.22782871 3.86116688 0.22782871 3.86116688 0 0 Z " fill="#953E3E" transform="translate(142,212)"/>
<path d="M0 0 C1.89575251 -0.02721176 3.79161979 -0.04649136 5.6875 -0.0625 C6.74324219 -0.07410156 7.79898438 -0.08570313 8.88671875 -0.09765625 C11.72410262 -0.00865425 14.2438919 0.35060162 17 1 C17 1.99 17 2.98 17 4 C11.39 3.67 5.78 3.34 0 3 C0 2.01 0 1.02 0 0 Z " fill="#341616" transform="translate(97,9)"/>
<path d="M0 0 C0.99 0.33 1.98 0.66 3 1 C1.7508258 4.45925163 0.32472205 7.14693203 -2 10 C-2.33 9.34 -2.66 8.68 -3 8 C-6.31544299 6.89485234 -9.20410111 6.67892369 -12.6875 6.4375 C-14.45673828 6.31181641 -14.45673828 6.31181641 -16.26171875 6.18359375 C-17.16535156 6.12300781 -18.06898437 6.06242187 -19 6 C-19 5.67 -19 5.34 -19 5 C-17.57107422 4.92652344 -17.57107422 4.92652344 -16.11328125 4.8515625 C-14.85902344 4.77679688 -13.60476562 4.70203125 -12.3125 4.625 C-10.45044922 4.52058594 -10.45044922 4.52058594 -8.55078125 4.4140625 C-5.30682228 4.03577906 -2.93432815 3.38020024 0 2 C0 1.34 0 0.68 0 0 Z " fill="#451D1D" transform="translate(108,96)"/>
<path d="M0 0 C2.24606427 1.77444972 2.95081002 2.58352485 3.29296875 5.48046875 C3.25816406 6.37378906 3.22335938 7.26710937 3.1875 8.1875 C3.16042969 9.08855469 3.13335937 9.98960937 3.10546875 10.91796875 C3.07066406 11.60503906 3.03585938 12.29210937 3 13 C2.01 13.33 1.02 13.66 0 14 C-0.19393875 11.85473901 -0.37998676 9.70876323 -0.5625 7.5625 C-0.71912109 5.77005859 -0.71912109 5.77005859 -0.87890625 3.94140625 C-0.91886719 2.97074219 -0.95882812 2.00007812 -1 1 C-0.67 0.67 -0.34 0.34 0 0 Z " fill="#341616" transform="translate(151,214)"/>
<path d="M0 0 C-0.33 1.32 -0.66 2.64 -1 4 C-3.12472576 4.05386629 -5.24983652 4.09273071 -7.375 4.125 C-9.15003906 4.15980469 -9.15003906 4.15980469 -10.9609375 4.1953125 C-14 4 -14 4 -16 2 C-13.06984708 0.53492354 -10.32231769 0.9786411 -7.09375 1.0625 C-4.38294001 0.9815803 -2.83328376 0 0 0 Z " fill="#AE4949" transform="translate(97,86)"/>
<path d="M0 0 C0.33 0 0.66 0 1 0 C1.03738281 0.72445312 1.07476562 1.44890625 1.11328125 2.1953125 C1.55709714 8.7220168 2.14871785 13.83190872 6.6875 18.875 C7.120625 19.24625 7.55375 19.6175 8 20 C4.44219804 19.39009109 1.3171411 18.4216319 -2 17 C-1.01 16.34 -0.02 15.68 1 15 C0.67 14.34 0.34 13.68 0 13 C-0.07092842 10.7927077 -0.08415025 8.58332548 -0.0625 6.375 C-0.05347656 5.18648437 -0.04445313 3.99796875 -0.03515625 2.7734375 C-0.02355469 1.85820313 -0.01195313 0.94296875 0 0 Z " fill="#2E1313" transform="translate(68,57)"/>
<path d="M0 0 C2 1 2 1 3 3 C-6.41002278 6.62870159 -6.41002278 6.62870159 -11 5 C-7.41161963 3.13404221 -3.77010767 1.46615298 0 0 Z " fill="#AA4747" transform="translate(108,113)"/>
<path d="M0 0 C-2.90135949 2.90135949 -6.06829757 2.85773445 -10 3 C-13.35346399 2.79993539 -16.67053276 2.44347412 -20 2 C-20 1.67 -20 1.34 -20 1 C-19.02417969 0.93941406 -18.04835938 0.87882812 -17.04296875 0.81640625 C-15.77066406 0.73261719 -14.49835938 0.64882812 -13.1875 0.5625 C-11.92292969 0.48128906 -10.65835938 0.40007812 -9.35546875 0.31640625 C-1.323049 -0.44101633 -1.323049 -0.44101633 0 0 Z " fill="#361616" transform="translate(109,98)"/>
<path d="M0 0 C0.33 0 0.66 0 1 0 C1 2.31 1 4.62 1 7 C1.66 7.33 2.32 7.66 3 8 C2.1875 9.9375 2.1875 9.9375 1 12 C0.01 12.33 -0.98 12.66 -2 13 C-1.34 8.71 -0.68 4.42 0 0 Z " fill="#220D0D" transform="translate(178,259)"/>
<path d="M0 0 C2.83374881 3.20336822 3.5205537 5.78087253 4 10 C3.01 10 2.02 10 1 10 C0.814375 8.6078125 0.814375 8.6078125 0.625 7.1875 C0.18466918 3.86074765 0.18466918 3.86074765 -2 1 C-1.34 0.67 -0.68 0.34 0 0 Z " fill="#481E1E" transform="translate(82,49)"/>
<path d="M0 0 C-3.08888522 2.05925681 -3.70935927 2.2390374 -7.1875 2.125 C-9.0746875 2.063125 -9.0746875 2.063125 -11 2 C-10.67 1.34 -10.34 0.68 -10 0 C-6.35526801 -0.89093449 -3.57257469 -1.23666047 0 0 Z " fill="#963F3F" transform="translate(129,294)"/>
<path d="M0 0 C0.66 0.33 1.32 0.66 2 1 C1.25 3.9375 1.25 3.9375 0 7 C-2.125 7.875 -2.125 7.875 -4 8 C-3.40138258 5.64828869 -2.73075648 3.3140622 -2 1 C-1.34 0.67 -0.68 0.34 0 0 Z " fill="#361717" transform="translate(145,85)"/>
<path d="M0 0 C0.66 0 1.32 0 2 0 C3.47075246 4.41225737 4.36884358 7.48281619 3 12 C0.50494038 9.50494038 0.64051624 8.32671112 0.375 4.875 C0.30023438 3.96492188 0.22546875 3.05484375 0.1484375 2.1171875 C0.09945312 1.41851562 0.05046875 0.71984375 0 0 Z " fill="#471E1E" transform="translate(116,50)"/>
<path d="M0 0 C2.8125 -0.25 2.8125 -0.25 6 0 C7.875 2 7.875 2 9 4 C5.61976483 4 3.16531063 3.12544378 0 2 C0 1.34 0 0.68 0 0 Z " fill="#220E0E" transform="translate(108,46)"/>
<path d="M0 0 C2.97 0.99 5.94 1.98 9 3 C8.67 3.66 8.34 4.32 8 5 C5.36 4.34 2.72 3.68 0 3 C0 2.01 0 1.02 0 0 Z " fill="#240F0F" transform="translate(114,10)"/>
<path d="M0 0 C0.66 0.33 1.32 0.66 2 1 C0.75023244 4.65316671 0.32901247 5.78065836 -3 8 C-2.45276317 4.62537285 -1.9451 2.91765 0 0 Z " fill="#292020" transform="translate(155,116)"/>
<path d="M0 0 C0.66 0 1.32 0 2 0 C2 2.31 2 4.62 2 7 C1.01 7 0.02 7 -1 7 C-1.04254356 5.00045254 -1.04080783 2.99958364 -1 1 C-0.67 0.67 -0.34 0.34 0 0 Z " fill="#3E1A1A" transform="translate(53,66)"/>
<path d="M0 0 C-1.1875 1.5 -1.1875 1.5 -3 3 C-5.6875 3.1875 -5.6875 3.1875 -8 3 C-7.67 2.01 -7.34 1.02 -7 0 C-3.86650268 -1.04449911 -3.01031744 -0.93423645 0 0 Z " fill="#351717" transform="translate(142,316)"/>
<path d="M0 0 C4.60209225 -0.17700355 6.78370866 -0.10814567 11 2 C6.545 2.495 6.545 2.495 2 3 C1.34 2.01 0.68 1.02 0 0 Z " fill="#4F2121" transform="translate(129,290)"/>
<path d="M0 0 C-3.4352048 2.29013653 -4.985331 2.17842973 -9 2 C-9 1.34 -9 0.68 -9 0 C-5.62182575 -0.84454356 -3.32534757 -1.10844919 0 0 Z " fill="#381717" transform="translate(145,289)"/>
<path d="M0 0 C0.99 0.33 1.98 0.66 3 1 C3.33 2.98 3.66 4.96 4 7 C3.01 7 2.02 7 1 7 C0.67 4.69 0.34 2.38 0 0 Z " fill="#251010" transform="translate(128,176)"/>
<path d="M0 0 C0 0.66 0 1.32 0 2 C0.99 2.33 1.98 2.66 3 3 C0.13822943 4.43088528 -1.93375773 3.59991697 -5 3 C-5 2.34 -5 1.68 -5 1 C-3 0 -3 0 0 0 Z " fill="#351515" transform="translate(58,315)"/>
<path d="M0 0 C0.99 0 1.98 0 3 0 C2.34 1.98 1.68 3.96 1 6 C0.34 5.67 -0.32 5.34 -1 5 C-0.67 3.35 -0.34 1.7 0 0 Z " fill="#2C1111" transform="translate(63,194)"/>
</svg>
