<?xml version="1.0" encoding="UTF-8"?>
<svg version="1.1" xmlns="http://www.w3.org/2000/svg" width="270" height="406">
<path d="M0 0 C0 2.97 0 5.94 0 9 C4.29 9 8.58 9 13 9 C12.34 6.69 11.68 4.38 11 2 C15.16831465 -1.05568908 18.66831623 -1.44303794 23.6875 -1.3125 C24.74553833 -1.29558105 24.74553833 -1.29558105 25.82495117 -1.27832031 C37.42336037 -0.97606436 37.42336037 -0.97606436 42 1 C44.38747482 3.5621681 45 4.43308214 45 8 C44.34 8 43.68 8 43 8 C43.33 8.99 43.66 9.98 44 11 C44.99 11.33 45.98 11.66 47 12 C47.0825 10.88625 47.165 9.7725 47.25 8.625 C48 5 48 5 49.625 3.5625 C57.39996705 1.72106043 63.25153822 4.18518482 70 8 C71.66943359 9.30932617 71.66943359 9.30932617 73 11 C73.11279297 13.05859375 73.11279297 13.05859375 72.7421875 15.4375 C72.61271729 16.32381104 72.48324707 17.21012207 72.34985352 18.12329102 C72.19315186 19.07260498 72.0364502 20.02191895 71.875 21 C71.72538818 21.97445068 71.57577637 22.94890137 71.42163086 23.95288086 C71.10997255 25.97333729 70.79177478 27.99279504 70.46728516 30.01123047 C70.02528344 32.83828637 69.63390864 35.66692359 69.26171875 38.50390625 C69.02914126 40.19017257 68.79609178 41.87637388 68.5625 43.5625 C68.46501465 44.34044922 68.3675293 45.11839844 68.26708984 45.91992188 C67.56540713 50.67916116 66.42306853 53.59007185 63 57 C62.29875 57.28875 61.5975 57.5775 60.875 57.875 C58.57989763 58.96171964 58.57989763 58.96171964 58 62.5 C57 66 57 66 55.0625 67.4375 C53 68 53 68 50 68 C50.08569732 75.18246027 50.18102942 82.36473139 50.28752708 89.54691505 C50.33673988 92.88460431 50.38211436 96.22223585 50.421875 99.56005859 C50.65144016 118.60679336 51.46313042 137.37950961 54.125 156.25 C56.11527599 170.80790582 56.11527599 170.80790582 53.1875 176.5625 C51 179 51 179 48 180 C48.350625 180.53625 48.70125 181.0725 49.0625 181.625 C50.34929352 184.88487691 50.0402768 186.67111425 49 190 C48.17628906 190.60585937 47.35257813 191.21171875 46.50390625 191.8359375 C43.82075612 193.77052959 43.82075612 193.77052959 43.1875 196.6015625 C42.21616742 212.26430041 45.13584758 228.69663789 53.37109375 242.2578125 C55.98687817 245.05550999 59.25873798 246.15064088 62.72265625 247.65625 C65.31658561 249.1868018 66.05404403 250.17313156 67 253 C66.68393897 255.65491264 66.19397377 257.61205246 65 260 C64.49929679 263.37357334 64.49929679 263.37357334 65 267 C68.58514748 271.16798809 72.84155522 274.1316241 77.3125 277.25 C85.4398751 283.06867502 93.06169696 289.01360851 95.51953125 299.140625 C96.14448524 303.64029371 96.00677384 306.38799022 94.125 310.5625 C93.19418297 312.68018301 93.19418297 312.68018301 93 315 C94.38634522 316.87771735 94.38634522 316.87771735 96.37890625 318.55859375 C101.04879065 323.5410797 101.0221459 327.90257197 100.8125 334.5 C100.83119141 335.49386719 100.84988281 336.48773438 100.86914062 337.51171875 C100.79182192 343.67279908 99.79298255 347.66014263 95.72338867 352.35986328 C76.67865774 370.48459801 35.95784477 373.06100825 11.03125 373.203125 C10.20157715 373.21013931 9.3719043 373.21715363 8.51708984 373.22438049 C5.8446708 373.24181866 3.17247391 373.24823597 0.5 373.25 C-0.41628174 373.25067474 -1.33256348 373.25134949 -2.27661133 373.25204468 C-17.03926557 373.2348016 -31.43174251 372.55899263 -46 370 C-47.07717285 369.81244141 -48.1543457 369.62488281 -49.26416016 369.43164062 C-63.45766972 366.8975979 -77.3327968 364.05659457 -90.375 357.6875 C-91.49648437 357.15511719 -92.61796875 356.62273437 -93.7734375 356.07421875 C-98.52410272 353.02021968 -102.29620577 350.13253382 -103.58203125 344.40942383 C-103.84347219 341.43629902 -103.86814171 338.54604667 -103.8125 335.5625 C-103.84408203 334.56412109 -103.87566406 333.56574219 -103.90820312 332.53710938 C-103.88230494 326.90980312 -103.28672158 323.70129969 -99.44921875 319.46484375 C-98.80686279 318.86148193 -98.16450684 318.25812012 -97.50268555 317.63647461 C-95.66182183 316.00200213 -95.66182183 316.00200213 -96 313 C-96.350625 312.175 -96.70125 311.35 -97.0625 310.5 C-98.61586179 304.70078264 -98.42817741 299.02409378 -95.8359375 293.53515625 C-90.71370894 285.52311424 -83.84171181 279.69244897 -76.33203125 273.9921875 C-72.56356074 270.77289108 -70.15326829 268.45604872 -69.625 263.4375 C-69.77800708 260.12792907 -69.77800708 260.12792907 -71.0625 257.9375 C-72.50658166 254.95306456 -71.97166313 253.109322 -71 250 C-68.49593478 247.49593478 -66.34413456 246.13911823 -63.0625 244.8125 C-55.24931134 240.18836793 -51.87575586 230.41955593 -49.49316406 222.04638672 C-47.2959252 212.92893319 -46.22391649 203.24550137 -48 194 C-49.11521967 192.07187673 -49.11521967 192.07187673 -50.625 190.8125 C-53 188 -53 188 -52.9375 185.25 C-52 183 -52 183 -50 181 C-50.48210937 180.61328125 -50.96421875 180.2265625 -51.4609375 179.828125 C-52.09257813 179.30734375 -52.72421875 178.7865625 -53.375 178.25 C-54.00148437 177.73953125 -54.62796875 177.2290625 -55.2734375 176.703125 C-58.05204239 173.96223873 -58.9039788 172.01508122 -59.2734375 168.109375 C-59.09163216 162.09385095 -57.69732214 156.15377078 -56.625 150.25 C-51.81804528 122.67162721 -51.51699643 94.91990882 -51 67 C-51.78375 66.896875 -52.5675 66.79375 -53.375 66.6875 C-56 66 -56 66 -58 63 C-58.125 59.8125 -58.125 59.8125 -58 57 C-58.763125 56.773125 -59.52625 56.54625 -60.3125 56.3125 C-63.72263039 54.64708748 -64.36764676 53.41423501 -66 50 C-66.52907314 47.15971263 -66.92291311 44.45685306 -67.203125 41.59375 C-67.29003601 40.79142944 -67.37694702 39.98910889 -67.4664917 39.16247559 C-67.64689562 37.47204685 -67.82136245 35.78097516 -67.99023438 34.08935547 C-68.2493008 31.50696961 -68.52939969 28.92750614 -68.8125 26.34765625 C-68.98562648 24.7006519 -69.15754239 23.05351976 -69.328125 21.40625 C-69.41137024 20.63841187 -69.49461548 19.87057373 -69.5803833 19.07946777 C-69.95794808 15.19936646 -70.20696081 11.7427709 -69 8 C-61.63184851 2.44156993 -52.04697712 0.39686819 -43 1 C-40.5625 1.5625 -40.5625 1.5625 -39 3 C-38.42381975 5.73685621 -38 8.19626634 -38 11 C-35.525 10.505 -35.525 10.505 -33 10 C-32.67 8.68 -32.34 7.36 -32 6 C-33.32 5.67 -34.64 5.34 -36 5 C-35 3 -35 3 -32 2 C-31.67 1.34 -31.34 0.68 -31 0 C-22.23993999 -2.92002 -8.30183811 -4.15091906 0 0 Z " fill="#893939" transform="translate(136,20)"/>
<path d="M0 0 C0.598125 0.77988281 1.19625 1.55976563 1.8125 2.36328125 C7.96546316 9.77979934 22.59120974 10.31756929 31.73754883 11.29150391 C40.85549552 12.06798815 49.93739062 12.18616161 59.08178711 12.18530273 C61.66602247 12.18748189 64.24982439 12.2056895 66.83398438 12.22460938 C93.94278691 12.94195423 93.94278691 12.94195423 118 3 C118.33 2.34 118.66 1.68 119 1 C121.91517292 2.07401108 123.77810176 2.77810176 126 5 C125.67582137 8.80909895 125.14418558 10.78372163 123 14 C123.00707448 17.45941982 124.19987991 20.08380546 126 23 C129.55501113 26.27222615 133.36900584 29.04927831 137.32080078 31.81982422 C145.26208802 37.40112438 151.85173976 42.55521928 155 52 C155.77908149 58.47531664 154.96281588 63.73064264 151 69 C135.9788347 84.58239565 110.3683821 86.32432275 90 88 C89.30825684 88.05784668 88.61651367 88.11569336 87.90380859 88.17529297 C53.78404149 90.87507262 3.47371774 94.37217307 -26 73 C-31.84690124 66.90996029 -33.53003409 61.57622647 -33.37890625 53.18359375 C-32.0052471 41.64202462 -21.48592572 34.72493662 -13 28 C-12.05769531 27.26265625 -11.11539063 26.5253125 -10.14453125 25.765625 C-5.92632783 22.29271435 -5.91897172 19.5138303 -5 14 C-0.05 15.65 4.9 17.3 10 19 C7.958125 18.278125 5.91625 17.55625 3.8125 16.8125 C-5.18629326 13.3287796 -5.18629326 13.3287796 -8 9 C-8.08312096 5.5920406 -7.26381885 4.32537658 -5.125 1.6875 C-3 0 -3 0 0 0 Z " fill="#973F3F" transform="translate(74,267)"/>
<path d="M0 0 C3.34125146 0.01066641 6.68195874 0.00008094 10.02319336 -0.01269531 C20.21434201 -0.0198546 30.32933495 0.1687812 40.47827148 1.15136719 C41.29087936 1.22885193 42.10348724 1.30633667 42.9407196 1.38616943 C46.99938865 1.83198905 50.44524502 2.48521258 54.17749023 4.26074219 C54.18295868 5.16773361 54.18295868 5.16773361 54.1885376 6.0930481 C54.40838217 45.78909876 54.40838217 45.78909876 57.80541992 85.30615234 C60.77103685 108.63910099 60.77103685 108.63910099 57.23999023 114.44824219 C51.38730627 117.91207555 46.0243675 119.60308605 39.17749023 119.26074219 C38.84749023 119.59074219 38.51749023 119.92074219 38.17749023 120.26074219 C28.05570741 121.61137756 17.745622 121.46138999 7.55249023 121.44824219 C6.7592334 121.44797028 5.96597656 121.44769836 5.14868164 121.44741821 C-6.6069681 121.42889067 -18.19998714 121.19377681 -29.82250977 119.26074219 C-30.99297852 119.06609375 -32.16344727 118.87144531 -33.36938477 118.67089844 C-39.82360805 117.34069876 -44.46612448 115.32204419 -48.82250977 110.26074219 C-52.33435647 103.23704877 -47.67355408 89.85962072 -46.37133789 82.36816406 C-43.29315249 63.95757227 -42.46770126 45.64832637 -42.19750977 27.01074219 C-42.15919913 24.78937493 -42.1201406 22.56802043 -42.08032227 20.34667969 C-41.98579848 14.98481644 -41.90036934 9.62287202 -41.82250977 4.26074219 C-29.0894955 -1.3551609 -13.59708691 -0.05150037 0 0 Z " fill="#953E3E" transform="translate(128.822509765625,81.7392578125)"/>
<path d="M0 0 C1.05803833 0.01691895 1.05803833 0.01691895 2.13745117 0.03417969 C13.73586037 0.33643564 13.73586037 0.33643564 18.3125 2.3125 C20.69997482 4.8746681 21.3125 5.74558214 21.3125 9.3125 C20.6525 9.3125 19.9925 9.3125 19.3125 9.3125 C19.11859271 11.62447155 18.93253633 13.9371029 18.75 16.25 C18.64558594 17.53777344 18.54117188 18.82554688 18.43359375 20.15234375 C18.39363281 21.19519531 18.35367188 22.23804688 18.3125 23.3125 C20.12365956 25.12365956 22.92528227 24.69449448 25.375 24.875 C28.3140625 25.0915625 28.3140625 25.0915625 31.3125 25.3125 C31.6425 19.0425 31.9725 12.7725 32.3125 6.3125 C42.49107143 9.25892857 42.49107143 9.25892857 46.3125 11.3125 C46.66502508 18.53926413 45.49582343 25.46635654 44.28613281 32.56860352 C43.93564171 34.63596107 43.60007275 36.705384 43.265625 38.77539062 C43.04515796 40.09650252 42.82383443 41.41747183 42.6015625 42.73828125 C42.40256348 43.92848877 42.20356445 45.11869629 41.99853516 46.3449707 C41.3125 49.3125 41.3125 49.3125 39.3125 52.3125 C38.0853125 51.85101563 36.858125 51.38953125 35.59375 50.9140625 C29.75565565 48.97335223 23.91094431 48.31897456 17.8125 47.6875 C16.65250488 47.56270264 15.49250977 47.43790527 14.29736328 47.30932617 C10.97046467 46.96043012 7.64246389 46.63067302 4.3125 46.3125 C3.53874023 46.23757324 2.76498047 46.16264648 1.96777344 46.08544922 C-8.26608081 45.15170339 -18.5452973 45.21506593 -28.8125 45.1875 C-29.82283295 45.18334579 -29.82283295 45.18334579 -30.85357666 45.17910767 C-40.51435541 45.15010207 -50.06178818 45.55480097 -59.6875 46.3125 C-58.62445396 46.30250725 -58.62445396 46.30250725 -57.53993225 46.29231262 C-50.73419854 46.23123426 -43.92850769 46.18604851 -37.12256718 46.15706348 C-33.62675491 46.14165929 -30.131176 46.12090899 -26.63549805 46.08618164 C-4.60185524 45.87347608 16.89988466 46.57588683 38.3125 52.3125 C38.3125 53.6325 38.3125 54.9525 38.3125 56.3125 C37.52875 56.498125 36.745 56.68375 35.9375 56.875 C35.07125 57.349375 34.205 57.82375 33.3125 58.3125 C33.02375 59.4675 32.735 60.6225 32.4375 61.8125 C31.3125 65.3125 31.3125 65.3125 28.3125 66.9375 C24.21814402 67.74615659 20.8745302 66.55324904 17.03515625 65.13671875 C9.0445157 62.71774435 0.57601574 63.13667167 -7.6875 63.109375 C-8.35524445 63.10654762 -9.02298889 63.10372025 -9.71096802 63.10080719 C-13.250187 63.08588498 -16.78936601 63.07661358 -20.32861328 63.07226562 C-23.2203441 63.06789366 -26.11177443 63.05404273 -29.00341797 63.03125 C-49.57345179 62.64894222 -49.57345179 62.64894222 -69.82421875 65.76269531 C-72.86658159 66.34688708 -74.75067749 66.2524375 -77.6875 65.3125 C-79.6875 63.3125 -79.6875 63.3125 -79.8125 60.1875 C-79.77125 59.23875 -79.73 58.29 -79.6875 57.3125 C-76.3875 56.3225 -73.0875 55.3325 -69.6875 54.3125 C-71.04875 54.663125 -72.41 55.01375 -73.8125 55.375 C-77.74203913 56.26271579 -80.73128089 56.32691516 -84.6875 55.3125 C-85.1825 53.8275 -85.1825 53.8275 -85.6875 52.3125 C-84.29300891 51.829441 -82.89683293 51.35124483 -81.5 50.875 C-80.72269531 50.60816406 -79.94539063 50.34132812 -79.14453125 50.06640625 C-76.67440144 49.30848089 -74.22757136 48.77720222 -71.6875 48.3125 C-73.43779762 48.62332872 -75.18772694 48.93623179 -76.9375 49.25 C-77.91203125 49.42402344 -78.8865625 49.59804687 -79.890625 49.77734375 C-82.18604027 50.2165503 -84.42499798 50.73416381 -86.6875 51.3125 C-88.4398923 43.42616898 -89.48623947 35.52511354 -90.375 27.5 C-90.51744141 26.29923828 -90.65988281 25.09847656 -90.80664062 23.86132812 C-90.93619141 22.70439453 -91.06574219 21.54746094 -91.19921875 20.35546875 C-91.31740967 19.31414795 -91.43560059 18.27282715 -91.55737305 17.19995117 C-91.68521386 14.36322828 -91.37352262 12.0569062 -90.6875 9.3125 C-88.19168638 8.46440799 -85.69205875 7.63403079 -83.1875 6.8125 C-82.49140625 6.57402344 -81.7953125 6.33554687 -81.078125 6.08984375 C-75.88934392 4.40829433 -69.82851204 2.74199398 -64.6875 5.3125 C-63.59586192 11.31650944 -63.57522522 17.22471201 -63.6875 23.3125 C-65.34364657 23.69468767 -67.01207024 24.02645102 -68.6875 24.3125 C-69.0175 23.9825 -69.3475 23.6525 -69.6875 23.3125 C-69.6875 23.9725 -69.6875 24.6325 -69.6875 25.3125 C-68.90375 25.1475 -68.12 24.9825 -67.3125 24.8125 C-62.81040063 24.19152078 -58.23222374 24.3125 -53.6875 24.3125 C-53.6875 17.3825 -53.6875 10.4525 -53.6875 3.3125 C-42.4375 1.0625 -42.4375 1.0625 -38.3359375 1.1171875 C-37.46582031 1.12363281 -36.59570312 1.13007813 -35.69921875 1.13671875 C-34.82910156 1.15347656 -33.95898438 1.17023437 -33.0625 1.1875 C-32.15371094 1.19652344 -31.24492187 1.20554687 -30.30859375 1.21484375 C-28.10144473 1.2380769 -25.89443432 1.27393222 -23.6875 1.3125 C-23.6875 4.2825 -23.6875 7.2525 -23.6875 10.3125 C-19.3975 10.3125 -15.1075 10.3125 -10.6875 10.3125 C-11.3475 8.0025 -12.0075 5.6925 -12.6875 3.3125 C-8.51918535 0.25681092 -5.01918377 -0.13053794 0 0 Z " fill="#A34444" transform="translate(159.6875,18.6875)"/>
<path d="M0 0 C13.18260705 2.68556211 26.46532468 2.95320379 39.875 2.9375 C40.59340057 2.93789276 41.31180115 2.93828552 42.05197144 2.93869019 C54.10974656 2.930821 65.96735278 2.34371491 77.88232422 0.39013672 C79.80690631 0.09693698 81.74771337 -0.08504505 83.6875 -0.25 C85.6875 1.75 85.6875 1.75 86.125 4.125 C85.6875 6.75 85.6875 6.75 83.609375 8.80859375 C80.19656527 11.07619593 77.52280711 11.71631282 73.5 12.4375 C72.26894531 12.66824219 71.03789062 12.89898437 69.76953125 13.13671875 C61.92999171 14.390922 54.13202746 14.90277425 46.19921875 14.8828125 C45.33416214 14.88376923 44.46910553 14.88472595 43.57783508 14.88571167 C41.76193163 14.88638681 39.94602566 14.88457943 38.13012695 14.88037109 C35.39203297 14.87503321 32.65410448 14.88032881 29.91601562 14.88671875 C20.45434216 14.88993733 11.10922631 14.70423644 1.6875 13.75 C24.00912449 16.18520406 46.29123908 16.98161239 68.59863281 14.02001953 C72.28870197 13.54301901 75.98849623 13.15075238 79.6875 12.75 C79.65269531 13.95914063 79.61789063 15.16828125 79.58203125 16.4140625 C79.23772531 33.45633241 81.04161147 50.64839253 92.55078125 64.12890625 C93.6875 65.75 93.6875 65.75 93.6875 68.75 C88.22667288 73.889602 80.85336466 74.60751618 73.6875 75.75 C72.70450928 75.90879639 72.70450928 75.90879639 71.70166016 76.07080078 C46.34327928 79.92742607 0.52808257 83.76750566 -21.3125 68.75 C-22.3203125 66.78515625 -22.3203125 66.78515625 -22.3125 64.75 C-21.0546875 62.99609375 -21.0546875 62.99609375 -19.1875 61.1875 C-14.85701492 56.52920928 -12.5396888 51.66725438 -10.3125 45.75 C-10.01472656 44.96625 -9.71695313 44.1825 -9.41015625 43.375 C-7.32892893 36.91387637 -6.5146149 30.15376083 -5.6875 23.4375 C-5.54481689 22.48190186 -5.40213379 21.52630371 -5.25512695 20.54174805 C-4.61581506 15.30277876 -4.61581506 15.30277876 -6.85253906 10.74853516 C-8.60470216 9.24068527 -10.33789819 7.94768371 -12.3125 6.75 C-11.97201817 4.23043444 -11.58194326 2.20969899 -10.2890625 0.00390625 C-6.99666519 -2.08474896 -3.61247 -0.76783881 0 0 Z " fill="#9C4141" transform="translate(97.3125,201.25)"/>
<path d="M0 0 C-1.25554687 0.06058594 -2.51109375 0.12117188 -3.8046875 0.18359375 C-5.49479817 0.26809928 -7.18490197 0.35274209 -8.875 0.4375 C-9.69742188 0.47681641 -10.51984375 0.51613281 -11.3671875 0.55664062 C-12.6046875 0.61948242 -12.6046875 0.61948242 -13.8671875 0.68359375 C-14.61081543 0.72025146 -15.35444336 0.75690918 -16.12060547 0.79467773 C-20.42157526 1.1013689 -24.70950849 1.57095085 -29 2 C-29 8.93 -29 15.86 -29 23 C-34.28 23.33 -39.56 23.66 -45 24 C-46.53266582 20.93466836 -46.10276471 17.73245728 -46.0625 14.375 C-46.05798828 13.66859375 -46.05347656 12.9621875 -46.04882812 12.234375 C-46.03703875 10.48954725 -46.01910324 8.744763 -46 7 C-45.67 7 -45.34 7 -45 7 C-44.505 14.92 -44.505 14.92 -44 23 C-42.35 22.67 -40.7 22.34 -39 22 C-39.495 13.09 -39.495 13.09 -40 4 C-49.4677246 3.26033402 -57.17844737 5.93544077 -66 9 C-64.92375174 22.70226684 -63.74143755 36.36491452 -62 50 C-60.8965625 49.51917969 -59.793125 49.03835937 -58.65625 48.54296875 C-53.21488744 46.24666724 -48.89756369 45.8843615 -43 46 C-46.58727128 48.08351615 -50.20694042 48.80141379 -54.25 49.625 C-56.14492187 50.01558594 -56.14492187 50.01558594 -58.078125 50.4140625 C-59.04234375 50.60742188 -60.0065625 50.80078125 -61 51 C-59.69976794 52.57678764 -59.69976794 52.57678764 -58 54 C-54.84371339 53.8106228 -51.92698919 53.22667254 -48.859375 52.4765625 C-43.41842276 51.16388521 -38.60423417 50.8220878 -33 51 C-33 51.33 -33 51.66 -33 52 C-40.26 53.32 -47.52 54.64 -55 56 C-54.34 58.31 -53.68 60.62 -53 63 C-48.7289114 64.19467543 -45.92087101 63.65570072 -41.65625 62.5859375 C-29.55261295 59.98355011 -17.07171136 60.54858686 -4.75537109 60.60888672 C-1.21205223 60.62597815 2.33059045 60.61584186 5.87388611 60.59854507 C20.66481153 60.53745056 34.89341303 60.59137505 49.22851562 64.62744141 C52.11423232 65.23433276 53.53916517 64.55421147 56 63 C56.33 61.845 56.66 60.69 57 59.5 C57.33 58.345 57.66 57.19 58 56 C60.625 54.5625 60.625 54.5625 63 54 C63 53.34 63 52.68 63 52 C39.97621535 45.85634762 17.2344139 45.7231057 -6.4319458 45.8626709 C-10.34132685 45.88346384 -14.25073536 45.89233465 -18.16015625 45.90234375 C-25.77351035 45.92352515 -33.38673196 45.95746724 -41 46 C-41 45.67 -41 45.34 -41 45 C-9.08372728 40.97452416 33.58885019 38.26236323 64 50 C65.37277363 44.75386137 66.4667013 39.5857389 67.2890625 34.21875 C67.45128799 33.17031921 67.45128799 33.17031921 67.61679077 32.10070801 C67.95634866 29.90099157 68.29076657 27.70053106 68.625 25.5 C68.85642901 23.99473907 69.08819691 22.48953021 69.3203125 20.984375 C69.88412041 17.32350923 70.44332636 13.66195823 71 10 C70.40832031 9.80664062 69.81664062 9.61328125 69.20703125 9.4140625 C65.0853355 8.05585281 61.0049476 6.67949415 57 5 C57.00523682 5.57032959 57.01047363 6.14065918 57.01586914 6.72827148 C57.03658221 9.29800323 57.0496419 11.86771747 57.0625 14.4375 C57.07087891 15.33533203 57.07925781 16.23316406 57.08789062 17.15820312 C57.09111328 18.01220703 57.09433594 18.86621094 57.09765625 19.74609375 C57.10289307 20.53685303 57.10812988 21.3276123 57.11352539 22.14233398 C57 24 57 24 56 25 C54.01845715 24.96206177 52.03814636 24.84489394 50.0625 24.6875 C48.98097656 24.60886719 47.89945313 24.53023437 46.78515625 24.44921875 C44 24 44 24 42 22 C41.78641199 18.15541573 41.82118713 14.68379022 43 11 C44.65 11.33 46.3 11.66 48 12 C48.0825 10.88625 48.165 9.7725 48.25 8.625 C49 5 49 5 50.625 3.5625 C58.39996705 1.72106043 64.25153822 4.18518482 71 8 C72.66943359 9.30932617 72.66943359 9.30932617 74 11 C74.11279297 13.05859375 74.11279297 13.05859375 73.7421875 15.4375 C73.61271729 16.32381104 73.48324707 17.21012207 73.34985352 18.12329102 C73.19315186 19.07260498 73.0364502 20.02191895 72.875 21 C72.72538818 21.97445068 72.57577637 22.94890137 72.42163086 23.95288086 C72.10997255 25.97333729 71.79177478 27.99279504 71.46728516 30.01123047 C71.02528344 32.83828637 70.63390864 35.66692359 70.26171875 38.50390625 C70.02914126 40.19017257 69.79609178 41.87637388 69.5625 43.5625 C69.46501465 44.34044922 69.3675293 45.11839844 69.26708984 45.91992188 C68.56540713 50.67916116 67.42306853 53.59007185 64 57 C63.29875 57.28875 62.5975 57.5775 61.875 57.875 C59.57989763 58.96171964 59.57989763 58.96171964 59 62.5 C58 66 58 66 56.0625 67.4375 C54 68 54 68 51 68 C51.08569732 75.18246027 51.18102942 82.36473139 51.28752708 89.54691505 C51.33673988 92.88460431 51.38211436 96.22223585 51.421875 99.56005859 C51.65144016 118.60679336 52.46313042 137.37950961 55.125 156.25 C57.11527599 170.80790582 57.11527599 170.80790582 54.1875 176.5625 C52 179 52 179 49 180 C49.350625 180.53625 49.70125 181.0725 50.0625 181.625 C51.34929352 184.88487691 51.0402768 186.67111425 50 190 C49.17628906 190.60585937 48.35257813 191.21171875 47.50390625 191.8359375 C44.82075612 193.77052959 44.82075612 193.77052959 44.1875 196.6015625 C43.21616742 212.26430041 46.13584758 228.69663789 54.37109375 242.2578125 C56.98687817 245.05550999 60.25873798 246.15064088 63.72265625 247.65625 C66.31658561 249.1868018 67.05404403 250.17313156 68 253 C67.68393897 255.65491264 67.19397377 257.61205246 66 260 C65.49929679 263.37357334 65.49929679 263.37357334 66 267 C69.58514748 271.16798809 73.84155522 274.1316241 78.3125 277.25 C86.4398751 283.06867502 94.06169696 289.01360851 96.51953125 299.140625 C97.14448524 303.64029371 97.00677384 306.38799022 95.125 310.5625 C94.19418297 312.68018301 94.19418297 312.68018301 94 315 C95.38634522 316.87771735 95.38634522 316.87771735 97.37890625 318.55859375 C102.04879065 323.5410797 102.0221459 327.90257197 101.8125 334.5 C101.83119141 335.49386719 101.84988281 336.48773438 101.86914062 337.51171875 C101.79182192 343.67279908 100.79298255 347.66014263 96.72338867 352.35986328 C77.67865774 370.48459801 36.95784477 373.06100825 12.03125 373.203125 C11.20157715 373.21013931 10.3719043 373.21715363 9.51708984 373.22438049 C6.8446708 373.24181866 4.17247391 373.24823597 1.5 373.25 C0.58371826 373.25067474 -0.33256348 373.25134949 -1.27661133 373.25204468 C-16.03926557 373.2348016 -30.43174251 372.55899263 -45 370 C-46.07717285 369.81244141 -47.1543457 369.62488281 -48.26416016 369.43164062 C-62.45766972 366.8975979 -76.3327968 364.05659457 -89.375 357.6875 C-90.49648437 357.15511719 -91.61796875 356.62273437 -92.7734375 356.07421875 C-97.52410272 353.02021968 -101.29620577 350.13253382 -102.58203125 344.40942383 C-102.84347219 341.43629902 -102.86814171 338.54604667 -102.8125 335.5625 C-102.84408203 334.56412109 -102.87566406 333.56574219 -102.90820312 332.53710938 C-102.88230494 326.90980312 -102.28672158 323.70129969 -98.44921875 319.46484375 C-97.80686279 318.86148193 -97.16450684 318.25812012 -96.50268555 317.63647461 C-94.66182183 316.00200213 -94.66182183 316.00200213 -95 313 C-95.350625 312.175 -95.70125 311.35 -96.0625 310.5 C-97.61586179 304.70078264 -97.42817741 299.02409378 -94.8359375 293.53515625 C-89.71370894 285.52311424 -82.84171181 279.69244897 -75.33203125 273.9921875 C-71.56356074 270.77289108 -69.15326829 268.45604872 -68.625 263.4375 C-68.77800708 260.12792907 -68.77800708 260.12792907 -70.0625 257.9375 C-71.50658166 254.95306456 -70.97166313 253.109322 -70 250 C-67.49593478 247.49593478 -65.34413456 246.13911823 -62.0625 244.8125 C-54.24931134 240.18836793 -50.87575586 230.41955593 -48.49316406 222.04638672 C-46.2959252 212.92893319 -45.22391649 203.24550137 -47 194 C-48.11521967 192.07187673 -48.11521967 192.07187673 -49.625 190.8125 C-52 188 -52 188 -51.9375 185.25 C-51 183 -51 183 -49 181 C-49.48210937 180.61328125 -49.96421875 180.2265625 -50.4609375 179.828125 C-51.09257813 179.30734375 -51.72421875 178.7865625 -52.375 178.25 C-53.00148437 177.73953125 -53.62796875 177.2290625 -54.2734375 176.703125 C-57.05204239 173.96223873 -57.9039788 172.01508122 -58.2734375 168.109375 C-58.09163216 162.09385095 -56.69732214 156.15377078 -55.625 150.25 C-50.81804528 122.67162721 -50.51699643 94.91990882 -50 67 C-50.78375 66.896875 -51.5675 66.79375 -52.375 66.6875 C-55 66 -55 66 -57 63 C-57.125 59.8125 -57.125 59.8125 -57 57 C-57.763125 56.773125 -58.52625 56.54625 -59.3125 56.3125 C-62.72263039 54.64708748 -63.36764676 53.41423501 -65 50 C-65.52907314 47.15971263 -65.92291311 44.45685306 -66.203125 41.59375 C-66.29003601 40.79142944 -66.37694702 39.98910889 -66.4664917 39.16247559 C-66.64689562 37.47204685 -66.82136245 35.78097516 -66.99023438 34.08935547 C-67.2493008 31.50696961 -67.52939969 28.92750614 -67.8125 26.34765625 C-67.98562648 24.7006519 -68.15754239 23.05351976 -68.328125 21.40625 C-68.41137024 20.63841187 -68.49461548 19.87057373 -68.5803833 19.07946777 C-68.95794808 15.19936646 -69.20696081 11.7427709 -68 8 C-60.63184851 2.44156993 -51.04697712 0.39686819 -42 1 C-39.5625 1.5625 -39.5625 1.5625 -38 3 C-37.42381975 5.73685621 -37 8.19626634 -37 11 C-34.525 10.505 -34.525 10.505 -32 10 C-31.67 8.68 -31.34 7.36 -31 6 C-32.32 5.67 -33.64 5.34 -35 5 C-34 3 -34 3 -31 2 C-30.67 1.34 -30.34 0.68 -30 0 C-22.12573712 -2.62475429 -7.0558428 -4.7038952 0 0 Z M-48 66 C-48.01458252 67.31266846 -48.02916504 68.62533691 -48.04418945 69.9777832 C-48.3950719 99.28523957 -49.25842954 127.80005748 -54.72973633 156.67407227 C-56.54633559 164.4722333 -56.54633559 164.4722333 -54.96875 172.01171875 C-46.3654946 181.82766707 -32.82306894 181.81430309 -20.55517578 182.79931641 C-14.1820708 183.15906728 -7.80963943 183.14757055 -1.42797852 183.13037109 C0.93024139 183.12501648 3.28827025 183.13034586 5.64648438 183.13671875 C18.85519024 183.16037032 18.85519024 183.16037032 32 182 C32.33 181.67 32.66 181.34 33 181 C34.51856527 180.86679252 36.04027515 180.76884026 37.5625 180.6875 C42.63396767 180.22910335 46.82172772 178.9698504 51 176 C56.30957026 168.03564461 52.50237148 153.91078533 51.3470459 144.84014893 C48.07747621 118.66886365 48.15879942 92.3383319 48 66 C43.50104756 63.85972711 39.19606321 63.35740568 34.30078125 62.890625 C33.43222 62.80653381 32.56365875 62.72244263 31.66877747 62.63580322 C21.2991446 61.72715138 10.92811385 61.6994807 0.52563477 61.73925781 C-2.82619063 61.75004406 -6.17748689 61.73925783 -9.52929688 61.7265625 C-29.17679568 61.25837956 -29.17679568 61.25837956 -48 66 Z M-48.6875 181.5625 C-50.16922562 183.89736621 -50.16922562 183.89736621 -50.125 186.4375 C-49.14348936 189.30815184 -49.14348936 189.30815184 -45.91015625 191.015625 C-43.81594225 192.71631019 -43.08364407 193.51894016 -42.61621094 196.20727539 C-42.68078654 198.95094466 -42.94776303 201.59228611 -43.3125 204.3125 C-43.4249707 205.28928711 -43.53744141 206.26607422 -43.65332031 207.27246094 C-45.27376979 219.92522884 -48.33517278 235.1216507 -58.24609375 244.015625 C-60.24557212 245.82371902 -60.24557212 245.82371902 -59.9453125 248.12109375 C-58.15647385 251.67659537 -54.55526465 252.74182264 -51 254 C-24.85318586 261.083469 4.56333447 260.69090556 31.3125 257.75 C32.33625732 257.64083252 33.36001465 257.53166504 34.41479492 257.41918945 C46.22660611 256.04241919 46.22660611 256.04241919 55.80981445 249.86621094 C56.20257568 249.25036133 56.59533691 248.63451172 57 248 C56.113125 247.071875 55.22625 246.14375 54.3125 245.1875 C44.54012265 233.73261428 41.79459284 217.72351593 41.9375 203.125 C41.94201172 202.24585938 41.94652344 201.36671875 41.95117188 200.4609375 C41.96287663 198.30726197 41.98080931 196.15362183 42 194 C40.98421875 194.13277344 39.9684375 194.26554688 38.921875 194.40234375 C37.53126777 194.58086765 36.14064173 194.75924502 34.75 194.9375 C34.08742188 195.02451172 33.42484375 195.11152344 32.7421875 195.20117188 C22.22941671 196.54006249 11.78535507 197.19373174 1.1875 197.1875 C0.0327417 197.18814453 -1.1220166 197.18878906 -2.31176758 197.18945312 C-13.60479683 197.1215112 -24.7791695 196.22414979 -36 195 C-34.94039062 195.10393066 -34.94039062 195.10393066 -33.859375 195.20996094 C-23.57313773 196.11776014 -13.32078362 196.24099286 -3 196.25 C-1.63986786 196.25200912 -1.63986786 196.25200912 -0.2522583 196.25405884 C25.48878549 197.52607231 25.48878549 197.52607231 48 188 C48.33333333 185.5 48.33333333 185.5 48 183 C47.01 182.01 47.01 182.01 46 181 C43.27716887 181.1582347 40.6915523 181.42567622 38 181.8125 C35.00069143 182.21366425 32.00089402 182.61086685 29 183 C28.26104492 183.09627686 27.52208984 183.19255371 26.76074219 183.29174805 C18.94106168 184.19696993 11.11094888 184.19755622 3.25 184.1875 C2.5257785 184.18756042 1.80155701 184.18762085 1.0553894 184.18768311 C-14.04437041 184.16979806 -29.14154639 183.76667676 -43.88623047 180.24536133 C-46.20805578 179.76199966 -46.20805578 179.76199966 -48.6875 181.5625 Z M-66.75 249.125 C-69.24678112 251.79069573 -69.24678112 251.79069573 -69.3125 255 C-67.36174492 259.45886876 -64.30849118 260.97500914 -60 263 C-57.03565957 264.14364986 -54.05533311 265.13007877 -51 266 C-51.83144531 265.72285156 -52.66289063 265.44570313 -53.51953125 265.16015625 C-57.6796875 263.7734375 -61.83984375 262.38671875 -66 261 C-66.2475 262.216875 -66.495 263.43375 -66.75 264.6875 C-67.98713946 270.77010234 -72.12780374 274.3323842 -76.875 278 C-77.75414063 278.69351562 -78.63328125 279.38703125 -79.5390625 280.1015625 C-80.93540374 281.17874003 -82.34094716 282.24482109 -83.7734375 283.2734375 C-89.33923814 287.42570147 -93.41336814 293.20835502 -94.48046875 300.10546875 C-94.69812469 308.4489466 -92.60551346 313.80688696 -87 320 C-84.55811851 321.52298532 -82.26227388 322.82217683 -79.6875 324.0625 C-78.6202771 324.58009888 -78.6202771 324.58009888 -77.53149414 325.1081543 C-36.65074266 344.26435352 30.32107594 341.1882843 72 327 C80.87533385 323.25763573 89.22740455 319.34205051 93.30078125 310.1640625 C95.1885341 304.32152017 94.51969317 299.50884423 92.0625 293.9375 C87.24276571 285.24859012 78.87853237 279.97543542 70.78540039 274.58789062 C66.03759322 271.34347828 63.69840772 268.44442702 62.125 262.9375 C61.97326498 259.37172699 62.89112216 258.72396722 65 256 C65.08024658 253.40110217 65.08024658 253.40110217 64 251 C61.40110921 248.52951575 61.40110921 248.52951575 58 248 C57.319375 248.763125 56.63875 249.52625 55.9375 250.3125 C43.19465041 261.97085176 17.63294492 259.20763449 1.5 259.1875 C0.60982178 259.18689575 -0.28035645 259.1862915 -1.19750977 259.18566895 C-49.24972023 259.09694785 -49.24972023 259.09694785 -60 249 C-60.495 248.01 -60.495 248.01 -61 247 C-64.18358411 246.69427625 -64.18358411 246.69427625 -66.75 249.125 Z M-92 317 C-97.24499706 319.96757569 -97.24499706 319.96757569 -100 325 C-99.68533358 328.85466368 -99.16750011 330.74874983 -97 334 C-97.99 333.34 -98.98 332.68 -100 332 C-100.87111397 340.94515687 -100.87111397 340.94515687 -98 349.0625 C-96.515 350.0215625 -96.515 350.0215625 -95 351 C-94.44183594 351.40089844 -93.88367188 351.80179687 -93.30859375 352.21484375 C-57.82273089 376.58822346 5.3181563 374.34591479 46 367 C47.04188477 366.81244141 48.08376953 366.62488281 49.15722656 366.43164062 C75.60805073 361.98026961 75.60805073 361.98026961 97.79150391 347.90917969 C100.27572662 343.98460967 99.85796269 339.56394445 99.75 335.0625 C99.77320313 334.09892578 99.79640625 333.13535156 99.8203125 332.14257812 C99.7693335 325.92738898 98.7138601 322.56811587 94.28613281 318.14233398 C93.86170898 317.76536377 93.43728516 317.38839355 93 317 C89.50006867 317.76649133 87.66711684 318.92078149 84.875 321.1875 C65.50608713 334.98608319 36.58102664 336.09051098 13.73828125 336.23828125 C11.89401802 336.25038887 11.89401802 336.25038887 10.01249695 336.26274109 C7.42167527 336.27648156 4.83083625 336.28724788 2.23999023 336.29516602 C-0.35511761 336.30661953 -2.95020315 336.32696423 -5.54516602 336.35668945 C-34.44674038 336.68630919 -68.15451467 335.69123553 -92 317 Z " fill="#220E0E" transform="translate(135,20)"/>
<path d="M0 0 C2.3203125 1.29296875 2.3203125 1.29296875 5.125 3.1875 C12.52849734 8.16860657 19.52276079 11.46858011 28.1875 13.5625 C28.92935547 13.75779297 29.67121094 13.95308594 30.43554688 14.15429688 C48.71832862 18.68441309 66.92982331 19.45869315 85.69311523 19.33618164 C89.56059607 19.31251165 93.42738634 19.31565696 97.29492188 19.32226562 C114.96432296 19.3032684 132.7838889 19.11847984 150 14.6875 C150.87172852 14.4702124 151.74345703 14.2529248 152.64160156 14.02905273 C162.34708084 11.52321863 170.94249451 8.20134873 179.0625 2.234375 C181.05666797 0.96389702 182.68996817 0.43313097 185 0 C190.87282287 5.75366415 190.87282287 5.75366415 191.3125 10.0625 C187.43293183 18.74534306 177.6142595 21.98903258 169.26074219 25.18603516 C148.7624418 32.56630875 126.06912438 35.09816314 104.375 35.203125 C102.90892807 35.21357849 102.90892807 35.21357849 101.41323853 35.22424316 C98.27544801 35.24153624 95.13783619 35.24796295 92 35.25 C90.92852722 35.25100708 89.85705444 35.25201416 88.75311279 35.25305176 C16.02748558 35.20680508 16.02748558 35.20680508 -6.75 14.5 C-8 12 -8 12 -8.0625 9 C-6.56685016 4.77698869 -4.0224391 2.01121955 0 0 Z " fill="#994040" transform="translate(43,337)"/>
<path d="M0 0 C8.69505733 -0.07051559 17.39001148 -0.12331294 26.08529568 -0.15543652 C30.12589788 -0.17087921 34.16630002 -0.19170788 38.20678711 -0.22631836 C61.56662858 -0.42081849 84.26206058 -0.06478285 107 6 C107 7.32 107 8.64 107 10 C106.21625 10.185625 105.4325 10.37125 104.625 10.5625 C103.75875 11.036875 102.8925 11.51125 102 12 C101.71125 13.155 101.4225 14.31 101.125 15.5 C100 19 100 19 97 20.625 C92.90564402 21.43365659 89.5620302 20.24074904 85.72265625 18.82421875 C77.7320157 16.40524435 69.26351574 16.82417167 61 16.796875 C60.33225555 16.79404762 59.66451111 16.79122025 58.97653198 16.78830719 C55.437313 16.77338498 51.89813399 16.76411358 48.35888672 16.75976562 C45.4671559 16.75539366 42.57572557 16.74154273 39.68408203 16.71875 C19.11404821 16.33644222 19.11404821 16.33644222 -1.13671875 19.45019531 C-4.17908159 20.03438708 -6.06317749 19.9399375 -9 19 C-11 17 -11 17 -11.125 13.875 C-11.08375 12.92625 -11.0425 11.9775 -11 11 C-6.05 9.515 -6.05 9.515 -1 8 C-2.36125 8.350625 -3.7225 8.70125 -5.125 9.0625 C-9.05453913 9.95021579 -12.04378089 10.01441516 -16 9 C-16.33 8.01 -16.66 7.02 -17 6 C-11.38145918 4.04911777 -5.78886224 2.36827653 0 1 C0 0.67 0 0.34 0 0 Z " fill="#7B3333" transform="translate(91,65)"/>
<path d="M0 0 C0.8971875 1.16982422 0.8971875 1.16982422 1.8125 2.36328125 C7.96546316 9.77979934 22.59120974 10.31756929 31.73754883 11.29150391 C40.85549552 12.06798815 49.93739062 12.18616161 59.08178711 12.18530273 C61.66602247 12.18748189 64.24982439 12.2056895 66.83398438 12.22460938 C93.94278691 12.94195423 93.94278691 12.94195423 118 3 C118.33 2.34 118.66 1.68 119 1 C121.91517292 2.07401108 123.77810176 2.77810176 126 5 C125.77394963 9.97310811 124.34217541 13.32360705 121 17 C117.3125 18.125 117.3125 18.125 114.89453125 18.5078125 C112.05898365 18.98997039 109.34005071 19.70493177 106.56640625 20.45751953 C83.44972926 26.52619348 58.40767252 25.93567884 34.75 24.125 C33.72648437 24.04668945 32.70296875 23.96837891 31.6484375 23.88769531 C14.41171623 22.41171623 14.41171623 22.41171623 11 19 C9.10093895 18.32338843 7.18044359 17.70605392 5.25 17.125 C-3.41282588 14.29632216 -3.41282588 14.29632216 -7 11 C-8.1875 8.0625 -8.1875 8.0625 -8 5 C-4.08695652 0 -4.08695652 0 0 0 Z " fill="#943E3E" transform="translate(74,267)"/>
<path d="M0 0 C13.18260705 2.68556211 26.46532468 2.95320379 39.875 2.9375 C40.59340057 2.93789276 41.31180115 2.93828552 42.05197144 2.93869019 C54.10974656 2.930821 65.96735278 2.34371491 77.88232422 0.39013672 C79.80690631 0.09693698 81.74771337 -0.08504505 83.6875 -0.25 C85.6875 1.75 85.6875 1.75 86.125 4.125 C85.6875 6.75 85.6875 6.75 83.609375 8.80859375 C80.19656527 11.07619593 77.52280711 11.71631282 73.5 12.4375 C72.26894531 12.66824219 71.03789062 12.89898437 69.76953125 13.13671875 C68.41013019 13.34946584 67.04936754 13.55366009 65.6875 13.75 C64.69049072 13.89791992 64.69049072 13.89791992 63.67333984 14.04882812 C55.29173156 15.08663868 46.83535288 14.90012905 38.40478516 14.88037109 C35.7216207 14.87506744 33.03862774 14.88031032 30.35546875 14.88671875 C21.75067377 14.89127092 13.15845992 14.7744117 4.5625 14.3671875 C3.8101709 14.33682404 3.0578418 14.30646057 2.28271484 14.275177 C-4.31675075 13.91270055 -7.47085799 10.8384977 -12.3125 6.75 C-11.97201817 4.23043444 -11.58194326 2.20969899 -10.2890625 0.00390625 C-6.99666519 -2.08474896 -3.61247 -0.76783881 0 0 Z " fill="#8E3B3B" transform="translate(97.3125,201.25)"/>
<path d="M0 0 C8.69505733 -0.07051559 17.39001148 -0.12331294 26.08529568 -0.15543652 C30.12589788 -0.17087921 34.16630002 -0.19170788 38.20678711 -0.22631836 C61.56662858 -0.42081849 84.26206058 -0.06478285 107 6 C107 7.32 107 8.64 107 10 C102.8104766 12.0947617 100.53038466 11.88799793 96 11 C94.00534558 10.6307682 92.01066957 10.26164912 90.015625 9.89453125 C88.61120296 9.63568704 87.20751864 9.37280072 85.8046875 9.10546875 C74.61930809 7.06989419 63.37339282 6.8287328 52.03125 6.796875 C51.34011612 6.79404762 50.64898224 6.79122025 49.93690491 6.78830719 C46.28556965 6.77345357 42.63427255 6.76413476 38.98291016 6.75976562 C35.25133886 6.75427249 31.52013077 6.73018685 27.7886734 6.70179367 C24.88013728 6.6830199 21.97168664 6.67795413 19.06309509 6.67642975 C17.68861384 6.67344055 16.3141327 6.66554174 14.93971252 6.65224457 C7.09810285 6.58172943 0.18950923 7.08297348 -7.31530762 9.45294189 C-10.48087022 10.09798663 -12.86759299 9.69307973 -16 9 C-16.33 8.01 -16.66 7.02 -17 6 C-11.38145918 4.04911777 -5.78886224 2.36827653 0 1 C0 0.67 0 0.34 0 0 Z " fill="#692C2C" transform="translate(91,65)"/>
<path d="M0 0 C1.66943359 1.30932617 1.66943359 1.30932617 3 3 C3.11279297 5.05859375 3.11279297 5.05859375 2.7421875 7.4375 C2.61271729 8.32381104 2.48324707 9.21012207 2.34985352 10.12329102 C2.19315186 11.07260498 2.0364502 12.02191895 1.875 13 C1.72538818 13.97445068 1.57577637 14.94890137 1.42163086 15.95288086 C1.10997255 17.97333729 0.79177478 19.99279504 0.46728516 22.01123047 C0.02528344 24.83828637 -0.36609136 27.66692359 -0.73828125 30.50390625 C-0.97085874 32.19017257 -1.20390822 33.87637388 -1.4375 35.5625 C-1.53498535 36.34044922 -1.6324707 37.11839844 -1.73291016 37.91992188 C-2.43459287 42.67916116 -3.57693147 45.59007185 -7 49 C-8.051875 49.433125 -8.051875 49.433125 -9.125 49.875 C-10.053125 50.431875 -10.053125 50.431875 -11 51 C-11.37125 52.670625 -11.37125 52.670625 -11.75 54.375 C-13 58 -13 58 -21 62 C-21.33 78.83 -21.66 95.66 -22 113 C-22.33 113 -22.66 113 -23 113 C-23.33 94.52 -23.66 76.04 -24 57 C-21.36 56.67 -18.72 56.34 -16 56 C-15.76216797 55.16855469 -15.76216797 55.16855469 -15.51953125 54.3203125 C-13.59005146 48.32933105 -13.59005146 48.32933105 -10.3125 46.5 C-9.1678125 46.2525 -9.1678125 46.2525 -8 46 C-8 45.34 -8 44.68 -8 44 C-31.02378465 37.85634762 -53.7655861 37.7231057 -77.4319458 37.8626709 C-81.34132685 37.88346384 -85.25073536 37.89233465 -89.16015625 37.90234375 C-96.77351035 37.92352515 -104.38673196 37.95746724 -112 38 C-112 37.67 -112 37.34 -112 37 C-80.08372728 32.97452416 -37.41114981 30.26236323 -7 42 C-5.62722637 36.75386137 -4.5332987 31.5857389 -3.7109375 26.21875 C-3.60278717 25.51979614 -3.49463684 24.82084229 -3.38320923 24.10070801 C-3.04365134 21.90099157 -2.70923343 19.70053106 -2.375 17.5 C-2.14357099 15.99473907 -1.91180309 14.48953021 -1.6796875 12.984375 C-1.11587959 9.32350923 -0.55667364 5.66195823 0 2 C-0.59167969 1.80664062 -1.18335938 1.61328125 -1.79296875 1.4140625 C-5.9146645 0.05585281 -9.9950524 -1.32050585 -14 -3 C-13.99476318 -2.42967041 -13.98952637 -1.85934082 -13.98413086 -1.27172852 C-13.96341779 1.29800323 -13.9503581 3.86771747 -13.9375 6.4375 C-13.92912109 7.33533203 -13.92074219 8.23316406 -13.91210938 9.15820312 C-13.90888672 10.01220703 -13.90566406 10.86621094 -13.90234375 11.74609375 C-13.89710693 12.53685303 -13.89187012 13.3276123 -13.88647461 14.14233398 C-14 16 -14 16 -15 17 C-16.98154285 16.96206177 -18.96185364 16.84489394 -20.9375 16.6875 C-22.01902344 16.60886719 -23.10054688 16.53023437 -24.21484375 16.44921875 C-27 16 -27 16 -29 14 C-29.21358801 10.15541573 -29.17881287 6.68379022 -28 3 C-26.35 3.33 -24.7 3.66 -23 4 C-22.9175 2.88625 -22.835 1.7725 -22.75 0.625 C-22 -3 -22 -3 -20.375 -4.4375 C-12.60003295 -6.27893957 -6.74846178 -3.81481518 0 0 Z " fill="#2C1313" transform="translate(206,28)"/>
<path d="M0 0 C1.7455767 13.99850827 3.19095743 27.86914994 3 42 C-0.96 42.99 -4.92 43.98 -9 45 C-10.70908551 37.09641242 -11.79770132 29.22198756 -12.6875 21.1875 C-12.82994141 19.98673828 -12.97238281 18.78597656 -13.11914062 17.54882812 C-13.24869141 16.39189453 -13.37824219 15.23496094 -13.51171875 14.04296875 C-13.62990967 13.00164795 -13.74810059 11.96032715 -13.86987305 10.88745117 C-13.99771386 8.05072828 -13.68602262 5.7444062 -13 3 C-11.58603098 2.49242138 -10.16868271 1.99425075 -8.75 1.5 C-7.96109375 1.2215625 -7.1721875 0.943125 -6.359375 0.65625 C-4 0 -4 0 0 0 Z " fill="#C95454" transform="translate(82,25)"/>
<path d="M0 0 C3.80000025 2.82752707 6.19431689 6.27486979 7.125 10.9375 C7.39341267 15.52735664 5.65890115 19.32242893 3 23 C-1.0339779 25.6893186 -4.26038359 25.7926321 -9 25 C-12.32748995 23.30115492 -14.42581331 20.898727 -16.4375 17.75 C-17.52882063 12.4146547 -17.0588954 7.71614082 -14.1875 3.0625 C-9.79813472 -1.07604441 -5.88654096 -2.10152902 0 0 Z " fill="#D75A5A" transform="translate(142,103)"/>
<path d="M0 0 C3.54751679 0.01843696 7.09477389 0.02050781 10.64233398 0.02026367 C12.91642477 0.02517406 15.19051381 0.03100028 17.46459961 0.0378418 C18.51571426 0.03895462 19.56682892 0.04006744 20.64979553 0.04121399 C25.85826609 0.074816 30.82828838 0.30258295 35.96069336 1.20581055 C35.62329709 3.73628255 35.35458556 4.88766684 33.33569336 6.51831055 C30.03143384 7.47480672 27.35495391 6.70066077 23.96069336 6.20581055 C21.67028963 6.11779474 19.37778651 6.07523143 17.08569336 6.07299805 C15.78180664 6.07082275 14.47791992 6.06864746 13.13452148 6.06640625 C11.74324306 6.07045832 10.35196668 6.07527588 8.96069336 6.08081055 C7.89806274 6.08363541 7.89806274 6.08363541 6.81396484 6.08651733 C-21.79731352 4.73679828 -21.79731352 4.73679828 -49.03930664 11.20581055 C-49.03930664 9.22581055 -49.03930664 7.24581055 -49.03930664 5.20581055 C-33.20885672 -0.50228438 -16.59270158 -0.08936406 0 0 Z " fill="#AD4848" transform="translate(129.039306640625,70.794189453125)"/>
<path d="M0 0 C1.05803833 0.01691895 1.05803833 0.01691895 2.13745117 0.03417969 C13.73586037 0.33643564 13.73586037 0.33643564 18.3125 2.3125 C20.69997482 4.8746681 21.3125 5.74558214 21.3125 9.3125 C20.3225 9.3125 19.3325 9.3125 18.3125 9.3125 C18.18875 8.673125 18.065 8.03375 17.9375 7.375 C17.73125 6.694375 17.525 6.01375 17.3125 5.3125 C15.01223614 4.16236807 13.30002064 4.02017601 10.7421875 3.77734375 C9.39833984 3.64682617 9.39833984 3.64682617 8.02734375 3.51367188 C7.09019531 3.42666016 6.15304688 3.33964844 5.1875 3.25 C4.24261719 3.15912109 3.29773438 3.06824219 2.32421875 2.97460938 C-0.01270611 2.75035901 -2.34992116 2.52980943 -4.6875 2.3125 C-4.67964478 3.16013916 -4.67964478 3.16013916 -4.67163086 4.02490234 C-4.65087578 6.5790903 -4.6378446 9.13326053 -4.625 11.6875 C-4.61662109 12.57695312 -4.60824219 13.46640625 -4.59960938 14.3828125 C-4.59477539 15.65898438 -4.59477539 15.65898438 -4.58984375 16.9609375 C-4.58198853 18.13922119 -4.58198853 18.13922119 -4.57397461 19.34130859 C-4.6875 21.3125 -4.6875 21.3125 -5.6875 23.3125 C-8.81242251 23.37041844 -11.93720766 23.40606746 -15.0625 23.4375 C-15.95195312 23.45425781 -16.84140625 23.47101562 -17.7578125 23.48828125 C-18.60859375 23.49472656 -19.459375 23.50117187 -20.3359375 23.5078125 C-21.51422119 23.52352295 -21.51422119 23.52352295 -22.71630859 23.53955078 C-24.6875 23.3125 -24.6875 23.3125 -26.6875 21.3125 C-26.91796875 18.23046875 -26.91796875 18.23046875 -26.875 14.5 C-26.86855469 13.27667969 -26.86210937 12.05335937 -26.85546875 10.79296875 C-26.71275813 7.83587201 -26.37119865 5.18403435 -25.6875 2.3125 C-23.92287317 5.40059695 -23.6875 6.54562136 -23.6875 10.3125 C-19.3975 10.3125 -15.1075 10.3125 -10.6875 10.3125 C-11.3475 8.0025 -12.0075 5.6925 -12.6875 3.3125 C-8.51918535 0.25681092 -5.01918377 -0.13053794 0 0 Z " fill="#6B2E2E" transform="translate(159.6875,18.6875)"/>
<path d="M0 0 C0.90878906 1.17175781 0.90878906 1.17175781 1.8359375 2.3671875 C8.39496463 10.34694253 25.26113842 10.55720569 35 12 C34.67 12.99 34.34 13.98 34 15 C34.928125 15.103125 35.85625 15.20625 36.8125 15.3125 C40.14965236 16.03227796 40.83186532 16.57142872 43 19 C38.49928861 18.91860224 33.99988071 18.80580044 29.5 18.6875 C28.2315625 18.66494141 26.963125 18.64238281 25.65625 18.61914062 C18.74668269 18.42121031 13.28827241 17.90804493 7 15 C6.030625 14.690625 5.06125 14.38125 4.0625 14.0625 C-0.07456251 12.6271926 -4.02075748 10.8216088 -8 9 C-7.64598897 5.81390075 -7.16972964 4.20933322 -5.125 1.6875 C-3 0 -3 0 0 0 Z " fill="#B94D4D" transform="translate(74,267)"/>
<path d="M0 0 C-0.99 0.99 -1.98 1.98 -3 3 C1.62 2.67 6.24 2.34 11 2 C-9.09970208 15.39980139 -46.47995529 10.86292983 -69.375 9.125 C-70.41527344 9.04668945 -71.45554687 8.96837891 -72.52734375 8.88769531 C-78.2192165 8.40347798 -83.50315361 7.56115685 -89 6 C-89 5.67 -89 5.34 -89 5 C-87.84274414 5.00666183 -87.84274414 5.00666183 -86.66210938 5.01345825 C-79.36540134 5.05365403 -72.06874755 5.08404464 -64.7719574 5.10362434 C-61.0212631 5.11402908 -57.27066086 5.12812725 -53.52001953 5.15087891 C-49.8954987 5.17272609 -46.27106601 5.18459348 -42.64648438 5.18975449 C-41.26870335 5.19342905 -39.89092675 5.20060417 -38.51318359 5.21146011 C-31.32563788 5.26580453 -24.87851943 5.1663348 -18 3 C-15.77283874 2.45014592 -13.54377345 1.90792176 -11.3125 1.375 C-10.23613281 1.11460937 -9.15976563 0.85421875 -8.05078125 0.5859375 C-5.26976412 0.05181129 -2.82023349 -0.11511157 0 0 Z " fill="#4A1F1F" transform="translate(178,282)"/>
<path d="M0 0 C4.63035812 4.29155143 6.95976137 8.04624442 7.5625 14.375 C6.799375 13.735625 6.03625 13.09625 5.25 12.4375 C1.38338883 9.47010073 -1.85456278 8.99194119 -6.6953125 9.0078125 C-11.23434612 9.61560333 -15.24481408 11.46513656 -19.421875 13.28125 C-22.35165213 14.34386347 -24.35848381 14.60307527 -27.4375 14.375 C-27.7675 12.065 -28.0975 9.755 -28.4375 7.375 C-27.4475 7.045 -26.4575 6.715 -25.4375 6.375 C-24.674375 5.59125 -23.91125 4.8075 -23.125 4 C-16.63467833 -2.33938396 -8.28952665 -3.91868533 0 0 Z " fill="#2B1212" transform="translate(148.4375,87.625)"/>
<path d="M0 0 C1.26972656 0.26554687 2.53945312 0.53109375 3.84765625 0.8046875 C5.58588203 1.16172847 7.32416655 1.51848361 9.0625 1.875 C9.89072266 2.04902344 10.71894531 2.22304688 11.57226562 2.40234375 C24.45278025 5.02705239 36.88513553 6.30140113 50.02734375 6.1953125 C51.39595835 6.19156735 52.76457569 6.18872752 54.13319397 6.18673706 C57.67914664 6.17921851 61.22492693 6.15967649 64.77081299 6.1373291 C68.41163808 6.11661171 72.05249192 6.10768088 75.69335938 6.09765625 C82.79564206 6.07641521 89.89780958 6.04242813 97 6 C97 6.99 97 7.98 97 9 C97.99 9.66 98.98 10.32 100 11 C89.81575886 11.85367637 79.84817843 12.06868826 69.625 11.6875 C68.93845337 11.6632193 68.25190674 11.6389386 67.54455566 11.61392212 C44.31223944 10.7846748 21.10481672 9.80919279 -1 2 C-0.67 1.34 -0.34 0.68 0 0 Z " fill="#813636" transform="translate(68,350)"/>
<path d="M0 0 C1.828125 1.66796875 1.828125 1.66796875 3 3 C2 6 2 6 0 7 C0 5.35 0 3.7 0 2 C-0.59167969 1.80664062 -1.18335938 1.61328125 -1.79296875 1.4140625 C-2.58316406 1.15367188 -3.37335938 0.89328125 -4.1875 0.625 C-4.96480469 0.36976562 -5.74210937 0.11453125 -6.54296875 -0.1484375 C-9.06367679 -1.02206922 -11.53064278 -1.99120398 -14 -3 C-13.99476318 -2.42967041 -13.98952637 -1.85934082 -13.98413086 -1.27172852 C-13.96341779 1.29800323 -13.9503581 3.86771747 -13.9375 6.4375 C-13.92912109 7.33533203 -13.92074219 8.23316406 -13.91210938 9.15820312 C-13.90888672 10.01220703 -13.90566406 10.86621094 -13.90234375 11.74609375 C-13.89710693 12.53685303 -13.89187012 13.3276123 -13.88647461 14.14233398 C-14 16 -14 16 -15 17 C-16.98154285 16.96206177 -18.96185364 16.84489394 -20.9375 16.6875 C-22.01902344 16.60886719 -23.10054687 16.53023437 -24.21484375 16.44921875 C-27 16 -27 16 -29 14 C-29.21358801 10.15541573 -29.17881287 6.68379022 -28 3 C-26.35 3.33 -24.7 3.66 -23 4 C-22.9175 2.88625 -22.835 1.7725 -22.75 0.625 C-22 -3 -22 -3 -20.375 -4.4375 C-12.60003295 -6.27893957 -6.74846178 -3.81481518 0 0 Z " fill="#170909" transform="translate(206,28)"/>
<path d="M0 0 C1.12882599 -0.00415421 1.12882599 -0.00415421 2.28045654 -0.00839233 C4.43962576 -0.01420623 6.59864288 -0.01239602 8.7578125 -0.0078125 C10.00965332 -0.00668457 11.26149414 -0.00555664 12.55126953 -0.00439453 C15.4596003 0.10882828 18.05193143 0.44958303 20.875 1.125 C20.875 1.785 20.875 2.445 20.875 3.125 C13.68252741 3.84493234 6.52439414 4.32031983 -0.69921875 4.5546875 C-2.68686918 4.6283628 -4.67449886 4.70259936 -6.66210938 4.77734375 C-9.73089969 4.89019746 -12.79964367 4.99958306 -15.86889648 5.09912109 C-27.13865066 5.47076102 -37.94505922 6.07281046 -48.95629883 8.60595703 C-52.07877122 9.11742758 -54.10674308 8.97800885 -57.125 8.125 C-57.125 6.805 -57.125 5.485 -57.125 4.125 C-38.2860672 -0.22244603 -19.2314094 0.04760628 0 0 Z " fill="#8F3C3C" transform="translate(139.125,75.875)"/>
<path d="M0 0 C1.61013166 3.22026333 1.34455806 6.7670783 1.5 10.3125 C1.55982056 11.55640503 1.55982056 11.55640503 1.62084961 12.82543945 C1.70605696 14.60781775 1.78923201 16.39029411 1.87060547 18.17285156 C2.00421213 21.09203106 2.14395384 24.01086608 2.28515625 26.9296875 C2.52766643 31.95293219 2.76506526 36.97639552 3 42 C1.35 42.66 -0.3 43.32 -2 44 C-3.7523923 36.11366898 -4.79873947 28.21261354 -5.6875 20.1875 C-5.82994141 18.98673828 -5.97238281 17.78597656 -6.11914062 16.54882812 C-6.24869141 15.39189453 -6.37824219 14.23496094 -6.51171875 13.04296875 C-6.62990967 12.00164795 -6.74810059 10.96032715 -6.86987305 9.88745117 C-6.99771386 7.05072828 -6.68602262 4.7444062 -6 2 C-4.02 1.34 -2.04 0.68 0 0 Z " fill="#B24A4A" transform="translate(75,26)"/>
<path d="M0 0 C-3.44449133 3.16893202 -6.4292278 3.50137031 -11 4 C-11.99 4.33 -12.98 4.66 -14 5 C-10.04 5.33 -6.08 5.66 -2 6 C-2 6.33 -2 6.66 -2 7 C-49.64457 7.5736588 -49.64457 7.5736588 -65 2 C-65.66 1.34 -66.32 0.68 -67 0 C-65.56260487 -0.02712066 -64.12506137 -0.04645067 -62.6875 -0.0625 C-61.48673828 -0.07990234 -61.48673828 -0.07990234 -60.26171875 -0.09765625 C-58 0 -58 0 -55 1 C-52.25167134 1.09731522 -49.52951694 1.13993365 -46.78125 1.1328125 C-45.96813354 1.13376923 -45.15501709 1.13472595 -44.31726074 1.13571167 C-42.59236575 1.13639245 -40.8674682 1.13454525 -39.14257812 1.13037109 C-36.53769955 1.12507663 -33.93299781 1.13029063 -31.328125 1.13671875 C-22.3857656 1.1407979 -7.79187568 -2.59729189 0 0 Z " fill="#7B3333" transform="translate(152,196)"/>
<path d="M0 0 C3.89491321 3.39769025 4.89446821 4.69140585 5.3125 9.875 C5.209375 10.90625 5.10625 11.9375 5 13 C4.34 13 3.68 13 3 13 C2.34 11.35 1.68 9.7 1 8 C-0.65 8 -2.3 8 -4 8 C-5.04214691 12.61507774 -5.04214691 12.61507774 -4 17 C-0.06924356 16.42547254 -0.06924356 16.42547254 3 14 C3 15.32 3 16.64 3 18 C-6.13031255 23.07491318 -6.13031255 23.07491318 -10 22 C-12.84662074 18.84563648 -13.90939556 16.72483551 -14.4375 12.5 C-13.84937626 7.79501005 -12.49284555 4.59947738 -9.25 1.125 C-5.88750012 -0.55624994 -3.7040516 -0.58485025 0 0 Z " fill="#D85A5A" transform="translate(109,103)"/>
<path d="M0 0 C3.31217963 1.34940652 5.4792773 2.4792773 8 5 C8.66 4.01 9.32 3.02 10 2 C10 6.29 10 10.58 10 15 C9.67 14.01 9.34 13.02 9 12 C6.89416513 12.45060661 4.79037128 12.91075956 2.6875 13.375 C1.51574219 13.63023438 0.34398437 13.88546875 -0.86328125 14.1484375 C-4.12920445 14.85695531 -4.12920445 14.85695531 -7 17 C-6.4375 15.125 -6.4375 15.125 -5 13 C-1.375 11.75 -1.375 11.75 2 11 C-2.03079803 9.65640066 -5.78498671 9.41203619 -10 10 C-12.44098818 11.85420839 -12.44098818 11.85420839 -14 14 C-14.66 14 -15.32 14 -16 14 C-15.63194444 6.76157407 -15.63194444 6.76157407 -12.5625 3.0625 C-8.46809332 -0.23299806 -5.15811581 -0.5560794 0 0 Z " fill="#261010" transform="translate(104,90)"/>
<path d="M0 0 C0.51304688 0.35191406 1.02609375 0.70382812 1.5546875 1.06640625 C12.11175001 7.8734011 24.59551911 13.14437591 37.12890625 14.61328125 C37.74636719 14.74089844 38.36382812 14.86851562 39 15 C39.495 15.99 39.495 15.99 40 17 C42.10810435 17.2701607 44.21868893 17.52743035 46.33544922 17.71826172 C50.96184494 18.20743715 55.50102946 19.16417282 60.0625 20.0625 C61.02349609 20.24876953 61.98449219 20.43503906 62.97460938 20.62695312 C65.31704531 21.08145562 67.65879844 21.53918902 70 22 C69.34 22.66 68.68 23.32 68 24 C64.94186752 23.9211196 62.03201097 23.71389336 59 23.375 C57.65772339 23.23058472 57.65772339 23.23058472 56.28833008 23.08325195 C38.6863946 21.03918626 14.15395144 17.39008984 1.3125 4.25 C0 2 0 2 0 0 Z " fill="#C05050" transform="translate(35,347)"/>
<path d="M0 0 C-1.88332031 0.09087891 -1.88332031 0.09087891 -3.8046875 0.18359375 C-5.49479817 0.26809928 -7.18490197 0.35274209 -8.875 0.4375 C-9.69742188 0.47681641 -10.51984375 0.51613281 -11.3671875 0.55664062 C-12.1921875 0.59853516 -13.0171875 0.64042969 -13.8671875 0.68359375 C-14.61081543 0.72025146 -15.35444336 0.75690918 -16.12060547 0.79467773 C-20.42157526 1.1013689 -24.70950849 1.57095085 -29 2 C-29 8.93 -29 15.86 -29 23 C-34.28 23.33 -39.56 23.66 -45 24 C-46.53266582 20.93466836 -46.10276471 17.73245728 -46.0625 14.375 C-46.05798828 13.66859375 -46.05347656 12.9621875 -46.04882812 12.234375 C-46.03703875 10.48954725 -46.01910324 8.744763 -46 7 C-45.67 7 -45.34 7 -45 7 C-44.67 12.28 -44.34 17.56 -44 23 C-42.35 22.67 -40.7 22.34 -39 22 C-39 18.04 -39 14.08 -39 10 C-38.34 10.33 -37.68 10.66 -37 11 C-35.32345271 10.72057545 -33.65391846 10.39171753 -32 10 C-31.67 8.68 -31.34 7.36 -31 6 C-32.32 5.67 -33.64 5.34 -35 5 C-34 3 -34 3 -31 2 C-30.67 1.34 -30.34 0.68 -30 0 C-22.12573712 -2.62475429 -7.0558428 -4.7038952 0 0 Z " fill="#281010" transform="translate(135,20)"/>
<path d="M0 0 C0.33 0 0.66 0 1 0 C1 1.65 1 3.3 1 5 C5.95 5 10.9 5 16 5 C16 8.3 16 11.6 16 15 C13.70954632 15.22127098 11.41755236 15.4266504 9.125 15.625 C7.84882813 15.74101563 6.57265625 15.85703125 5.2578125 15.9765625 C4.18273437 15.98429687 3.10765625 15.99203125 2 16 C0 14 0 14 -0.1953125 10.7421875 C-0.17210937 9.46601562 -0.14890625 8.18984375 -0.125 6.875 C-0.10695312 5.59367187 -0.08890625 4.31234375 -0.0703125 2.9921875 C-0.04710937 2.00476563 -0.02390625 1.01734375 0 0 Z " fill="#552323" transform="translate(133,26)"/>
<path d="M0 0 C2.3664856 -0.36076355 2.3664856 -0.36076355 5.36767578 -0.34057617 C6.48868683 -0.34034958 7.60969788 -0.34012299 8.76467896 -0.33988953 C9.97928802 -0.32440567 11.19389709 -0.30892181 12.4453125 -0.29296875 C14.30553543 -0.28660149 14.30553543 -0.28660149 16.20333862 -0.28010559 C19.50135463 -0.26613216 22.7989335 -0.23917361 26.09680176 -0.20599365 C29.46161542 -0.17531238 32.82649304 -0.16160446 36.19140625 -0.14648438 C42.79444271 -0.1133473 49.39718558 -0.06309697 56 0 C55.34 1.32 54.68 2.64 54 4 C48.91780945 4.02518237 43.83565713 4.04308161 38.75341797 4.05493164 C37.03335943 4.05988444 35.31330492 4.06664849 33.59326172 4.07543945 C21.68992328 4.13464272 9.87740312 3.79631569 -2 3 C-1.34 2.01 -0.68 1.02 0 0 Z " fill="#7B3333" transform="translate(96,212)"/>
<path d="M0 0 C7.20822151 -0.05063235 14.4163973 -0.08570496 21.62475586 -0.10986328 C24.07789829 -0.11993245 26.53102869 -0.13358861 28.98413086 -0.15087891 C32.50637783 -0.17508679 36.02846639 -0.18647388 39.55078125 -0.1953125 C41.20089958 -0.21079636 41.20089958 -0.21079636 42.88435364 -0.22659302 C44.41560127 -0.22681961 44.41560127 -0.22681961 45.9777832 -0.22705078 C46.87713089 -0.231492 47.77647858 -0.23593323 48.70307922 -0.24050903 C51 0 51 0 54 2 C50.74610012 4.16926659 49.86604043 4.24080049 46.11328125 4.1953125 C45.17548828 4.18886719 44.23769531 4.18242188 43.27148438 4.17578125 C41.80678711 4.15064453 41.80678711 4.15064453 40.3125 4.125 C39.32443359 4.11597656 38.33636719 4.10695313 37.31835938 4.09765625 C34.87866235 4.0740843 32.43945303 4.04118022 30 4 C30 3.34 30 2.68 30 2 C20.1 2 10.2 2 0 2 C0 1.34 0 0.68 0 0 Z " fill="#803535" transform="translate(107,82)"/>
<path d="M0 0 C-3.49672551 3.25256513 -6.24097766 3.47293807 -10.9375 3.6875 C-11.64535645 3.72166016 -12.35321289 3.75582031 -13.08251953 3.79101562 C-22.1417226 4.15855936 -31.22076468 4.04795386 -40.28491211 3.96362305 C-41.49800049 3.95500244 -42.71108887 3.94638184 -43.9609375 3.9375 C-45.05196777 3.92589844 -46.14299805 3.91429687 -47.26708984 3.90234375 C-50.09432329 3.87469222 -50.09432329 3.87469222 -53 5 C-55.84765625 4.51171875 -55.84765625 4.51171875 -59.0625 3.6875 C-60.12597656 3.42324219 -61.18945312 3.15898437 -62.28515625 2.88671875 C-65 2 -65 2 -67 0 C-65.56260487 -0.02712066 -64.12506137 -0.04645067 -62.6875 -0.0625 C-61.48673828 -0.07990234 -61.48673828 -0.07990234 -60.26171875 -0.09765625 C-58 0 -58 0 -55 1 C-52.25167134 1.09731522 -49.52951694 1.13993365 -46.78125 1.1328125 C-45.96813354 1.13376923 -45.15501709 1.13472595 -44.31726074 1.13571167 C-42.59236575 1.13639245 -40.8674682 1.13454525 -39.14257812 1.13037109 C-36.53769955 1.12507663 -33.93299781 1.13029063 -31.328125 1.13671875 C-22.3857656 1.1407979 -7.79187568 -2.59729189 0 0 Z " fill="#873838" transform="translate(152,196)"/>
<path d="M0 0 C2.31 0.33 4.62 0.66 7 1 C7.89604368 7.04829486 8.11269443 12.8894576 8 19 C6.35 19.33 4.7 19.66 3 20 C1.78306124 17.56612247 1.68040104 15.58161154 1.4375 12.875 C1.35371094 11.96492188 1.26992187 11.05484375 1.18359375 10.1171875 C1.12300781 9.41851562 1.06242187 8.71984375 1 8 C0.67 8 0.34 8 0 8 C0 5.36 0 2.72 0 0 Z " fill="#722F2F" transform="translate(88,23)"/>
<path d="M0 0 C2 4 2 4 2 8 C6.29 8 10.58 8 15 8 C15 6.35 15 4.7 15 3 C15.66 3 16.32 3 17 3 C17 8.61 17 14.22 17 20 C17.66 20 18.32 20 19 20 C19 13.4 19 6.8 19 0 C19.33 0 19.66 0 20 0 C20 6.93 20 13.86 20 21 C14.06 21 8.12 21 2 21 C2 20.67 2 20.34 2 20 C6.29 20 10.58 20 15 20 C15 16.7 15 13.4 15 10 C10.05 10 5.1 10 0 10 C0 6.7 0 3.4 0 0 Z " fill="#200D0D" transform="translate(134,21)"/>
<path d="M0 0 C0.53367187 0.19335938 1.06734375 0.38671875 1.6171875 0.5859375 C7.34292699 2.58697448 13.03133562 3.94084244 19 5 C18.67 6.32 18.34 7.64 18 9 C14.30458414 9.95024979 11.69541586 9.95024979 8 9 C8 8.34 8 7.68 8 7 C6.9275 7.020625 5.855 7.04125 4.75 7.0625 C1.85209576 7.0142016 -0.28612141 6.86844115 -3 6 C-2.42655063 3.13275314 -2.1385485 2.1385485 0 0 Z " fill="#B84D4D" transform="translate(89,200)"/>
<path d="M0 0 C0.66 0 1.32 0 2 0 C2.01417969 1.02480469 2.02835938 2.04960937 2.04296875 3.10546875 C2.08989016 4.46618971 2.13813744 5.82686541 2.1875 7.1875 C2.19330078 7.86103516 2.19910156 8.53457031 2.20507812 9.22851562 C2.36410122 12.85070845 2.86098632 14.81552938 5.0546875 17.7265625 C8.51426303 20.39695104 12.0042094 22.31398275 15.9375 24.1875 C16.62779297 24.52974609 17.31808594 24.87199219 18.02929688 25.22460938 C21.94436687 27.13575729 25.82230574 28.72511677 30 30 C29.67 30.66 29.34 31.32 29 32 C19.56060692 31.13851693 9.06685702 26.40592795 2 20 C-1.92480805 14.6877598 -0.40347522 6.22397888 0 0 Z " fill="#1C0B0B" transform="translate(33,351)"/>
<path d="M0 0 C0.02707139 2.24993359 0.04642829 4.49996095 0.0625 6.75 C0.07410156 8.00296875 0.08570313 9.2559375 0.09765625 10.546875 C0.02021027 13.28536501 -0.17219185 15.41880293 -1 18 C-2.65 18 -4.3 18 -6 18 C-6.08074203 15.37438891 -6.1403623 12.75124324 -6.1875 10.125 C-6.21263672 9.37863281 -6.23777344 8.63226563 -6.26367188 7.86328125 C-6.29296875 5.6953125 -6.29296875 5.6953125 -6 2 C-3 0 -3 0 0 0 Z " fill="#6D2D2D" transform="translate(191,25)"/>
<path d="M0 0 C2.54999255 2.34599314 2.31682465 5.12088281 2.5625 8.4375 C1.9025 8.4375 1.2425 8.4375 0.5625 8.4375 C0.2325 9.0975 -0.0975 9.7575 -0.4375 10.4375 C-0.4375 7.7975 -0.4375 5.1575 -0.4375 2.4375 C-9.76804453 1.42818629 -17.7635615 4.42422112 -26.4375 7.4375 C-26.7675 9.0875 -27.0975 10.7375 -27.4375 12.4375 C-28.0975 12.1075 -28.7575 11.7775 -29.4375 11.4375 C-29.22265625 9.10546875 -29.22265625 9.10546875 -28.4375 6.4375 C-20.69851442 0.59931789 -9.46946754 -2.18526174 0 0 Z " fill="#160808" transform="translate(95.4375,21.5625)"/>
<path d="M0 0 C4.04248383 0.61557446 7.98915976 1.45423946 11.96435547 2.40869141 C20.22059462 4.37256292 28.34250701 5.65052064 36.80541992 6.31616211 C40.68574249 6.64225709 43.59856693 7.1218791 47 9 C42.49928861 8.91860224 37.99988071 8.80580044 33.5 8.6875 C32.2315625 8.66494141 30.963125 8.64238281 29.65625 8.61914062 C22.74524041 8.421169 17.28881425 7.90941585 11 5 C9.948125 4.649375 8.89625 4.29875 7.8125 3.9375 C5.16113734 3.05371245 2.58360366 2.0638368 0 1 C0 0.67 0 0.34 0 0 Z " fill="#AC4848" transform="translate(70,277)"/>
<path d="M0 0 C0.80566406 0.04833984 1.61132812 0.09667969 2.44140625 0.14648438 C3.28316406 0.20255859 4.12492187 0.25863281 4.9921875 0.31640625 C6.26642578 0.3947168 6.26642578 0.3947168 7.56640625 0.47460938 C9.66697874 0.60442003 11.76712941 0.74102365 13.8671875 0.87890625 C13.8671875 1.86890625 13.8671875 2.85890625 13.8671875 3.87890625 C10.25886717 5.42532925 8.59348243 6.13088613 4.8046875 4.81640625 C1.82480251 3.49568565 1.82480251 3.49568565 -1.0078125 5.25390625 C-1.7090625 5.79015625 -2.4103125 6.32640625 -3.1328125 6.87890625 C-3.1328125 5.88890625 -3.1328125 4.89890625 -3.1328125 3.87890625 C-4.1228125 4.20890625 -5.1128125 4.53890625 -6.1328125 4.87890625 C-6.1328125 3.55890625 -6.1328125 2.23890625 -6.1328125 0.87890625 C-3.77622853 -0.29938574 -2.60708014 -0.16523747 0 0 Z " fill="#8B3A3A" transform="translate(108.1328125,290.12109375)"/>
<path d="M0 0 C2.5 -0.375 2.5 -0.375 5 0 C7 3 7 3 6.75 6.0625 C6 9 6 9 4 11 C-0.55555556 10.44444444 -0.55555556 10.44444444 -2 9 C-2.26293056 4.96839809 -2.29404844 3.44107266 0 0 Z " fill="#180A0A" transform="translate(132,110)"/>
<path d="M0 0 C6.93 0.33 13.86 0.66 21 1 C21.33 2.32 21.66 3.64 22 5 C13.89563895 6.98474148 6.74839684 4.3507506 -1 2 C-0.67 1.34 -0.34 0.68 0 0 Z " fill="#8E3B3B" transform="translate(101,216)"/>
<path d="M0 0 C-1.69539098 2.88932829 -2.69145942 3.88825828 -5.890625 5.046875 C-17.16666667 7.40697674 -17.16666667 7.40697674 -23 7 C-23 6.01 -23 5.02 -23 4 C-22.3709375 3.89042969 -21.741875 3.78085938 -21.09375 3.66796875 C-16.77541612 2.86803642 -12.75008537 2.00589122 -8.6875 0.3125 C-5.05862497 -0.97913349 -3.56952506 -1.22702424 0 0 Z " fill="#843737" transform="translate(130,143)"/>
<path d="M0 0 C14.6954525 -0.14630428 29.32210248 0.28548816 44 1 C43.67 1.66 43.34 2.32 43 3 C38.16196154 3.04975831 33.32407491 3.08588788 28.48583984 3.10986328 C26.84290977 3.11986737 25.19999726 3.13347494 23.55712891 3.15087891 C21.18387495 3.17537515 18.81085815 3.18653917 16.4375 3.1953125 C15.71320801 3.20563507 14.98891602 3.21595764 14.24267578 3.22659302 C9.19283085 3.2276826 4.85989233 2.38239063 0 1 C0 0.67 0 0.34 0 0 Z " fill="#7C3434" transform="translate(89,287)"/>
<path d="M0 0 C2.5625 -0.25 2.5625 -0.25 5 0 C6.89488952 1.89488952 6.18019112 4.57139146 6.23046875 7.08984375 C6 9 6 9 4 11 C1.375 10.625 1.375 10.625 -1 10 C-2.25 3.375 -2.25 3.375 0 0 Z " fill="#1D0C0C" transform="translate(105,110)"/>
<path d="M0 0 C2.64 0 5.28 0 8 0 C8 2.97 8 5.94 8 9 C5.36 9 2.72 9 0 9 C0 6.03 0 3.06 0 0 Z " fill="#5C2626" transform="translate(97,33)"/>
<path d="M0 0 C16.94508231 -0.47807442 16.94508231 -0.47807442 23 2 C25.39913003 4.55766285 26 5.4304148 26 9 C25.01 9 24.02 9 23 9 C22.87625 8.360625 22.7525 7.72125 22.625 7.0625 C22.41875 6.381875 22.2125 5.70125 22 5 C19.69973614 3.84986807 17.98752064 3.70767601 15.4296875 3.46484375 C14.08583984 3.33432617 14.08583984 3.33432617 12.71484375 3.20117188 C11.77769531 3.11416016 10.84054688 3.02714844 9.875 2.9375 C8.93011719 2.84662109 7.98523438 2.75574219 7.01171875 2.66210938 C4.67479389 2.43785901 2.33757884 2.21730943 0 2 C0 1.34 0 0.68 0 0 Z " fill="#220E0E" transform="translate(155,19)"/>
<path d="M0 0 C0.66 0.33 1.32 0.66 2 1 C2 1.99 2 2.98 2 4 C-2.2505466 5.85961414 -6.49933525 6.93204565 -11 8 C-11 6.02 -11 4.04 -11 2 C-7.17291493 0.19901879 -4.22146566 -0.28143104 0 0 Z " fill="#C85454" transform="translate(91,74)"/>
<path d="M0 0 C7.59 1.32 15.18 2.64 23 4 C22.67 4.99 22.34 5.98 22 7 C14.1753241 6.32545897 6.65443386 4.73123042 -1 3 C-0.67 2.01 -0.34 1.02 0 0 Z " fill="#AC4848" transform="translate(86,275)"/>
<path d="M0 0 C10.56 0 21.12 0 32 0 C32 0.33 32 0.66 32 1 C26.39 1 20.78 1 15 1 C15 1.66 15 2.32 15 3 C12.87506859 3.02693575 10.75004088 3.04636628 8.625 3.0625 C7.44164063 3.07410156 6.25828125 3.08570313 5.0390625 3.09765625 C2 3 2 3 0 2 C0 1.34 0 0.68 0 0 Z " fill="#692C2C" transform="translate(117,357)"/>
<path d="M0 0 C0.99 -0.33 1.98 -0.66 3 -1 C3.9590625 -0.7525 3.9590625 -0.7525 4.9375 -0.5 C7.31772734 0.07702481 8.69706679 -0.25977147 11 -1 C11 -0.01 11 0.98 11 2 C3.67386859 2.761788 -3.65835626 3.40711812 -11 4 C-10.18359375 2.05078125 -10.18359375 2.05078125 -9 0 C-5.41410857 -0.99184231 -3.55287397 -1.18429132 0 0 Z " fill="#8E3B3B" transform="translate(137,341)"/>
<path d="M0 0 C-0.66 0 -1.32 0 -2 0 C-2 0.99 -2 1.98 -2 3 C-1.34 3.33 -0.68 3.66 0 4 C-4.46236469 5.80619523 -7.31034294 6.11658501 -12 5 C-12.33 4.01 -12.66 3.02 -13 2 C-11.5882217 1.46605821 -10.17029756 0.94834896 -8.75 0.4375 C-7.96109375 0.14746094 -7.1721875 -0.14257812 -6.359375 -0.44140625 C-3.80896548 -1.04522837 -2.44677771 -0.8473932 0 0 Z " fill="#883939" transform="translate(87,69)"/>
<path d="M0 0 C3.3 0 6.6 0 10 0 C10 0.66 10 1.32 10 2 C18.52465003 3.03815092 18.52465003 3.03815092 27 2 C27.99 3.485 27.99 3.485 29 5 C15.3667426 5.18451025 15.3667426 5.18451025 9 4 C9 3.34 9 2.68 9 2 C6.03 1.67 3.06 1.34 0 1 C0 0.67 0 0.34 0 0 Z " fill="#A14343" transform="translate(87,207)"/>
<path d="M0 0 C-1.175625 0.5259375 -1.175625 0.5259375 -2.375 1.0625 C-5.84055428 3.62040911 -5.89181708 5.93666263 -7 10 C-9.85729372 12.2661295 -12.43803486 12.19788695 -16 12 C-16 11.34 -16 10.68 -16 10 C-14.88625 9.649375 -13.7725 9.29875 -12.625 8.9375 C-10.65963314 8.195297 -10.65963314 8.195297 -9 7 C-7.70079254 3.45411499 -7.70079254 3.45411499 -7 0 C-3.86650268 -1.04449911 -3.01031744 -0.93423645 0 0 Z " fill="#1C0B0B" transform="translate(200,76)"/>
<path d="M0 0 C0 2.97 0 5.94 0 9 C-1.32 9.33 -2.64 9.66 -4 10 C-6 8 -6 8 -6.125 4.375 C-6.08375 3.26125 -6.0425 2.1475 -6 1 C-4 0 -4 0 0 0 Z " fill="#522222" transform="translate(183,34)"/>
<path d="M0 0 C0.66 0 1.32 0 2 0 C2.03738281 1.03640625 2.07476562 2.0728125 2.11328125 3.140625 C2.17895788 4.51045184 2.24540464 5.88024191 2.3125 7.25 C2.33505859 7.93191406 2.35761719 8.61382812 2.38085938 9.31640625 C2.6084555 13.57866091 3.32921883 15.73820563 6 19 C5.67 19.99 5.34 20.98 5 22 C1.7317516 18.73689845 -0.31745866 16.63317427 -0.48828125 11.9140625 C-0.45547135 10.48355102 -0.39644891 9.05342296 -0.3125 7.625 C-0.28994141 6.88894531 -0.26738281 6.15289062 -0.24414062 5.39453125 C-0.18572927 3.59546158 -0.09606337 1.79745247 0 0 Z " fill="#120606" transform="translate(33,351)"/>
<path d="M0 0 C4.95618861 -0.35261421 8.82917054 -0.5637327 13.375 1.625 C18.07399385 5.87647062 20.39565443 9.6543715 21 16 C19.02 14.35 17.04 12.7 15 11 C15.66 10.34 16.32 9.68 17 9 C11.35640447 3.04287139 7.96572712 1.79657271 0 1 C0 0.67 0 0.34 0 0 Z " fill="#200D0D" transform="translate(135,86)"/>
<path d="M0 0 C-6.46668344 4.3111223 -14.93863757 3.12035472 -22.4375 3.0625 C-23.55060547 3.05798828 -24.66371094 3.05347656 -25.81054688 3.04882812 C-28.54042101 3.03711193 -31.27018174 3.02070699 -34 3 C-30.7754824 0.8503216 -29.69984865 0.7170521 -25.95703125 0.5859375 C-24.96509766 0.54726562 -23.97316406 0.50859375 -22.95117188 0.46875 C-21.91541016 0.4378125 -20.87964844 0.406875 -19.8125 0.375 C-18.28786133 0.31699219 -18.28786133 0.31699219 -16.73242188 0.2578125 C-11.15192759 0.05606448 -5.58384003 -0.0401234 0 0 Z " fill="#A04343" transform="translate(129,76)"/>
<path d="M0 0 C-0.33 0.66 -0.66 1.32 -1 2 C-6.98652548 3.95713333 -12.51894027 5.13832602 -18.8125 5.0625 C-20.27623047 5.04896484 -20.27623047 5.04896484 -21.76953125 5.03515625 C-22.87361328 5.01775391 -22.87361328 5.01775391 -24 5 C-24 4.67 -24 4.34 -24 4 C-23.21496094 3.87882812 -22.42992187 3.75765625 -21.62109375 3.6328125 C-14.77000228 2.57869702 -14.77000228 2.57869702 -8.0625 0.875 C-5.19122231 0.05463495 -2.96211978 -0.17952241 0 0 Z " fill="#823636" transform="translate(178,282)"/>
<path d="M0 0 C2.29013653 3.4352048 2.17842973 4.985331 2 9 C3.65 9 5.3 9 7 9 C7 7.68 7 6.36 7 5 C7.66 5 8.32 5 9 5 C9.042721 6.66611905 9.04063832 8.33382885 9 10 C8.67 10.33 8.34 10.66 8 11 C6.30858344 10.91036938 4.62040398 10.75422324 2.9375 10.5625 C2.01839844 10.46066406 1.09929687 10.35882813 0.15234375 10.25390625 C-0.55792969 10.17011719 -1.26820313 10.08632813 -2 10 C-1.34 9.67 -0.68 9.34 0 9 C0 6.03 0 3.06 0 0 Z " fill="#321515" transform="translate(183,34)"/>
<path d="M0 0 C1.16402344 0.02320313 1.16402344 0.02320313 2.3515625 0.046875 C4.375 0.25 4.375 0.25 6.375 1.25 C6.375 1.91 6.375 2.57 6.375 3.25 C1.425 3.25 -3.525 3.25 -8.625 3.25 C-4.10845784 -0.13740662 -4.10845784 -0.13740662 0 0 Z " fill="#281414" transform="translate(137.625,389.75)"/>
<path d="M0 0 C6.6 0 13.2 0 20 0 C20 0.66 20 1.32 20 2 C12.80798031 2.88701576 6.93171463 3.26613747 0 1 C0 0.67 0 0.34 0 0 Z " fill="#562424" transform="translate(89,287)"/>
<path d="M0 0 C9.41002278 -0.3690205 9.41002278 -0.3690205 14 2 C14 2.33 14 2.66 14 3 C10.04 3 6.08 3 2 3 C2 2.34 2 1.68 2 1 C1.34 0.67 0.68 0.34 0 0 Z " fill="#170909" transform="translate(142,390)"/>
<path d="M0 0 C0.66 0 1.32 0 2 0 C1.49890042 4.38462134 0.01704885 6.8000997 -3 10 C-3.66 10 -4.32 10 -5 10 C-4.38479725 6.00118212 -2.39731331 3.19641774 0 0 Z " fill="#150808" transform="translate(189,190)"/>
<path d="M0 0 C1.60379341 -0.05416188 3.20811406 -0.09286638 4.8125 -0.125 C5.70582031 -0.14820313 6.59914063 -0.17140625 7.51953125 -0.1953125 C10 0 10 0 13 2 C13 2.66 13 3.32 13 4 C11.125 4.625 11.125 4.625 9 5 C8.34 4.34 7.68 3.68 7 3 C4.68234271 2.28072705 2.34904126 1.6090107 0 1 C0 0.67 0 0.34 0 0 Z " fill="#883939" transform="translate(78,283)"/>
<path d="M0 0 C-3.08035356 3.08035356 -6.81125605 4.06916801 -11 5 C-11 3.68 -11 2.36 -11 1 C-7.27569643 0.30710631 -3.78916254 -0.11144596 0 0 Z " fill="#9C4141" transform="translate(93,79)"/>
<path d="M0 0 C0.33 0 0.66 0 1 0 C1.33 4.62 1.66 9.24 2 14 C1.34 14 0.68 14 0 14 C-0.99293628 11.02119115 -1.13406411 8.98398802 -1.125 5.875 C-1.12757812 4.98554687 -1.13015625 4.09609375 -1.1328125 3.1796875 C-1 1 -1 1 0 0 Z " fill="#2A1212" transform="translate(68,33)"/>
<path d="M0 0 C-0.99 0.495 -0.99 0.495 -2 1 C-1.67 1.66 -1.34 2.32 -1 3 C-3.97 3.66 -6.94 4.32 -10 5 C-10 4.01 -10 3.02 -10 2 C-3.375 -1.125 -3.375 -1.125 0 0 Z " fill="#AA4747" transform="translate(139,98)"/>
<path d="M0 0 C0.33 0.99 0.66 1.98 1 3 C1.99 3.66 2.98 4.32 4 5 C1.36 5.66 -1.28 6.32 -4 7 C-4 5.02 -4 3.04 -4 1 C-2 0 -2 0 0 0 Z " fill="#B34B4B" transform="translate(84,75)"/>
<path d="M0 0 C0 0.99 0 1.98 0 3 C-3.28696233 3.79953138 -4.71023192 4.09658936 -8 3 C-8 2.34 -8 1.68 -8 1 C-5.07175348 0.02391783 -3.04386724 -0.08226668 0 0 Z " fill="#823636" transform="translate(122,291)"/>
<path d="M0 0 C0.33 0.66 0.66 1.32 1 2 C2.31774196 2.39044206 3.65667272 2.70955086 5 3 C7.00382009 3.65509503 9.00458132 4.31974363 11 5 C11 5.33 11 5.66 11 6 C8 6 5 6 2 6 C1.34 5.34 0.68 4.68 0 4 C0 2.68 0 1.36 0 0 Z " fill="#903C3C" transform="translate(85,204)"/>
<path d="M0 0 C2.31 0 4.62 0 7 0 C7.33 1.32 7.66 2.64 8 4 C5.69 3.67 3.38 3.34 1 3 C0.67 2.01 0.34 1.02 0 0 Z " fill="#793333" transform="translate(115,217)"/>
<path d="M0 0 C0.33 0 0.66 0 1 0 C1.19601608 1.74906659 1.38147403 3.49931846 1.5625 5.25 C1.66691406 6.22453125 1.77132812 7.1990625 1.87890625 8.203125 C1.98974468 10.7631352 1.77738092 12.58148159 1 15 C0.34 15 -0.32 15 -1 15 C-0.67 10.05 -0.34 5.1 0 0 Z " fill="#1D1111" transform="translate(84,134)"/>
<path d="M0 0 C2.67927341 4.01891012 2.15601248 6.24161923 2 11 C1.01 11 0.02 11 -1 11 C-0.67 7.37 -0.34 3.74 0 0 Z " fill="#321313" transform="translate(202,55)"/>
<path d="M0 0 C0 0.66 0 1.32 0 2 C-2.31 2.33 -4.62 2.66 -7 3 C-7 2.34 -7 1.68 -7 1 C-7.99 0.67 -8.98 0.34 -10 0 C-6.33694766 -0.74926071 -3.57644848 -1.2380014 0 0 Z " fill="#291010" transform="translate(191,386)"/>
<path d="M0 0 C3.07921132 -0.25660094 5.21136993 -0.39431504 8 1 C8 1.66 8 2.32 8 3 C4.7 3 1.4 3 -2 3 C-1.34 2.01 -0.68 1.02 0 0 Z " fill="#712F2F" transform="translate(96,212)"/>
<path d="M0 0 C1.9375 0.6875 1.9375 0.6875 4 2 C4.75 4.625 4.75 4.625 5 7 C4.01 7 3.02 7 2 7 C1.814375 6.071875 1.814375 6.071875 1.625 5.125 C1.12802644 2.80879168 1.12802644 2.80879168 -1 1 C-0.67 0.67 -0.34 0.34 0 0 Z " fill="#591E1E" transform="translate(176,21)"/>
<path d="M0 0 C2 2 2 2 2.125 4.625 C2.08375 5.40875 2.0425 6.1925 2 7 C1.34 7 0.68 7 0 7 C-0.33 7.66 -0.66 8.32 -1 9 C-1.125 2.25 -1.125 2.25 0 0 Z " fill="#270B0B" transform="translate(96,23)"/>
<path d="M0 0 C1.65 0 3.3 0 5 0 C5.33 0.99 5.66 1.98 6 3 C3.69 2.67 1.38 2.34 -1 2 C-0.67 1.34 -0.34 0.68 0 0 Z " fill="#2F1414" transform="translate(108,389)"/>
<path d="M0 0 C0.598125 0.20625 1.19625 0.4125 1.8125 0.625 C0.5625 2.125 0.5625 2.125 -1.1875 3.625 C-2.5075 3.625 -3.8275 3.625 -5.1875 3.625 C-5.1875 2.965 -5.1875 2.305 -5.1875 1.625 C-2.1875 -0.375 -2.1875 -0.375 0 0 Z " fill="#793232" transform="translate(128.1875,143.375)"/>
</svg>
