<?xml version="1.0" encoding="UTF-8"?>
<svg version="1.1" xmlns="http://www.w3.org/2000/svg" width="286" height="428">
<path d="M0 0 C3.84321017 3.06973391 6.51989757 5.90302625 8.05078125 10.67578125 C8.82746868 17.99414589 8.35779251 23.41406733 3.73828125 29.3671875 C2.54252016 30.83131542 1.30037643 32.25732186 0.05078125 33.67578125 C0.84484375 34.30226562 1.63890625 34.92875 2.45703125 35.57421875 C3.47796875 36.39148437 4.49890625 37.20875 5.55078125 38.05078125 C6.57171875 38.86289062 7.59265625 39.675 8.64453125 40.51171875 C9.43859375 41.22585937 10.23265625 41.94 11.05078125 42.67578125 C11.05078125 43.33578125 11.05078125 43.99578125 11.05078125 44.67578125 C11.59089844 44.8665625 12.13101563 45.05734375 12.6875 45.25390625 C16.17186845 47.35028661 18.35442626 50.26350856 20.86328125 53.42578125 C21.39300537 54.09246826 21.92272949 54.75915527 22.46850586 55.44604492 C27.37179151 61.79671756 30.95211016 68.27340032 34.05078125 75.67578125 C34.40914062 76.51238281 34.7675 77.34898438 35.13671875 78.2109375 C39.13432175 89.19517694 38.16171109 101.27715626 33.62109375 111.86328125 C32.10034664 114.58700741 30.55295652 116.47694416 28.36328125 118.67578125 C24.2919983 122.81725873 24.09764132 126.91381162 23.515625 132.53125 C22.87176001 136.88680727 21.26825174 139.90608142 19.05078125 143.67578125 C19.93830078 144.03929687 19.93830078 144.03929687 20.84375 144.41015625 C31.72572949 149.02567773 31.72572949 149.02567773 34.05078125 153.67578125 C34.54091627 158.57713144 34.66198219 160.68257971 32.05078125 164.92578125 C27.13201196 170.03907814 20.72231194 171.84311981 14.05078125 173.67578125 C11.93434435 200.73593871 11.22548561 229.7472339 26.05078125 253.67578125 C26.34597656 254.371875 26.64117187 255.06796875 26.9453125 255.78515625 C28.33283454 258.15816214 29.55976487 258.59634082 32.05078125 259.67578125 C38.63664234 263.87895276 38.63664234 263.87895276 39.53515625 267.77734375 C39.55611415 270.65905551 39.34930188 273.07873998 38.05078125 275.67578125 C37.62767134 280.60053064 37.62767134 280.60053064 39.55078125 284.98828125 C40.04578125 285.54515625 40.54078125 286.10203125 41.05078125 286.67578125 C41.05078125 287.33578125 41.05078125 287.99578125 41.05078125 288.67578125 C42.11619141 289.03349609 42.11619141 289.03349609 43.203125 289.3984375 C50.46905168 292.65763918 56.82865842 298.80723013 59.73828125 306.23828125 C62.14270474 314.60661792 61.50483854 320.7602333 58.05078125 328.67578125 C58.64890625 328.84078125 59.24703125 329.00578125 59.86328125 329.17578125 C63.32202487 331.54749116 64.17523267 334.75133656 65.05078125 338.67578125 C66.05281582 345.89836707 65.63730436 352.22586031 61.453125 358.359375 C56.05962918 363.55993275 48.9554067 366.04623708 42.05078125 368.67578125 C41.05546387 369.06854248 41.05546387 369.06854248 40.04003906 369.46923828 C29.37502846 373.59141414 18.71976025 374.74890664 7.36865234 375.51269531 C5.45421637 375.64739546 3.54277835 375.82399639 1.6328125 376.01171875 C-30.1197311 379.11566621 -70.42633679 378.80316163 -97.94921875 360.67578125 C-101.70259487 357.36892746 -104.78388063 353.97779658 -105.15234375 348.84765625 C-105.25253831 341.53345311 -105.25312271 336.32146838 -100.13671875 330.67578125 C-99.74484375 330.01578125 -99.35296875 329.35578125 -98.94921875 328.67578125 C-99.55930539 326.65780237 -100.23778787 324.66029896 -100.94921875 322.67578125 C-101.80807201 315.44262644 -100.62228713 309.28318603 -96.26171875 303.3984375 C-94.55954936 301.38065753 -92.90588658 299.44856945 -90.94921875 297.67578125 C-90.28921875 297.67578125 -89.62921875 297.67578125 -88.94921875 297.67578125 C-88.94921875 297.01578125 -88.94921875 296.35578125 -88.94921875 295.67578125 C-87.37252506 294.30562861 -85.73678037 293.00286423 -84.07421875 291.73828125 C-81.0673433 289.44671663 -79.0586785 287.83997087 -76.94921875 284.67578125 C-76.6696043 281.99954291 -76.6696043 281.99954291 -76.76171875 279.11328125 C-76.76816406 278.14261719 -76.77460937 277.17195313 -76.78125 276.171875 C-76.78777204 273.67688141 -76.78777204 273.67688141 -77.94921875 271.67578125 C-78.33894218 268.16827037 -78.31837598 266.27566175 -76.44921875 263.23828125 C-74.39077993 261.12838145 -72.31824653 259.26339672 -70.07421875 257.36328125 C-55.16897805 244.47674662 -49.8827366 221.95237557 -48.11230469 202.92773438 C-47.45564454 193.86031938 -47.21248203 184.76157487 -46.94921875 175.67578125 C-48.13902344 175.56878906 -49.32882813 175.46179688 -50.5546875 175.3515625 C-54.53941352 174.85028941 -57.66620302 173.70534184 -61.26171875 171.86328125 C-62.26847656 171.36183594 -63.27523437 170.86039063 -64.3125 170.34375 C-66.97901824 168.65693031 -68.38277734 167.3933994 -69.94921875 164.67578125 C-70.3201818 160.52099504 -70.53141395 157.07958401 -67.94921875 153.67578125 C-62.72699653 149.67578125 -62.72699653 149.67578125 -58.94921875 149.67578125 C-59.64789063 148.79277344 -60.3465625 147.90976563 -61.06640625 147 C-71.49912282 133.42187453 -71.49912282 133.42187453 -70.94921875 124.67578125 C-69.69028931 119.82957974 -67.7174999 115.82820298 -64.94921875 111.67578125 C-65.24498732 108.42232701 -65.98404394 105.56612178 -66.97265625 102.453125 C-70.05932393 90.51389443 -68.25342911 78.57591419 -62.40625 67.84375 C-56.88494525 58.81003628 -50.24471202 50.81765946 -42.82421875 43.30078125 C-42.33348877 42.80070557 -41.84275879 42.30062988 -41.3371582 41.78540039 C-38.09371685 38.57019593 -34.79680647 36.08480501 -30.94921875 33.67578125 C-31.71234375 32.95390625 -32.47546875 32.23203125 -33.26171875 31.48828125 C-38.24459441 26.27364393 -40.10150652 21.86844957 -39.94921875 14.67578125 C-39.03367533 8.234664 -36.32971156 4.12391293 -31.25390625 0.1171875 C-21.61592087 -5.91063726 -9.49153547 -6.44815736 0 0 Z " fill="#D2952C" transform="translate(160.94921875,24.32421875)"/>
<path d="M0 0 C-0.0721875 0.64839844 -0.144375 1.29679688 -0.21875 1.96484375 C-1.89040836 19.63334388 -2.31061386 37.69501147 2 55 C2.17692383 55.72687012 2.35384766 56.45374023 2.53613281 57.20263672 C4.61086661 65.50336355 6.92349448 72.95382946 11.765625 80.1171875 C13 82 13 82 14 85 C15.84439956 86.11263804 15.84439956 86.11263804 18 87 C21.16048242 88.52662025 23.21681029 89.92373705 25 93 C25.07988942 96.4788211 24.8975903 99.65912492 24.3605957 103.08642578 C23.80246682 107.05946599 23.87053706 108.77364005 25.89453125 112.3125 C26.58933594 113.199375 27.28414062 114.08625 28 115 C28.33 115.99 28.66 116.98 29 118 C30.65545502 118.69403956 32.32422238 119.35657822 34 120 C40.07410997 124.47990835 44.99222067 128.88112087 46.4921875 136.5 C47.35705424 142.85412301 47.13801609 148.30080901 44 154 C41.91622299 156.2362485 40.51877157 157.45833809 38 159 C37.071875 159.61101562 37.071875 159.61101562 36.125 160.234375 C19.65328533 169.76443849 -3.45104578 171.20988227 -22 172 C-23.78277344 172.08121094 -23.78277344 172.08121094 -25.6015625 172.1640625 C-48.71375052 172.68185083 -85.3453294 172.77932294 -104.0625 157.5 C-104.701875 156.675 -105.34125 155.85 -106 155 C-106.598125 154.29875 -107.19625 153.5975 -107.8125 152.875 C-109.94102587 147.72172684 -109.85984553 142.19289305 -108.4140625 136.82421875 C-105.03052674 129.07933644 -97.91948261 123.60379425 -91.625 118.25 C-86.57741786 113.84805247 -86.57741786 113.84805247 -84.796875 107.5390625 C-84.59514138 102.60932262 -84.59514138 102.60932262 -86 98 C-86.4140625 95.203125 -86.4140625 95.203125 -86 92 C-84.15206151 89.97863039 -82.49056959 88.43058686 -80.375 86.75 C-74.89733505 82.05931451 -71.1592481 77.56073888 -68 71 C-67.58621094 70.20335937 -67.17242187 69.40671875 -66.74609375 68.5859375 C-58.66739399 51.41553488 -56.1592627 31.69149793 -55.4375 12.9375 C-55.37272461 11.35291992 -55.37272461 11.35291992 -55.30664062 9.73632812 C-55.20162663 7.15765121 -55.09947123 4.57889565 -55 2 C-53.94200195 2.00523682 -52.88400391 2.01047363 -51.79394531 2.01586914 C-47.81299712 2.03417202 -43.83205253 2.04552301 -39.85107422 2.05493164 C-38.13850272 2.05991472 -36.42593537 2.0667036 -34.71337891 2.07543945 C-23.08778615 2.13319371 -11.32767275 0 0 0 Z " fill="#CF922A" transform="translate(172,198)"/>
<path d="M0 0 C3.84321017 3.06973391 6.51989757 5.90302625 8.05078125 10.67578125 C8.82746868 17.99414589 8.35779251 23.41406733 3.73828125 29.3671875 C2.54252016 30.83131542 1.30037643 32.25732186 0.05078125 33.67578125 C0.84484375 34.30226562 1.63890625 34.92875 2.45703125 35.57421875 C3.47796875 36.39148437 4.49890625 37.20875 5.55078125 38.05078125 C6.57171875 38.86289062 7.59265625 39.675 8.64453125 40.51171875 C9.43859375 41.22585937 10.23265625 41.94 11.05078125 42.67578125 C11.05078125 43.33578125 11.05078125 43.99578125 11.05078125 44.67578125 C11.59089844 44.8665625 12.13101563 45.05734375 12.6875 45.25390625 C16.17186845 47.35028661 18.35442626 50.26350856 20.86328125 53.42578125 C21.39300537 54.09246826 21.92272949 54.75915527 22.46850586 55.44604492 C27.37179151 61.79671756 30.95211016 68.27340032 34.05078125 75.67578125 C34.40914062 76.51238281 34.7675 77.34898438 35.13671875 78.2109375 C39.13432175 89.19517694 38.16171109 101.27715626 33.62109375 111.86328125 C32.10034664 114.58700741 30.55295652 116.47694416 28.36328125 118.67578125 C24.2919983 122.81725873 24.09764132 126.91381162 23.515625 132.53125 C22.87176001 136.88680727 21.26825174 139.90608142 19.05078125 143.67578125 C19.93830078 144.03929687 19.93830078 144.03929687 20.84375 144.41015625 C31.72572949 149.02567773 31.72572949 149.02567773 34.05078125 153.67578125 C34.54091627 158.57713144 34.66198219 160.68257971 32.05078125 164.92578125 C27.13201196 170.03907814 20.72231194 171.84311981 14.05078125 173.67578125 C11.93434435 200.73593871 11.22548561 229.7472339 26.05078125 253.67578125 C26.34597656 254.371875 26.64117187 255.06796875 26.9453125 255.78515625 C28.33283454 258.15816214 29.55976487 258.59634082 32.05078125 259.67578125 C38.63664234 263.87895276 38.63664234 263.87895276 39.53515625 267.77734375 C39.55611415 270.65905551 39.34930188 273.07873998 38.05078125 275.67578125 C37.62767134 280.60053064 37.62767134 280.60053064 39.55078125 284.98828125 C40.04578125 285.54515625 40.54078125 286.10203125 41.05078125 286.67578125 C41.05078125 287.33578125 41.05078125 287.99578125 41.05078125 288.67578125 C42.11619141 289.03349609 42.11619141 289.03349609 43.203125 289.3984375 C50.46905168 292.65763918 56.82865842 298.80723013 59.73828125 306.23828125 C62.14270474 314.60661792 61.50483854 320.7602333 58.05078125 328.67578125 C58.64890625 328.84078125 59.24703125 329.00578125 59.86328125 329.17578125 C63.32202487 331.54749116 64.17523267 334.75133656 65.05078125 338.67578125 C66.05281582 345.89836707 65.63730436 352.22586031 61.453125 358.359375 C56.05962918 363.55993275 48.9554067 366.04623708 42.05078125 368.67578125 C41.05546387 369.06854248 41.05546387 369.06854248 40.04003906 369.46923828 C29.37502846 373.59141414 18.71976025 374.74890664 7.36865234 375.51269531 C5.45421637 375.64739546 3.54277835 375.82399639 1.6328125 376.01171875 C-30.1197311 379.11566621 -70.42633679 378.80316163 -97.94921875 360.67578125 C-101.70259487 357.36892746 -104.78388063 353.97779658 -105.15234375 348.84765625 C-105.25253831 341.53345311 -105.25312271 336.32146838 -100.13671875 330.67578125 C-99.74484375 330.01578125 -99.35296875 329.35578125 -98.94921875 328.67578125 C-99.55930539 326.65780237 -100.23778787 324.66029896 -100.94921875 322.67578125 C-101.80807201 315.44262644 -100.62228713 309.28318603 -96.26171875 303.3984375 C-94.55954936 301.38065753 -92.90588658 299.44856945 -90.94921875 297.67578125 C-90.28921875 297.67578125 -89.62921875 297.67578125 -88.94921875 297.67578125 C-88.94921875 297.01578125 -88.94921875 296.35578125 -88.94921875 295.67578125 C-87.37252506 294.30562861 -85.73678037 293.00286423 -84.07421875 291.73828125 C-81.0673433 289.44671663 -79.0586785 287.83997087 -76.94921875 284.67578125 C-76.6696043 281.99954291 -76.6696043 281.99954291 -76.76171875 279.11328125 C-76.76816406 278.14261719 -76.77460937 277.17195313 -76.78125 276.171875 C-76.78777204 273.67688141 -76.78777204 273.67688141 -77.94921875 271.67578125 C-78.33894218 268.16827037 -78.31837598 266.27566175 -76.44921875 263.23828125 C-74.39077993 261.12838145 -72.31824653 259.26339672 -70.07421875 257.36328125 C-55.16897805 244.47674662 -49.8827366 221.95237557 -48.11230469 202.92773438 C-47.45564454 193.86031938 -47.21248203 184.76157487 -46.94921875 175.67578125 C-48.13902344 175.56878906 -49.32882813 175.46179688 -50.5546875 175.3515625 C-54.53941352 174.85028941 -57.66620302 173.70534184 -61.26171875 171.86328125 C-62.26847656 171.36183594 -63.27523437 170.86039063 -64.3125 170.34375 C-66.97901824 168.65693031 -68.38277734 167.3933994 -69.94921875 164.67578125 C-70.3201818 160.52099504 -70.53141395 157.07958401 -67.94921875 153.67578125 C-62.72699653 149.67578125 -62.72699653 149.67578125 -58.94921875 149.67578125 C-59.64789063 148.79277344 -60.3465625 147.90976563 -61.06640625 147 C-71.49912282 133.42187453 -71.49912282 133.42187453 -70.94921875 124.67578125 C-69.69028931 119.82957974 -67.7174999 115.82820298 -64.94921875 111.67578125 C-65.24498732 108.42232701 -65.98404394 105.56612178 -66.97265625 102.453125 C-70.05932393 90.51389443 -68.25342911 78.57591419 -62.40625 67.84375 C-56.88494525 58.81003628 -50.24471202 50.81765946 -42.82421875 43.30078125 C-42.33348877 42.80070557 -41.84275879 42.30062988 -41.3371582 41.78540039 C-38.09371685 38.57019593 -34.79680647 36.08480501 -30.94921875 33.67578125 C-31.71234375 32.95390625 -32.47546875 32.23203125 -33.26171875 31.48828125 C-38.24459441 26.27364393 -40.10150652 21.86844957 -39.94921875 14.67578125 C-39.03367533 8.234664 -36.32971156 4.12391293 -31.25390625 0.1171875 C-21.61592087 -5.91063726 -9.49153547 -6.44815736 0 0 Z M-29.328125 34.8359375 C-31.90701949 37.08266669 -34.45522697 39.33386214 -36.94921875 41.67578125 C-37.51157227 42.20252441 -38.07392578 42.72926758 -38.65332031 43.27197266 C-51.54321602 55.4535173 -63.88052836 69.316154 -65.94921875 87.67578125 C-66.07296875 88.76890625 -66.19671875 89.86203125 -66.32421875 90.98828125 C-65.83587535 95.79032466 -64.32822711 100.04909762 -62.7265625 104.58984375 C-61.53398358 109.32420229 -62.58510005 112.35976513 -64.94921875 116.48828125 C-67.46356964 121.4337876 -68.61213761 125.4990741 -67.4609375 131.015625 C-64.88901998 138.73137756 -59.59542015 144.01072776 -53.94921875 149.67578125 C-53.05396484 150.57490234 -53.05396484 150.57490234 -52.140625 151.4921875 C-51.74746094 151.88277344 -51.35429688 152.27335937 -50.94921875 152.67578125 C-52.43421875 151.68578125 -52.43421875 151.68578125 -53.94921875 150.67578125 C-59.17711954 150.9081324 -63.23356704 152.96012954 -66.94921875 156.67578125 C-67.42710544 161.53129487 -67.42710544 161.53129487 -65.51171875 165.86328125 C-47.70115228 178.460999 -19.33163483 176.87153527 1.08105469 173.44165039 C11.25664415 171.46617993 21.76183023 169.21968995 30.05078125 162.67578125 C31.71272198 159.35189978 31.66294063 157.34873756 31.05078125 153.67578125 C27.41909184 150.05214437 23.22990359 148.08237516 18.42578125 146.42578125 C14.16841348 146.74114183 12.86423431 148.14360202 9.89453125 151.0390625 C6.94404899 153.65824061 3.62461584 155.04561109 0.05078125 156.67578125 C0.61925781 156.33546875 1.18773437 155.99515625 1.7734375 155.64453125 C10.7736882 149.99495819 17.17908584 143.08440571 20.6484375 132.92578125 C21.24310444 129.60026516 21.15462857 126.29081663 21.11328125 122.92578125 C21.10876953 122.22839844 21.10425781 121.53101563 21.09960938 120.8125 C21.08788145 119.10022322 21.06994778 117.38799092 21.05078125 115.67578125 C22.04078125 117.16078125 22.04078125 117.16078125 23.05078125 118.67578125 C27.80749348 116.83382034 28.88276786 113.75637004 30.9453125 109.3203125 C35.57746859 98.23914757 35.04179791 86.94120416 31.05078125 75.67578125 C24.86583099 61.86599812 15.35766625 51.36576408 4.51074219 41.07910156 C3.29663624 39.91209806 2.12483133 38.70127965 0.96484375 37.48046875 C-2.2255608 34.48511077 -4.07204047 33.69783054 -8.5234375 33.5859375 C-11.11025269 33.76582377 -13.69354489 34.01454516 -16.265625 34.34375 C-19.94921875 34.67578125 -19.94921875 34.67578125 -23.62890625 34.03515625 C-26.88748452 33.38432796 -26.88748452 33.38432796 -29.328125 34.8359375 Z M5.05078125 174.67578125 C-5.28493397 176.12480799 -15.79036785 175.79137741 -26.19921875 175.73828125 C-27.92708203 175.73325368 -29.65494673 175.72869301 -31.3828125 175.72460938 C-35.57165043 175.71370922 -39.76041842 175.69651473 -43.94921875 175.67578125 C-43.96380127 176.27302002 -43.97838379 176.87025879 -43.9934082 177.4855957 C-44.79060338 206.94801387 -47.47076535 240.11076323 -69.94921875 261.67578125 C-71.31046875 262.70638672 -71.31046875 262.70638672 -72.69921875 263.7578125 C-75.28972047 265.52683512 -75.28972047 265.52683512 -75.32421875 268.80078125 C-75.11712192 271.61311882 -75.11712192 271.61311882 -73.94921875 273.67578125 C-73.7109375 275.84765625 -73.7109375 275.84765625 -73.63671875 278.42578125 C-73.59933594 279.26625 -73.56195313 280.10671875 -73.5234375 280.97265625 C-74.76584135 288.86021094 -82.43119166 293.97888078 -88.10546875 298.93359375 C-93.47185953 303.77936453 -97.17257461 308.3756854 -98.48046875 315.6171875 C-98.41049409 321.48631236 -98.17484443 326.3074721 -93.94921875 330.67578125 C-69.65283723 349.9823109 -24.34728075 347.4891559 4.83984375 344.30078125 C32.65565087 341.40863983 32.65565087 341.40863983 55.55078125 326.92578125 C58.82980273 319.8212347 58.59862015 312.95532095 56.05078125 305.67578125 C52.98798186 299.55018248 47.6153051 295.49533246 42.05078125 291.67578125 C41.39078125 291.67578125 40.73078125 291.67578125 40.05078125 291.67578125 C39.78265625 291.11890625 39.51453125 290.56203125 39.23828125 289.98828125 C38.08470198 287.61123495 38.08470198 287.61123495 36.42578125 285.36328125 C34.40752001 281.41849792 34.51305348 277.79236927 35.6015625 273.5078125 C36.16798412 270.99566778 36.4604921 269.22993614 36.05078125 266.67578125 C33.4708953 263.42663618 30.52190431 260.93848491 27.05078125 258.67578125 C26.39078125 258.67578125 25.73078125 258.67578125 25.05078125 258.67578125 C24.77878906 258.12277344 24.50679688 257.56976563 24.2265625 257 C23.41937563 255.40439806 22.58156337 253.82403384 21.71875 252.2578125 C8.80997543 228.10920783 8.07602289 200.3954858 11.05078125 173.67578125 C7.99807662 173.51766737 7.99807662 173.51766737 5.05078125 174.67578125 Z " fill="#241406" transform="translate(160.94921875,24.32421875)"/>
<path d="M0 0 C4.875 2.75 4.875 2.75 6 5 C7.32351925 19.96479154 7.32351925 19.96479154 4.89453125 25.53515625 C3.06778471 27.51525929 1.3565432 28.69037366 -1 30 C-1.88816406 30.51304687 -2.77632812 31.02609375 -3.69140625 31.5546875 C-40.46756912 50.43593587 -96.13802621 48.63124456 -134.80322266 36.74316406 C-142.32437631 34.19877734 -151.30853729 30.79583929 -156.13671875 24.21875 C-158.1688371 18.99592999 -157.90477738 13.44819183 -157 8 C-155.59769872 5.23876758 -154.39413462 4.03501443 -152 2 C-149.16626076 2.43595988 -147.69958139 3.21059824 -145.30859375 4.88671875 C-141.87244779 7.08147077 -138.55855463 8.40701889 -134.6875 9.5625 C-133.99889893 9.77229492 -133.31029785 9.98208984 -132.60083008 10.19824219 C-117.91177188 14.50168368 -102.73223438 16.14900384 -87.4609375 16.16796875 C-86.01323471 16.17296135 -86.01323471 16.17296135 -84.5362854 16.17805481 C-82.50775625 16.18307962 -80.47921896 16.18546453 -78.45068359 16.18530273 C-75.40317614 16.18747987 -72.35603701 16.20565823 -69.30859375 16.22460938 C-54.16961861 16.26949194 -39.39613699 15.58383796 -24.6875 11.6875 C-23.85355713 11.4716626 -23.01961426 11.2558252 -22.16040039 11.03344727 C-9.4634897 8.07185169 -9.4634897 8.07185169 0 0 Z " fill="#CC8F28" transform="translate(216,354)"/>
<path d="M0 0 C4.56712993 2.72104794 7.33483498 6.48349812 9.4375 11.3125 C10.15325914 15.8900294 9.89257127 19.40235746 7.8125 23.5625 C4.49152095 27.40784416 1.36007447 30.67164184 -3.5625 32.3125 C-21.40994208 33.52350552 -21.40994208 33.52350552 -27.5625 28.3125 C-31.08938597 24.42388213 -32.36751359 20.76242511 -32.72265625 15.6171875 C-32.34501044 10.18277213 -29.63733033 5.99246625 -25.625 2.4375 C-18.19269793 -2.71960756 -8.3733962 -3.88764824 0 0 Z " fill="#D0932B" transform="translate(156.5625,24.6875)"/>
<path d="M0 0 C0.99 0.33 1.98 0.66 3 1 C2.96519531 1.80824219 2.93039063 2.61648438 2.89453125 3.44921875 C2.86746094 4.51785156 2.84039062 5.58648437 2.8125 6.6875 C2.77769531 7.74324219 2.74289063 8.79898437 2.70703125 9.88671875 C3.03504408 13.37240172 4.0813493 15.12454187 6 18 C6 18.66 6 19.32 6 20 C45.01881271 39.78163063 99.59759157 38.42546443 140.546875 25.28125 C143.8401117 24.05932507 146.89563096 22.63788796 150 21 C150.99 21.66 151.98 22.32 153 23 C145.61697252 26.92054926 138.32938259 29.70032375 130.25 31.75 C129.49041992 31.94811279 128.73083984 32.14622559 127.94824219 32.3503418 C113.14791403 35.91931257 98.20106513 36.32527078 83.05297852 36.26074219 C80.06961698 36.25002557 77.08685901 36.26070178 74.10351562 36.2734375 C58.52132506 36.28607428 43.18241562 35.47367243 28 31.6875 C26.67875122 31.36591919 26.67875122 31.36591919 25.33081055 31.0378418 C18.32516969 29.25247252 11.2290772 27.2290772 6 22 C3.35513632 22.17063637 2.26375076 22.73173517 0.40234375 24.625 C-1.47783188 27.80925288 -1.46833083 30.1934594 -1.5 33.875 C-1.5309375 35.06867188 -1.561875 36.26234375 -1.59375 37.4921875 C-0.82947659 42.00743438 0.74363158 43.82403574 4 47 C35.624421 68.56013339 88.97694523 65.18311416 124.77734375 58.47998047 C136.79477388 55.98230136 152.1705939 52.11474626 160 42 C160.70552654 39.22288187 160.78952898 36.54356341 160.8125 33.6875 C160.83763672 32.94693359 160.86277344 32.20636719 160.88867188 31.44335938 C160.94718443 29.62947031 160.97654349 27.81468097 161 26 C161.33 26 161.66 26 162 26 C162.33 28.97 162.66 31.94 163 35 C163.66 35 164.32 35 165 35 C164.62515526 40.99751586 163.45204597 45.75068836 159 50 C153.70496951 53.39259606 147.83361651 55.71079534 142 58 C141.33500488 58.26474121 140.67000977 58.52948242 139.98486328 58.80224609 C129.32336751 62.91868516 118.66303524 64.07352533 107.31787109 64.83691406 C105.40343512 64.97161421 103.4919971 65.14821514 101.58203125 65.3359375 C69.82948765 68.43988496 29.52288196 68.12738038 2 50 C-1.75337612 46.69314621 -4.83466188 43.30201533 -5.203125 38.171875 C-5.30331956 30.85767186 -5.30390396 25.64568713 -0.1875 20 C0.204375 19.34 0.59625 18.68 1 18 C0.38991336 15.98202112 -0.28856912 13.98451771 -1 12 C-1.33301502 7.77215713 -1.34607949 4.03823847 0 0 Z " fill="#27190B" transform="translate(61,335)"/>
<path d="M0 0 C2 0.3125 2 0.3125 4 1 C12.61928269 18.23856538 2.74539298 52.23275287 -2.75390625 69.8671875 C-3.88709666 72.71614898 -4.50916032 74.26779169 -7 76 C-10.09501208 76.25265405 -12.20129973 76.39935013 -15 75 C-14.45010879 70.20204812 -13.44364512 66.11594697 -11.6875 61.625 C-4.91459305 43.10197783 -2.10379671 23.28352768 -1.2109375 3.640625 C-1 1 -1 1 0 0 Z " fill="#ECB85F" transform="translate(126,209)"/>
<path d="M0 0 C3.125 0.4375 3.125 0.4375 5.4375 2.75 C7.94033556 6.73599738 8.28367027 9.68821129 8.3125 14.3125 C8.32667969 15.34117188 8.34085938 16.36984375 8.35546875 17.4296875 C8.12081369 20.49213488 7.41684572 22.66998861 6.125 25.4375 C8.435 25.7675 10.745 26.0975 13.125 26.4375 C13.125 26.7675 13.125 27.0975 13.125 27.4375 C12.37734375 27.46328125 11.6296875 27.4890625 10.859375 27.515625 C4.8670594 27.76516957 4.8670594 27.76516957 -0.5 30.125 C-2.23415239 33.04152901 -2.80557411 35.0356315 -2.875 38.4375 C-1.6549342 41.26291554 -0.58545681 42.90465739 1.875 44.75 C6.37094645 46.12376142 10.01191553 45.86560941 14.375 44.1875 C17.04691336 42.4871915 18.46997891 41.10392287 20.125 38.4375 C19.85552832 41.67116021 19.3262532 43.2037866 17.1875 45.6875 C12.91526309 48.12877823 9.01800867 48.64921672 4.125 48.4375 C0.53978576 47.13378573 -2.69804853 45.64563902 -4.875 42.4375 C-6.00571827 37.74067025 -6.10097431 34.75850896 -3.875 30.4375 C-5.80754772 28.4129262 -7.50658688 27.01644208 -9.875 25.4375 C-9.215 25.4375 -8.555 25.4375 -7.875 25.4375 C-8.205 24.7775 -8.535 24.1175 -8.875 23.4375 C-9.05103147 21.02500308 -9.14244968 18.60599105 -9.1875 16.1875 C-9.22488281 14.88296875 -9.26226562 13.5784375 -9.30078125 12.234375 C-8.68325355 6.72761421 -5.87973432 0.89474218 0 0 Z " fill="#2A1C0E" transform="translate(118.875,110.5625)"/>
<path d="M0 0 C5.61126336 0.33007432 8.6460668 1.70800172 13 5 C12.67 5.66 12.34 6.32 12 7 C9.525 6.01 9.525 6.01 7 5 C6.74347656 5.60585937 6.48695313 6.21171875 6.22265625 6.8359375 C2.29057095 15.44151138 -3.35601724 23.63786629 -12 28 C-16.78168087 29.2838275 -21.37930442 29.76285978 -25.875 27.4375 C-29.72142308 24.43729 -32.0185727 21.3834663 -33.875 16.875 C-35.59135536 14.01440774 -38.21616199 12.76120364 -41 11 C-42.875 9.25 -42.875 9.25 -44 8 C-44.99 8.33 -45.98 8.66 -47 9 C-46.67 8.01 -46.34 7.02 -46 6 C-42.535 5.505 -42.535 5.505 -39 5 C-39.99 5.495 -39.99 5.495 -41 6 C-37.44315336 11.00181559 -34.18880907 13.80793405 -28 15 C-16.73655929 16.02524365 -8.5112814 14.34192869 0.46875 7.5 C2.26352601 5.97010571 2.26352601 5.97010571 3 3 C1.68 2.34 0.36 1.68 -1 1 C-0.67 0.67 -0.34 0.34 0 0 Z " fill="#2B180B" transform="translate(152,148)"/>
<path d="M0 0 C1 1 1 1 1.1953125 2.72265625 C0.92916191 11.57955637 -3.34399389 20.25145507 -9 27 C-12.10192034 29.01624822 -14.34932421 29.54371767 -18 29 C-21.0625 27.875 -21.0625 27.875 -23 26 C-23 24.68 -23 23.36 -23 22 C-22.34 22 -21.68 22 -21 22 C-20.72929688 21.43796875 -20.45859375 20.8759375 -20.1796875 20.296875 C-18.93357732 17.87067371 -17.55311788 15.57346639 -16.125 13.25 C-14.1733569 10.03692904 -12.37465467 6.82728701 -10.75 3.4375 C-7.91246852 -2.13622255 -5.75541276 -1.04643868 0 0 Z " fill="#EDBB62" transform="translate(114,313)"/>
<path d="M0 0 C-1.66086912 5.56664924 -4.11071736 10.65786353 -6.625 15.875 C-7.04523438 16.75414063 -7.46546875 17.63328125 -7.8984375 18.5390625 C-8.9291692 20.69422878 -9.96309426 22.84779922 -11 25 C-12.38445312 24.69449219 -12.38445312 24.69449219 -13.796875 24.3828125 C-18.10865088 23.8675027 -19.64800818 25.4098245 -23 28 C-23.66 28.33 -24.32 28.66 -25 29 C-22.31704274 17.22054003 -16.14121632 7.85934461 -7 0 C-4.3333581 -1.33332095 -2.83319697 -0.67102033 0 0 Z " fill="#EFC06D" transform="translate(134,70)"/>
<path d="M0 0 C3.92510962 1.43601571 5.7346125 4.28172499 7.5625 7.9375 C7.602492 9.93710012 7.60596799 11.93797242 7.5625 13.9375 C6.5725 13.2775 5.5825 12.6175 4.5625 11.9375 C1.94334878 12.09451426 1.94334878 12.09451426 -0.4375 12.9375 C-2.02623246 16.11496491 -1.84776221 19.47762202 -1.4375 22.9375 C-0.09919042 25.3970774 -0.09919042 25.3970774 1.5625 26.9375 C-0.0875 27.5975 -1.7375 28.2575 -3.4375 28.9375 C-7.54299385 25.14781337 -9.10928194 23.10130691 -9.67578125 17.640625 C-9.8586414 11.59661575 -9.07385637 6.89948462 -5.4375 1.9375 C-2.4375 -0.0625 -2.4375 -0.0625 0 0 Z " fill="#E9C98E" transform="translate(150.4375,111.0625)"/>
<path d="M0 0 C3.6875 0.4375 3.6875 0.4375 6.5 2.625 C10.73989705 8.07629621 11.20589244 12.69839827 10.6875 19.4375 C10.38619247 20.7784335 10.06229518 22.11522262 9.6875 23.4375 C10.409375 23.1075 11.13125 22.7775 11.875 22.4375 C14.70447427 21.43146471 16.71645466 21.26772598 19.6875 21.4375 C17.01105669 23.22179554 15.37957932 23.90415125 12.375 24.75 C9.13180146 25.76809145 6.98043605 26.80205195 4.5 29.125 C1.6875 31.4375 1.6875 31.4375 -1.4375 32.0625 C-4.3125 31.4375 -4.3125 31.4375 -6.625 29.125 C-10.26957371 23.32067891 -9.90124422 17.09423462 -9.3125 10.4375 C-7.6642092 5.31295608 -5.6714279 0.74905651 0 0 Z M-3.875 3.625 C-8.14275049 8.54932748 -8.71472048 12.55545471 -8.5625 18.9296875 C-8.1811351 22.75525418 -7.31139888 25.12897772 -5.3125 28.4375 C-2.76881001 29.94202457 -2.76881001 29.94202457 -0.3125 30.4375 C0.6775 29.4475 1.6675 28.4575 2.6875 27.4375 C2.1925 27.1075 1.6975 26.7775 1.1875 26.4375 C-0.84722907 23.72452791 -0.63208316 21.68413673 -0.61328125 18.375 C-0.3125 16.4375 -0.3125 16.4375 1.6875 13.4375 C6.4375 14.3125 6.4375 14.3125 8.6875 15.4375 C9.19182107 10.1421288 7.97507779 7.57045494 4.6875 3.4375 C0.7851405 0.835927 -0.26790697 0.54577424 -3.875 3.625 Z " fill="#2D1D0E" transform="translate(149.3125,109.5625)"/>
<path d="M0 0 C0.99 0.495 0.99 0.495 2 1 C0.3376767 4.84412262 -0.7023735 5.87500326 -4.63671875 7.52734375 C-20.2562431 12.96487531 -34.21627964 13.26582393 -50.64550781 12.20996094 C-54.88510582 11.94460036 -59.12628644 11.75185952 -63.36987305 11.56323242 C-67.24735684 11.39020546 -71.12357986 11.19527518 -75 11 C-75 10.67 -75 10.34 -75 10 C-74.08935791 9.98018066 -73.17871582 9.96036133 -72.24047852 9.93994141 C-36.46509526 9.65220615 -36.46509526 9.65220615 -2.046875 0.78125 C-1.37140625 0.5234375 -0.6959375 0.265625 0 0 Z " fill="#A56F18" transform="translate(206,361)"/>
<path d="M0 0 C3.34530523 1.33812209 4.08688976 2.72753419 5.5 6 C5.6875 8.8125 5.6875 8.8125 5.5 11 C3.85 10.67 2.2 10.34 0.5 10 C-1.41862691 11.84188184 -2.48016332 13.19330817 -2.546875 15.90625 C-2.13191103 19.61326146 -1.50677396 22.78916167 0.5 26 C-1.15 26.33 -2.8 26.66 -4.5 27 C-9.0090917 21.31462351 -9.07553868 16.05792176 -8.5 9 C-5.125 0 -5.125 0 0 0 Z " fill="#ECCD95" transform="translate(119.5,112)"/>
<path d="M0 0 C0.33 0 0.66 0 1 0 C1.495 4.455 1.495 4.455 2 9 C2.66 9 3.32 9 4 9 C3.62515526 14.99751586 2.45204597 19.75068836 -2 24 C-11.10075652 29.83097505 -26.00081634 37 -37 37 C-37 36.34 -37 35.68 -37 35 C-36.34 35 -35.68 35 -35 35 C-35.495 33.515 -35.495 33.515 -36 32 C-35.00742188 31.79246094 -34.01484375 31.58492188 -32.9921875 31.37109375 C-21.75570179 28.87888992 -8.34528826 25.52758405 -1 16 C-0.29539431 13.2226465 -0.2104713 10.54359778 -0.1875 7.6875 C-0.16236328 6.94693359 -0.13722656 6.20636719 -0.11132812 5.44335938 C-0.05281557 3.62947031 -0.02345651 1.81468097 0 0 Z " fill="#261507" transform="translate(222,361)"/>
<path d="M0 0 C0.33 0.66 0.66 1.32 1 2 C-8.18133129 16.51798011 -8.18133129 16.51798011 -16.28515625 18.58203125 C-18.5 18.875 -18.5 18.875 -22 19 C-22.33 17.35 -22.66 15.7 -23 14 C-18.44793736 9.57438355 -13.83543242 7.51536676 -7.90234375 5.30859375 C-4.81600035 3.91703919 -2.54801352 2.21139522 0 0 Z " fill="#A6553B" transform="translate(154,156)"/>
<path d="M0 0 C2.25 0.875 2.25 0.875 4 2 C3.34 2.66 2.68 3.32 2 4 C2.66 4.66 3.32 5.32 4 6 C-2.79484776 7.27924129 -9.47933679 7.23311749 -16.375 7.25 C-17.37929047 7.25350464 -17.37929047 7.25350464 -18.40386963 7.25708008 C-28.56923323 7.27050091 -38.15213658 6.64287708 -48 4 C-47.67 3.34 -47.34 2.68 -47 2 C-45.4840625 2.23009766 -45.4840625 2.23009766 -43.9375 2.46484375 C-37.32237742 3.29173407 -30.65723409 3.36363062 -24 3.5625 C-22.63931211 3.60578135 -21.27863485 3.64939839 -19.91796875 3.69335938 C-16.61206843 3.79886683 -13.30610001 3.90098256 -10 4 C-10 3.34 -10 2.68 -10 2 C-8.63875 2.061875 -8.63875 2.061875 -7.25 2.125 C-4.07863131 2.23822499 -4.07863131 2.23822499 -1.875 0.875 C-1.25625 0.58625 -0.6375 0.2975 0 0 Z " fill="#C88920" transform="translate(155,192)"/>
<path d="M0 0 C4.53087282 0.45308728 6.32147546 1.39367431 9.75 4.375 C13.19994379 8.74554874 15.3264202 12.72726935 15.75 18.375 C15.04875 17.6325 14.3475 16.89 13.625 16.125 C7.2744719 10.05058182 2.33260509 8.375 -6.25 8.375 C-5.23641766 0.60420204 -5.23641766 0.60420204 0 0 Z " fill="#221307" transform="translate(149.25,90.625)"/>
<path d="M0 0 C2.83481891 1.22586764 3.90193385 2.25723248 5.3125 5 C4.8828125 7.13671875 4.8828125 7.13671875 4.3125 9 C3.4771875 8.87818359 3.4771875 8.87818359 2.625 8.75390625 C-1.24350216 8.43370928 -3.74414853 8.38194214 -7.06640625 10.55859375 C-9.02973246 12.30416285 -10.89240915 14.08262775 -12.6875 16 C-13.55366491 13.589802 -13.8538451 12.42372482 -12.90234375 10 C-9.73040731 5.03354295 -6.48025264 0 0 0 Z " fill="#27180A" transform="translate(119.6875,93)"/>
<path d="M0 0 C0.66 0.33 1.32 0.66 2 1 C0.86705078 3.61994508 -0.13948605 5.52919007 -2.69921875 6.9296875 C-4.77990484 7.72271913 -6.86008758 8.38477518 -9 9 C-9.70125 9.21785156 -10.4025 9.43570312 -11.125 9.66015625 C-16.55971341 11.21440194 -19.78802974 10.73732342 -25 9 C-25 8.34 -25 7.68 -25 7 C-24.42032471 6.85900879 -23.84064941 6.71801758 -23.2434082 6.57275391 C-20.5988357 5.92727204 -17.9556725 5.2761899 -15.3125 4.625 C-13.94448242 4.29242188 -13.94448242 4.29242188 -12.54882812 3.953125 C-8.91769269 3.05524424 -5.45085334 2.18314094 -1.98046875 0.7734375 C-1.32691406 0.51820313 -0.67335937 0.26296875 0 0 Z " fill="#A96E12" transform="translate(206,361)"/>
<path d="M0 0 C0.33 0.66 0.66 1.32 1 2 C2.84032978 2.2770158 4.68418638 2.53822767 6.53564453 2.72705078 C11.2033052 3.24403559 15.81517138 4.11785175 20.4375 4.9375 C21.44232422 5.10701172 22.44714844 5.27652344 23.48242188 5.45117188 C24.43568359 5.62068359 25.38894531 5.79019531 26.37109375 5.96484375 C27.23661865 6.1155835 28.10214355 6.26632324 28.99389648 6.42163086 C29.65591064 6.61249268 30.3179248 6.80335449 31 7 C31.495 7.99 31.495 7.99 32 9 C19.72275167 9.46426569 8.07380459 8.94488457 -3 3 C-3 2.34 -3 1.68 -3 1 C-2.01 0.67 -1.02 0.34 0 0 Z " fill="#EDBC66" transform="translate(96,292)"/>
<path d="M0 0 C0.69222656 0.38671875 1.38445312 0.7734375 2.09765625 1.171875 C18.63348759 9.97355597 36.57697772 12.03170837 55 13 C55 13.33 55 13.66 55 14 C44.94002184 15.5142441 36.07836163 14.81968387 26.125 12.8125 C25.08029541 12.60407471 24.03559082 12.39564941 22.95922852 12.1809082 C6.12189259 8.56116826 6.12189259 8.56116826 0 3 C0 2.01 0 1.02 0 0 Z " fill="#2E1F0F" transform="translate(68,355)"/>
<path d="M0 0 C4.98183796 1.82028695 8.3159289 3.16867203 11 8 C11.73847621 13.16933346 11.70913288 14.9261702 8.8125 19.3125 C6.27118236 21.74087019 4.20218229 23.56744477 1 25 C0.01 24.67 -0.98 24.34 -2 24 C3 19 3 19 5.3125 17.125 C7.26826215 14.98264946 7.26826215 14.98264946 7.75 11.5625 C7.37610933 8.00979085 7.37610933 8.00979085 5.203125 6.4375 C3.17712457 5.17304583 1.1485946 4.04072551 -1 3 C-0.67 2.01 -0.34 1.02 0 0 Z " fill="#201004" transform="translate(184,170)"/>
<path d="M0 0 C2.3125 0.8125 2.3125 0.8125 4 2 C-3.51380045 5.98999257 -10.97557587 8.80150813 -19.1875 10.9375 C-20.00573242 11.16074951 -20.82396484 11.38399902 -21.66699219 11.61401367 C-27.68733359 13.09739975 -32.89157567 12.96559563 -39 12 C-39 11.67 -39 11.34 -39 11 C-37.88625 10.84144531 -36.7725 10.68289063 -35.625 10.51953125 C-27.65492907 9.3243282 -19.88885626 7.90985546 -12.1875 5.5 C-11.53716797 5.29866455 -10.88683594 5.0973291 -10.21679688 4.88989258 C-7.29189002 3.93346645 -4.87775636 2.91932981 -2.30078125 1.21875 C-1.54152344 0.8165625 -0.78226563 0.414375 0 0 Z " fill="#35210A" transform="translate(210,356)"/>
<path d="M0 0 C-0.32433508 5.35152885 -3.49704824 8.28280043 -7 12 C-8.32 11.67 -9.64 11.34 -11 11 C-10.7618484 6.87203885 -10.60339108 4.65367367 -7.75 1.5625 C-4.8188749 -0.10291199 -3.3053906 -0.37775893 0 0 Z " fill="#EFC273" transform="translate(141,28)"/>
<path d="M0 0 C0 0.66 0 1.32 0 2 C-3.04325095 3.73107999 -5.50679745 4.33594612 -8.984375 4.6328125 C-9.91894531 4.71660156 -10.85351562 4.80039062 -11.81640625 4.88671875 C-12.78449219 4.96535156 -13.75257813 5.04398437 -14.75 5.125 C-15.73355469 5.21136719 -16.71710938 5.29773438 -17.73046875 5.38671875 C-20.15311603 5.59840638 -22.57615667 5.80256279 -25 6 C-24.67 5.01 -24.34 4.02 -24 3 C-20.75073335 2.49515526 -17.50047901 1.99697406 -14.25 1.5 C-13.32960937 1.35691406 -12.40921875 1.21382813 -11.4609375 1.06640625 C-10.12675781 0.86337891 -10.12675781 0.86337891 -8.765625 0.65625 C-7.94868164 0.53056641 -7.13173828 0.40488281 -6.29003906 0.27539062 C-4 0 -4 0 0 0 Z " fill="#241408" transform="translate(187,394)"/>
<path d="M0 0 C1.918125 0.4021875 1.918125 0.4021875 3.875 0.8125 C11.87847239 2.4201339 19.94461478 3.68376059 28 5 C28 5.66 28 6.32 28 7 C17.58657652 7.39881196 9.15769877 6.08761043 0 1 C0 0.67 0 0.34 0 0 Z " fill="#EDBD6A" transform="translate(102,186)"/>
<path d="M0 0 C8.38516812 1.65922967 16.75532875 3.3895726 25.125 5.125 C26.47655604 5.40497908 27.8281185 5.68492721 29.1796875 5.96484375 C32.45318794 6.64292598 35.72662371 7.32131871 39 8 C39 8.33 39 8.66 39 9 C32.81751912 9.1996649 27.23480463 8.50571182 21.1875 7.25 C20.31254883 7.07243164 19.43759766 6.89486328 18.53613281 6.71191406 C12.13097398 5.36058467 6.02351626 3.597296 0 1 C0 0.67 0 0.34 0 0 Z " fill="#E8B358" transform="translate(72,370)"/>
<path d="M0 0 C0.33 0 0.66 0 1 0 C1.33 2.97 1.66 5.94 2 9 C2.66 9 3.32 9 4 9 C3.63422282 14.85243483 2.00179822 19.57752758 -2 24 C-4.16796875 24.7265625 -4.16796875 24.7265625 -6 25 C-5.48948375 20.40535373 -5.48948375 20.40535373 -3 18.34375 C-0.1976559 15.05975301 -0.33029988 11.88179375 -0.25 7.75 C-0.22035156 7.00492187 -0.19070312 6.25984375 -0.16015625 5.4921875 C-0.0897657 3.66203328 -0.04258168 1.83101231 0 0 Z " fill="#422608" transform="translate(222,361)"/>
<path d="M0 0 C0.33 0.99 0.66 1.98 1 3 C1.66 3 2.32 3 3 3 C3.680625 4.175625 3.680625 4.175625 4.375 5.375 C6.14894797 8.24060826 6.82722453 9.03054083 10 10 C15.23367486 10.48459952 18.55700877 9.82735806 23 7 C24.85315257 4.95053601 24.85315257 4.95053601 26 3 C25.73052832 6.23366021 25.2012532 7.7662866 23.0625 10.25 C18.79026309 12.69127823 14.89300867 13.21171672 10 13 C6.41478576 11.69628573 3.17695147 10.20813902 1 7 C0.3125 3.3125 0.3125 3.3125 0 0 Z " fill="#31200D" transform="translate(113,146)"/>
<path d="M0 0 C13.86 0.33 27.72 0.66 42 1 C42 1.33 42 1.66 42 2 C36.66164927 2.1678224 31.32314765 2.32836013 25.984375 2.48217773 C24.16855997 2.5355173 22.35280207 2.59084022 20.53710938 2.64819336 C17.92590653 2.73032912 15.31458074 2.80530897 12.703125 2.87890625 C11.48728729 2.91945885 11.48728729 2.91945885 10.24688721 2.96083069 C6.63254359 3.05634176 3.47509268 2.98815351 0 2 C0 1.34 0 0.68 0 0 Z " fill="#1D1109" transform="translate(113,397)"/>
<path d="M0 0 C1.11375 0.15339844 2.2275 0.30679688 3.375 0.46484375 C8.24074836 1.07306229 13.10392803 1.33311414 18 1.5625 C18.87011719 1.60568359 19.74023438 1.64886719 20.63671875 1.69335938 C22.75768219 1.79824218 24.87882433 1.89950075 27 2 C25 5 25 5 23.1796875 5.3984375 C14.93295704 5.31457244 7.04451067 3.67677146 -1 2 C-0.67 1.34 -0.34 0.68 0 0 Z " fill="#C88B24" transform="translate(108,194)"/>
<path d="M0 0 C7.00435592 0.6258645 14.00399099 1.28674095 21 2 C20.01 2.495 20.01 2.495 19 3 C19 3.66 19 4.32 19 5 C12.35590042 5.21432579 6.46794133 4.51233701 0 3 C0 2.01 0 1.02 0 0 Z " fill="#25190A" transform="translate(94,394)"/>
<path d="M0 0 C0 0.99 0 1.98 0 3 C-4.44477749 4.11119437 -8.44446622 4.29390541 -13 4 C-15 2.5 -15 2.5 -16 1 C-10.28728907 -1.0662997 -5.96345767 -1.0006709 0 0 Z " fill="#BA7D19" transform="translate(184,370)"/>
<path d="M0 0 C3.6875 0.4375 3.6875 0.4375 6.5625 2.5 C9.02814564 5.90839251 9.44304295 8.28173007 9.6875 12.4375 C8.35351578 10.43652368 7.08156891 8.39279123 5.875 6.3125 C3.9598965 3.32095703 3.9598965 3.32095703 1.1875 2.3125 C-1.43121035 2.21140151 -1.43121035 2.21140151 -3.5 4.0625 C-7.18985331 8.8974802 -7.71228821 13.53541736 -8.3125 19.4375 C-8.6425 19.4375 -8.9725 19.4375 -9.3125 19.4375 C-9.86678226 12.78611284 -9.00705091 8.06022894 -5.3125 2.4375 C-3.3125 0.4375 -3.3125 0.4375 0 0 Z " fill="#21140A" transform="translate(149.3125,109.5625)"/>
<path d="M0 0 C0 3 0 3 -1 5 C-1.66 5 -2.32 5 -3 5 C-2.67 5.99 -2.34 6.98 -2 8 C-2.99 8 -3.98 8 -5 8 C-7.56355803 8.15689535 -10.12534729 8.32296984 -12.6875 8.5 C-13.38939453 8.54769531 -14.09128906 8.59539063 -14.81445312 8.64453125 C-16.54303016 8.76212152 -18.27152348 8.88094135 -20 9 C-19.67 8.01 -19.34 7.02 -19 6 C-18.28714844 5.97421875 -17.57429687 5.9484375 -16.83984375 5.921875 C-10.29835309 5.53449197 -4.85161624 4.85161624 0 0 Z " fill="#281606" transform="translate(161,51)"/>
<path d="M0 0 C0.56203125 0.37898437 1.1240625 0.75796875 1.703125 1.1484375 C1.043125 1.8084375 0.383125 2.4684375 -0.296875 3.1484375 C0.363125 3.8084375 1.023125 4.4684375 1.703125 5.1484375 C0.28879294 5.3720712 -1.12855118 5.57670226 -2.546875 5.7734375 C-3.33578125 5.88945312 -4.1246875 6.00546875 -4.9375 6.125 C-7.61839959 6.15163145 -9.02381589 5.51435834 -11.296875 4.1484375 C-9.89233857 3.25409593 -8.47265631 2.38350558 -7.046875 1.5234375 C-6.25796875 1.03617188 -5.4690625 0.54890625 -4.65625 0.046875 C-2.296875 -0.8515625 -2.296875 -0.8515625 0 0 Z " fill="#C2841E" transform="translate(157.296875,192.8515625)"/>
<path d="M0 0 C8.58 0.66 17.16 1.32 26 2 C26 2.33 26 2.66 26 3 C17.03241789 3.8233264 8.78167325 4.55428477 0 2 C0 1.34 0 0.68 0 0 Z " fill="#3C2810" transform="translate(97,366)"/>
<path d="M0 0 C-2.86274764 2.86274764 -6.10388111 2.9615008 -10 3 C-12.5 2.0625 -12.5 2.0625 -14 1 C-14 0.34 -14 -0.32 -14 -1 C-9.02785836 -2.52988973 -4.52480232 -2.78449374 0 0 Z " fill="#AD7214" transform="translate(195,369)"/>
<path d="M0 0 C1.08667969 0.01804687 2.17335938 0.03609375 3.29296875 0.0546875 C4.54013672 0.08949219 4.54013672 0.08949219 5.8125 0.125 C5.8125 0.785 5.8125 1.445 5.8125 2.125 C6.8025 2.125 7.7925 2.125 8.8125 2.125 C8.8125 2.785 8.8125 3.445 8.8125 4.125 C-3.85720387 3.16144647 -3.85720387 3.16144647 -9.1875 2.125 C-5.66070901 -0.22619399 -4.15870515 -0.08943452 0 0 Z " fill="#B97F1F" transform="translate(104.1875,363.875)"/>
<path d="M0 0 C0.33 0 0.66 0 1 0 C1 5.28 1 10.56 1 16 C0.34 16 -0.32 16 -1 16 C-1.33 16.66 -1.66 17.32 -2 18 C-2 13.38 -2 8.76 -2 4 C-1.34 4 -0.68 4 0 4 C0 2.68 0 1.36 0 0 Z " fill="#1A0902" transform="translate(116,204)"/>
<path d="M0 0 C5.61126336 0.33007432 8.6460668 1.70800172 13 5 C12.67 5.66 12.34 6.32 12 7 C9.525 6.01 9.525 6.01 7 5 C6.01 5.99 5.02 6.98 4 8 C3.01 7.67 2.02 7.34 1 7 C1.66 5.68 2.32 4.36 3 3 C1.68 2.34 0.36 1.68 -1 1 C-0.67 0.67 -0.34 0.34 0 0 Z " fill="#38250E" transform="translate(152,148)"/>
<path d="M0 0 C3.10540628 3.10540628 2.9652109 6.72789817 3 11 C2.55202345 13.48875863 1.86466659 15.60945119 1 18 C0.67 18 0.34 18 0 18 C-0.19384179 15.18780295 -0.38036603 12.37545804 -0.5625 9.5625 C-0.61857422 8.76005859 -0.67464844 7.95761719 -0.73242188 7.13085938 C-0.8616295 5.08937889 -0.9351273 3.04453631 -1 1 C-0.67 0.67 -0.34 0.34 0 0 Z " fill="#2E0D06" transform="translate(223,357)"/>
<path d="M0 0 C0.99 0.33 1.98 0.66 3 1 C-1.98443379 5.71930434 -6.60772382 9.39975206 -13 12 C-13.99 11.67 -14.98 11.34 -16 11 C-15.26394531 10.62488281 -14.52789062 10.24976563 -13.76953125 9.86328125 C-8.43798228 7.06721132 -3.924431 4.60105704 0 0 Z " fill="#37210A" transform="translate(174,170)"/>
<path d="M0 0 C4.29 0.99 8.58 1.98 13 3 C12.67 3.66 12.34 4.32 12 5 C10.5629191 5.05422947 9.12524538 5.09289723 7.6875 5.125 C6.88699219 5.14820313 6.08648437 5.17140625 5.26171875 5.1953125 C3 5 3 5 0 3 C0 2.01 0 1.02 0 0 Z " fill="#DFA236" transform="translate(109,190)"/>
<path d="M0 0 C0.33 0.66 0.66 1.32 1 2 C0.34 1.67 -0.32 1.34 -1 1 C-0.67 0.67 -0.34 0.34 0 0 Z M-1 2 C-0.67 3.32 -0.34 4.64 0 6 C-4.17737474 7.59138085 -7.53160785 8.21278058 -12 8 C-4.28571429 2 -4.28571429 2 -1 2 Z " fill="#B37817" transform="translate(173,174)"/>
<path d="M0 0 C0.33 0.99 0.66 1.98 1 3 C-4.24118425 4.74706142 -9.68833136 4.32791716 -15 3 C-15 2.67 -15 2.34 -15 2 C-13.06302033 1.66365624 -11.12539514 1.33102835 -9.1875 1 C-7.56908203 0.7215625 -7.56908203 0.7215625 -5.91796875 0.4375 C-3 0 -3 0 0 0 Z " fill="#472D0A" transform="translate(168,196)"/>
<path d="M0 0 C0 0.99 0 1.98 0 3 C-2.31 3.33 -4.62 3.66 -7 4 C-7 2.68 -7 1.36 -7 0 C-4.3333581 -1.33332095 -2.83319697 -0.67102033 0 0 Z " fill="#E4AE58" transform="translate(165,139)"/>
<path d="M0 0 C0.66 0.33 1.32 0.66 2 1 C1.01 1.78375 0.02 2.5675 -1 3.375 C-2.485 4.674375 -2.485 4.674375 -4 6 C-4 6.66 -4 7.32 -4 8 C-5.65 8 -7.3 8 -9 8 C-8.74609375 6.14453125 -8.74609375 6.14453125 -8 4 C-6.22265625 2.69921875 -6.22265625 2.69921875 -4.0625 1.6875 C-3.35222656 1.34074219 -2.64195312 0.99398437 -1.91015625 0.63671875 C-1.27980469 0.42660156 -0.64945313 0.21648438 0 0 Z " fill="#BE811D" transform="translate(152,49)"/>
<path d="M0 0 C-2.6598561 3.44216672 -5.90288286 3.99504674 -10 5 C-10 4.34 -10 3.68 -10 3 C-9.34 3 -8.68 3 -8 3 C-8.33 2.01 -8.66 1.02 -9 0 C-5.62182575 -0.84454356 -3.32534757 -1.10844919 0 0 Z " fill="#513009" transform="translate(195,393)"/>
<path d="M0 0 C-1.485 2.475 -1.485 2.475 -3 5 C-5.64 4.67 -8.28 4.34 -11 4 C-9.71264403 1.42528807 -8.71510189 1.29583343 -6.0625 0.3125 C-5.35222656 0.04050781 -4.64195312 -0.23148437 -3.91015625 -0.51171875 C-2 -1 -2 -1 0 0 Z " fill="#A1680E" transform="translate(208,362)"/>
<path d="M0 0 C5.46864457 1.01591421 10.76390013 2.07091057 16 4 C16 4.33 16 4.66 16 5 C10.04492601 4.6083965 5.37180176 3.62875405 0 1 C0 0.67 0 0.34 0 0 Z " fill="#EAB862" transform="translate(72,370)"/>
<path d="M0 0 C-0.99 0.495 -0.99 0.495 -2 1 C-0.68 2.98 0.64 4.96 2 7 C-1.26954202 6.43628586 -2.82575883 5.50037734 -5 3 C-5.99 3.33 -6.98 3.66 -8 4 C-7.67 3.01 -7.34 2.02 -7 1 C-4.53721199 -0.231394 -2.7204945 -0.07159196 0 0 Z " fill="#31210E" transform="translate(113,153)"/>
<path d="M0 0 C0 0.66 0 1.32 0 2 C-4.1205746 3.99785435 -7.45194365 4.17835515 -12 4 C-11 2 -11 2 -9.2578125 1.3671875 C-8.55398437 1.20476562 -7.85015625 1.04234375 -7.125 0.875 C-6.07699219 0.62363281 -6.07699219 0.62363281 -5.0078125 0.3671875 C-3 0 -3 0 0 0 Z " fill="#BD811E" transform="translate(135,153)"/>
<path d="M0 0 C3.3 0.33 6.6 0.66 10 1 C10 1.66 10 2.32 10 3 C6.7 3 3.4 3 0 3 C0 2.01 0 1.02 0 0 Z " fill="#EAB65E" transform="translate(120,190)"/>
<path d="M0 0 C0.99 0.33 1.98 0.66 3 1 C2.34 1.66 1.68 2.32 1 3 C1.66 3.66 2.32 4.32 3 5 C0.36 5.33 -2.28 5.66 -5 6 C-3.63016497 2.83884224 -3.0109362 2.0072908 0 0 Z " fill="#BA7D1A" transform="translate(156,193)"/>
<path d="M0 0 C1.32 0.66 2.64 1.32 4 2 C1.03 3.32 -1.94 4.64 -5 6 C-5 5.01 -5 4.02 -5 3 C-2.75 1.1875 -2.75 1.1875 0 0 Z " fill="#442A0A" transform="translate(210,356)"/>
<path d="M0 0 C1.485 0.99 1.485 0.99 3 2 C2.67 3.98 2.34 5.96 2 8 C1.01 8 0.02 8 -1 8 C-0.67 5.36 -0.34 2.72 0 0 Z " fill="#2C1806" transform="translate(192,180)"/>
<path d="M0 0 C2.31 0 4.62 0 7 0 C6.67 0.99 6.34 1.98 6 3 C3.69 3 1.38 3 -1 3 C-0.67 2.01 -0.34 1.02 0 0 Z " fill="#432A0B" transform="translate(142,57)"/>
<path d="M0 0 C2.16874252 0.50603992 3.99967627 0.99983813 6 2 C5.67 2.99 5.34 3.98 5 5 C3.02 4.34 1.04 3.68 -1 3 C-0.67 2.01 -0.34 1.02 0 0 Z " fill="#BB7F1D" transform="translate(148,59)"/>
<path d="M0 0 C-0.99 0.495 -0.99 0.495 -2 1 C-2 1.66 -2 2.32 -2 3 C-4.97 3 -7.94 3 -11 3 C-11 2.67 -11 2.34 -11 2 C-7.17679443 0.57741188 -4.08718695 -0.24042276 0 0 Z " fill="#4F330F" transform="translate(115,396)"/>
<path d="M0 0 C0 0.66 0 1.32 0 2 C-3.13498292 3.85776765 -5.37471432 4.20140476 -9 4 C-8 2 -8 2 -5.0625 0.875 C-2 0 -2 0 0 0 Z " fill="#25160A" transform="translate(205,360)"/>
<path d="M0 0 C0.33 0.66 0.66 1.32 1 2 C0.34 1.67 -0.32 1.34 -1 1 C-0.67 0.67 -0.34 0.34 0 0 Z M-1 2 C-1.66 3.32 -2.32 4.64 -3 6 C-4.65 6 -6.3 6 -8 6 C-3.25 2 -3.25 2 -1 2 Z " fill="#96610D" transform="translate(173,174)"/>
<path d="M0 0 C-0.33 1.32 -0.66 2.64 -1 4 C-5.455 4.495 -5.455 4.495 -10 5 C-8.28489314 1.56978628 -3.75681361 0 0 0 Z " fill="#CA8C23" transform="translate(137,150)"/>
</svg>
