<?xml version="1.0" encoding="UTF-8"?>
<svg version="1.1" xmlns="http://www.w3.org/2000/svg" width="232" height="432">
<path d="M0 0 C1.64453125 0.75390625 1.64453125 0.75390625 2.64453125 1.75390625 C4.68120752 2.07859377 6.72430422 2.36335285 8.76953125 2.62890625 C17.46733412 3.94446076 23.13521948 6.96528791 30.171875 12.0703125 C32.3094244 13.52573713 34.288131 14.59589846 36.64453125 15.62890625 C46.78363115 20.3893373 53.66056603 29.82527108 59.08203125 39.25390625 C60.61684873 41.82494447 60.61684873 41.82494447 62.6640625 44.234375 C68.57126342 51.74945309 69.97278405 59.71351222 70.19433594 68.95678711 C70.4041533 74.3453373 71.76833088 77.86220358 74.43359375 82.4609375 C79.03026053 91.16494846 77.98314824 101.38358734 76.64453125 110.75390625 C76.26624225 116.22214889 76.26624225 116.22214889 77.1953125 121.57763672 C79.33592825 128.87078149 77.77590182 134.87105023 76.01953125 142.12890625 C75.74044922 143.3624585 75.46136719 144.59601074 75.17382812 145.86694336 C74.12522526 150.4955608 73.04016431 155.11458586 71.92675781 159.72802734 C68.87260096 171.71151655 68.87260096 171.71151655 70.05078125 183.8671875 C70.85598109 187.78194198 70.88943845 191.57959562 70.89453125 195.56640625 C70.90323242 196.2845752 70.91193359 197.00274414 70.92089844 197.74267578 C70.8805825 205.59878514 68.84708135 210.16116489 63.64453125 215.75390625 C62.98453125 216.08390625 62.32453125 216.41390625 61.64453125 216.75390625 C61.01055837 218.14864659 60.43559457 219.57056306 59.89453125 221.00390625 C56.47929131 228.89773924 50.27137965 231.72011544 42.64453125 234.75390625 C43.63453125 235.53765625 44.62453125 236.32140625 45.64453125 237.12890625 C48.46662454 239.93765631 49.1180062 241.84588884 49.20703125 245.81640625 C48.9625591 249.8929794 48.0925489 252.42460224 45.64453125 255.75390625 C44.07102861 260.04527709 43.8282386 264.57579854 45.4453125 268.890625 C49.49341153 276.86162411 55.99898202 282.5230138 62.70703125 288.25390625 C71.39156637 295.81394977 78.39304488 303.83706584 80.05078125 315.6484375 C80.25785421 321.81748616 78.99942315 327.07693471 76.64453125 332.75390625 C77.38703125 333.41390625 78.12953125 334.07390625 78.89453125 334.75390625 C84.94989074 341.01628658 86.28122141 347.13389467 86.18286133 355.74487305 C85.84917058 362.93057137 83.99736457 368.40107293 78.8828125 373.515625 C67.15269564 382.96158117 51.88797048 387.20537016 37.45703125 390.44140625 C36.13312378 390.74498047 36.13312378 390.74498047 34.7824707 391.0546875 C18.47209051 394.53826074 2.05291482 395.08159452 -14.5703125 395.01464844 C-17.72024885 395.00394099 -20.86961216 395.01460691 -24.01953125 395.02734375 C-42.14179224 395.04184786 -59.94872834 393.98376798 -77.66796875 390.00390625 C-78.85438965 389.74222656 -80.04081055 389.48054688 -81.26318359 389.2109375 C-94.23630125 386.24646398 -106.27960454 382.35627459 -117.35546875 374.75390625 C-118.30421875 374.13515625 -119.25296875 373.51640625 -120.23046875 372.87890625 C-125.31010387 367.79927113 -126.621917 363.03197956 -126.79296875 355.87890625 C-126.54823628 348.26772632 -125.85750307 341.61337404 -120.73046875 335.75390625 C-119.94671875 335.09390625 -119.16296875 334.43390625 -118.35546875 333.75390625 C-118.02546875 333.09390625 -117.69546875 332.43390625 -117.35546875 331.75390625 C-117.81953125 330.57828125 -117.81953125 330.57828125 -118.29296875 329.37890625 C-120.36595692 322.30635837 -120.41475906 314.4338699 -117.39453125 307.6171875 C-112.49269212 298.8270474 -105.48398205 292.2331071 -97.41796875 286.37890625 C-90.65406052 281.40569393 -83.98988949 275.98647107 -81.35546875 267.75390625 C-80.67131227 262.8057047 -80.58753212 258.40841111 -83.35546875 254.12890625 C-85.93237194 249.78038211 -85.84486518 247.72943658 -85.35546875 242.75390625 C-84.1673384 238.86547966 -81.56730764 237.12052438 -78.35546875 234.75390625 C-78.85046875 233.55765625 -79.34546875 232.36140625 -79.85546875 231.12890625 C-84.76833703 216.36701768 -79.80460458 202.07114729 -73.35546875 188.75390625 C-67.35432028 177.54971601 -58.56667635 168.24116807 -49.9465332 159.00854492 C-37.84491175 146.54456042 -37.84491175 146.54456042 -32.35546875 130.75390625 C-44.46104845 134.59048853 -51.71390692 137.77817834 -57.85546875 149.37890625 C-60.55511871 154.47042849 -63.87161182 158.27914473 -69.265625 160.5625 C-78.83347129 163.32062666 -88.50784152 161.73040596 -97.60546875 158.12890625 C-101.00431241 156.88266357 -102.85211206 156.62102031 -106.35546875 156.75390625 C-111.61699458 144.46849884 -114.02496453 130.09229887 -112.35546875 116.75390625 C-110.34163386 111.96753589 -105.48745234 109.26882859 -101.40234375 106.3125 C-95.34100899 101.69709433 -90.71601048 95.94713943 -86.35546875 89.75390625 C-85.61296875 88.70203125 -84.87046875 87.65015625 -84.10546875 86.56640625 C-81.93213516 83.07354869 -80.65026336 79.63829009 -79.35546875 75.75390625 C-78.69546875 75.75390625 -78.03546875 75.75390625 -77.35546875 75.75390625 C-77.19691406 74.74070312 -77.03835937 73.7275 -76.875 72.68359375 C-74.65214032 59.5461329 -74.65214032 59.5461329 -69.35546875 54.75390625 C-68.50984375 53.90828125 -67.66421875 53.06265625 -66.79296875 52.19140625 C-65.98859375 51.38703125 -65.18421875 50.58265625 -64.35546875 49.75390625 C-60.83920925 45.9681764 -59.83811941 43.43853642 -59.35546875 38.31640625 C-58.49228892 31.29218143 -58.49228892 31.29218143 -56.16796875 28.25390625 C-54.10374296 25.93937561 -54.10374296 25.93937561 -54.41796875 23.31640625 C-55.1623954 21.28164007 -56.0213957 19.28886695 -56.91796875 17.31640625 C-58.34959077 13.76847341 -58.71477307 11.52660161 -58.35546875 7.75390625 C-57.35546875 6.75390625 -57.35546875 6.75390625 -54.23046875 6.50390625 C-49.81691311 6.78865178 -47.28514752 7.82916563 -43.35546875 9.75390625 C-42.17984375 8.57828125 -42.17984375 8.57828125 -40.98046875 7.37890625 C-37.37229576 3.77073326 -36.13667187 2.53809522 -31.10546875 1.81640625 C-27.68609967 1.26346817 -25.47321531 0.81904265 -22.41796875 -0.87109375 C-15.25270757 -4.08814979 -7.15155661 -2.66733733 0 0 Z " fill="#B6833B" transform="translate(139.35546875,17.24609375)"/>
<path d="M0 0 C5.81201204 0.20393025 8.91430351 2.370919 12.875 6.5 C20.98198032 15.77212878 24.77092452 24.40941699 26.875 36.5 C26.8853125 35.241875 26.895625 33.98375 26.90625 32.6875 C26.91495117 31.62595703 26.91495117 31.62595703 26.92382812 30.54296875 C26.8657126 28.11141513 26.46418419 25.85673675 25.875 23.5 C38.01098957 22.26722454 48.04033017 27.13913048 57.453125 34.484375 C58.25234375 35.14953125 59.0515625 35.8146875 59.875 36.5 C60.50921875 37.02078125 61.1434375 37.5415625 61.796875 38.078125 C76.09440847 51.06395815 83.77143641 71.91535879 85.10693359 90.77539062 C86.01327185 111.39530069 83.74594891 130.7608445 77.67236328 150.45019531 C72.55271852 167.16397703 70.19774938 186.26679827 73.875 203.5 C74.68254645 213.72009599 73.45335315 221.03760634 67.25 229.25 C60.50362903 236.62991343 49.75744341 239.52977036 40.15234375 240.609375 C39.41499496 240.69346619 38.67764618 240.77755737 37.91795349 240.86419678 C30.20522549 241.67387601 22.52247964 241.80288871 14.77319336 241.76074219 C12.44162931 241.75001899 10.11083799 241.76072223 7.77929688 241.7734375 C-0.15171723 241.78123226 -7.9757001 241.45704654 -15.86328125 240.6015625 C-16.59348984 240.5230304 -17.32369843 240.44449829 -18.07603455 240.36358643 C-26.62466454 239.34106009 -35.44150023 237.18097481 -42.125 231.5 C-48.01105182 223.97893379 -48.99535566 216.81726889 -48.125 207.5 C-45.26767104 193.12293338 -37.88740471 179.32232293 -28.125 168.5 C-27.43792969 167.72914063 -26.75085938 166.95828125 -26.04296875 166.1640625 C-23.26765969 163.07371836 -20.484712 159.9901964 -17.68505859 156.921875 C-10.11414706 148.57852093 -2.06743344 139.49260557 1.50512695 128.57421875 C2.1484375 126.66015625 2.1484375 126.66015625 3.875 123.5 C7.09765625 122.5546875 7.09765625 122.5546875 10.9375 122.375 C21.52440866 121.51447207 29.72004719 117.42430257 36.875 109.5 C39.20885189 106.30881477 41.10816316 103.03367368 42.875 99.5 C43.21660156 98.83742188 43.55820313 98.17484375 43.91015625 97.4921875 C47.82569635 88.20416214 47.41221533 74.32738804 43.99609375 64.9453125 C39.64694844 54.88591222 39.64694844 54.88591222 32.875 46.5 C34.04293368 48.83586736 35.3912977 51.01929473 36.75 53.25 C44.14642102 65.6186562 47.08266911 77.27658041 44.22265625 91.81640625 C40.85406334 103.13661331 33.401859 111.45926228 23.5625 117.75 C16.99270411 121.24518943 9.92732556 121.51517418 2.625 121.75 C-7.2279716 122.31844067 -17.31184229 125.66404797 -24.61328125 132.59765625 C-27.34447812 136.03458874 -29.3743068 139.88725632 -31.50390625 143.71484375 C-34.75406977 149.29885962 -37.80328732 151.76077283 -44.125 153.5 C-47.44921875 153.765625 -47.44921875 153.765625 -50.8125 153.75 C-51.93011719 153.75515625 -53.04773438 153.7603125 -54.19921875 153.765625 C-57.125 153.5 -57.125 153.5 -60.125 151.5 C-59.32835938 151.14808594 -58.53171875 150.79617187 -57.7109375 150.43359375 C-48.51644633 146.14954251 -43.11984141 141.9614665 -39.125 132.5 C-38.8465625 131.3553125 -38.8465625 131.3553125 -38.5625 130.1875 C-38.418125 129.630625 -38.27375 129.07375 -38.125 128.5 C-37.465 128.17 -36.805 127.84 -36.125 127.5 C-38.105 127.5 -40.085 127.5 -42.125 127.5 C-41.135 127.995 -41.135 127.995 -40.125 128.5 C-40.95405774 135.96151969 -43.30623365 139.43751635 -48.640625 144.65234375 C-54.9467107 149.34224711 -62.55931218 149.46290572 -70.125 148.5 C-74.14979728 145.73788422 -75.58391835 143.02529485 -77.125 138.5 C-77.38125399 136.46581886 -77.56695434 134.42171145 -77.6875 132.375 C-77.88608519 129.12468726 -78.09213663 126.59859011 -79.125 123.5 C-79.73800277 118.41207702 -79.85603152 114.68792622 -77.125 110.25 C-75.07081215 108.17279604 -72.80884019 106.5104373 -70.4375 104.8125 C-64.9269104 100.84782008 -57.75175587 94.74305908 -55.27734375 88.2890625 C-54.95954841 86.3963287 -54.95954841 86.3963287 -56.125 84.5 C-55.50625 83.613125 -54.8875 82.72625 -54.25 81.8125 C-51.87828628 78.11541685 -50.50469659 74.63908977 -49.125 70.5 C-48.465 70.5 -47.805 70.5 -47.125 70.5 C-46.96644531 69.48679687 -46.80789062 68.47359375 -46.64453125 67.4296875 C-44.42167157 54.29222665 -44.42167157 54.29222665 -39.125 49.5 C-38.279375 48.654375 -37.43375 47.80875 -36.5625 46.9375 C-35.758125 46.133125 -34.95375 45.32875 -34.125 44.5 C-30.6087405 40.71427015 -29.60765066 38.18463017 -29.125 33.0625 C-28.26182017 26.03827518 -28.26182017 26.03827518 -25.9375 23 C-23.87327421 20.68546936 -23.87327421 20.68546936 -24.1875 18.0625 C-24.94789518 15.98408651 -25.83153405 13.95105997 -26.75 11.9375 C-28.125 8.5 -28.125 8.5 -27.8125 6.0625 C-27.585625 5.546875 -27.35875 5.03125 -27.125 4.5 C-20.18492846 4.74351128 -16.95232192 6.56708042 -12.125 11.5 C-12.785 11.83 -13.445 12.16 -14.125 12.5 C-14.125 13.16 -14.125 13.82 -14.125 14.5 C-11.155 14.005 -11.155 14.005 -8.125 13.5 C-4.68567653 25.11104938 -4.68567653 25.11104938 -5.125 30.5 C-8.11349079 35.23028582 -12.16919958 38.02209979 -17.125 40.5 C-16.86458333 38.48177083 -16.60416667 36.46354167 -16.34375 34.4453125 C-16.0877515 32.49501656 -16.0877515 32.49501656 -16.125 30.5 C-17.73564629 34.15079826 -18.57394091 37.5507432 -19.125 41.5 C-17.805 41.83 -16.485 42.16 -15.125 42.5 C-14.67769531 41.94570312 -14.23039062 41.39140625 -13.76953125 40.8203125 C-7.7647188 33.62478032 -7.7647188 33.62478032 -3.125 32.5 C-1.475 33.82 0.175 35.14 1.875 36.5 C1.46507813 35.96632812 1.05515625 35.43265625 0.6328125 34.8828125 C-6.48881583 25.03520203 -7.1369569 14.40537534 -6.125 2.5 C-3.79997119 0.17497119 -3.17841735 0.1328955 0 0 Z " fill="#D6A85B" transform="translate(109.125,22.5)"/>
<path d="M0 0 C3.05549328 0.21824952 4.31726286 1.25236818 6.75 3.1875 C9 6 9 6 9.5625 8.8125 C9.04142468 11.76526013 8.439396 13.15952853 7 15.6875 C3.92016258 21.48289299 3.9162012 27.29226728 5.7421875 33.5390625 C9.75413215 42.76360676 17.83725516 49.32416453 25.3125 55.75 C32.3638307 61.83519746 38.13383136 68.37999685 39.3828125 77.92578125 C39.67981286 85.71709063 38.34102315 91.83199092 33.421875 97.96875 C29.73453634 101.88862354 25.83088768 104.67589647 21 107 C20.34515625 107.32613281 19.6903125 107.65226562 19.015625 107.98828125 C8.15785746 113.11996335 -3.15084903 115.63769383 -15 117.1875 C-16.75183594 117.4340332 -16.75183594 117.4340332 -18.5390625 117.68554688 C-57.3995471 123.00624515 -108.77467386 124.36886673 -143 102 C-147.97810559 98.1175953 -151.22326601 94.16631208 -153 88 C-154.01414102 79.2869574 -152.14060359 72.73147555 -147.125 65.625 C-142.32175009 59.71016996 -136.07341669 55.50244628 -130 51 C-123.49708702 45.94335176 -118.70560298 40.41120597 -115 33 C-114.85056144 30.73255726 -114.77855098 28.4596825 -114.75 26.1875 C-114.71132812 24.35251953 -114.71132812 24.35251953 -114.671875 22.48046875 C-115.02391555 18.74632439 -115.9724864 17.07784925 -118 14 C-118.63012103 11.22746748 -118.60400038 8.77952025 -118 6 C-115.75 2.9375 -115.75 2.9375 -113 1 C-109.88396537 1.36452169 -107.88918867 2.62739365 -105.37109375 4.421875 C-100.79268107 7.36748649 -96.3771507 8.34331168 -91.0625 9.25 C-90.22009766 9.40984375 -89.37769531 9.5696875 -88.50976562 9.734375 C-86.01127703 10.19598952 -83.51065523 10.61035886 -81 11 C-80.32751221 11.10602539 -79.65502441 11.21205078 -78.9621582 11.32128906 C-71.05162819 12.38172768 -63.02953941 12.24195259 -55.0625 12.25 C-53.89172409 12.25200912 -53.89172409 12.25200912 -52.69729614 12.25405884 C-41.20442663 12.2497758 -30.20281322 11.78466262 -19 9 C-18.00871094 8.77183594 -17.01742187 8.54367187 -15.99609375 8.30859375 C-10.20014323 6.79698221 -4.30884195 4.30884195 0 0 Z " fill="#D9AC60" transform="translate(176,254)"/>
<path d="M0 0 C3.52599098 0.8059408 5.62515628 2.26894959 7.8125 5.0625 C10.37435575 9.45078919 10.47185973 13.66753308 10.5 18.625 C10.50620361 19.35340088 10.51240723 20.08180176 10.51879883 20.83227539 C10.38716623 26.47192972 9.11443574 30.62245574 5.2734375 34.94140625 C-8.25320279 46.49193242 -24.18928711 49.37694746 -41.25 52.75 C-42.82769165 53.06614258 -42.82769165 53.06614258 -44.43725586 53.38867188 C-59.43946188 56.23401837 -74.47566744 56.21368437 -89.69213867 56.24023438 C-93.03134367 56.24990972 -96.3699237 56.28101103 -99.70898438 56.3125 C-113.40683276 56.37971401 -126.51608452 55.39793868 -140 53 C-140.88957397 52.84553909 -141.77914795 52.69107819 -142.69567871 52.53193665 C-158.32680449 49.80414954 -173.81412833 46.25648192 -187 37 C-187.99 36.319375 -188.98 35.63875 -190 34.9375 C-193.34377701 31.69821602 -194.10016702 28.35990173 -194.3359375 23.8203125 C-194.35968928 22.2553344 -194.37242996 20.69015622 -194.375 19.125 C-194.39949219 18.34769531 -194.42398438 17.57039063 -194.44921875 16.76953125 C-194.47816075 11.02936753 -193.32865433 7.69856983 -190 3 C-187 1 -187 1 -185.04467773 1.19946289 C-182.73626737 2.10325723 -181.19826861 3.23621017 -179.28515625 4.80859375 C-175.22744666 7.94524538 -171.16207916 10.10039633 -166.4375 12.0625 C-165.62885498 12.39975098 -164.82020996 12.73700195 -163.98706055 13.08447266 C-154.00592708 17.04510461 -143.57363756 19.26738743 -133 21 C-131.87432617 21.18691406 -130.74865234 21.37382812 -129.58886719 21.56640625 C-118.35005144 23.20727917 -107.1904217 23.30563371 -95.84667969 23.26074219 C-92.63717662 23.2500406 -89.42823597 23.26068587 -86.21875 23.2734375 C-70.17240875 23.28548981 -54.48480724 22.45865653 -38.8125 18.75 C-37.89106201 18.53456543 -36.96962402 18.31913086 -36.02026367 18.09716797 C-23.92088824 15.14692375 -7.22145019 10.83217528 0 0 Z " fill="#D5A75C" transform="translate(211,352)"/>
<path d="M0 0 C3.8652758 1.57474199 6.167945 3.97035977 9 7 C9.78890625 7.78117187 9.78890625 7.78117187 10.59375 8.578125 C16.59222579 14.84925878 20.46313477 22.16437208 24 30 C24.30921387 30.66322266 24.61842773 31.32644531 24.93701172 32.00976562 C36.83208805 58.84927804 30.71979496 92.87486653 23 120 C18.36475108 136.52733277 14.56976024 154.30035022 21.22265625 170.7421875 C21.60744141 171.85980469 21.60744141 171.85980469 22 173 C21.67 173.66 21.34 174.32 21 175 C20.67 174.67 20.34 174.34 20 174 C19.92652344 175.21236328 19.92652344 175.21236328 19.8515625 176.44921875 C19.77679688 177.51785156 19.70203125 178.58648437 19.625 179.6875 C19.52058594 181.27111328 19.52058594 181.27111328 19.4140625 182.88671875 C19.01239911 185.90677269 18.25930981 188.24078054 17 191 C23.14573485 189.79495395 25.42216808 188.15628718 29 183 C31.33739227 175.98782319 29.87193644 170.82285334 26.97265625 164.296875 C26.08507198 162.20089288 25.4835107 160.21905965 25 158 C27.84323425 160.46802739 29.15880824 163.08454454 30.6875 166.5 C31.12449219 167.4590625 31.56148437 168.418125 32.01171875 169.40625 C33 172 33 172 33 175 C36.97104259 171.34246077 39.7900981 168.52275599 40.12255859 162.94311523 C40.1250864 160.56318622 40.07593627 158.19120377 40 155.8125 C39.90684282 152.85243073 39.90632301 149.96546233 40 147 C40.66 146.34 41.32 145.68 42 145 C44.57409438 148.86114157 44.29601945 152.91111336 44.25 157.375 C44.25773438 158.1175 44.26546875 158.86 44.2734375 159.625 C44.2458556 167.430677 42.28488346 172.31875028 37 178 C36.34 178.33 35.68 178.66 35 179 C34.36602712 180.39474034 33.79106332 181.81665681 33.25 183.25 C29.83476006 191.14383299 23.6268484 193.96620919 16 197 C16.99 197.78375 17.98 198.5675 19 199.375 C21.82209329 202.18375006 22.47347495 204.09198259 22.5625 208.0625 C22.31802785 212.13907315 21.44801765 214.67069599 19 218 C17.42649736 222.29137084 17.18370735 226.82189229 18.80078125 231.13671875 C22.84888028 239.10771786 29.35445077 244.76910755 36.0625 250.5 C44.74703512 258.06004352 51.74851363 266.08315959 53.40625 277.89453125 C53.61332296 284.06357991 52.3548919 289.32302846 50 295 C50.7425 295.66 51.485 296.32 52.25 297 C58.30535949 303.26238033 59.63669016 309.37998842 59.53833008 317.9909668 C59.20463933 325.17666512 57.35283332 330.64716668 52.23828125 335.76171875 C40.50816439 345.20767492 25.24343923 349.45146391 10.8125 352.6875 C9.48859253 352.99107422 9.48859253 352.99107422 8.13793945 353.30078125 C-8.17244074 356.78435449 -24.59161643 357.32768827 -41.21484375 357.26074219 C-44.3647801 357.25003474 -47.51414341 357.26070066 -50.6640625 357.2734375 C-68.78632349 357.28794161 -86.59325959 356.22986173 -104.3125 352.25 C-105.4989209 351.98832031 -106.6853418 351.72664063 -107.90771484 351.45703125 C-120.8808325 348.49255773 -132.92413579 344.60236834 -144 337 C-144.94875 336.38125 -145.8975 335.7625 -146.875 335.125 C-151.95463512 330.04536488 -153.26644825 325.27807331 -153.4375 318.125 C-153.19276753 310.51382007 -152.50203432 303.85946779 -147.375 298 C-146.59125 297.34 -145.8075 296.68 -145 296 C-144.67 295.34 -144.34 294.68 -144 294 C-144.4640625 292.824375 -144.4640625 292.824375 -144.9375 291.625 C-147.01048817 284.55245212 -147.05929031 276.67996365 -144.0390625 269.86328125 C-139.13722337 261.07314115 -132.1285133 254.47920085 -124.0625 248.625 C-117.29859177 243.65178768 -110.63442074 238.23256482 -108 230 C-107.31584352 225.05179845 -107.23206337 220.65450486 -110 216.375 C-112.57690319 212.02647586 -112.48939643 209.97553033 -112 205 C-110.81186965 201.11157341 -108.21183889 199.36661813 -105 197 C-105.495 195.80375 -105.99 194.6075 -106.5 193.375 C-111.41286828 178.61311143 -106.44913583 164.31724104 -100 151 C-93.99885153 139.79580976 -85.2112076 130.48726182 -76.59106445 121.25463867 C-64.489443 108.79065417 -64.489443 108.79065417 -59 93 C-71.1055797 96.83658228 -78.35843817 100.02427209 -84.5 111.625 C-87.19964996 116.71652224 -90.51614307 120.52523848 -95.91015625 122.80859375 C-105.47800254 125.56672041 -115.15237277 123.97649971 -124.25 120.375 C-127.64884366 119.12875732 -129.49664331 118.86711406 -133 119 C-138.26152583 106.71459259 -140.66949578 92.33839262 -139 79 C-136.98825604 74.21859925 -132.14159747 71.51597214 -128.0546875 68.5703125 C-123.7679183 65.29411246 -120.1183088 61.4378256 -116.8125 57.1875 C-114.98468582 54.98151737 -113.63854829 54.03657254 -111 53 C-111.38396755 58.04776848 -114.08142703 60.81618247 -117.4375 64.3125 C-118.23861206 65.16581909 -118.23861206 65.16581909 -119.0559082 66.03637695 C-123.11171755 70.27492916 -127.4276506 74.00432668 -132.13671875 77.51171875 C-134.1134461 78.87709648 -134.1134461 78.87709648 -135 81 C-135.09585131 82.64356807 -135.12983511 84.29114642 -135.125 85.9375 C-135.12757813 86.81277344 -135.13015625 87.68804687 -135.1328125 88.58984375 C-135.09822003 91.14459056 -135.09822003 91.14459056 -134 94 C-133.87370083 95.89448759 -133.77250336 97.79071083 -133.6875 99.6875 C-133.25621919 105.41936105 -132.03054356 109.13276337 -129 114 C-124.21601897 116.39199052 -116.97786604 115.58484216 -111.83203125 114.57421875 C-106.96206467 112.75773236 -103.03319922 109.136924 -100 105 C-98.82155519 102.22187904 -98.41197775 100.03833587 -98 97 C-98.33 96.34 -98.66 95.68 -99 95 C-96.03 94.505 -96.03 94.505 -93 94 C-93 94.99 -93 95.98 -93 97 C-93.99 96.505 -93.99 96.505 -95 96 C-95.04125 96.99 -95.0825 97.98 -95.125 99 C-96.00704398 105.13703839 -100.42672431 109.75421012 -104.875 113.8125 C-108.52199032 116.36539323 -111.782095 117.6182725 -116 119 C-111.20291233 121.39854384 -103.91098941 120.59947077 -98.76171875 119.5390625 C-92.27631779 117.0944546 -89.36527085 111.68543566 -86.125 106 C-80.61608566 96.75388247 -72.46351698 91.70330529 -62 89 C-57.50775431 88.28921246 -53.00036219 87.91353656 -48.46044922 87.66894531 C-37.38835489 87.02714557 -29.21370182 82.83882261 -21.75 74.625 C-13.65224845 64.63483911 -12.19298211 53.57385942 -13 41 C-14.56062606 30.2458677 -20.46344629 21.14881741 -26 12 C-25.34 12 -24.68 12 -24 12 C-12.82494713 24.75914542 -8.9669073 39.21309864 -9.77783203 55.73779297 C-10.81578339 66.30664717 -16.71422774 75.38002394 -24.54296875 82.22265625 C-33.47293204 89.16258541 -41.87138855 91.313341 -53 92 C-53.41958984 93.12535156 -53.41958984 93.12535156 -53.84765625 94.2734375 C-59.90837962 109.74679555 -70.90487574 121.56713104 -82.1875 133.5 C-94.6553418 147.16859703 -104.67368487 165.16693895 -104.31640625 184.03125 C-103.69230014 189.88706038 -101.38155343 194.1714734 -97.875 198.8125 C-90.55528458 204.38184869 -81.95584528 205.91281205 -73 207 C-72.3510376 207.08757568 -71.7020752 207.17515137 -71.03344727 207.26538086 C-63.16738333 208.20978031 -55.28145628 208.18609828 -47.37133789 208.18530273 C-44.96677512 208.18747357 -42.56268424 208.20564154 -40.15820312 208.22460938 C-32.3082631 208.25387993 -24.56593408 208.01729281 -16.76171875 207.12890625 C-15.74476173 207.01545113 -15.74476173 207.01545113 -14.70726013 206.89970398 C-5.32440619 205.70644234 4.84271557 202.58633898 11 195 C14.51158473 189.31663518 16.14035883 184.33680699 16.125 177.625 C16.12757813 176.50351563 16.13015625 175.38203125 16.1328125 174.2265625 C16.09293703 171.12328366 16.09293703 171.12328366 15.5065918 168.62670898 C11.8521019 149.67795871 16.34389453 130.09381579 21.5625 111.9375 C29.79203521 83.08076973 31.42749683 50.15952285 17 23 C12.69986687 15.70972169 7.70843544 9.20046657 1.43359375 3.48828125 C0 2 0 2 0 0 Z M5 203 C-9.94589176 210.68645862 -27.25815411 211.23338225 -43.6875 211.25 C-44.46568085 211.25133942 -45.24386169 211.25267883 -46.04562378 211.25405884 C-84.66448933 211.23965048 -84.66448933 211.23965048 -99 201 C-100.96323357 199.77707415 -100.96323357 199.77707415 -103 200 C-105.78331996 201.96097543 -107.67489472 203.50391368 -108.421875 206.94140625 C-108.55330321 210.4045397 -108.41913614 212.34667291 -106.50390625 215.33203125 C-103.60186501 220.48032778 -104.23914844 226.28737684 -105 232 C-106.45960702 235.83017445 -108.43121798 238.82206609 -111 242 C-111.48339844 242.59941406 -111.96679688 243.19882812 -112.46484375 243.81640625 C-116.67229811 248.43068826 -121.83970278 251.75682882 -126.93310547 255.30200195 C-134.44595349 260.60631951 -141.14787763 267.65202386 -143 277 C-143.71333025 283.87603586 -143.17109666 289.35876271 -139 295 C-122.17326029 314.58089217 -89.75973441 316.82222042 -65.90600586 318.82788086 C-59.98201106 319.17875176 -54.05779075 319.19153118 -48.125 319.1875 C-47.44569427 319.18722809 -46.76638855 319.18695618 -46.0664978 319.18667603 C-34.27775917 319.16509031 -22.69510437 318.50184319 -11 317 C-10.1646875 316.90348145 -9.329375 316.80696289 -8.46875 316.70751953 C10.98297532 314.45025949 31.29342741 309.96583368 45 295 C49.45427757 288.67264161 50.21037985 281.53650578 49 274 C45.37820797 262.83752378 37.46420174 255.81714344 28.8125 248.375 C22.16106223 242.63914476 15.78199783 236.5101319 14.6875 227.3984375 C14.43165769 221.59401511 15.23278428 217.79121219 18.08984375 212.7734375 C19.52309645 209.98074769 19.61056997 208.05284984 19 205 C16.86575177 202.33218972 15.01783748 200.54072616 12 198.9375 C8.90430115 199.03424059 7.39507452 201.07352702 5 203 Z M45 297 C43.8325378 298.13312508 42.67567883 299.27917947 41.57421875 300.4765625 C21.00672172 320.38059188 -17.22578939 320.19237369 -43.68676758 320.24023438 C-46.89886945 320.24988395 -50.11031464 320.28095955 -53.32226562 320.3125 C-66.80300253 320.38114302 -79.73061598 319.37894273 -93 317 C-93.81316681 316.8548143 -94.62633362 316.7096286 -95.46414185 316.56004333 C-104.40681822 314.93545092 -112.70952049 312.59817242 -121.125 309.125 C-121.89473145 308.80958252 -122.66446289 308.49416504 -123.45751953 308.16918945 C-128.23428061 306.09036554 -132.15105606 303.58088419 -136.17138672 300.26513672 C-138.178479 298.87651827 -139.56918193 298.23638923 -142 298 C-145.67595398 301.06329498 -148.68068179 304.01193017 -149.20410156 308.90991211 C-149.30594802 311.23514895 -149.32189975 313.54762238 -149.3125 315.875 C-149.32861328 316.66519531 -149.34472656 317.45539063 -149.36132812 318.26953125 C-149.3654704 323.24854564 -148.82765768 326.73337875 -146 331 C-133.43003799 342.8544044 -113.74004824 346.78302729 -97.3125 349.6875 C-96.16716797 349.89955078 -95.02183594 350.11160156 -93.84179688 350.33007812 C-83.37025857 352.22800702 -73.21045757 353.15614244 -62.5703125 353.16796875 C-61.49989716 353.17129715 -60.42948181 353.17462555 -59.32662964 353.17805481 C-57.06931992 353.1830913 -54.81200283 353.18546416 -52.5546875 353.18530273 C-49.16913949 353.18747172 -45.7839273 353.20561471 -42.3984375 353.22460938 C-24.01586013 353.27453412 -6.3264529 352.15361757 11.625 348.0625 C12.78644531 347.81048828 13.94789063 347.55847656 15.14453125 347.29882812 C29.95465874 344.02721239 45.01441034 340.37660596 54 327 C56.28115617 320.15653148 56.43301267 310.68755705 53.80078125 303.9140625 C51.10095835 299.70030679 51.10095835 299.70030679 46.9296875 297.15234375 C46.29289063 297.10207031 45.65609375 297.05179687 45 297 Z " fill="#49331A" transform="translate(166,55)"/>
<path d="M0 0 C1.64453125 0.75390625 1.64453125 0.75390625 2.64453125 1.75390625 C4.68120752 2.07859377 6.72430422 2.36335285 8.76953125 2.62890625 C17.46733412 3.94446076 23.13521948 6.96528791 30.171875 12.0703125 C32.3094244 13.52573713 34.288131 14.59589846 36.64453125 15.62890625 C46.78363115 20.3893373 53.66056603 29.82527108 59.08203125 39.25390625 C60.61684873 41.82494447 60.61684873 41.82494447 62.6640625 44.234375 C68.57126342 51.74945309 69.97278405 59.71351222 70.19433594 68.95678711 C70.4041533 74.3453373 71.76833088 77.86220358 74.43359375 82.4609375 C79.03026053 91.16494846 77.98314824 101.38358734 76.64453125 110.75390625 C76.26624225 116.22214889 76.26624225 116.22214889 77.1953125 121.57763672 C79.33581908 128.87040954 77.77665614 134.87145248 76.01953125 142.12890625 C75.73972412 143.3602832 75.45991699 144.59166016 75.17163086 145.86035156 C74.3453176 149.49546637 73.49735533 153.12493284 72.64453125 156.75390625 C71.81356206 160.33337688 71.00316467 163.91655394 70.20703125 167.50390625 C69.9438208 168.59904541 69.9438208 168.59904541 69.67529297 169.71630859 C68.5482085 174.77574453 68.78088654 178.71880114 69.64453125 183.75390625 C68.65453125 184.08390625 67.66453125 184.41390625 66.64453125 184.75390625 C63.34276511 178.90907768 60.87140133 172.94434187 58.83203125 166.56640625 C58.61329346 165.90189453 58.39455566 165.23738281 58.16918945 164.55273438 C56.81911463 160.17599282 56.43729 156.31913493 56.64453125 151.75390625 C56.97453125 151.75390625 57.30453125 151.75390625 57.64453125 151.75390625 C57.83789062 152.56214844 58.03125 153.37039062 58.23046875 154.203125 C58.62105469 155.80607422 58.62105469 155.80607422 59.01953125 157.44140625 C59.27476562 158.49714844 59.53 159.55289063 59.79296875 160.640625 C60.56358614 163.45797391 61.49951668 166.0705895 62.64453125 168.75390625 C70.06459938 154.6557768 73.94116856 135.16841446 70.09375 119.51269531 C68.69164546 115.05014913 66.78283696 110.91605849 64.64453125 106.75390625 C64.20753906 105.88765625 63.77054687 105.02140625 63.3203125 104.12890625 C62.76923828 103.04609375 62.76923828 103.04609375 62.20703125 101.94140625 C61.69140625 100.88953125 61.17578125 99.83765625 60.64453125 98.75390625 C60.97453125 98.09390625 61.30453125 97.43390625 61.64453125 96.75390625 C70.64453125 111.49177033 70.64453125 111.49177033 70.64453125 115.75390625 C71.30453125 115.75390625 71.96453125 115.75390625 72.64453125 115.75390625 C72.73255277 111.77488195 72.78526358 107.79611237 72.83203125 103.81640625 C72.85716797 102.69943359 72.88230469 101.58246094 72.90820312 100.43164062 C73.00570927 89.34844185 70.33045455 80.68275681 63.64453125 71.75390625 C60.79678406 68.88289315 57.8078743 66.27052139 54.64453125 63.75390625 C58.42363603 63.75390625 59.10559226 64.75094587 61.83203125 67.25390625 C62.54746094 67.90359375 63.26289063 68.55328125 64 69.22265625 C64.81404297 69.980625 64.81404297 69.980625 65.64453125 70.75390625 C66.57895812 61.36810748 63.84932595 53.5610983 58.64453125 45.75390625 C57.65453125 49.05390625 56.66453125 52.35390625 55.64453125 55.75390625 C55.31453125 55.75390625 54.98453125 55.75390625 54.64453125 55.75390625 C54.70253906 54.85929687 54.76054687 53.9646875 54.8203125 53.04296875 C55.20585235 42.7105008 53.31150668 35.06608285 46.3046875 27.203125 C39.65807035 21.35935247 39.65807035 21.35935247 31.64453125 18.75390625 C31.93328125 19.27597656 32.22203125 19.79804687 32.51953125 20.3359375 C35.65239948 26.54728389 36.33572271 31.84199168 35.64453125 38.75390625 C35.31453125 39.74390625 34.98453125 40.73390625 34.64453125 41.75390625 C31.28857297 41.15462799 29.26651899 39.90768189 26.64453125 37.75390625 C26.14953125 38.74390625 26.14953125 38.74390625 25.64453125 39.75390625 C25.12246094 39.3671875 24.60039062 38.98046875 24.0625 38.58203125 C15.41674927 32.46489763 7.31708099 29.05406692 -3.35546875 29.75390625 C-3.11376953 30.61628906 -3.11376953 30.61628906 -2.8671875 31.49609375 C-2.07025524 35.0123292 -2.18094799 38.14714391 -2.35546875 41.75390625 C-3.01546875 42.41390625 -3.67546875 43.07390625 -4.35546875 43.75390625 C-4.51402344 42.77550781 -4.67257813 41.79710937 -4.8359375 40.7890625 C-7.04084674 28.04940609 -11.86840993 15.88945514 -22.80859375 7.98046875 C-25.50909183 6.67992213 -27.13745386 6.40430843 -30.10546875 6.50390625 C-30.8840625 6.519375 -31.66265625 6.53484375 -32.46484375 6.55078125 C-34.36572777 6.55499018 -34.36572777 6.55499018 -35.35546875 7.75390625 C-36.08961255 20.9855678 -35.35169201 30.93685788 -27.35546875 41.75390625 C-27.02546875 42.41390625 -26.69546875 43.07390625 -26.35546875 43.75390625 C-29.23984654 42.46090931 -31.22766296 41.09449262 -33.35546875 38.75390625 C-39.00800183 40.1242173 -41.86682285 44.43080038 -45.35546875 48.75390625 C-45.68546875 48.09390625 -46.01546875 47.43390625 -46.35546875 46.75390625 C-47.34546875 46.75390625 -48.33546875 46.75390625 -49.35546875 46.75390625 C-49.92108021 41.09779162 -48.06938153 37.52748497 -45.35546875 32.75390625 C-44.12399583 36.448325 -44.91247884 37.27375411 -46.35546875 40.75390625 C-46.35546875 42.07390625 -46.35546875 43.39390625 -46.35546875 44.75390625 C-45.80117187 44.18800781 -45.246875 43.62210938 -44.67578125 43.0390625 C-43.95132813 42.30558594 -43.226875 41.57210937 -42.48046875 40.81640625 C-41.76117188 40.08550781 -41.041875 39.35460938 -40.30078125 38.6015625 C-38.35546875 36.75390625 -38.35546875 36.75390625 -36.35546875 35.75390625 C-36.49984375 35.11324219 -36.64421875 34.47257812 -36.79296875 33.8125 C-37.89582366 28.67350248 -38.58386186 24.00694782 -38.35546875 18.75390625 C-40.33546875 19.08390625 -42.31546875 19.41390625 -44.35546875 19.75390625 C-44.35546875 18.43390625 -44.35546875 17.11390625 -44.35546875 15.75390625 C-47.96743206 11.67588316 -51.39206952 11.20315513 -56.5625 10.83203125 C-57.15417969 10.80625 -57.74585937 10.78046875 -58.35546875 10.75390625 C-58.02546875 9.43390625 -57.69546875 8.11390625 -57.35546875 6.75390625 C-51.70152244 6.40774627 -48.32540069 7.31965387 -43.35546875 9.75390625 C-42.17984375 8.57828125 -42.17984375 8.57828125 -40.98046875 7.37890625 C-37.37229576 3.77073326 -36.13667187 2.53809522 -31.10546875 1.81640625 C-27.68609967 1.26346817 -25.47321531 0.81904265 -22.41796875 -0.87109375 C-15.25270757 -4.08814979 -7.15155661 -2.66733733 0 0 Z " fill="#4B351D" transform="translate(139.35546875,17.24609375)"/>
<path d="M0 0 C0.66 0 1.32 0 2 0 C13.17505287 12.75914542 17.0330927 27.21309864 16.22216797 43.73779297 C15.18421661 54.30664717 9.28577226 63.38002394 1.45703125 70.22265625 C-7.47293204 77.16258541 -15.87138855 79.313341 -27 80 C-27.41958984 81.12535156 -27.41958984 81.12535156 -27.84765625 82.2734375 C-33.90837962 97.74679555 -44.90487574 109.56713104 -56.1875 121.5 C-68.6553418 135.16859703 -78.67368487 153.16693895 -78.31640625 172.03125 C-77.69230014 177.88706038 -75.38155343 182.1714734 -71.875 186.8125 C-64.55528458 192.38184869 -55.95584528 193.91281205 -47 195 C-46.32275879 195.0832251 -45.64551758 195.1664502 -44.94775391 195.25219727 C-37.11076233 196.13212587 -29.25160076 196.33303898 -21.375 196.5625 C-19.97525068 196.60580627 -18.57551096 196.64942387 -17.17578125 196.69335938 C-13.78393549 196.79862355 -10.39202646 196.90076009 -7 197 C-7 197.33 -7 197.66 -7 198 C-5.02 198.33 -3.04 198.66 -1 199 C-1 199.33 -1 199.66 -1 200 C-57.68793503 200.93718926 -57.68793503 200.93718926 -73 190 C-75.01633305 188.86693843 -75.01633305 188.86693843 -77 189 C-79.4348581 190.34845969 -79.4348581 190.34845969 -81 193 C-81.67573489 198.48373441 -81.67573489 198.48373441 -79.5078125 203.3359375 C-76.59615691 208.48036526 -77.24453314 214.28717212 -78 220 C-81.82008804 230.22888042 -90.35436491 236.95516104 -99.0625 242.9375 C-107.0819008 248.47578947 -113.93428381 255.09562863 -116 265 C-116.87772742 271.85724544 -116.11980308 277.35740438 -112 283 C-96.3016175 301.64435145 -63.95755835 303.57723011 -41.66796875 305.61328125 C-40.1122423 305.74532529 -38.55634958 305.87551556 -37 306 C-37 306.99 -37 307.98 -37 309 C-43.45226372 309.12995496 -49.5593542 308.70342179 -55.9375 307.75 C-57.30720947 307.54540161 -57.30720947 307.54540161 -58.70458984 307.33666992 C-71.33767478 305.38747147 -83.26495804 303.01978592 -95.125 298.125 C-95.89473145 297.80958252 -96.66446289 297.49416504 -97.45751953 297.16918945 C-102.23428061 295.09036554 -106.15105606 292.58088419 -110.17138672 289.26513672 C-112.18060103 287.87505013 -113.5656133 287.23134958 -116 287 C-119.03169839 289.53816609 -120.74169637 291.22508911 -122 295 C-122.24904978 297.93312719 -122.2311822 300.86986607 -122.25 303.8125 C-122.270625 304.60720703 -122.29125 305.40191406 -122.3125 306.22070312 C-122.34553126 311.21255255 -121.9268097 314.76546681 -119 319 C-116.36763136 321.07938352 -116.36763136 321.07938352 -113.375 322.6875 C-108.10048622 325.69854133 -108.10048622 325.69854133 -107 329 C-113.11893691 328.68620836 -117.47838251 325.92316812 -122 322 C-127.18683258 316.14080023 -127.65965589 310.05821222 -127.35546875 302.4453125 C-126.55223614 294.66013485 -125.1633624 289.19019992 -119 284 C-118.67 283.34 -118.34 282.68 -118 282 C-118.4640625 280.824375 -118.4640625 280.824375 -118.9375 279.625 C-121.01048817 272.55245212 -121.05929031 264.67996365 -118.0390625 257.86328125 C-113.13722337 249.07314115 -106.1285133 242.47920085 -98.0625 236.625 C-91.29859177 231.65178768 -84.63442074 226.23256482 -82 218 C-81.31584352 213.05179845 -81.23206337 208.65450486 -84 204.375 C-86.57690319 200.02647586 -86.48939643 197.97553033 -86 193 C-84.81186965 189.11157341 -82.21183889 187.36661813 -79 185 C-79.495 183.80375 -79.99 182.6075 -80.5 181.375 C-85.41286828 166.61311143 -80.44913583 152.31724104 -74 139 C-67.99885153 127.79580976 -59.2112076 118.48726182 -50.59106445 109.25463867 C-38.489443 96.79065417 -38.489443 96.79065417 -33 81 C-45.1055797 84.83658228 -52.35843817 88.02427209 -58.5 99.625 C-61.19964996 104.71652224 -64.51614307 108.52523848 -69.91015625 110.80859375 C-79.47800254 113.56672041 -89.15237277 111.97649971 -98.25 108.375 C-101.64884366 107.12875732 -103.49664331 106.86711406 -107 107 C-112.26152583 94.71459259 -114.66949578 80.33839262 -113 67 C-110.98825604 62.21859925 -106.14159747 59.51597214 -102.0546875 56.5703125 C-97.7679183 53.29411246 -94.1183088 49.4378256 -90.8125 45.1875 C-88.98468582 42.98151737 -87.63854829 42.03657254 -85 41 C-85.38396755 46.04776848 -88.08142703 48.81618247 -91.4375 52.3125 C-92.23861206 53.16581909 -92.23861206 53.16581909 -93.0559082 54.03637695 C-97.11171755 58.27492916 -101.4276506 62.00432668 -106.13671875 65.51171875 C-108.1134461 66.87709648 -108.1134461 66.87709648 -109 69 C-109.09585131 70.64356807 -109.12983511 72.29114642 -109.125 73.9375 C-109.12757812 74.81277344 -109.13015625 75.68804687 -109.1328125 76.58984375 C-109.09822003 79.14459056 -109.09822003 79.14459056 -108 82 C-107.87370083 83.89448759 -107.77250336 85.79071083 -107.6875 87.6875 C-107.25621919 93.41936105 -106.03054356 97.13276337 -103 102 C-98.21601897 104.39199052 -90.97786604 103.58484216 -85.83203125 102.57421875 C-80.96206467 100.75773236 -77.03319922 97.136924 -74 93 C-72.82155519 90.22187904 -72.41197775 88.03833587 -72 85 C-72.33 84.34 -72.66 83.68 -73 83 C-70.03 82.505 -70.03 82.505 -67 82 C-67 82.99 -67 83.98 -67 85 C-67.99 84.505 -67.99 84.505 -69 84 C-69.04125 84.99 -69.0825 85.98 -69.125 87 C-70.00704398 93.13703839 -74.42672431 97.75421012 -78.875 101.8125 C-82.52199032 104.36539323 -85.782095 105.6182725 -90 107 C-85.20291233 109.39854384 -77.91098941 108.59947077 -72.76171875 107.5390625 C-66.27631779 105.0944546 -63.36527085 99.68543566 -60.125 94 C-54.61608566 84.75388247 -46.46351698 79.70330529 -36 77 C-31.50775431 76.28921246 -27.00036219 75.91353656 -22.46044922 75.66894531 C-11.38835489 75.02714557 -3.21370182 70.83882261 4.25 62.625 C12.34775155 52.63483911 13.80701789 41.57385942 13 29 C11.43937394 18.2458677 5.53655371 9.14881741 0 0 Z " fill="#4A361E" transform="translate(140,67)"/>
<path d="M0 0 C2.38206973 0.83513473 3.81535244 1.92322766 5.75146484 3.53417969 C10.11317103 6.91606767 14.6222486 8.96120201 19.72802734 10.98730469 C20.95779297 11.49390625 20.95779297 11.49390625 22.21240234 12.01074219 C26.46316283 13.74658329 30.72379246 15.34842113 35.10302734 16.73730469 C35.10302734 17.39730469 35.10302734 18.05730469 35.10302734 18.73730469 C43.18193052 20.40367361 51.29045296 21.87738907 59.41552734 23.29980469 C60.64464844 23.52087891 61.87376953 23.74195313 63.14013672 23.96972656 C77.55705396 26.48793216 91.67136106 26.89905715 106.26611328 26.86767578 C109.20138811 26.86235299 112.13650737 26.86762959 115.07177734 26.87402344 C124.20785805 26.87815263 133.328226 26.77423671 142.45458984 26.33105469 C143.56533371 26.28079636 143.56533371 26.28079636 144.69851685 26.22952271 C161.78415705 25.28211312 178.30411297 20.37268139 191.10302734 8.73730469 C192.09302734 9.06730469 193.08302734 9.39730469 194.10302734 9.73730469 C192.05291061 16.42595369 187.00158889 18.58512499 181.10302734 21.73730469 C164.9266195 29.24630219 147.62968977 31.68496616 130.10302734 33.73730469 C129.25111816 33.84316895 128.39920898 33.9490332 127.52148438 34.05810547 C90.12995748 38.65106896 49.86713429 37.23181641 14.10302734 24.73730469 C12.91708984 24.34671875 11.73115234 23.95613281 10.50927734 23.55371094 C4.09854322 21.31142435 -0.64660631 18.881048 -5.50634766 14.09277344 C-6.692666 12.62097185 -6.692666 12.62097185 -7.89697266 12.73730469 C-8.22167724 8.5973212 -8.32741395 6.39731468 -6.02197266 2.86230469 C-2.77533576 -0.38433221 -2.77533576 -0.38433221 0 0 Z " fill="#E2B86F" transform="translate(25.89697265625,353.2626953125)"/>
<path d="M0 0 C1.56627668 0.7420806 3.12785359 1.49408378 4.6875 2.25 C5.55761719 2.66765625 6.42773438 3.0853125 7.32421875 3.515625 C12.43251208 6.34942276 15.79640707 9.70833559 19.1875 14.4375 C19.86167969 15.36433594 20.53585938 16.29117188 21.23046875 17.24609375 C24.3379042 22.08216878 25.25144357 25.55931772 25.125 31.3125 C25.10695312 32.38113281 25.08890625 33.44976562 25.0703125 34.55078125 C25.04710937 35.35902344 25.02390625 36.16726562 25 37 C25.66 34.03 26.32 31.06 27 28 C32.54748471 33.01407272 35.58804789 39.79401983 36.31640625 47.23046875 C36.31302967 49.84056865 36.23024247 52.40081837 36 55 C35.52949219 54.57847656 35.05898437 54.15695313 34.57421875 53.72265625 C33.95160156 53.17480469 33.32898438 52.62695312 32.6875 52.0625 C31.76517578 51.24458984 31.76517578 51.24458984 30.82421875 50.41015625 C28.94758042 48.79918441 28.94758042 48.79918441 26 48 C26.50789063 48.38929687 27.01578125 48.77859375 27.5390625 49.1796875 C35.31456046 55.4990997 41.18132751 63.9895292 43 74 C43.22129456 78.34720869 43.18144144 82.65212561 43 87 C42.34 87 41.68 87 41 87 C40.79375 85.741875 40.5875 84.48375 40.375 83.1875 C38.38117556 74.31986125 33.15174612 64.77700443 26 59 C25.1440625 58.8659375 24.288125 58.731875 23.40625 58.59375 C22.21515625 58.29984375 22.21515625 58.29984375 21 58 C19.84765625 55.8828125 19.84765625 55.8828125 19.0625 53.125 C15.95756253 43.57515248 11.67663498 36.07902394 4.44140625 29.0703125 C3 27 3 27 3.2578125 24.5703125 C3.50273437 23.72210938 3.74765625 22.87390625 4 22 C4.6352541 15.12675894 4.08002284 9.93143275 0.875 3.77734375 C0 2 0 2 0 0 Z " fill="#C18F43" transform="translate(170,34)"/>
<path d="M0 0 C2.18812081 0.82210379 3.80889764 1.84865181 5.71289062 3.19848633 C10.16999783 6.06244546 14.38131724 7.07427962 19.55664062 7.96020508 C20.42087646 8.12182129 21.2851123 8.2834375 22.17553711 8.44995117 C29.07296862 9.70287793 35.99273518 10.58665154 42.96679688 11.28051758 C46.05664062 11.77270508 46.05664062 11.77270508 49.05664062 13.77270508 C61.40322485 16.08905539 74.38431699 14.94556715 86.74804688 13.39648438 C92.75285608 12.67144356 92.75285608 12.67144356 96.05664062 13.77270508 C96.05664062 14.43270508 96.05664062 15.09270508 96.05664062 15.77270508 C95.16460937 15.93125977 94.27257812 16.08981445 93.35351562 16.25317383 C92.18304688 16.48649414 91.01257813 16.71981445 89.80664062 16.96020508 C88.64648438 17.18063477 87.48632812 17.40106445 86.29101562 17.62817383 C82.89096031 18.4579218 82.89096031 18.4579218 81.43823242 21.31152344 C78.81317868 24.02430322 78.41689482 24.146082 74.86157227 24.35620117 C73.14654068 24.362172 71.43126897 24.34035141 69.71679688 24.29614258 C68.79885849 24.29143951 67.8809201 24.28673645 66.93516541 24.28189087 C63.99572707 24.26055843 61.0580935 24.20407978 58.11914062 24.14770508 C56.17579866 24.13118805 54.23243695 24.11684254 52.2890625 24.10473633 C27.25505771 23.88794558 27.25505771 23.88794558 19.05664062 21.77270508 C17.90164062 21.66958008 16.74664062 21.56645508 15.55664062 21.46020508 C10.74029426 20.90795484 6.34607524 19.31509655 1.79101562 17.71020508 C-0.8295222 16.74220939 -0.8295222 16.74220939 -3.17773438 16.33520508 C-4.94335938 15.77270508 -4.94335938 15.77270508 -6.94335938 12.77270508 C-7.726272 5.83833615 -7.726272 5.83833615 -4.69335938 1.71020508 C-1.94335938 -0.22729492 -1.94335938 -0.22729492 0 0 Z " fill="#E0B568" transform="translate(64.943359375,255.227294921875)"/>
<path d="M0 0 C3.89047538 0.88925152 5.64183049 2.48111104 7.8125 5.6875 C10.1555851 9.69271109 10.47601016 12.43030243 10 17 C9.34 17.226875 8.68 17.45375 8 17.6875 C4.66523349 19.14646035 1.85498602 21.0106614 -1.1328125 23.07421875 C-3 24 -3 24 -6 23 C-5.05125 22.54625 -4.1025 22.0925 -3.125 21.625 C0.00313679 20.19761746 0.00313679 20.19761746 2 18 C2.845625 17.54625 3.69125 17.0925 4.5625 16.625 C7.15359823 15.24196558 7.15359823 15.24196558 7.8125 12.8125 C7.874375 12.214375 7.93625 11.61625 8 11 C5.36732309 12.11382485 3.72365529 13.26180025 1.625 15.25 C-9.9100406 24.97731035 -28.06979083 27.94893756 -42.6796875 28.59375 C-43.48861954 28.63248734 -44.29755157 28.67122467 -45.1309967 28.71113586 C-54.27134456 29.1116404 -63.4127924 29.18608056 -72.56079102 29.18530273 C-75.431953 29.18749576 -78.30273309 29.20577049 -81.17382812 29.22460938 C-97.49242709 29.27490762 -113.578031 28.14084767 -129.625 25.0625 C-130.50027344 24.90587891 -131.37554687 24.74925781 -132.27734375 24.58789062 C-138.32455368 23.46355752 -144.14396851 21.87540467 -150 20 C-150 19.34 -150 18.68 -150 18 C-149.06607422 18.16435547 -149.06607422 18.16435547 -148.11328125 18.33203125 C-145.44786703 18.78927804 -142.77950294 19.22473244 -140.10960388 19.65489197 C-138.68426642 19.88806153 -137.2599214 20.12736829 -135.83656311 20.37232971 C-122.3281912 22.67999746 -109.16456243 23.44565725 -95.46948242 23.33618164 C-92.30426696 23.31243824 -89.13989257 23.31567281 -85.97460938 23.32226562 C-70.02714547 23.30131958 -54.38601914 22.43527955 -38.8125 18.75 C-37.89106201 18.53456543 -36.96962402 18.31913086 -36.02026367 18.09716797 C-23.92088824 15.14692375 -7.22145019 10.83217528 0 0 Z " fill="#C1924B" transform="translate(211,352)"/>
<path d="M0 0 C9.00392908 2.69702945 13.98967899 7.47842297 18.66796875 15.46484375 C19.96267331 17.92895887 21.0176686 20.39752013 22 23 C21.47729735 18.09690194 19.9987369 14.81611493 17.4375 10.625 C16.47650391 9.03558594 16.47650391 9.03558594 15.49609375 7.4140625 C15.00238281 6.61742187 14.50867188 5.82078125 14 5 C21.84145346 5.03274093 27.08990101 6.78054476 33 12 C40.63751838 20.08776509 42.36669053 27.49106364 42.10546875 38.4375 C42.07066406 39.283125 42.03585938 40.12875 42 41 C39.10878446 39.65673614 36.73884307 38.10990377 34.25 36.125 C25.94272446 29.84873117 16.25585159 25.81624715 5.6875 26.0625 C1.05860395 24.72875029 0.74102425 23.47751553 -1.5625 19.375 C-2.12582031 18.29089844 -2.68914062 17.20679687 -3.26953125 16.08984375 C-5.58181714 11.96113463 -8.49802094 9.11190713 -12 6 C-13.00575029 5.00578355 -14.00750156 4.0074457 -15 3 C-10.35721338 -1.0800246 -5.918579 -0.72881013 0 0 Z " fill="#C79549" transform="translate(131,18)"/>
<path d="M0 0 C6.94007154 0.24351128 10.17267808 2.06708042 15 7 C14.34 7.33 13.68 7.66 13 8 C13 8.66 13 9.32 13 10 C14.98 9.67 16.96 9.34 19 9 C22.43932347 20.61104938 22.43932347 20.61104938 22 26 C19.01150921 30.73028582 14.95580042 33.52209979 10 36 C10.26041667 33.98177083 10.52083333 31.96354167 10.78125 29.9453125 C11.0372485 27.99501656 11.0372485 27.99501656 11 26 C9.38935371 29.65079826 8.55105909 33.0507432 8 37 C8.99 37 9.98 37 11 37 C10.45773019 40.79588866 8.79872437 42.47211993 6 45 C4.29115995 43.37660195 2.62553283 41.70680947 1 40 C1 39.34 1 38.68 1 38 C-0.14388039 39.14388039 -1.28744005 40.28808274 -2.4296875 41.43359375 C-3.5548028 42.55591026 -4.68569251 43.67244952 -5.8203125 44.78515625 C-6.43648437 45.39230469 -7.05265625 45.99945313 -7.6875 46.625 C-8.26886719 47.19476563 -8.85023437 47.76453125 -9.44921875 48.3515625 C-12.55736945 51.65544057 -13.20996265 53.9308914 -13.625 58.3125 C-14.44363577 63.73266105 -16.16188004 67.8190345 -18.875 72.5 C-19.2148291 73.08692627 -19.5546582 73.67385254 -19.90478516 74.27856445 C-21.93023349 77.61876903 -24.11972893 80.36513319 -27 83 C-27.66 82.67 -28.32 82.34 -29 82 C-27.55377814 78.14340838 -25.78682503 74.52237006 -23.90234375 70.8671875 C-22.87997124 68.85335678 -22.87997124 68.85335678 -22 66 C-21.34 66 -20.68 66 -20 66 C-19.76216797 64.48019531 -19.76216797 64.48019531 -19.51953125 62.9296875 C-17.29667157 49.79222665 -17.29667157 49.79222665 -12 45 C-11.154375 44.154375 -10.30875 43.30875 -9.4375 42.4375 C-8.633125 41.633125 -7.82875 40.82875 -7 40 C-3.4837405 36.21427015 -2.48265066 33.68463017 -2 28.5625 C-1.13682017 21.53827518 -1.13682017 21.53827518 1.1875 18.5 C3.25172579 16.18546936 3.25172579 16.18546936 2.9375 13.5625 C2.17710482 11.48408651 1.29346595 9.45105997 0.375 7.4375 C-1 4 -1 4 -0.6875 1.5625 C-0.460625 1.046875 -0.23375 0.53125 0 0 Z " fill="#4C3922" transform="translate(82,27)"/>
<path d="M0 0 C3.05549328 0.21824952 4.31726286 1.25236818 6.75 3.1875 C9 6 9 6 9.625 8.75 C8.73193648 13.39393028 6.47905592 17.01580298 4 21 C3.01 20.01 3.01 20.01 2 19 C0.90945312 19.39832031 0.90945312 19.39832031 -0.203125 19.8046875 C-10.76802761 23.51594816 -20.78911822 25.44645104 -32 25 C-30.84826645 22.53199953 -29.95216435 20.95216435 -28 19 C-25.80708918 18.54337847 -23.59414111 18.179588 -21.375 17.875 C-20.18648437 17.70742188 -18.99796875 17.53984375 -17.7734375 17.3671875 C-16.85820312 17.24601562 -15.94296875 17.12484375 -15 17 C-15 16.34 -15 15.68 -15 15 C-23.73555586 15.6089299 -23.73555586 15.6089299 -32.4375 16.5625 C-44.72164012 17.94224038 -56.81445583 16.54737069 -69 15 C-65.63362906 12.97745856 -63.01469297 12.73771145 -59.1171875 12.69140625 C-57.95815918 12.66836426 -56.79913086 12.64532227 -55.60498047 12.62158203 C-54.37408691 12.60208496 -53.14319336 12.58258789 -51.875 12.5625 C-24.05389038 12.25669544 -24.05389038 12.25669544 0 0 Z " fill="#C49246" transform="translate(176,254)"/>
<path d="M0 0 C0 0.66 0 1.32 0 2 C1.32 1.67 2.64 1.34 4 1 C4 1.66 4 2.32 4 3 C5.98 2.34 7.96 1.68 10 1 C11.65 2.65 13.3 4.3 15 6 C12.39975097 11.62287353 9.18100155 16.49253865 4 20 C-3.61907942 20.63828979 -11.28673125 18.60224177 -18 15 C-17.125 7.375 -17.125 7.375 -16 4 C-10.59186253 0.05656643 -6.59994499 -0.53877102 0 0 Z " fill="#EFCE8F" transform="translate(72,327)"/>
<path d="M0 0 C0.99 0.495 0.99 0.495 2 1 C1.34 2.98 0.68 4.96 0 7 C0.7425 7.66 1.485 8.32 2.25 9 C8.30535949 15.26238033 9.63669016 21.37998842 9.53833008 29.9909668 C9.20463933 37.17666512 7.35283332 42.64716668 2.23828125 47.76171875 C-15.40347226 61.96816123 -42.83971986 67.57753365 -65 68 C-65 67.34 -65 66.68 -65 66 C-66.98 66 -68.96 66 -71 66 C-71 65.67 -71 65.34 -71 65 C-70.21052979 64.86948242 -69.42105957 64.73896484 -68.60766602 64.60449219 C-46.6680164 60.96841589 -46.6680164 60.96841589 -25 56 C-24.06929687 55.77957031 -23.13859375 55.55914062 -22.1796875 55.33203125 C-12.0863847 52.72169432 -3.0784565 47.54269562 3 39 C5.21163876 32.36508372 5.36781212 22.82353659 2.98828125 16.171875 C0.95578314 12.87593212 -0.74624151 11.16917232 -4 9 C-2.25 2.25 -2.25 2.25 0 0 Z " fill="#402C18" transform="translate(216,343)"/>
<path d="M0 0 C3.10836969 2.67798004 4.76137907 5.91426544 6.6875 9.5 C7.31011719 10.6446875 7.93273437 11.789375 8.57421875 12.96875 C10 16 10 16 10 19 C10.66 19 11.32 19 12 19 C11.95875 17.72125 11.9175 16.4425 11.875 15.125 C11.8046875 12.9453125 11.8046875 12.9453125 12 11 C12.66 10.34 13.32 9.68 14 9 C16.02704653 12.92740265 16.13337096 16.03270787 15.875 20.328125 C15.99196044 22.82815434 16.46430909 24.58352119 17.1640625 26.9609375 C18.65074692 33.34973354 16.88879617 39.12256696 15.375 45.375 C15.09519287 46.60637695 14.81538574 47.83775391 14.52709961 49.10644531 C13.70078635 52.74156012 12.85282408 56.37102659 12 60 C11.16903081 63.57947063 10.35863342 67.16264769 9.5625 70.75 C9.38702637 71.48009277 9.21155273 72.21018555 9.03076172 72.96240234 C7.90367725 78.02183828 8.13635529 81.96489489 9 87 C7.515 87.495 7.515 87.495 6 88 C2.69823386 82.15517143 0.22687008 76.19043562 -1.8125 69.8125 C-2.03123779 69.14798828 -2.24997559 68.48347656 -2.4753418 67.79882812 C-3.82541662 63.42208657 -4.20724125 59.56522868 -4 55 C-3.67 55 -3.34 55 -3 55 C-2.80664062 55.80824219 -2.61328125 56.61648437 -2.4140625 57.44921875 C-2.15367187 58.51785156 -1.89328125 59.58648437 -1.625 60.6875 C-1.24214844 62.27111328 -1.24214844 62.27111328 -0.8515625 63.88671875 C-0.08094511 66.70406766 0.85498543 69.31668325 2 72 C9.42006813 57.90187055 13.29663731 38.41450821 9.44921875 22.75878906 C8.04699659 18.29586853 6.13430782 14.16450307 4 10 C3.36191406 8.700625 3.36191406 8.700625 2.7109375 7.375 C1.81867522 5.57763714 0.91139536 3.78773704 0 2 C0 1.34 0 0.68 0 0 Z " fill="#5C3E1D" transform="translate(200,114)"/>
<path d="M0 0 C3.43932347 11.61104938 3.43932347 11.61104938 3 17 C0.01150921 21.73028582 -4.04419958 24.52209979 -9 27 C-8.73958333 24.98177083 -8.47916667 22.96354167 -8.21875 20.9453125 C-7.9627515 18.99501656 -7.9627515 18.99501656 -8 17 C-10.24828052 21.49656104 -10.16682272 25.07872966 -10 30 C-11.98 30.99 -11.98 30.99 -14 32 C-17.45938123 28.84143453 -18.19642362 25.97736719 -18.4375 21.375 C-18.35611256 14.39602718 -14.95530026 9.91246983 -10.11328125 5.140625 C-4.275 0 -4.275 0 0 0 Z " fill="#E5BD74" transform="translate(101,36)"/>
<path d="M0 0 C3.38112595 0.84907199 6.18548736 1.92262163 9 4 C10.875 7.375 10.875 7.375 12 11 C12.86625 12.5778125 12.86625 12.5778125 13.75 14.1875 C15 17 15 17 14.6875 19.375 C14.3471875 20.179375 14.3471875 20.179375 14 21 C10.40020192 20.68237076 8.5360319 19.76194661 5.9375 17.375 C4.968125 16.59125 3.99875 15.8075 3 15 C2.38253906 15.20238281 1.76507813 15.40476562 1.12890625 15.61328125 C0.42636719 15.74089844 -0.27617187 15.86851563 -1 16 C-3.4375 14.26953125 -3.4375 14.26953125 -6 11.8125 C-6.845625 11.01457031 -7.69125 10.21664063 -8.5625 9.39453125 C-10.72040218 7.27466901 -12.86845425 5.14634815 -15 3 C-10.34542557 -1.09038359 -5.92913176 -0.70413441 0 0 Z " fill="#DFB469" transform="translate(131,18)"/>
<path d="M0 0 C-1.34255063 4.39380207 -2.6952929 8.60143468 -4.9375 12.625 C-9.4106234 21.17706351 -11.02781386 31.63211585 -13 41 C-16.5759337 37.539419 -18.16223482 35.6874817 -18.375 30.6875 C-18.23567405 19.97488243 -13.07609039 10.74680986 -6 3 C-5.49726562 2.42507812 -4.99453125 1.85015625 -4.4765625 1.2578125 C-3 0 -3 0 0 0 Z " fill="#EDCC8B" transform="translate(92,199)"/>
<path d="M0 0 C1.010625 0.845625 2.02125 1.69125 3.0625 2.5625 C23.34988975 17.6975368 50.60446264 20.04872576 75 22 C75 22.99 75 23.98 75 25 C68.54773628 25.12995496 62.4406458 24.70342179 56.0625 23.75 C54.69279053 23.54540161 54.69279053 23.54540161 53.29541016 23.33666992 C40.66232522 21.38747147 28.73504196 19.01978592 16.875 14.125 C16.10526855 13.80958252 15.33553711 13.49416504 14.54248047 13.16918945 C9.3393667 10.90481886 3.89273783 8.21790371 0 4 C0 2.68 0 1.36 0 0 Z " fill="#563D1F" transform="translate(28,351)"/>
<path d="M0 0 C0.66 0.99 1.32 1.98 2 3 C-4.08423697 16.4009721 -12.51034521 26.54833412 -22.4921875 37.26171875 C-24.52106053 39.47704585 -26.43155544 41.72362914 -28.3125 44.0625 C-31.04338924 47.04742545 -33.27646642 48.49285545 -37 50 C-35.50121579 44.57083761 -31.7615894 41.2859583 -27.9375 37.375 C-12.91009336 22.2271815 -12.91009336 22.2271815 -2.93359375 3.73828125 C-2 1 -2 1 0 0 Z " fill="#48321C" transform="translate(110,147)"/>
<path d="M0 0 C1.58409994 0.11487748 3.16728963 0.24234508 4.75 0.375 C6.07257813 0.47941406 6.07257813 0.47941406 7.421875 0.5859375 C10.16188146 1.02599914 11.74536842 1.37948355 14 3 C15.703125 5.79296875 15.703125 5.79296875 17.25 9.1875 C17.77078125 10.29480469 18.2915625 11.40210938 18.828125 12.54296875 C20.08161534 16.24076526 20.21671469 19.12376228 20 23 C11.69937523 19.21233627 8.1315866 15.69181057 4.171875 7.41796875 C2.9255808 4.84644839 1.5287532 2.41382084 0 0 Z " fill="#DCB269" transform="translate(145,23)"/>
<path d="M0 0 C3.10836969 2.67798004 4.76137907 5.91426544 6.6875 9.5 C7.31011719 10.6446875 7.93273437 11.789375 8.57421875 12.96875 C10 16 10 16 10 19 C10.66 19 11.32 19 12 19 C11.95875 17.72125 11.9175 16.4425 11.875 15.125 C11.8046875 12.9453125 11.8046875 12.9453125 12 11 C12.66 10.34 13.32 9.68 14 9 C16.02704653 12.92740265 16.13337096 16.03270787 15.875 20.328125 C15.99220389 22.83335819 16.46391639 24.65199961 17.1484375 27.04296875 C18.54915706 33.0176429 17.08578824 38.21565818 15.625 44.0625 C15.3775 45.11888672 15.13 46.17527344 14.875 47.26367188 C14.26714044 49.84707502 13.64194005 52.4248942 13 55 C12.67 55 12.34 55 12 55 C12 50.38 12 45.76 12 41 C11.67 41 11.34 41 11 41 C10.99742187 40.01902344 10.99484375 39.03804687 10.9921875 38.02734375 C10.69621567 24.32709851 6.16920457 14.10113203 0 2 C0 1.34 0 0.68 0 0 Z " fill="#5A3F1F" transform="translate(200,114)"/>
<path d="M0 0 C5.54748471 5.01407272 8.58804789 11.79401983 9.31640625 19.23046875 C9.31302967 21.84056865 9.23024247 24.40081837 9 27 C8.38125 26.41992188 8.38125 26.41992188 7.75 25.828125 C3.4413236 21.94262217 -0.7225368 19.40726392 -6 17 C-5.01 16.67 -4.02 16.34 -3 16 C-3.66 15.67 -4.32 15.34 -5 15 C-4.625 12.5625 -4.625 12.5625 -4 10 C-3.34 9.67 -2.68 9.34 -2 9 C-1.31270746 6.88153715 -1.31270746 6.88153715 -0.875 4.4375 C-0.70742187 3.61121094 -0.53984375 2.78492187 -0.3671875 1.93359375 C-0.24601563 1.29550781 -0.12484375 0.65742187 0 0 Z " fill="#BD8C41" transform="translate(197,62)"/>
<path d="M0 0 C3.41904748 1.05260563 4.16343178 2.26167278 6.10546875 5.37109375 C6.81127077 6.72046008 7.50494302 8.07622782 8.1875 9.4375 C8.54263672 10.11876953 8.89777344 10.80003906 9.26367188 11.50195312 C11.73819855 16.2960551 13.13240656 19.80469456 13.0625 25.1875 C13.05347656 26.08855469 13.04445313 26.98960938 13.03515625 27.91796875 C13.02355469 28.60503906 13.01195313 29.29210937 13 30 C12.67 30 12.34 30 12 30 C11.67 28.02 11.34 26.04 11 24 C8.69 24.66 6.38 25.32 4 26 C1.24868436 17.74605307 -0.22987046 8.70223897 0 0 Z " fill="#C9984A" transform="translate(108,27)"/>
<path d="M0 0 C1.65 0.99 3.3 1.98 5 3 C4.67 3.99 4.34 4.98 4 6 C5.32 6 6.64 6 8 6 C8.29341888 11.67276511 8.00559652 14.99067246 5 20 C1.3226295 19.79570164 0.19915015 19.22067989 -2.3125 16.4375 C-4.49019496 12.00145471 -4.62205058 9.89864833 -4 5 C-2 2 -2 2 0 0 Z " fill="#352211" transform="translate(98,87)"/>
<path d="M0 0 C0.87398438 0.33773438 1.74796875 0.67546875 2.6484375 1.0234375 C22.09106332 8.07495588 42.55502487 7.50252583 63 8 C63 8.33 63 8.66 63 9 C65.97 9.495 65.97 9.495 69 10 C69 10.33 69 10.66 69 11 C11.43935774 11.95161723 11.43935774 11.95161723 1.21069336 3.52612305 C0 2 0 2 0 0 Z " fill="#604623" transform="translate(70,256)"/>
<path d="M0 0 C2 1 2 1 3.625 4.4375 C6.75072771 14.45585806 6.45930467 27.00957954 2.2578125 36.6171875 C-3.78308095 48.06111608 -12.21219242 57.8182076 -24.625 62.3125 C-27.86080079 62.97164461 -30.70923398 63.16052517 -34 63 C-30.37285241 60.99967376 -26.97458389 60.34268763 -22.92578125 59.66015625 C-22.29027344 59.44230469 -21.65476563 59.22445312 -21 59 C-20.67 58.01 -20.34 57.02 -20 56 C-19.195625 55.690625 -18.39125 55.38125 -17.5625 55.0625 C-14.47312011 53.78153761 -14.39445108 52.88186557 -13 50 C-12.071875 49.8453125 -12.071875 49.8453125 -11.125 49.6875 C-8.56689432 49.11470536 -8.56689432 49.11470536 -6.9375 45.625 C-6.63714844 45.01914063 -6.33679688 44.41328125 -6.02734375 43.7890625 C-5 42 -5 42 -3.48046875 40.55859375 C-1.65077929 38.63235076 -1.13426678 36.96977986 -0.375 34.4375 C0.94936709 30.10126582 0.94936709 30.10126582 2 28 C2.23952065 24.9852603 2.18520448 21.96070327 2.1875 18.9375 C2.20586914 17.70483398 2.20586914 17.70483398 2.22460938 16.44726562 C2.23813094 10.71862951 1.47235089 5.53320309 0 0 Z " fill="#B28137" transform="translate(159,88)"/>
<path d="M0 0 C0.66 0 1.32 0 2 0 C13.17505287 12.75914542 17.0330927 27.21309864 16.22216797 43.73779297 C15.30714089 53.0549808 10.41312541 61.3589199 4 68 C2.515 68.99 2.515 68.99 1 70 C1.52806097 65.95153256 2.60123137 63.95066578 5.3125 60.9375 C12.93182091 51.42118767 14.03213773 40.88248557 13 29 C11.39940223 18.23883822 5.54641152 9.16510684 0 0 Z " fill="#533A1C" transform="translate(140,67)"/>
<path d="M0 0 C5.73211641 5.24079214 10.39965071 10.99534274 11 19 C9.865625 18.814375 8.73125 18.62875 7.5625 18.4375 C2.92303203 17.83992989 -1.39572681 18.30722741 -6 19 C-6 18.34 -6 17.68 -6 17 C-6.5775 16.979375 -7.155 16.95875 -7.75 16.9375 C-11.38390121 15.4233745 -12.24850416 12.44043825 -14 9 C-13.4225 9.165 -12.845 9.33 -12.25 9.5 C-9.73335631 10.14462031 -9.73335631 10.14462031 -6 10 C-4.18359375 11.09375 -4.18359375 11.09375 -2.4375 12.5 C0.35235835 14.77175258 0.35235835 14.77175258 4 15 C3.58923734 11.61120807 2.64025832 9.242023 0.875 6.375 C0.25625 5.26125 -0.3625 4.1475 -1 3 C-0.67 2.01 -0.34 1.02 0 0 Z " fill="#CE9E50" transform="translate(141,23)"/>
<path d="M0 0 C0 0.66 0 1.32 0 2 C-3.6520233 2.86826688 -6.82311108 3.00493031 -10.5625 2.8125 C-14.76234275 2.58205107 -14.76234275 2.58205107 -18 4.9375 C-18.99 5.9584375 -18.99 5.9584375 -20 7 C-22.83078619 7.38347027 -25.58564257 7.50025121 -28.44140625 7.53125 C-31.12263326 7.76591476 -31.12263326 7.76591476 -32.796875 9.859375 C-34.13742117 12.2445026 -34.62525575 14.30184137 -35 17 C-38.16115776 15.63016497 -38.9927092 15.0109362 -41 12 C-39.33333333 10.33333333 -37.66666667 8.66666667 -36 7 C-35.55914062 6.47019531 -35.11828125 5.94039062 -34.6640625 5.39453125 C-32.41254345 3.50769486 -30.57962554 3.38401667 -27.6875 3 C-24.26888304 2.47337232 -22.11639825 2.06439052 -19.0625 0.375 C-13.30295706 -2.21091724 -6.02224361 -1.78650289 0 0 Z " fill="#4A3621" transform="translate(136,16)"/>
<path d="M0 0 C0.75635742 -0.00821777 1.51271484 -0.01643555 2.29199219 -0.02490234 C5.18473265 0.13256818 7.67362835 0.9682547 10.328125 2.0859375 C10.328125 2.4159375 10.328125 2.7459375 10.328125 3.0859375 C-6.02525095 5.46461037 -21.29611274 5.16539937 -37.671875 3.0859375 C-34.24949639 1.02133353 -31.47154234 0.78629799 -27.5078125 0.671875 C-26.30253906 0.63320313 -25.09726563 0.59453125 -23.85546875 0.5546875 C-22.59863281 0.52375 -21.34179688 0.4928125 -20.046875 0.4609375 C-18.81324219 0.42226563 -17.57960938 0.38359375 -16.30859375 0.34375 C-10.87345439 0.18202428 -5.43729423 0.05764267 0 0 Z " fill="#CA994B" transform="translate(144.671875,265.9140625)"/>
<path d="M0 0 C2.375 0.3125 2.375 0.3125 5 1 C7.30123461 4.45185191 7.09722333 6.05207597 6.4921875 10.05859375 C5.86201191 12.54428635 4.76478242 14.15848791 3 16 C0.625 15.6875 0.625 15.6875 -2 15 C-4.4915904 11.2626144 -4.45793285 9.42668417 -4 5 C-2 2.0625 -2 2.0625 0 0 Z " fill="#946B33" transform="translate(47,136)"/>
<path d="M0 0 C6.75 1.625 6.75 1.625 9 5 C9.67441131 6.6635479 10.3400321 8.33066942 11 10 C11.556875 11.010625 12.11375 12.02125 12.6875 13.0625 C14 16 14 16 13.6875 18.375 C13.3471875 19.179375 13.3471875 19.179375 13 20 C9.36905358 17.35039045 7.10148204 14.98175544 5 11 C4.01 11.495 4.01 11.495 3 12 C0.39391727 9.4837822 -1.89381685 6.94865641 -4 4 C-3.67 3.34 -3.34 2.68 -3 2 C-1.68 2.66 -0.36 3.32 1 4 C0.67 2.68 0.34 1.36 0 0 Z " fill="#E6BE75" transform="translate(132,19)"/>
<path d="M0 0 C0.52464844 0.15855469 1.04929687 0.31710937 1.58984375 0.48046875 C3.31126778 0.99890094 5.03413669 1.5125419 6.7578125 2.0234375 C8.98817682 2.69523398 11.21192948 3.38925298 13.4296875 4.1015625 C27.36416971 8.49375749 41.68341104 11.17875974 56 14 C56 14.33 56 14.66 56 15 C36.41337411 15.89180253 17.08808226 10.41786352 0 1 C0 0.67 0 0.34 0 0 Z " fill="#EECE91" transform="translate(28,371)"/>
<path d="M0 0 C5.00284542 0.47646147 8.03079315 1.93288562 12 5 C14 8 14 8 14 11.375 C12.67005888 16.19603655 11.12235926 17.27924289 7 20 C6.01 20 5.02 20 4 20 C4.309375 19.34 4.61875 18.68 4.9375 18 C6.24960255 14.29523985 6.60264135 10.90736009 7 7 C5.68 7 4.36 7 3 7 C2.87625 6.360625 2.7525 5.72125 2.625 5.0625 C2.315625 4.0415625 2.315625 4.0415625 2 3 C1.34 2.67 0.68 2.34 0 2 C0 1.34 0 0.68 0 0 Z " fill="#503A20" transform="translate(99,86)"/>
<path d="M0 0 C1.60781893 0.7631861 3.21113138 1.53587058 4.8125 2.3125 C5.70582031 2.74175781 6.59914062 3.17101563 7.51953125 3.61328125 C13.72612266 7.08310794 15.87052724 12.95042355 18.25 19.375 C19.20031611 23.96819454 19.1691695 28.32904216 19 33 C11.69976035 25.98365856 10.88072002 15.5277986 9 6 C6.50935112 5.31292445 4.62113708 5 2 5 C1.34 3.35 0.68 1.7 0 0 Z " fill="#DBAD5F" transform="translate(170,34)"/>
<path d="M0 0 C0.96164063 -0.00515625 1.92328125 -0.0103125 2.9140625 -0.015625 C5.375 0.25 5.375 0.25 7.375 2.25 C5.725 2.58 4.075 2.91 2.375 3.25 C3.15875 3.848125 3.9425 4.44625 4.75 5.0625 C7.375 7.25 7.375 7.25 9.375 10.25 C9 12.4375 9 12.4375 8.375 14.25 C6.12890625 12.34570312 6.12890625 12.34570312 3.8828125 10.44140625 C0.35936988 7.65733889 -3.31529081 7.88375989 -7.625 8.25 C-10.03057853 9.11265968 -10.03057853 9.11265968 -11.625 10.25 C-11.625 9.59 -11.625 8.93 -11.625 8.25 C-10.635 7.59 -9.645 6.93 -8.625 6.25 C-8.295 5.26 -7.965 4.27 -7.625 3.25 C-8.285 2.92 -8.945 2.59 -9.625 2.25 C-6.33170174 0.28338587 -3.81203427 -0.02055005 0 0 Z " fill="#E2B669" transform="translate(105.625,68.75)"/>
<path d="M0 0 C1.43518468 3.40323497 2.27743811 6.29054975 2 10 C-1.20601261 14.17152992 -5.27623083 17.63811541 -10 20 C-9.37612931 13.01264823 -8.63732204 6.51173528 -3.375 1.5 C-1 0 -1 0 0 0 Z " fill="#C6964C" transform="translate(102,43)"/>
<path d="M0 0 C6.20104812 -0.27560214 11.93184478 0.77100654 18 2 C17 4 16 6 15 8 C9.5610835 8.21755666 5.12919186 8.10428384 0 6 C0 4.02 0 2.04 0 0 Z " fill="#F0D49D" transform="translate(77,268)"/>
<path d="M0 0 C0.68932617 0.11972168 1.37865234 0.23944336 2.08886719 0.36279297 C10.45410297 1.78921895 18.84157437 2.98415833 27.25 4.125 C28.59246989 4.30843301 29.93491794 4.49202591 31.27734375 4.67578125 C34.51801919 5.11875127 37.7589029 5.56012768 41 6 C40.67 6.99 40.34 7.98 40 9 C33.48999517 9.22210605 27.51423665 8.39591821 21.125 7.1875 C20.19558594 7.02185547 19.26617187 6.85621094 18.30859375 6.68554688 C12.05988693 5.5307998 6.046679 3.95009096 0 2 C0 1.34 0 0.68 0 0 Z " fill="#CC9E56" transform="translate(61,370)"/>
<path d="M0 0 C0.5625 1.9375 0.5625 1.9375 1 4 C0.67 4.33 0.34 4.66 0 5 C-0.23287008 6.68183948 -0.41264166 8.3712416 -0.5625 10.0625 C-0.68818359 11.44115234 -0.68818359 11.44115234 -0.81640625 12.84765625 C-0.87699219 13.55792969 -0.93757813 14.26820312 -1 15 C-0.34 15 0.32 15 1 15 C1 13.02 1 11.04 1 9 C2.32 8.67 3.64 8.34 5 8 C4.88529863 9.75070517 4.75780972 11.50057536 4.625 13.25 C4.55539063 14.22453125 4.48578125 15.1990625 4.4140625 16.203125 C4.01534751 18.89633189 3.36492937 20.66963279 2 23 C-0.38095672 22.04761731 -1.73210409 21.42919944 -3.109375 19.22265625 C-4.93338858 14.67062236 -4.95269864 9.34032493 -3.1015625 4.79296875 C-2 2.875 -2 2.875 0 0 Z " fill="#E2B76D" transform="translate(87,45)"/>
<path d="M0 0 C0.99 0 1.98 0 3 0 C3 0.66 3 1.32 3 2 C3.6290625 1.84402344 4.258125 1.68804687 4.90625 1.52734375 C10.68856288 0.21239007 15.16754686 -0.08008392 21 1 C21 1.66 21 2.32 21 3 C21.928125 3.28875 22.85625 3.5775 23.8125 3.875 C27 5 27 5 30 7 C29.67 8.32 29.34 9.64 29 11 C27.9275 10.401875 26.855 9.80375 25.75 9.1875 C18.04994784 5.33747392 9.51100419 3.81836579 1 3 C0.67 2.01 0.34 1.02 0 0 Z " fill="#BB8A42" transform="translate(132,40)"/>
<path d="M0 0 C0.33 0 0.66 0 1 0 C1.23663527 12.06839897 0.97206354 22.44999727 -3.0625 33.9375 C-5.04564639 39.62153668 -5.7639445 45.00419028 -6 51 C-6.33 51 -6.66 51 -7 51 C-9.15508354 41.71354913 -6.99082588 34.37408216 -4.33886719 25.45996094 C-1.86858303 17.01476725 -0.67338735 8.75403552 0 0 Z " fill="#4B331B" transform="translate(212,143)"/>
<path d="M0 0 C0.33 0 0.66 0 1 0 C5.78508693 12.96241859 2.45859566 24.10235508 -1 37 C-1.33 37 -1.66 37 -2 37 C-1.88205478 31.89118974 -1.75782953 26.78258636 -1.62768555 21.67407227 C-1.58427427 19.93485712 -1.54260388 18.19559765 -1.50268555 16.45629883 C-1.44513232 13.96161512 -1.3813958 11.4671559 -1.31640625 8.97265625 C-1.29969376 8.19036148 -1.28298126 7.40806671 -1.26576233 6.60206604 C-1.11387171 1.11387171 -1.11387171 1.11387171 0 0 Z " fill="#A77A4A" transform="translate(214,132)"/>
<path d="M0 0 C5.2518167 -0.315109 8.54814877 0.1310292 13 3 C15.25 5.625 15.25 5.625 17 8 C17.66 8.33 18.32 8.66 19 9 C19 7.02 19 5.04 19 3 C19.66 3.33 20.32 3.66 21 4 C21.3125 6.8125 21.3125 6.8125 21 10 C18.14925356 12.31141604 16.6860549 13 13 13 C13 11.68 13 10.36 13 9 C9.38803669 4.92197691 5.96339923 4.44924888 0.79296875 4.078125 C0.20128906 4.05234375 -0.39039062 4.0265625 -1 4 C-0.67 2.68 -0.34 1.36 0 0 Z " fill="#48331D" transform="translate(82,24)"/>
<path d="M0 0 C-0.33 0.66 -0.66 1.32 -1 2 C-1.66 1.67 -2.32 1.34 -3 1 C-3.04125 1.99 -3.0825 2.98 -3.125 4 C-4.01447315 10.18872867 -8.48375595 14.82348819 -13 18.875 C-19.17382156 23.2481236 -23.81234261 23.18197033 -31 22 C-31 21.67 -31 21.34 -31 21 C-30.154375 20.93683594 -29.30875 20.87367188 -28.4375 20.80859375 C-20.26516315 19.92635284 -15.35658672 18.34803721 -10 12 C-7.60543881 8.7557558 -6.43456727 6.01974723 -6 2 C-6.33 1.34 -6.66 0.68 -7 0 C-4.3333581 -1.33332095 -2.83319697 -0.67102033 0 0 Z " fill="#5E4422" transform="translate(74,150)"/>
<path d="M0 0 C0.495 1.485 0.495 1.485 1 3 C-8.82843946 11.48320612 -17.16299897 12.36262306 -29.7512207 11.50952148 C-31.83507942 11.3515304 -33.91770751 11.17744382 -36 11 C-36 10.67 -36 10.34 -36 10 C-35.10861328 9.93268677 -35.10861328 9.93268677 -34.19921875 9.86401367 C-31.46504887 9.65060597 -28.73268018 9.41917582 -26 9.1875 C-25.06542969 9.11724609 -24.13085938 9.04699219 -23.16796875 8.97460938 C-15.72120477 8.32366847 -9.07292054 6.99370958 -3 2.3125 C-2.01 1.549375 -1.02 0.78625 0 0 Z " fill="#4F371B" transform="translate(140,134)"/>
<path d="M0 0 C1.65 0 3.3 0 5 0 C6.01680643 2.01242939 7.01273789 4.0354132 8 6.0625 C8.8353125 7.75052734 8.8353125 7.75052734 9.6875 9.47265625 C11.08753984 13.23526333 11.2433219 16.02067309 11 20 C5.03534818 15.39869717 3.44804439 8.90160206 1 2 C0.67 1.34 0.34 0.68 0 0 Z " fill="#E5BB72" transform="translate(154,26)"/>
<path d="M0 0 C0.5775 0.165 1.155 0.33 1.75 0.5 C4.26664369 1.14462031 4.26664369 1.14462031 8 1 C10.359375 2.2421875 10.359375 2.2421875 12.75 3.875 C13.54921875 4.40867187 14.3484375 4.94234375 15.171875 5.4921875 C16.07679688 6.23855469 16.07679688 6.23855469 17 7 C17 7.66 17 8.32 17 9 C12.545 9.495 12.545 9.495 8 10 C8 9.34 8 8.68 8 8 C7.13375 7.9690625 7.13375 7.9690625 6.25 7.9375 C2.61609879 6.4233745 1.75149584 3.44043825 0 0 Z " fill="#CA994D" transform="translate(127,32)"/>
<path d="M0 0 C6.14830711 1.20555041 8.35248219 2.91558124 12 8 C9.1875 10.0625 9.1875 10.0625 6 12 C3 11 3 11 1.3125 7.6875 C0 4 0 4 0 0 Z " fill="#D8AC64" transform="translate(85,27)"/>
<path d="M0 0 C-0.99 0.33 -1.98 0.66 -3 1 C-3 1.66 -3 2.32 -3 3 C-2.34 3.33 -1.68 3.66 -1 4 C-3.2494806 4.33682062 -5.49960704 4.66933001 -7.75 5 C-9.62945312 5.2784375 -9.62945312 5.2784375 -11.546875 5.5625 C-15 6 -15 6 -19 6 C-19 5.34 -19 4.68 -19 4 C-20.98 4 -22.96 4 -25 4 C-25 3.67 -25 3.34 -25 3 C-22.14694871 2.49279088 -19.29283186 1.99406366 -16.4375 1.5 C-15.63763672 1.35691406 -14.83777344 1.21382813 -14.01367188 1.06640625 C-9.26475402 0.25230605 -4.81753923 -0.15519589 0 0 Z " fill="#392714" transform="translate(170,405)"/>
<path d="M0 0 C2.31 0.66 4.62 1.32 7 2 C7.56561146 7.65611463 5.71391278 11.22642128 3 16 C2.67 16 2.34 16 2 16 C0.40837921 10.42932723 -0.20674944 5.78898419 0 0 Z " fill="#E2B86D" transform="translate(30,138)"/>
<path d="M0 0 C-1.1957028 2.71750636 -2.67574819 4.87355227 -4.5 7.1875 C-7.42489873 11.15638913 -8.26917995 15.18967697 -9 20 C-9.66 20 -10.32 20 -11 20 C-11.40411219 12.56134223 -11.04211882 7.28662198 -6.625 1.0625 C-4.37416951 -0.40919686 -2.6277021 -0.21305693 0 0 Z " fill="#EECF92" transform="translate(97,40)"/>
<path d="M0 0 C0 1.32 0 2.64 0 4 C-13.6332574 8.59225513 -13.6332574 8.59225513 -20 8 C-20 7.34 -20 6.68 -20 6 C-20.66 5.67 -21.32 5.34 -22 5 C-20.72382813 4.72285156 -19.44765625 4.44570313 -18.1328125 4.16015625 C-16.46351107 3.79441043 -14.7942419 3.42851738 -13.125 3.0625 C-12.28324219 2.88009766 -11.44148437 2.69769531 -10.57421875 2.50976562 C-9.76855469 2.33251953 -8.96289062 2.15527344 -8.1328125 1.97265625 C-7.01737061 1.72914429 -7.01737061 1.72914429 -5.87939453 1.48071289 C-0.09040122 0 -0.09040122 0 0 0 Z " fill="#B5843D" transform="translate(169,260)"/>
<path d="M0 0 C1.26650391 0.00966797 1.26650391 0.00966797 2.55859375 0.01953125 C3.43128906 0.03628906 4.30398437 0.05304688 5.203125 0.0703125 C6.53537109 0.08384766 6.53537109 0.08384766 7.89453125 0.09765625 C10.08100558 0.12116673 12.26692594 0.15402751 14.453125 0.1953125 C14.123125 1.1853125 13.793125 2.1753125 13.453125 3.1953125 C16.753125 3.1953125 20.053125 3.1953125 23.453125 3.1953125 C23.453125 3.5253125 23.453125 3.8553125 23.453125 4.1953125 C12.61441587 4.50897289 2.1888187 3.55857519 -8.546875 2.1953125 C-5.55561181 0.47325062 -3.44001787 -0.04648673 0 0 Z " fill="#D3A355" transform="translate(115.546875,266.8046875)"/>
<path d="M0 0 C-0.33 0.66 -0.66 1.32 -1 2 C0.32 2.33 1.64 2.66 3 3 C1.906875 3.0825 0.81375 3.165 -0.3125 3.25 C-3.96039461 3.65727047 -3.96039461 3.65727047 -5.875 5.75 C-7.08863527 8.17727054 -7.62769367 10.31939441 -8 13 C-11.16115776 11.63016497 -11.9927092 11.0109362 -14 8 C-12.33333333 6.33333333 -10.66666667 4.66666667 -9 3 C-8.484375 2.4225 -7.96875 1.845 -7.4375 1.25 C-4.97573043 -0.89066919 -2.9318087 -1.46590435 0 0 Z " fill="#584226" transform="translate(109,20)"/>
<path d="M0 0 C3.84162002 1.24593082 6.1145859 2.33391703 8 6 C8.0625 8.4375 8.0625 8.4375 7 11 C5.11661475 12.90419614 3.16095689 14.39077678 1 16 C1.66 12.04 2.32 8.08 3 4 C1.68 4 0.36 4 -1 4 C-0.67 2.68 -0.34 1.36 0 0 Z " fill="#D6B97F" transform="translate(103,89)"/>
<path d="M0 0 C0.33 0 0.66 0 1 0 C0.49728997 5.73089434 -0.35809013 11.35007955 -1.4375 17 C-1.55971924 17.6710376 -1.68193848 18.3420752 -1.80786133 19.03344727 C-2.13747272 20.70377816 -2.56144914 22.3549097 -3 24 C-3.66 24.33 -4.32 24.66 -5 25 C-5.86477331 15.58357954 -3.51375291 8.59614552 0 0 Z " fill="#A87542" transform="translate(211,169)"/>
<path d="M0 0 C0.66 0 1.32 0 2 0 C7.68688917 6.49302037 12.41287078 14.77960553 15 23 C14.65625 26.390625 14.65625 26.390625 14 29 C12 26 12 26 11.3125 22.625 C9.43431489 14.46095344 4.30271359 7.09224044 0 0 Z " fill="#92682D" transform="translate(140,67)"/>
<path d="M0 0 C4.27368413 1.56992478 5.59170145 3.30649315 8.0625 7.125 C7.875 9.5 7.875 9.5 7.0625 11.125 C6.2375 10.34125 5.4125 9.5575 4.5625 8.75 C0.96670533 5.71336 -2.36029594 4.99309043 -6.9375 4.125 C-4.68035804 1.26016598 -3.72587773 0.15854799 0 0 Z " fill="#DCB268" transform="translate(106.9375,71.875)"/>
<path d="M0 0 C3.63904293 3.20429001 5.72423416 6.78656196 7.75 11.125 C8.06074463 11.7857251 8.37148926 12.4464502 8.69165039 13.12719727 C11.06229836 18.47756836 11.86773128 23.14625721 11 29 C10.67 29 10.34 29 10 29 C9.86464844 28.30777344 9.72929688 27.61554687 9.58984375 26.90234375 C8.00996338 19.72192937 5.57684234 13.45755709 2.33764648 6.90209961 C0 2.16609668 0 2.16609668 0 0 Z " fill="#604625" transform="translate(110,28)"/>
<path d="M0 0 C0.33 0.66 0.66 1.32 1 2 C1.66 2 2.32 2 3 2 C7.07877462 9.0547046 7.07877462 9.0547046 6.75 13 C6.5025 13.66 6.255 14.32 6 15 C5.01 15 4.02 15 3 15 C0.74315457 9.63999211 -0.36263859 5.8022175 0 0 Z " fill="#5F432C" transform="translate(30,159)"/>
<path d="M0 0 C0.99 0 1.98 0 3 0 C5.8723714 6.34315351 6.86708334 12.02955081 6 19 C5.34 19.99 4.68 20.98 4 22 C3.96261719 21.16597656 3.92523438 20.33195312 3.88671875 19.47265625 C3.47618784 12.4453331 2.55765031 6.56092905 0 0 Z " fill="#583E20" transform="translate(169,37)"/>
<path d="M0 0 C0.99 0 1.98 0 3 0 C5.00865708 6.50422293 6.38614349 12.1781317 6 19 C2.72520795 16.67920899 2.34156406 13.85480053 1.66992188 10.04882812 C1.49299805 8.9418457 1.49299805 8.9418457 1.3125 7.8125 C1.18294922 7.06291016 1.05339844 6.31332031 0.91992188 5.54101562 C0.60259462 3.69581641 0.29986709 1.848117 0 0 Z " fill="#563D1E" transform="translate(190,94)"/>
<path d="M0 0 C0 0.33 0 0.66 0 1 C-9.0719352 1.09471858 -17.98185679 1.14516104 -27 0 C-27 -0.33 -27 -0.66 -27 -1 C-18.04248375 -2.83221923 -8.96770159 -1.2071906 0 0 Z " fill="#E8C37E" transform="translate(104,387)"/>
<path d="M0 0 C3.28788824 3.11016455 5.83735988 6.01618925 8 10 C6.02 10.99 6.02 10.99 4 12 C3.13353333 10.56988027 2.28218171 9.13059381 1.4375 7.6875 C0.72400391 6.48673828 0.72400391 6.48673828 -0.00390625 5.26171875 C-1 3 -1 3 0 0 Z " fill="#D3A55A" transform="translate(141,23)"/>
<path d="M0 0 C0.66 0.33 1.32 0.66 2 1 C2.08082094 2.95766281 2.13910778 4.91626728 2.1875 6.875 C2.22230469 7.96554688 2.25710937 9.05609375 2.29296875 10.1796875 C2.19628906 11.11039063 2.09960938 12.04109375 2 13 C1.01 13.66 0.02 14.32 -1 15 C-1.98419339 10.94020228 -2.23183367 7.17300608 -2 3 C-1.34 2.01 -0.68 1.02 0 0 Z " fill="#4E2817" transform="translate(30,148)"/>
<path d="M0 0 C0.53109375 0.40992188 1.0621875 0.81984375 1.609375 1.2421875 C2.31578125 1.78101563 3.0221875 2.31984375 3.75 2.875 C4.44609375 3.40867187 5.1421875 3.94234375 5.859375 4.4921875 C7.84722603 5.89238914 9.79843386 6.97855265 12 8 C11.67 8.99 11.34 9.98 11 11 C9.72549553 10.40361667 8.45553123 9.79752584 7.1875 9.1875 C6.47980469 8.85105469 5.77210937 8.51460938 5.04296875 8.16796875 C2.91771216 6.9529559 1.49166141 5.94339484 0 4 C0 2.68 0 1.36 0 0 Z " fill="#583F20" transform="translate(28,351)"/>
<path d="M0 0 C0.99 0.33 1.98 0.66 3 1 C2.85795259 2.58367747 2.71119847 4.16693318 2.5625 5.75 C2.48128906 6.63171875 2.40007812 7.5134375 2.31640625 8.421875 C2.03761535 10.69350452 1.61209423 12.79851823 1 15 C0.01 15 -0.98 15 -2 15 C-1.38487182 9.99109914 -0.7282448 4.99367864 0 0 Z " fill="#563C1E" transform="translate(193,139)"/>
<path d="M0 0 C-0.639375 0.28875 -1.27875 0.5775 -1.9375 0.875 C-4.15206079 1.82823451 -4.15206079 1.82823451 -5 4 C-7.06640625 4.4140625 -7.06640625 4.4140625 -9.5625 4.625 C-10.38878906 4.69976562 -11.21507812 4.77453125 -12.06640625 4.8515625 C-13.02353516 4.92503906 -13.02353516 4.92503906 -14 5 C-13.67 3.68 -13.34 2.36 -13 1 C-11.58622218 0.63447197 -10.16879424 0.28304505 -8.75 -0.0625 C-7.96109375 -0.25972656 -7.1721875 -0.45695312 -6.359375 -0.66015625 C-3.89605178 -1.01497267 -2.34395868 -0.76877544 0 0 Z " fill="#432E18" transform="translate(181,403)"/>
<path d="M0 0 C3.63 0 7.26 0 11 0 C11.66 1.65 12.32 3.3 13 5 C10.03 4.505 10.03 4.505 7 4 C7 3.34 7 2.68 7 2 C4.69 2 2.38 2 0 2 C0 1.34 0 0.68 0 0 Z " fill="#DAB877" transform="translate(120,18)"/>
<path d="M0 0 C2 1 2 1 2.671875 2.6484375 C3.1088191 5.77987023 2.71543908 8.50091646 2.25 11.625 C2.01023438 13.34589844 2.01023438 13.34589844 1.765625 15.1015625 C1 18 1 18 -2 20 C-1.84660156 19.33613281 -1.69320312 18.67226562 -1.53515625 17.98828125 C-0.89226979 14.39844078 -0.64966009 10.82204581 -0.4375 7.1875 C-0.39431641 6.49462891 -0.35113281 5.80175781 -0.30664062 5.08789062 C-0.20138547 3.39211314 -0.10027137 1.69607948 0 0 Z " fill="#AC7D3C" transform="translate(156,98)"/>
<path d="M0 0 C0.875 2.6875 0.875 2.6875 1 6 C-0.79296632 8.13500912 -2.67836428 9.38906909 -5 11 C-4.38650307 3.51533742 -4.38650307 3.51533742 -2.5 1 C-1 0 -1 0 0 0 Z " fill="#C08E45" transform="translate(97,52)"/>
<path d="M0 0 C4.86568488 2.16252661 7.75933835 5.93525257 11 10 C10.01 10.33 9.02 10.66 8 11 C6.9171875 9.63875 6.9171875 9.63875 5.8125 8.25 C3.47347206 5.4298006 0.94933345 3.19093342 -2 1 C-1.34 0.67 -0.68 0.34 0 0 Z " fill="#5A4225" transform="translate(116,22)"/>
<path d="M0 0 C0.33 0 0.66 0 1 0 C1.22331199 1.58129029 1.42804644 3.16521089 1.625 4.75 C1.74101562 5.63171875 1.85703125 6.5134375 1.9765625 7.421875 C2.00207817 10.22859878 1.44843844 11.63384866 0 14 C-1.8759207 10.85909063 -2.18257272 8.92116258 -1.6875 5.3125 C-1.58824219 4.52488281 -1.48898438 3.73726562 -1.38671875 2.92578125 C-1 1 -1 1 0 0 Z " fill="#4F3C24" transform="translate(29,138)"/>
<path d="M0 0 C0.66 0.33 1.32 0.66 2 1 C1.938125 2.19625 1.87625 3.3925 1.8125 4.625 C1.79056063 8.73497595 2.86869566 11.4478261 5 15 C4.01 15 3.02 15 2 15 C-1.55035541 10.79217137 -1.34384718 7.24366945 -1 2 C-0.67 1.34 -0.34 0.68 0 0 Z " fill="#543D22" transform="translate(95,90)"/>
<path d="M0 0 C1.23147292 3.69441875 0.44298991 4.51984786 -1 8 C-1 9.32 -1 10.64 -1 12 C-0.34 12 0.32 12 1 12 C0.67 13.32 0.34 14.64 0 16 C-0.33 15.34 -0.66 14.68 -1 14 C-1.99 14 -2.98 14 -4 14 C-4.56561146 8.34388537 -2.71391278 4.77357872 0 0 Z " fill="#684C27" transform="translate(94,50)"/>
<path d="M0 0 C1.65 0 3.3 0 5 0 C7.125 7.5 7.125 7.5 6 12 C4.02 8.04 2.04 4.08 0 0 Z " fill="#EAC787" transform="translate(154,26)"/>
<path d="M0 0 C0.66 0 1.32 0 2 0 C1.45773019 3.79588866 -0.20127563 5.47211993 -3 8 C-4.65 6.02 -6.3 4.04 -8 2 C-5.66666667 2 -3.33333333 2 -1 2 C-0.67 1.34 -0.34 0.68 0 0 Z " fill="#503A1F" transform="translate(91,64)"/>
<path d="M0 0 C4.56749627 1.86083181 7.88579746 5.03688123 10.3125 9.3125 C10.6528125 10.1478125 10.6528125 10.1478125 11 11 C7.84164893 9.60249952 5.67727175 7.94801766 3.25 5.5 C2.63640625 4.8915625 2.0228125 4.283125 1.390625 3.65625 C0 2 0 2 0 0 Z " fill="#463018" transform="translate(166,55)"/>
<path d="M0 0 C0.625 1.75 0.625 1.75 1 4 C0.34241884 5.33783753 -0.32563747 6.67054244 -1 8 C-1.42151885 9.57158878 -1.7968834 11.15629082 -2.125 12.75 C-2.29257813 13.54921875 -2.46015625 14.3484375 -2.6328125 15.171875 C-2.75398438 15.77515625 -2.87515625 16.3784375 -3 17 C-3.33 17 -3.66 17 -4 17 C-4.50604984 10.01370081 -4.0333905 5.79799884 0 0 Z " fill="#D1AA66" transform="translate(87,45)"/>
<path d="M0 0 C0.33 0.66 0.66 1.32 1 2 C2.98 1.34 4.96 0.68 7 0 C7 0.99 7 1.98 7 3 C4.8125 4.8125 4.8125 4.8125 2 6 C-0.75 5.375 -0.75 5.375 -3 4 C-3.33 3.01 -3.66 2.02 -4 1 C-2 0 -2 0 0 0 Z " fill="#533E2C" transform="translate(88,36)"/>
<path d="M0 0 C3.96 0 7.92 0 12 0 C11.67 0.99 11.34 1.98 11 3 C5.04296875 3.29296875 5.04296875 3.29296875 3 3 C2.01 2.01 1.02 1.02 0 0 Z " fill="#D1A357" transform="translate(90,376)"/>
<path d="M0 0 C0.99 0.33 1.98 0.66 3 1 C2.34 2.98 1.68 4.96 1 7 C-0.98 7 -2.96 7 -5 7 C-4.67 6.01 -4.34 5.02 -4 4 C-3.34 4 -2.68 4 -2 4 C-1.34 2.68 -0.68 1.36 0 0 Z " fill="#7F603B" transform="translate(64,89)"/>
<path d="M0 0 C0.66 0.33 1.32 0.66 2 1 C2 3.97 2 6.94 2 10 C1.01 10.33 0.02 10.66 -1 11 C-1.02688151 9.35425434 -1.04634123 7.70838587 -1.0625 6.0625 C-1.07410156 5.14597656 -1.08570312 4.22945312 -1.09765625 3.28515625 C-1 1 -1 1 0 0 Z " fill="#443329" transform="translate(81,51)"/>
<path d="M0 0 C-3.28857764 1.20313816 -6.1962741 2.02328676 -9.6875 2.4375 C-13.01559714 3.00264857 -14.04160401 3.35040542 -16 6 C-15.34 4.02 -14.68 2.04 -14 0 C-12.41773035 -0.19627391 -10.83410729 -0.38165538 -9.25 -0.5625 C-8.36828125 -0.66691406 -7.4865625 -0.77132812 -6.578125 -0.87890625 C-4.11567549 -0.99456676 -2.33461936 -0.73638695 0 0 Z " fill="#B78640" transform="translate(127,146)"/>
<path d="M0 0 C1.55078125 1.20703125 1.55078125 1.20703125 3 3 C2.85546875 5.26171875 2.85546875 5.26171875 2.1875 7.6875 C1.97480469 8.49574219 1.76210937 9.30398437 1.54296875 10.13671875 C1.27419922 11.05904297 1.27419922 11.05904297 1 12 C0.67 12 0.34 12 0 12 C0 9.36 0 6.72 0 4 C-0.33 6.31 -0.66 8.62 -1 11 C-1.33 11 -1.66 11 -2 11 C-2 7.7 -2 4.4 -2 1 C-1.34 0.67 -0.68 0.34 0 0 Z " fill="#8E643A" transform="translate(215,143)"/>
<path d="M0 0 C0.33 0 0.66 0 1 0 C1 4.29 1 8.58 1 13 C0.34 13 -0.32 13 -1 13 C-1.22245393 11.39773045 -1.42746669 9.79303233 -1.625 8.1875 C-1.74101562 7.29417969 -1.85703125 6.40085937 -1.9765625 5.48046875 C-2 3 -2 3 0 0 Z " fill="#BA883F" transform="translate(212,108)"/>
<path d="M0 0 C1.85546875 0.0859375 1.85546875 0.0859375 4.1875 0.375 C4.99445312 0.47425781 5.80140625 0.57351562 6.6328125 0.67578125 C9.43290591 1.05929239 12.21823034 1.50070801 15 2 C15 2.33 15 2.66 15 3 C12.89611431 3.05402274 10.79183286 3.09280256 8.6875 3.125 C6.92986328 3.15980469 6.92986328 3.15980469 5.13671875 3.1953125 C2 3 2 3 -1 1 C-0.67 0.67 -0.34 0.34 0 0 Z " fill="#B18B4E" transform="translate(50,173)"/>
<path d="M0 0 C0 0.66 0 1.32 0 2 C-6.27 1.67 -12.54 1.34 -19 1 C-19 0.67 -19 0.34 -19 0 C-16.58373582 -0.19534474 -14.16734771 -0.38153404 -11.75 -0.5625 C-11.06808594 -0.61857422 -10.38617188 -0.67464844 -9.68359375 -0.73242188 C-6.2579419 -0.98186254 -3.27298823 -1.13879745 0 0 Z " fill="#573D1F" transform="translate(123,144)"/>
<path d="M0 0 C0.66 0.33 1.32 0.66 2 1 C-0.97 3.97 -3.94 6.94 -7 10 C-7.66 9.67 -8.32 9.34 -9 9 C-8.06725891 7.87105124 -7.12859878 6.74699124 -6.1875 5.625 C-5.66542969 4.99851562 -5.14335938 4.37203125 -4.60546875 3.7265625 C-3 2 -3 2 0 0 Z " fill="#DCB56C" transform="translate(38,311)"/>
<path d="M0 0 C2.4375 0.625 2.4375 0.625 5 2 C5.8125 5.125 5.8125 5.125 6 8 C4.125 7.375 4.125 7.375 2 6 C0.75 2.875 0.75 2.875 0 0 Z " fill="#563E22" transform="translate(56,269)"/>
<path d="M0 0 C0.99 0.33 1.98 0.66 3 1 C2.67 1.33 2.34 1.66 2 2 C4.97 2.495 4.97 2.495 8 3 C8 3.33 8 3.66 8 4 C0.25 5 0.25 5 -2 5 C-3.62514468 6.45833358 -3.62514468 6.45833358 -5 8 C-3.8141763 4.62496331 -2.72426311 2.35277269 0 0 Z " fill="#E0B365" transform="translate(97,113)"/>
<path d="M0 0 C1.98 0 3.96 0 6 0 C6 0.99 6 1.98 6 3 C-0.625 5.875 -0.625 5.875 -4 7 C-4 6.34 -4 5.68 -4 5 C-3.01 4.34 -2.02 3.68 -1 3 C-0.67 2.01 -0.34 1.02 0 0 Z " fill="#E6BD72" transform="translate(98,72)"/>
<path d="M0 0 C2.61382886 3.92074329 2.29386386 7.44511017 2 12 C1.34 12.66 0.68 13.32 0 14 C-0.19532961 12.2300132 -0.38098882 10.45895721 -0.5625 8.6875 C-0.66691406 7.70136719 -0.77132812 6.71523438 -0.87890625 5.69921875 C-1 3 -1 3 0 0 Z " fill="#715128" transform="translate(135,47)"/>
<path d="M0 0 C2.73902249 2.36551942 3.93170092 4.54857221 5 8 C5.125 10.8125 5.125 10.8125 5 13 C2.71540242 10.71540242 2.02870252 8.87462656 0.875 5.875 C0.52179688 4.96492188 0.16859375 4.05484375 -0.1953125 3.1171875 C-0.46085938 2.41851562 -0.72640625 1.71984375 -1 1 C-0.67 0.67 -0.34 0.34 0 0 Z " fill="#654925" transform="translate(149,30)"/>
<path d="M0 0 C3.36720387 1.39332574 4.9859524 2.9789286 7 6 C5.02 6.99 5.02 6.99 3 8 C0 2.25 0 2.25 0 0 Z " fill="#C69549" transform="translate(88,30)"/>
<path d="M0 0 C3.55007718 3.9050849 4.81819916 6.97734643 6 12 C3 11 3 11 1.3125 7.6875 C0 4 0 4 0 0 Z " fill="#E6C583" transform="translate(85,27)"/>
<path d="M0 0 C3.02990095 1.71967351 5.76327296 3.29238306 8 6 C8 6.66 8 7.32 8 8 C5.6875 7.8125 5.6875 7.8125 3 7 C0 2.96551724 0 2.96551724 0 0 Z " fill="#D5A85D" transform="translate(159,27)"/>
<path d="M0 0 C1.23556641 0.01740234 1.23556641 0.01740234 2.49609375 0.03515625 C3.32238281 0.04417969 4.14867188 0.05320312 5 0.0625 C5.63808594 0.07410156 6.27617188 0.08570312 6.93359375 0.09765625 C7.26359375 0.75765625 7.59359375 1.41765625 7.93359375 2.09765625 C6.61359375 1.76765625 5.29359375 1.43765625 3.93359375 1.09765625 C3.93359375 1.75765625 3.93359375 2.41765625 3.93359375 3.09765625 C3.31484375 2.91203125 2.69609375 2.72640625 2.05859375 2.53515625 C-0.10800803 1.86079449 -0.10800803 1.86079449 -2.06640625 3.09765625 C-2.72640625 4.08765625 -3.38640625 5.07765625 -4.06640625 6.09765625 C-2.99738005 0.14165312 -2.99738005 0.14165312 0 0 Z " fill="#EECD88" transform="translate(107.06640625,22.90234375)"/>
<path d="M0 0 C0.99 0 1.98 0 3 0 C3.66 1.65 4.32 3.3 5 5 C3.02 5.99 3.02 5.99 1 7 C-0.0625 4.625 -0.0625 4.625 -1 2 C-0.67 1.34 -0.34 0.68 0 0 Z " fill="#D7A85B" transform="translate(86,61)"/>
<path d="M0 0 C0.556875 0.61875 1.11375 1.2375 1.6875 1.875 C4.07812598 4.07179145 6.00437473 4.86652017 9 6 C9.33 6.66 9.66 7.32 10 8 C8.51988629 7.69201674 7.04092675 7.378482 5.5625 7.0625 C4.73878906 6.88847656 3.91507813 6.71445312 3.06640625 6.53515625 C1 6 1 6 0 5 C-0.04063832 3.33382885 -0.042721 1.66611905 0 0 Z " fill="#CF9F52" transform="translate(154,38)"/>
<path d="M0 0 C0.33 3.3 0.66 6.6 1 10 C0.01 9.67 -0.98 9.34 -2 9 C-2 6.69 -2 4.38 -2 2 C-2.66 1.67 -3.32 1.34 -4 1 C-1 0 -1 0 0 0 Z " fill="#5D4628" transform="translate(103,34)"/>
<path d="M0 0 C0 2.64 0 5.28 0 8 C-1.65 6.35 -3.3 4.7 -5 3 C-1.125 0 -1.125 0 0 0 Z " fill="#AA7746" transform="translate(100,25)"/>
<path d="M0 0 C0.33 0 0.66 0 1 0 C1 3.63 1 7.26 1 11 C0.34 11 -0.32 11 -1 11 C-2.0257259 6.58937864 -2.03684712 4.07369424 0 0 Z " fill="#B17F39" transform="translate(211,122)"/>
<path d="M0 0 C3.3 1.65 6.6 3.3 10 5 C7 6 7 6 4 6 C1.8125 4.125 1.8125 4.125 0 2 C0 1.34 0 0.68 0 0 Z " fill="#CB9E56" transform="translate(170,34)"/>
<path d="M0 0 C0.66 0.33 1.32 0.66 2 1 C1.3125 3.375 1.3125 3.375 0 6 C-2.625 7.3125 -2.625 7.3125 -5 8 C-3.8141763 4.62496331 -2.72426311 2.35277269 0 0 Z " fill="#4E3B22" transform="translate(66,211)"/>
<path d="M0 0 C0.66 0.33 1.32 0.66 2 1 C2 1.99 2 2.98 2 4 C-0.375 5.0625 -0.375 5.0625 -3 6 C-3.66 5.67 -4.32 5.34 -5 5 C-4 2 -4 2 -2.0625 0.75 C-1.381875 0.5025 -0.70125 0.255 0 0 Z " fill="#E3B86B" transform="translate(50,128)"/>
<path d="M0 0 C6.57142857 5 6.57142857 5 8 10 C3.79236776 8.4972742 2.1972242 5.76667005 0 2 C0 1.34 0 0.68 0 0 Z " fill="#ECCA8B" transform="translate(128,21)"/>
<path d="M0 0 C2.31 1.65 4.62 3.3 7 5 C5.02 5.99 5.02 5.99 3 7 C1.5 5.75 1.5 5.75 0 4 C0 2.68 0 1.36 0 0 Z " fill="#614725" transform="translate(28,351)"/>
<path d="M0 0 C-0.639375 0.28875 -1.27875 0.5775 -1.9375 0.875 C-4.15206079 1.82823451 -4.15206079 1.82823451 -5 4 C-6.32 4 -7.64 4 -9 4 C-9 3.34 -9 2.68 -9 2 C-8.34 2 -7.68 2 -7 2 C-7 1.34 -7 0.68 -7 0 C-3.86650268 -1.04449911 -3.01031744 -0.93423645 0 0 Z " fill="#4D381E" transform="translate(181,403)"/>
<path d="M0 0 C2.64 0 5.28 0 8 0 C8 0.99 8 1.98 8 3 C6.02 3 4.04 3 2 3 C2 2.34 2 1.68 2 1 C1.34 0.67 0.68 0.34 0 0 Z " fill="#BF8D43" transform="translate(147,265)"/>
<path d="M0 0 C0 0.99 0 1.98 0 3 C-4.29 2.67 -8.58 2.34 -13 2 C-13 1.67 -13 1.34 -13 1 C-11.58366664 0.83052421 -10.16691467 0.66454493 -8.75 0.5 C-7.56664062 0.36078125 -7.56664062 0.36078125 -6.359375 0.21875 C-4 0 -4 0 0 0 Z " fill="#634621" transform="translate(153,262)"/>
<path d="M0 0 C0 0.66 0 1.32 0 2 C-1.75 3.2890625 -1.75 3.2890625 -4 4.625 C-4.7425 5.07101563 -5.485 5.51703125 -6.25 5.9765625 C-6.8275 6.31429687 -7.405 6.65203125 -8 7 C-6.31771309 3.36505864 -4.4190252 0 0 0 Z " fill="#E6BC70" transform="translate(96,72)"/>
<path d="M0 0 C0.99 0 1.98 0 3 0 C3.33 1.65 3.66 3.3 4 5 C3.01 5 2.02 5 1 5 C0.67 3.35 0.34 1.7 0 0 Z " fill="#4F371B" transform="translate(184,290)"/>
<path d="M0 0 C2.62187494 1.04874998 3.79371361 1.64931313 5.25 4.125 C5.4975 4.74375 5.745 5.3625 6 6 C5.01 6.33 4.02 6.66 3 7 C0 2.25 0 2.25 0 0 Z " fill="#4E371D" transform="translate(125,32)"/>
<path d="M0 0 C1.5 1.3125 1.5 1.3125 3 3 C3 3.99 3 4.98 3 6 C3.66 6.33 4.32 6.66 5 7 C4.01 7.66 3.02 8.32 2 9 C0.50178941 5.62902617 0 3.79557881 0 0 Z " fill="#563B1B" transform="translate(207,127)"/>
<path d="M0 0 C0.66 0.66 1.32 1.32 2 2 C1.625 4.625 1.625 4.625 1 7 C0.01 7 -0.98 7 -2 7 C-1.125 2.25 -1.125 2.25 0 0 Z " fill="#B8863C" transform="translate(160,118)"/>
<path d="M0 0 C1.32 0 2.64 0 4 0 C4 0.66 4 1.32 4 2 C4.66 2.33 5.32 2.66 6 3 C3.69 3.33 1.38 3.66 -1 4 C-0.67 2.68 -0.34 1.36 0 0 Z " fill="#402F1A" transform="translate(82,24)"/>
</svg>
