<?xml version="1.0" encoding="UTF-8"?>
<svg version="1.1" xmlns="http://www.w3.org/2000/svg" width="206" height="332">
<path d="M0 0 C14.5189913 -0.43006491 26.62049381 3.55968466 37.859375 12.83984375 C47.62382925 22.04533103 53.08412497 33.80262406 53.57885742 47.16040039 C53.67269454 54.8227644 52.98723719 61.3296345 50.11328125 68.51953125 C49.10975638 71.15134354 48.60905466 73.5639651 48.171875 76.33984375 C46.85406958 83.58194258 43.40653561 89.12567644 38.109375 94.15234375 C39.13417969 94.51585938 40.15898437 94.879375 41.21484375 95.25390625 C42.57587359 95.76077254 43.93653142 96.26863852 45.296875 96.77734375 C45.97041016 97.01324219 46.64394531 97.24914062 47.33789062 97.4921875 C52.42946668 99.4294701 55.036441 101.62599503 58.109375 106.15234375 C58.36188635 110.27669575 57.51912156 111.68722603 54.796875 114.77734375 C47.69407725 120.070294 38.6957706 121.3814475 30.109375 122.15234375 C29.87801695 146.77912294 31.02240205 168.88402529 39.44287109 192.23168945 C40.05748847 194.00282312 40.57831181 195.80576638 41.08984375 197.609375 C41.42628906 198.44855469 41.76273438 199.28773438 42.109375 200.15234375 C44.41594514 200.90641476 46.755127 201.56378175 49.109375 202.15234375 C53.4554404 204.4483783 53.4554404 204.4483783 55.109375 207.15234375 C55.46676689 209.41117215 55.72691444 211.68624218 55.921875 213.96484375 C56.47589108 219.32592862 57.12457009 222.01914442 61.234375 225.58984375 C62.84108855 226.80197115 64.46612106 227.99023457 66.109375 229.15234375 C81.48955718 241.89036082 81.48955718 241.89036082 82.375 250.8359375 C82.33078397 258.62901347 82.33078397 258.62901347 80.734375 262.40234375 C80.528125 263.30984375 80.321875 264.21734375 80.109375 265.15234375 C81.42916755 267.19603589 82.90603047 268.82407173 84.62890625 270.5390625 C88.08311167 274.30314386 87.44429983 279.4100554 87.375 284.21484375 C86.845603 290.0693517 83.51707441 292.98156653 79.296875 296.65234375 C50.10139464 318.03096969 -0.24369541 315.96801718 -34.2109375 311.0625 C-36.10525304 310.7659734 -37.9985474 310.46283004 -39.890625 310.15234375 C-41.21271973 309.93553955 -41.21271973 309.93553955 -42.56152344 309.71435547 C-56.87420398 307.26005419 -73.9684107 303.58648838 -84.3203125 292.640625 C-87.39845102 288.25693118 -87.5799875 283.40666963 -87.421875 278.17578125 C-86.57729024 273.36910033 -84.28381248 269.63343764 -80.890625 266.15234375 C-80.230625 266.15234375 -79.570625 266.15234375 -78.890625 266.15234375 C-79.385625 265.03859375 -79.880625 263.92484375 -80.390625 262.77734375 C-82.4534837 257.19084603 -83.10987997 251.53534696 -81.05859375 245.84375 C-79.55091302 242.76627435 -77.79242839 240.00504884 -75.890625 237.15234375 C-75.230625 237.15234375 -74.570625 237.15234375 -73.890625 237.15234375 C-73.890625 236.49234375 -73.890625 235.83234375 -73.890625 235.15234375 C-73.230625 235.15234375 -72.570625 235.15234375 -71.890625 235.15234375 C-71.890625 234.49234375 -71.890625 233.83234375 -71.890625 233.15234375 C-69.82157535 231.37845097 -67.75301331 229.72389905 -65.578125 228.08984375 C-64.98322266 227.63029297 -64.38832031 227.17074219 -63.77539062 226.69726562 C-61.16907366 224.71413506 -59.01852442 223.19497689 -55.890625 222.15234375 C-55.79265625 221.19972656 -55.6946875 220.24710938 -55.59375 219.265625 C-55.36945312 217.38423828 -55.36945312 217.38423828 -55.140625 215.46484375 C-54.93179687 213.60279297 -54.93179687 213.60279297 -54.71875 211.703125 C-53.80978222 207.80571127 -52.71714517 205.94780326 -49.890625 203.15234375 C-48.776875 202.80171875 -47.663125 202.45109375 -46.515625 202.08984375 C-41.81891326 200.21115906 -40.42034637 196.5228408 -38.43359375 192.0859375 C-29.14545672 168.9110359 -26.63954173 145.94406982 -25.890625 121.15234375 C-26.93089844 121.1884375 -27.97117188 121.22453125 -29.04296875 121.26171875 C-36.65803941 121.04524974 -43.95078622 117.87375406 -49.890625 113.15234375 C-51.890625 110.15234375 -51.890625 110.15234375 -51.890625 106.71484375 C-50.890625 103.15234375 -50.890625 103.15234375 -48.203125 100.90234375 C-45.11816495 99.27255353 -42.04087016 97.65246049 -38.890625 96.15234375 C-39.715625 95.53359375 -40.540625 94.91484375 -41.390625 94.27734375 C-42.215625 93.57609375 -43.040625 92.87484375 -43.890625 92.15234375 C-43.890625 91.49234375 -43.890625 90.83234375 -43.890625 90.15234375 C-44.550625 90.15234375 -45.210625 90.15234375 -45.890625 90.15234375 C-50.12120145 83.89713428 -52.1414242 78.74834307 -50.890625 71.15234375 C-49.92300892 69.13647691 -48.92495404 67.13480773 -47.890625 65.15234375 C-47.65316608 61.59045992 -47.66929395 58.45496919 -48.265625 54.9453125 C-50.02805362 43.87505773 -45.98523099 31.44157782 -39.890625 22.15234375 C-31.26700057 10.87271024 -20.3457242 3.62354902 -6.453125 0.33984375 C-4.30207974 0.22663084 -2.15103723 0.11336548 0 0 Z " fill="#402B1A" transform="translate(98.890625,8.84765625)"/>
<path d="M0 0 C0.2475 1.36125 0.2475 1.36125 0.5 2.75 C2.17803062 6.385733 3.62256371 7.58373724 7.2890625 9.12109375 C19.28280228 13.00955405 31.26234217 13.2867963 43.75 13.3125 C44.80657303 13.31787781 44.80657303 13.31787781 45.88449097 13.32336426 C58.98752303 13.35916853 72.76895262 12.95324494 84.5625 6.625 C86.26456704 5.02310402 86.26456704 5.02310402 86.25 2.3125 C86.1675 1.549375 86.085 0.78625 86 0 C89.38901101 0.84725275 91.65378805 1.70057345 94.3125 4 C96.03523557 7.06264102 96.26887996 8.52205938 96.5 11.9375 C96.85839375 16.79731925 97.65847576 19.26067525 101 23 C103.699126 25.31842519 106.45407836 27.55015781 109.23828125 29.765625 C115.3036825 34.67285204 121.16349398 39.45174576 122.3828125 47.5390625 C122.76407677 53.55640729 122.02520972 57.55859424 118.03515625 62.15234375 C111.9728896 67.65609063 104.85059295 71.71952726 97 74 C95.33130859 74.49113281 95.33130859 74.49113281 93.62890625 74.9921875 C81.37789606 78.4279877 69.43933422 80.30878877 56.69140625 80.3359375 C55.56339096 80.3425943 54.43537567 80.3492511 53.2731781 80.35610962 C50.90096648 80.36615967 48.52872703 80.37092904 46.15649414 80.37060547 C42.60187883 80.37495185 39.04853513 80.41128287 35.49414062 80.44921875 C14.21228397 80.55308145 -14.4666059 79.9118029 -30.91796875 64.1640625 C-35.71026436 58.76846126 -36.48493635 54.31221718 -36.3984375 47.1328125 C-35.26204012 38.1976096 -27.66078142 32.32187435 -21 27 C-18.92839227 25.44269766 -16.85013478 23.9075017 -14.7265625 22.421875 C-11.94051025 20.12747903 -10.19002503 18.23016204 -9.62890625 14.59765625 C-9.60699219 13.76105469 -9.58507812 12.92445313 -9.5625 12.0625 C-9.22945873 7.5397995 -8.45471908 5.1586003 -5 2 C-1.66666667 0 -1.66666667 0 0 0 Z " fill="#E0B372" transform="translate(56,212)"/>
<path d="M0 0 C11.22105685 7.32392334 18.17785645 17.32603686 21.234375 30.390625 C21.52676235 33.50024637 21.567721 36.58120276 21.546875 39.703125 C21.54167847 40.96987061 21.54167847 40.96987061 21.53637695 42.26220703 C21.44487442 47.50262297 20.94293347 52.06171092 19.078125 57 C18.0326124 59.9622857 17.51328838 62.93182667 16.921875 66.015625 C15.55564044 72.03979914 13.51908973 75.97297163 9.234375 80.390625 C8.76644531 80.885625 8.29851562 81.380625 7.81640625 81.890625 C-1.97272258 91.15129187 -17.89537438 100.3446425 -31.453125 100.953125 C-46.06971968 100.11188214 -63.96219038 88.13401879 -73.484375 77.46484375 C-76.63813731 73.09337877 -77.30540304 69.31645011 -77.234375 63.98046875 C-76.765625 61.390625 -76.765625 61.390625 -75.23046875 58.28125 C-73.01636876 53.39029389 -73.61577963 48.45792516 -73.828125 43.203125 C-74.1013578 28.28320701 -70.76271849 18.07760859 -60.546875 6.98046875 C-43.97822181 -9.13093265 -19.75312855 -11.49475842 0 0 Z " fill="#E6BD80" transform="translate(127.765625,18.609375)"/>
<path d="M0 0 C0.55985596 0.0714624 1.11971191 0.1429248 1.6965332 0.21655273 C11.51114127 1.29596165 21.32923085 1.10983112 31.1875 1.0625 C33.01627482 1.05747456 34.84505097 1.0529135 36.67382812 1.04882812 C41.11591895 1.03790619 45.55794441 1.02069923 50 1 C50.00410889 1.99515625 50.00821777 2.9903125 50.01245117 4.015625 C50.17579913 30.41934079 50.70505938 57.38546712 63.7421875 81.1796875 C65 84 65 84 64.95703125 86.2421875 C62.86738697 90.08030965 57.92330062 90.76786021 54 92 C44.92115125 94.16501627 35.86919255 94.34184008 26.59277344 94.31567383 C24.26709623 94.31252316 21.94270781 94.33602937 19.6171875 94.36132812 C7.0355741 94.41441967 -7.16632804 94.07505108 -18 87 C-19 84 -19 84 -17.8125 81.1640625 C-16.9153125 79.41222656 -16.9153125 79.41222656 -16 77.625 C-4.09139032 53.0538803 -0.58073557 27.09131429 0 0 Z " fill="#DEB070" transform="translate(76,130)"/>
<path d="M0 0 C4.08293978 2.09664475 5.97237575 3.88698443 8 8 C8.92253011 13.22098564 9.16783942 18.54515388 6.8515625 23.4140625 C-4.79697167 38.13099103 -30.48585753 40.8572631 -48 43 C-57.34407305 44.03477245 -66.6711946 44.20196588 -76.0625 44.1875 C-77.15307709 44.18659363 -77.15307709 44.18659363 -78.26568604 44.18566895 C-103.32882842 44.12924367 -139.51857217 43.08901288 -158.625 24.4375 C-160.80305195 18.99237011 -160.98735611 13.76673204 -160 8 C-158.38813013 5.13962977 -156.5334675 3.07352251 -154 1 C-150.98985211 2.44322159 -148.19985748 4.0991124 -145.375 5.875 C-125.54090982 17.79285243 -101.52924619 19.20286188 -78.9375 19.1875 C-78.25879852 19.18722809 -77.58009705 19.18695618 -76.88082886 19.18667603 C-65.820761 19.16637577 -54.94190045 18.69547844 -44 17 C-43.29359375 16.89284668 -42.5871875 16.78569336 -41.859375 16.67529297 C-26.83464748 14.32082495 -11.6106925 10.40958638 0 0 Z " fill="#D8A765" transform="translate(175,275)"/>
<path d="M0 0 C3.26460973 1.80412643 4.88929795 2.83394693 7 6 C6.86303438 9.20601014 6.43336808 10.57117456 4.13671875 12.84375 C-30.69570783 36.39869238 -82.5089267 34.54119131 -122.25 27.125 C-135.57046231 24.47300134 -150.17292761 21.14998617 -159 10 C-159.16988301 6.43245682 -158.30413021 5.34099448 -155.9375 2.6875 C-155.298125 2.130625 -154.65875 1.57375 -154 1 C-150.98985211 2.44322159 -148.19985748 4.0991124 -145.375 5.875 C-125.54090982 17.79285243 -101.52924619 19.20286188 -78.9375 19.1875 C-78.25879852 19.18722809 -77.58009705 19.18695618 -76.88082886 19.18667603 C-65.820761 19.16637577 -54.94190045 18.69547844 -44 17 C-43.29359375 16.89284668 -42.5871875 16.78569336 -41.859375 16.67529297 C-26.83464748 14.32082495 -11.6106925 10.40958638 0 0 Z " fill="#E6BC7C" transform="translate(175,275)"/>
<path d="M0 0 C14.5189913 -0.43006491 26.62049381 3.55968466 37.859375 12.83984375 C47.62382925 22.04533103 53.08412497 33.80262406 53.57885742 47.16040039 C53.67269454 54.8227644 52.98723719 61.3296345 50.11328125 68.51953125 C49.10975638 71.15134354 48.60905466 73.5639651 48.171875 76.33984375 C46.85406958 83.58194258 43.40653561 89.12567644 38.109375 94.15234375 C39.13417969 94.51585938 40.15898437 94.879375 41.21484375 95.25390625 C42.57587359 95.76077254 43.93653142 96.26863852 45.296875 96.77734375 C45.97041016 97.01324219 46.64394531 97.24914062 47.33789062 97.4921875 C52.42946668 99.4294701 55.036441 101.62599503 58.109375 106.15234375 C58.36188635 110.27669575 57.51912156 111.68722603 54.796875 114.77734375 C47.69407725 120.070294 38.6957706 121.3814475 30.109375 122.15234375 C29.87801695 146.77912294 31.02240205 168.88402529 39.44287109 192.23168945 C40.05748847 194.00282312 40.57831181 195.80576638 41.08984375 197.609375 C41.42628906 198.44855469 41.76273437 199.28773438 42.109375 200.15234375 C44.41594514 200.90641476 46.755127 201.56378175 49.109375 202.15234375 C53.4554404 204.4483783 53.4554404 204.4483783 55.109375 207.15234375 C55.46676689 209.41117215 55.72691444 211.68624218 55.921875 213.96484375 C56.47589108 219.32592862 57.12457009 222.01914442 61.234375 225.58984375 C62.84108855 226.80197115 64.46612106 227.99023457 66.109375 229.15234375 C81.48955718 241.89036082 81.48955718 241.89036082 82.375 250.8359375 C82.33078397 258.62901347 82.33078397 258.62901347 80.734375 262.40234375 C80.528125 263.30984375 80.321875 264.21734375 80.109375 265.15234375 C81.42916755 267.19603589 82.90603047 268.82407173 84.62890625 270.5390625 C88.08311167 274.30314386 87.44429983 279.4100554 87.375 284.21484375 C86.845603 290.0693517 83.51707441 292.98156653 79.296875 296.65234375 C50.16184093 317.98670741 -1.01726082 316.21855652 -34.890625 311.15234375 C-35.880625 310.82234375 -36.870625 310.49234375 -37.890625 310.15234375 C-37.890625 309.49234375 -37.890625 308.83234375 -37.890625 308.15234375 C-38.880625 307.82234375 -39.870625 307.49234375 -40.890625 307.15234375 C-40.16359375 307.21292969 -39.4365625 307.27351563 -38.6875 307.3359375 C-37.68203125 307.41972656 -36.6765625 307.50351562 -35.640625 307.58984375 C-28.890625 308.15234375 -28.890625 308.15234375 -26.35351562 308.40405273 C-17.86639275 309.20349144 -9.40841669 309.35408592 -0.890625 309.33984375 C0.19952911 309.33843887 0.19952911 309.33843887 1.31170654 309.33700562 C26.08461952 309.26802774 58.9141688 308.67569427 79.109375 292.15234375 C82.77521229 288.37522212 83.65879748 285.95980395 83.609375 280.71484375 C83.44133511 275.21931689 82.95535199 272.10820579 79.109375 268.15234375 C78.119375 267.82234375 77.129375 267.49234375 76.109375 267.15234375 C74.42517038 268.16227456 74.42517038 268.16227456 72.734375 269.71484375 C53.25778639 284.97740683 24.63558637 286.16075097 0.984375 286.33984375 C-0.03640137 286.35289551 -1.05717773 286.36594727 -2.10888672 286.37939453 C-3.07068848 286.38052246 -4.03249023 286.38165039 -5.0234375 286.3828125 C-5.88855957 286.38692139 -6.75368164 286.39103027 -7.64501953 286.39526367 C-9.890625 286.15234375 -9.890625 286.15234375 -12.890625 284.15234375 C-11.82440918 284.11270508 -10.75819336 284.07306641 -9.65966797 284.03222656 C19.46802497 283.11883046 19.46802497 283.11883046 48.109375 278.15234375 C49.28371094 277.85457031 50.45804687 277.55679687 51.66796875 277.25 C62.75810326 273.95827855 71.66364545 268.82093808 78.109375 259.15234375 C79.11071502 252.62782296 78.55943036 247.35798711 74.65234375 241.984375 C70.65192407 237.23450961 66.39368247 233.31257644 61.421875 229.58984375 C57.75831703 226.7688417 55.11678995 224.41810052 53.109375 220.15234375 C52.91666822 218.46955211 52.77441642 216.78052671 52.671875 215.08984375 C52.431003 211.18889237 52.25176414 210.33595079 49.734375 207.08984375 C47.20118892 205.01131 47.20118892 205.01131 44.109375 204.15234375 C44.109375 204.87421875 44.109375 205.59609375 44.109375 206.33984375 C42.76278761 210.1271208 40.83702288 211.14176947 37.41796875 213.0859375 C26.90566276 217.9418758 14.34620566 217.29293588 3.046875 217.21484375 C1.79970703 217.21033203 0.55253906 217.20582031 -0.73242188 217.20117188 C-3.78520721 217.18947538 -6.83788998 217.17308461 -9.890625 217.15234375 C-9.890625 216.82234375 -9.890625 216.49234375 -9.890625 216.15234375 C-9.0402063 216.13046997 -9.0402063 216.13046997 -8.17260742 216.1081543 C8.41991094 215.63570408 25.34752678 214.86550724 41.109375 209.15234375 C40.70057634 204.24675986 39.60085444 201.00935544 37.28125 196.60546875 C34.60620058 191.00569863 32.82987227 185.09836049 31.109375 179.15234375 C30.90747559 178.47848633 30.70557617 177.80462891 30.49755859 177.11035156 C25.38827707 159.29702384 26.73136905 140.48854005 27.109375 122.15234375 C22.489375 122.15234375 17.869375 122.15234375 13.109375 122.15234375 C13.109375 121.82234375 13.109375 121.49234375 13.109375 121.15234375 C13.68268555 121.07717529 14.25599609 121.00200684 14.84667969 120.92456055 C35.98682009 119.34432905 35.98682009 119.34432905 54.109375 110.15234375 C54.27618609 107.06886549 54.27618609 107.06886549 54.109375 104.15234375 C53.27148438 103.87648438 52.43359375 103.600625 51.5703125 103.31640625 C47.9420475 102.0960643 44.33778865 100.81913355 40.734375 99.52734375 C40.09371094 99.29789062 39.45304687 99.0684375 38.79296875 98.83203125 C37.23156095 98.27272099 35.67043799 97.71261567 34.109375 97.15234375 C34.109375 92.40496999 34.80409061 91.98001118 37.984375 88.71484375 C42.2741042 84.29442388 44.00156105 80.48784315 45.046875 74.46484375 C45.6722721 71.0426708 46.52248045 67.96932114 47.734375 64.71484375 C51.26880094 53.24155338 50.48184745 38.84988448 45.109375 28.15234375 C38.36140267 16.44360958 28.21973616 8.46067481 15.18261719 4.57861328 C4.51299509 2.38488269 -8.25495592 3.05017799 -17.890625 8.15234375 C-18.75945312 8.59964844 -19.62828125 9.04695313 -20.5234375 9.5078125 C-28.60236758 14.00548552 -34.31066337 19.37263421 -38.65234375 27.55078125 C-40.2206495 29.57918932 -41.40457639 29.78597869 -43.890625 30.15234375 C-38.34946052 17.14265323 -28.49198535 8.91852226 -15.765625 3.33984375 C-10.38794051 1.22935625 -5.76600317 0.30388395 0 0 Z " fill="#3B2516" transform="translate(98.890625,8.84765625)"/>
<path d="M0 0 C6.00793408 1.47096911 13.72224915 3.56041791 17.6484375 8.6484375 C17.6484375 12.01693493 16.9576882 13.31985863 14.6484375 15.7734375 C1.2513536 24.14661493 -16.61443911 23.83540933 -31.86328125 23.83374023 C-34.08353059 23.8359198 -36.30327596 23.85411946 -38.5234375 23.87304688 C-74.06963773 24.01313261 -74.06963773 24.01313261 -85.3515625 13.6484375 C-86.6015625 11.0859375 -86.6015625 11.0859375 -86.3515625 8.6484375 C-82.77767567 4.42475306 -78.92554532 2.53700347 -73.71484375 0.8828125 C-67.15922111 0.42597469 -62.39820545 4.96075984 -57.3515625 8.6484375 C-48.65988001 13.6091911 -40.48459943 15.20603977 -30.6640625 12.6484375 C-22.95705439 10.09985612 -14.50537297 5.95966008 -8.15625 0.8984375 C-5.4842224 -0.95231755 -3.10048747 -0.46352803 0 0 Z " fill="#E7BE80" transform="translate(136.3515625,106.3515625)"/>
<path d="M0 0 C0.165 0.9075 0.33 1.815 0.5 2.75 C2.17803062 6.385733 3.62256371 7.58373724 7.2890625 9.12109375 C19.28280228 13.00955405 31.26234217 13.2867963 43.75 13.3125 C44.80657303 13.31787781 44.80657303 13.31787781 45.88449097 13.32336426 C58.98752303 13.35916853 72.76895262 12.95324494 84.5625 6.625 C86.26456704 5.02310402 86.26456704 5.02310402 86.25 2.3125 C86.1675 1.549375 86.085 0.78625 86 0 C91.75 1.75 91.75 1.75 94 4 C94 6.3125 94 6.3125 93 9 C86.5699393 15.4300607 78.86479433 18.44593333 70.0625 20.1875 C69.23766113 20.35403076 68.41282227 20.52056152 67.56298828 20.69213867 C46.84317626 24.65170466 19.99751023 25.40859756 1 15 C0.16210938 14.54882812 -0.67578125 14.09765625 -1.5390625 13.6328125 C-3.70693255 12.44484656 -5.85875782 11.23513733 -8 10 C-8.1484375 7.640625 -8.1484375 7.640625 -8 5 C-2.72222222 0 -2.72222222 0 0 0 Z " fill="#E5BC7E" transform="translate(56,212)"/>
<path d="M0 0 C-0.66 1.98 -1.32 3.96 -2 6 C4.30785111 13.05457492 16.82119822 13.64460211 25.68920898 14.25317383 C29.54273519 14.4152024 33.39421028 14.53199603 37.25 14.625 C38.5924696 14.66330989 39.93491806 14.70236841 41.27734375 14.7421875 C44.51809976 14.83544667 47.75886466 14.92124464 51 15 C51 15.33 51 15.66 51 16 C11.28758294 18.40643003 11.28758294 18.40643003 -2 10 C-4.1385485 7.8614515 -4.42655063 6.86724686 -5 4 C-9.14670039 6.37629089 -9.14670039 6.37629089 -12 10 C-12.05156991 11.54136717 -12.09158491 13.08313241 -12.125 14.625 C-12.73288097 20.84684049 -15.36684179 23.98351434 -20 28 C-22.76393862 30.0759539 -25.57339651 32.07011858 -28.40625 34.05078125 C-32.97932027 37.4874711 -36.85156816 41.63859802 -39 47 C-39.68469154 53.38452627 -39.93619072 59.66709645 -36 65 C-29.2645198 72.05621735 -21.11654117 75.28938603 -11.8125 77.625 C-11.05130859 77.82867187 -10.29011719 78.03234375 -9.50585938 78.2421875 C3.88591813 81.69813008 17.06390221 82.37678836 30.8125 82.625 C32.58400142 82.66328169 34.35548626 82.70233889 36.12695312 82.7421875 C40.41783037 82.83705004 44.708794 82.92147313 49 83 C49 83.33 49 83.66 49 84 C39.1 84.495 39.1 84.495 29 85 C29 85.33 29 85.66 29 86 C8.4515134 85.56279816 -19.85356 84.16871628 -35.80859375 69.31640625 C-36.20175781 68.88199219 -36.59492187 68.44757813 -37 68 C-40.40368115 69.40841979 -42.10336325 70.83538699 -44 74 C-44.51229761 77.06731316 -44.51229761 77.06731316 -44.4375 80.375 C-44.46650391 82.02628906 -44.46650391 82.02628906 -44.49609375 83.7109375 C-43.87906099 87.80181608 -42.65233993 89.83742552 -40 93 C-29.09632698 100.50571397 -14.95369037 104.07334352 -2 106 C-2 106.66 -2 107.32 -2 108 C-1.01 108 -0.02 108 1 108 C1 108.66 1 109.32 1 110 C-35.62535661 103.7939062 -35.62535661 103.7939062 -45 92 C-48.81074901 86.49037028 -49.04727476 81.5310363 -48 75 C-46.44078747 71.60501736 -44.61370878 68.68142144 -42 66 C-41.34 66 -40.68 66 -40 66 C-40.495 64.88625 -40.99 63.7725 -41.5 62.625 C-43.5628587 57.03850228 -44.21925497 51.38300321 -42.16796875 45.69140625 C-40.66028802 42.6139306 -38.90180339 39.85270509 -37 37 C-36.34 37 -35.68 37 -35 37 C-35 36.34 -35 35.68 -35 35 C-34.34 35 -33.68 35 -33 35 C-33 34.34 -33 33.68 -33 33 C-30.93095035 31.22610722 -28.86238831 29.5715553 -26.6875 27.9375 C-26.09259766 27.47794922 -25.49769531 27.01839844 -24.88476562 26.54492188 C-22.27844866 24.56179131 -20.12789942 23.04263314 -17 22 C-16.90203125 21.04738281 -16.8040625 20.09476563 -16.703125 19.11328125 C-16.55359375 17.85902344 -16.4040625 16.60476562 -16.25 15.3125 C-16.04117187 13.45044922 -16.04117187 13.45044922 -15.828125 11.55078125 C-14.74117835 6.89024112 -12.89940636 4.3051583 -8.96484375 1.6015625 C-7.96130859 1.11816406 -7.96130859 1.11816406 -6.9375 0.625 C-6.26589844 0.28726563 -5.59429687 -0.05046875 -4.90234375 -0.3984375 C-3 -1 -3 -1 0 0 Z " fill="#432D1B" transform="translate(60,209)"/>
<path d="M0 0 C2.9375 1 2.9375 1 5 2 C4.49045746 7.12539847 1.92180014 10.72456545 -0.8125 14.9375 C-1.25142578 15.62779297 -1.69035156 16.31808594 -2.14257812 17.02929688 C-3.41701918 19.02712052 -4.70781583 21.01362535 -6 23 C-6.37600342 23.59570801 -6.75200684 24.19141602 -7.1394043 24.80517578 C-9.75454467 28.88779185 -9.75454467 28.88779185 -12.1875 30 C-17.49797942 30 -22.25694894 29.24503647 -26.625 26.125 C-28 24 -28 24 -27.78125 22.140625 C-25.42795763 15.6926039 -19.80503405 10.50658578 -14.5703125 6.28125 C-12.81652603 4.89426689 -12.81652603 4.89426689 -10.6875 2.6875 C-7.38380389 -0.61619611 -4.53597282 -0.23064269 0 0 Z " fill="#F6D7A1" transform="translate(68,241)"/>
<path d="M0 0 C3.6655538 0.64307961 4.17478064 0.80749866 6.4375 3.4375 C9.40536475 7.88929713 9.6994183 10.81249082 9.6875 16.0625 C9.69136719 17.76212891 9.69136719 17.76212891 9.6953125 19.49609375 C9.5625 22.625 9.5625 22.625 8.5625 26.625 C11.5325 26.295 14.5025 25.965 17.5625 25.625 C14.84337556 26.98456222 12.38772873 28.10968342 9.5625 29.125 C7.36050353 29.91982745 5.50746255 30.65835603 3.5 31.875 C0.24729504 33.1341116 -2.13203416 32.51039263 -5.4375 31.625 C-9.4384961 28.05654402 -10.82254809 23.82326533 -11.4375 18.625 C-11.4375 12.24314954 -9.43902979 7.34136186 -5.6875 2.25 C-3.4375 0.625 -3.4375 0.625 0 0 Z " fill="#3A2A1B" transform="translate(110.4375,45.375)"/>
<path d="M0 0 C3.5625 1.0625 3.5625 1.0625 6 3.75 C9.1161069 10.14201416 8.60597109 19.36722482 6.5625 26.0625 C8.5425 26.0625 10.5225 26.0625 12.5625 26.0625 C12.8925 26.7225 13.2225 27.3825 13.5625 28.0625 C12.88703125 28.08828125 12.2115625 28.1140625 11.515625 28.140625 C5.90775026 28.46995429 5.90775026 28.46995429 0.875 30.75 C-0.68944448 33.06323453 -0.68944448 33.06323453 -0.4375 36.125 C0.72913333 39.55198542 1.49915969 40.24950267 4.5625 42.0625 C7.37133637 42.63479868 7.37133637 42.63479868 10.3125 42.75 C11.78976563 42.84861328 11.78976563 42.84861328 13.296875 42.94921875 C14.04453125 42.98660156 14.7921875 43.02398437 15.5625 43.0625 C13.1683839 45.4566161 12.52463689 45.35848923 9.25 45.375 C5.21684833 45.27141986 2.71465034 44.75109882 -0.4375 42.0625 C-3.34297505 38.35551459 -3.76244469 35.72004061 -3.4375 31.0625 C-7.8925 29.0825 -7.8925 29.0825 -12.4375 27.0625 C-11.4475 26.4025 -10.4575 25.7425 -9.4375 25.0625 C-9.7675 24.4025 -10.0975 23.7425 -10.4375 23.0625 C-10.61353147 20.65000308 -10.70494968 18.23099105 -10.75 15.8125 C-10.78738281 14.50796875 -10.82476562 13.2034375 -10.86328125 11.859375 C-10.37299926 7.48731905 -9.20618372 5.43480666 -6.4375 2.0625 C-3.4375 0.0625 -3.4375 0.0625 0 0 Z " fill="#39281A" transform="translate(78.4375,46.9375)"/>
<path d="M0 0 C6.00793408 1.47096911 13.72224915 3.56041791 17.6484375 8.6484375 C17.6484375 12.01693493 16.9576882 13.31985863 14.6484375 15.7734375 C-1.76167654 26.02975878 -23.93477893 23.86375824 -42.3515625 22.6484375 C-42.3515625 22.3184375 -42.3515625 21.9884375 -42.3515625 21.6484375 C-41.40015381 21.57850586 -40.44874512 21.50857422 -39.46850586 21.43652344 C-35.86086674 21.1674926 -32.25492829 20.87950374 -28.64916992 20.58642578 C-27.10300991 20.46327039 -25.55645741 20.34492602 -24.00952148 20.23193359 C-10.73881371 19.25722448 1.40384004 17.10604062 13.6484375 11.6484375 C13.6484375 10.6584375 13.6484375 9.6684375 13.6484375 8.6484375 C3.6213716 9.23117279 -6.00916944 10.89590962 -15.3515625 14.6484375 C-21.69891875 15.74280927 -27.92211589 15.75480702 -34.3515625 15.6484375 C-34.6815625 14.9884375 -35.0115625 14.3284375 -35.3515625 13.6484375 C-34.80371094 13.5246875 -34.25585938 13.4009375 -33.69140625 13.2734375 C-27.86554245 11.75776562 -22.755816 9.48086225 -17.4765625 6.6484375 C-16.83452881 6.30425781 -16.19249512 5.96007812 -15.53100586 5.60546875 C-12.92676617 4.17732627 -10.48191704 2.75235002 -8.15625 0.8984375 C-5.4842224 -0.95231755 -3.10048747 -0.46352803 0 0 Z " fill="#C28E4F" transform="translate(136.3515625,106.3515625)"/>
<path d="M0 0 C0.66 0 1.32 0 2 0 C3.7775781 6.4965078 4.25066883 12.35263728 3.875 19.0625 C3.82569336 20.00569092 3.77638672 20.94888184 3.72558594 21.9206543 C2.55144467 40.61624139 -0.76334595 59.63866941 -8 77 C-9.45922693 76.88590407 -10.91740598 76.75834456 -12.375 76.625 C-13.18710938 76.55539063 -13.99921875 76.48578125 -14.8359375 76.4140625 C-17 76 -17 76 -19 74 C-18.56171875 73.62488281 -18.1234375 73.24976563 -17.671875 72.86328125 C-3.04784542 56.56500529 -1.78564579 20.76443379 0 0 Z " fill="#F4D6A2" transform="translate(83,145)"/>
<path d="M0 0 C3.16717283 1.58358642 4.73268318 2.45263699 6.3125 5.6875 C6.539375 6.450625 6.76625 7.21375 7 8 C6.34 8.2475 5.68 8.495 5 8.75 C2.69033595 9.71236002 0.5305207 10.73224694 -1.6875 11.875 C-9.08901632 15.56205165 -16.09970419 18.21789491 -24.25 19.6875 C-24.90411865 19.80681885 -25.5582373 19.9261377 -26.23217773 20.04907227 C-38.2019433 22.03660808 -50.33469369 22.16150922 -62.4375 22.125 C-64.40106445 22.13080078 -64.40106445 22.13080078 -66.40429688 22.13671875 C-67.67208984 22.13542969 -68.93988281 22.13414062 -70.24609375 22.1328125 C-71.37716553 22.13168457 -72.5082373 22.13055664 -73.67358398 22.12939453 C-77.17301997 21.99326968 -80.54377126 21.55214125 -84 21 C-84 20.67 -84 20.34 -84 20 C-83.08524902 19.96036133 -82.17049805 19.92072266 -81.22802734 19.87988281 C-37.80797555 18.90167042 -37.80797555 18.90167042 0 0 Z " fill="#C59153" transform="translate(175,275)"/>
<path d="M0 0 C-0.33 0.66 -0.66 1.32 -1 2 C-2.32 2 -3.64 2 -5 2 C-0.61549276 8.02869746 4.56544828 11.6365701 12 13 C22.38935763 13.6650061 33.41389704 14.27402776 42 7.3984375 C43.86283166 5.6324578 43.86283166 5.6324578 46 3 C44.68 2.01 43.36 1.02 42 0 C49.42857143 -0.28571429 49.42857143 -0.28571429 53 2 C52.67 2.66 52.34 3.32 52 4 C51.37738281 4.14308594 50.75476563 4.28617187 50.11328125 4.43359375 C47.52916756 5.12619354 46.82885736 5.98597008 45.1875 8.0625 C44.41986328 9.00222656 44.41986328 9.00222656 43.63671875 9.9609375 C42.82654297 10.97027344 42.82654297 10.97027344 42 12 C37.29547298 17.71339851 33.21417438 22.59527521 26 25 C20.7325072 25.50442239 16.36820832 25.6716659 11.5625 23.3125 C9.03014327 21.02720246 7.0541538 18.71678406 5 16 C1.2408514 12.03765418 -2.82068915 8.50483993 -7 5 C-7.99 5.495 -7.99 5.495 -9 6 C-8.6875 4.125 -8.6875 4.125 -8 2 C-4.77208445 -0.1519437 -3.71599191 -0.20086443 0 0 Z " fill="#372517" transform="translate(73,85)"/>
<path d="M0 0 C-0.66 1.98 -1.32 3.96 -2 6 C4.30785111 13.05457492 16.82119822 13.64460211 25.68920898 14.25317383 C29.54273519 14.4152024 33.39421028 14.53199603 37.25 14.625 C38.5924696 14.66330989 39.93491806 14.70236841 41.27734375 14.7421875 C44.51809976 14.83544667 47.75886466 14.92124464 51 15 C51 15.33 51 15.66 51 16 C11.28758294 18.40643003 11.28758294 18.40643003 -2 10 C-4.1385485 7.8614515 -4.42655063 6.86724686 -5 4 C-9.14670039 6.37629089 -9.14670039 6.37629089 -12 10 C-12.05156991 11.54136717 -12.09158491 13.08313241 -12.125 14.625 C-12.73288097 20.84684049 -15.36684179 23.98351434 -20 28 C-22.76393862 30.0759539 -25.57339651 32.07011858 -28.40625 34.05078125 C-33.5290932 37.90062878 -38.27229667 42.85346406 -39.4140625 49.359375 C-39.48367187 50.14828125 -39.55328125 50.9371875 -39.625 51.75 C-39.69976562 52.54921875 -39.77453125 53.3484375 -39.8515625 54.171875 C-39.90054688 54.77515625 -39.94953125 55.3784375 -40 56 C-40.33 56 -40.66 56 -41 56 C-42.07710578 50.19855895 -42.88536004 45.52071064 -39.6875 40.3125 C-38.32421875 38.36328125 -38.32421875 38.36328125 -37 37 C-36.34 37 -35.68 37 -35 37 C-35 36.34 -35 35.68 -35 35 C-34.34 35 -33.68 35 -33 35 C-33 34.34 -33 33.68 -33 33 C-30.93095035 31.22610722 -28.86238831 29.5715553 -26.6875 27.9375 C-26.09259766 27.47794922 -25.49769531 27.01839844 -24.88476562 26.54492188 C-22.27844866 24.56179131 -20.12789942 23.04263314 -17 22 C-16.90203125 21.04738281 -16.8040625 20.09476563 -16.703125 19.11328125 C-16.55359375 17.85902344 -16.4040625 16.60476562 -16.25 15.3125 C-16.11078125 14.07113281 -15.9715625 12.82976562 -15.828125 11.55078125 C-14.74117835 6.89024112 -12.89940636 4.3051583 -8.96484375 1.6015625 C-7.96130859 1.11816406 -7.96130859 1.11816406 -6.9375 0.625 C-6.26589844 0.28726563 -5.59429687 -0.05046875 -4.90234375 -0.3984375 C-3 -1 -3 -1 0 0 Z " fill="#503823" transform="translate(60,209)"/>
<path d="M0 0 C2.88302511 2.13557415 3.95158033 4.61279799 5 8 C5.125 10.8125 5.125 10.8125 5 13 C4.608125 12.505 4.21625 12.01 3.8125 11.5 C1.44908285 9.54406857 -0.01435003 9.75792027 -3 10 C-5.34728069 13.66762608 -5.4430704 16.71698615 -5 21 C-3.1353694 24.3832553 -3.1353694 24.3832553 -1 27 C-7.35903614 27.48915663 -7.35903614 27.48915663 -10.375 25.1875 C-13.94934444 20.37588248 -13.57118063 14.7431039 -13 9 C-11.80180343 5.13845458 -10.53295868 1.94940636 -7.01953125 -0.2265625 C-4.28165416 -1.27511117 -2.75649911 -0.91883304 0 0 Z " fill="#EFDAAD" transform="translate(114,49)"/>
<path d="M0 0 C2.90715555 1.45357777 4.22336478 3.30441552 6 6 C6.75 8.8125 6.75 8.8125 7 11 C4.03 10.505 4.03 10.505 1 10 C-1.69734626 14.04601939 -1.43218852 17.25423764 -1 22 C-0.13346586 24.93080674 -0.13346586 24.93080674 1 27 C-1.25 27.3125 -1.25 27.3125 -4 27 C-8.7170695 22.15190079 -9.29451099 18.00431762 -9.21875 11.5078125 C-8.83003572 7.05148095 -7.179223 4.179223 -4.0625 1.0625 C-2 0 -2 0 0 0 Z " fill="#F2DEB1" transform="translate(78,49)"/>
<path d="M0 0 C2.59661024 0.96445523 4.90299524 1.93725216 7.234375 3.4453125 C20.95173722 11.15648505 39.78411062 10.20553777 55 11 C55 11.33 55 11.66 55 12 C57.64 12.33 60.28 12.66 63 13 C63 13.33 63 13.66 63 14 C59.12634335 14.05038777 55.2528201 14.08617252 51.37890625 14.10986328 C49.4322232 14.12456776 47.48563053 14.15001202 45.5390625 14.17578125 C30.8952482 14.25049459 11.86150223 13.84667171 0 4 C-0.33 3.34 -0.66 2.68 -1 2 C-0.67 1.34 -0.34 0.68 0 0 Z " fill="#E4BA7A" transform="translate(51,116)"/>
<path d="M0 0 C0.66 0.33 1.32 0.66 2 1 C-0.34293648 5.77264839 -0.34293648 5.77264839 -2 8 C-4.4375 8.8125 -4.4375 8.8125 -7 9 C-8.175625 9.5259375 -8.175625 9.5259375 -9.375 10.0625 C-13.56079416 11.55742649 -17.05349743 11.87089509 -21.19140625 10.01953125 C-26.77892517 6.77097374 -26.77892517 6.77097374 -27.60009766 3.90722656 C-27.73206543 3.2778418 -27.8640332 2.64845703 -28 2 C-27.36497559 2.01047363 -26.72995117 2.02094727 -26.07568359 2.03173828 C-23.1754966 2.07352467 -20.27537318 2.09939771 -17.375 2.125 C-15.87646484 2.15013672 -15.87646484 2.15013672 -14.34765625 2.17578125 C-9.08561389 2.21062921 -4.97120039 1.91447523 0 0 Z " fill="#92472E" transform="translate(109,98)"/>
<path d="M0 0 C2.93356627 1.3812756 5.48668613 2.99605322 8.125 4.875 C22.28540978 14.2848207 41.26141259 16.96464272 57.99609375 17.31640625 C59.24641136 17.3475779 59.24641136 17.3475779 60.52198792 17.37937927 C63.16041561 17.44427856 65.79893491 17.50347978 68.4375 17.5625 C70.23633724 17.60574206 72.03516554 17.64935808 73.83398438 17.69335938 C78.2225646 17.79989799 82.6112361 17.90132975 87 18 C87 18.33 87 18.66 87 19 C77.1 19.495 77.1 19.495 67 20 C67 20.33 67 20.66 67 21 C45.72780974 20.54740021 18.39927466 18.84259632 1.6875 3.9375 C0 2 0 2 0 0 Z " fill="#4A3320" transform="translate(22,274)"/>
<path d="M0 0 C1.14180901 3.42542702 0.88042993 3.80010221 -0.4375 6.9609375 C-2.43347526 12.56554531 -2.22978359 17.74254009 -2 23.625 C-1.72552663 30.70641283 -1.82548415 35.62685806 -5 42 C-5.5495514 44.57852838 -5.5495514 44.57852838 -5.6875 46.9375 C-5.78611328 48.09572266 -5.78611328 48.09572266 -5.88671875 49.27734375 C-5.92410156 49.84582031 -5.96148437 50.41429687 -6 51 C-6.99 51 -7.98 51 -9 51 C-9.36305367 44.94910542 -8.78716604 41.45820015 -6 36 C-5.76254108 32.43811617 -5.77866895 29.30262544 -6.375 25.79296875 C-7.64721037 17.80189734 -5.80190954 10.50511485 -3 3 C-1.359375 1.05859375 -1.359375 1.05859375 0 0 Z " fill="#503724" transform="translate(57,38)"/>
<path d="M0 0 C3.77994738 1.12735273 4.14825547 1.32558081 6 4.5 C7.5625 8.0625 7.5625 8.0625 7.5625 10.0625 C6.9025 10.0625 6.2425 10.0625 5.5625 10.0625 C4.94375 9.093125 4.325 8.12375 3.6875 7.125 C1.87626943 4.07597423 1.87626943 4.07597423 -0.375 2.875 C-3.85161069 3.19105552 -5.28126901 5.49833342 -7.4375 8.0625 C-9.26890731 13.55672192 -9.10343984 19.09972995 -7.25 24.5625 C-5.19355654 27.39897374 -3.7793448 28.1592987 -0.4375 29.0625 C-0.5921875 30.8878125 -0.5921875 30.8878125 -0.75 32.75 C-0.71467111 36.07091597 -0.44981795 37.04253643 1.375 40 C5.92216264 42.94228171 10.24051154 42.95997483 15.5625 43.0625 C13.1683839 45.4566161 12.52463689 45.35848923 9.25 45.375 C5.21684833 45.27141986 2.71465034 44.75109882 -0.4375 42.0625 C-3.34297505 38.35551459 -3.76244469 35.72004061 -3.4375 31.0625 C-7.8925 29.0825 -7.8925 29.0825 -12.4375 27.0625 C-11.4475 26.4025 -10.4575 25.7425 -9.4375 25.0625 C-9.7675 24.4025 -10.0975 23.7425 -10.4375 23.0625 C-10.61353147 20.65000308 -10.70494968 18.23099105 -10.75 15.8125 C-10.78738281 14.50796875 -10.82476562 13.2034375 -10.86328125 11.859375 C-10.37299926 7.48731905 -9.20618372 5.43480666 -6.4375 2.0625 C-3.4375 0.0625 -3.4375 0.0625 0 0 Z " fill="#402B1E" transform="translate(78.4375,46.9375)"/>
<path d="M0 0 C0.66 0.33 1.32 0.66 2 1 C1.67 1.99 1.34 2.98 1 4 C-15.60894192 11.54951906 -34.26689131 10.17020514 -52 9 C-52 8.67 -52 8.34 -52 8 C-51.04859131 7.93006836 -50.09718262 7.86013672 -49.11694336 7.78808594 C-45.50930424 7.5190551 -41.90336579 7.23106624 -38.29760742 6.93798828 C-36.75144741 6.81483289 -35.20489491 6.69648852 -33.65795898 6.58349609 C-21.91278855 5.72083489 -11.20480495 3.73493498 0 0 Z " fill="#D3A05F" transform="translate(146,120)"/>
<path d="M0 0 C0.35281338 4.1970092 -0.35814568 6.06522073 -3 9.3125 C-3.556875 10.00988281 -4.11375 10.70726562 -4.6875 11.42578125 C-5.120625 11.94527344 -5.55375 12.46476562 -6 13 C-6.66 12.67 -7.32 12.34 -8 12 C-11.83936768 11.8578012 -15.32016639 11.82245324 -19 13 C-17.57646476 9.66863403 -15.8664687 7.72335243 -13.125 5.375 C-12.44695312 4.78460937 -11.76890625 4.19421875 -11.0703125 3.5859375 C-7.30919415 0.70477891 -4.75658607 -0.26425478 0 0 Z " fill="#F3D6A4" transform="translate(91,18)"/>
<path d="M0 0 C5.33593791 3.24084573 8.21014688 7.07111155 10 13 C9.67 13.99 9.34 14.98 9 16 C8.29875 14.906875 7.5975 13.81375 6.875 12.6875 C3.82262559 8.46703818 0.85634245 6.47293539 -4.3828125 5.60546875 C-6.58858813 5.34616911 -8.78393468 5.1428131 -11 5 C-8.68940987 -1.43664394 -6.66264767 -1.63835598 0 0 Z " fill="#452D1B" transform="translate(117,28)"/>
<path d="M0 0 C0 0.33 0 0.66 0 1 C2.97 1.33 5.94 1.66 9 2 C9 2.33 9 2.66 9 3 C-0.83588741 3.83673182 -10.56495918 4.15478142 -20.4375 4.125 C-22.40106445 4.13080078 -22.40106445 4.13080078 -24.40429688 4.13671875 C-25.67208984 4.13542969 -26.93988281 4.13414062 -28.24609375 4.1328125 C-29.37716553 4.13168457 -30.5082373 4.13055664 -31.67358398 4.12939453 C-35.17301997 3.99326968 -38.54377126 3.55214125 -42 3 C-42 2.67 -42 2.34 -42 2 C-37.30454422 1.71208556 -32.60890879 1.42737223 -27.91308594 1.14550781 C-26.31863277 1.04936313 -24.72423031 0.95237343 -23.12988281 0.85449219 C-20.82630309 0.71322134 -18.52255268 0.57508145 -16.21875 0.4375 C-15.51633179 0.39375244 -14.81391357 0.35000488 -14.09020996 0.30493164 C-9.38541385 0.02793304 -4.71305608 -0.03696515 0 0 Z " fill="#D09D5C" transform="translate(133,293)"/>
<path d="M0 0 C7.42857143 -0.28571429 7.42857143 -0.28571429 11 2 C10.67 2.66 10.34 3.32 10 4 C9.37738281 4.14308594 8.75476563 4.28617187 8.11328125 4.43359375 C5.52916756 5.12619354 4.82885736 5.98597008 3.1875 8.0625 C2.68347656 8.68382813 2.17945312 9.30515625 1.66015625 9.9453125 C0.83837891 10.96238281 0.83837891 10.96238281 0 12 C-1.28543423 13.48458602 -2.57703806 14.96385432 -3.875 16.4375 C-4.76832031 17.45650391 -4.76832031 17.45650391 -5.6796875 18.49609375 C-6.11539063 18.99238281 -6.55109375 19.48867187 -7 20 C-7 17 -7 17 -6 14 C-6.83789062 14.33773437 -7.67578125 14.67546875 -8.5390625 15.0234375 C-12.4479744 16.12640361 -15.34563966 16.00512833 -19.375 15.625 C-20.62023437 15.51414062 -21.86546875 15.40328125 -23.1484375 15.2890625 C-24.08945313 15.19367188 -25.03046875 15.09828125 -26 15 C-26 14.67 -26 14.34 -26 14 C-25.18917969 13.97421875 -24.37835938 13.9484375 -23.54296875 13.921875 C-14.3327475 13.45010581 -5.15603412 12.51358629 1.6875 5.75 C2.450625 4.8425 3.21375 3.935 4 3 C2.68 2.01 1.36 1.02 0 0 Z " fill="#372517" transform="translate(115,85)"/>
<path d="M0 0 C0 3 0 3 -2.5 5.6875 C-3.325 6.450625 -4.15 7.21375 -5 8 C-4.67 8.66 -4.34 9.32 -4 10 C-6.49505641 11.30203187 -8.99537682 12.59160266 -11.5 13.875 C-12.19609375 14.23980469 -12.8921875 14.60460937 -13.609375 14.98046875 C-18.35020677 17.39478122 -22.79501519 18.88632082 -28 20 C-27.505 18.515 -27.505 18.515 -27 17 C-26.175 16.731875 -25.35 16.46375 -24.5 16.1875 C-19.74910667 14.57558976 -16.07437848 11.87894452 -12 9 C-11.319375 8.52691406 -10.63875 8.05382812 -9.9375 7.56640625 C-7.46316155 5.82921447 -5.14164669 4.14164669 -3 2 C-2.01 1.34 -1.02 0.68 0 0 Z " fill="#CF9D5D" transform="translate(128,99)"/>
<path d="M0 0 C0.33 0 0.66 0 1 0 C1.33 2.64 1.66 5.28 2 8 C2.33 8 2.66 8 3 8 C3.54139605 13.9553566 1.94759616 18.45109914 -0.04296875 24.04296875 C-1.23879345 27.73782301 -1.70298687 31.1388293 -2 35 C-3.98 35.495 -3.98 35.495 -6 36 C-5.58243579 29.77973308 -4.34754346 24.77104435 -2 19 C-0.77525327 15.17159588 -0.66729167 11.23556693 -0.4375 7.25 C-0.39431641 6.55261719 -0.35113281 5.85523438 -0.30664062 5.13671875 C-0.20110404 3.42468078 -0.1001009 1.71236439 0 0 Z " fill="#392516" transform="translate(149,53)"/>
<path d="M0 0 C0.33 1.65 0.66 3.3 1 5 C0.12988281 5.14695312 0.12988281 5.14695312 -0.7578125 5.296875 C-7.42413895 6.57293749 -12.36827823 8.85364247 -17 14 C-16.47616397 9.89542181 -15.34834816 7.78489488 -12.5625 4.75 C-11.94503906 4.06421875 -11.32757813 3.3784375 -10.69140625 2.671875 C-7.37438622 -0.60684226 -4.50780435 -0.08347786 0 0 Z " fill="#432918" transform="translate(83,29)"/>
<path d="M0 0 C1.16660156 0.04833984 2.33320312 0.09667969 3.53515625 0.14648438 C5.37013672 0.2305957 5.37013672 0.2305957 7.2421875 0.31640625 C8.47324219 0.36861328 9.70429687 0.42082031 10.97265625 0.47460938 C14.02107338 0.60458065 17.069187 0.73955644 20.1171875 0.87890625 C20.1171875 1.20890625 20.1171875 1.53890625 20.1171875 1.87890625 C22.7571875 2.20890625 25.3971875 2.53890625 28.1171875 2.87890625 C28.1171875 3.20890625 28.1171875 3.53890625 28.1171875 3.87890625 C24.17025741 3.9039258 20.22335908 3.92191488 16.27636719 3.93383789 C14.28579075 3.94124402 12.29523633 3.95396099 10.3046875 3.96679688 C3.17454831 3.98480228 -3.80857936 3.80412666 -10.8828125 2.87890625 C-6.68535305 0.08059995 -5.00941439 -0.21885791 0 0 Z " fill="#E5B470" transform="translate(85.8828125,126.12109375)"/>
<path d="M0 0 C0.5576001 0.19110352 1.1152002 0.38220703 1.68969727 0.57910156 C13.0396622 4.45452873 24.35329734 8.11963268 36 11 C31.60487474 12.34398914 27.93936309 11.39170882 23.5625 10.375 C22.76714844 10.19404785 21.97179687 10.0130957 21.15234375 9.82666016 C3.67972147 5.67972147 3.67972147 5.67972147 -1 1 C-0.67 0.67 -0.34 0.34 0 0 Z " fill="#F0CD94" transform="translate(26,291)"/>
<path d="M0 0 C-0.33 0.99 -0.66 1.98 -1 3 C-2.00160156 3.04898437 -3.00320312 3.09796875 -4.03515625 3.1484375 C-5.37762759 3.22354079 -6.7200743 3.29908526 -8.0625 3.375 C-9.37347656 3.44460938 -10.68445313 3.51421875 -12.03515625 3.5859375 C-15.90588455 3.99017119 -19.27884292 4.90107486 -23 6 C-24.32 6 -25.64 6 -27 6 C-27 5.34 -27 4.68 -27 4 C-17.88644568 0.32260089 -9.77380802 -0.14444051 0 0 Z " fill="#392518" transform="translate(108,9)"/>
<path d="M0 0 C19.8 0.495 19.8 0.495 40 1 C40 1.33 40 1.66 40 2 C30.1 2.495 30.1 2.495 20 3 C20 3.33 20 3.66 20 4 C13.4 3.67 6.8 3.34 0 3 C0 2.01 0 1.02 0 0 Z " fill="#654628" transform="translate(69,291)"/>
<path d="M0 0 C0.33 0.99 0.66 1.98 1 3 C1.66 3 2.32 3 3 3 C3 10.26 3 17.52 3 25 C2.34 25 1.68 25 1 25 C0.67 26.32 0.34 27.64 0 29 C0 19.43 0 9.86 0 0 Z " fill="#312012" transform="translate(126,133)"/>
<path d="M0 0 C1.875 1.25 1.875 1.25 3 3 C3 5.4375 3 5.4375 2 8 C-0.5625 10.3125 -0.5625 10.3125 -3 12 C-3.66 11.34 -4.32 10.68 -5 10 C-4.01 9.1028125 -4.01 9.1028125 -3 8.1875 C-0.6626154 6.12498166 -0.6626154 6.12498166 -1 3 C-4.63 3 -8.26 3 -12 3 C-5 -1.66666667 -5 -1.66666667 0 0 Z " fill="#CA9758" transform="translate(151,112)"/>
<path d="M0 0 C0.33 0 0.66 0 1 0 C1.34209395 5.58753458 0.18910181 8.9212838 -2 14 C-2.51679731 16.99072517 -2.80092599 19.97270219 -3 23 C-3.99 23 -4.98 23 -6 23 C-6.54929187 16.18878085 -5.55175989 12.2069598 -2.19140625 6.26171875 C-1.07847317 4.14897037 -0.46391431 2.33023622 0 0 Z " fill="#443121" transform="translate(54,66)"/>
<path d="M0 0 C0.66 0 1.32 0 2 0 C1.896875 1.216875 1.79375 2.43375 1.6875 3.6875 C1.72282889 7.00841597 1.98768205 7.98003643 3.8125 10.9375 C8.35966264 13.87978171 12.67801154 13.89747483 18 14 C15.6058839 16.3941161 14.96213689 16.29598923 11.6875 16.3125 C7.65434833 16.20891986 5.15215034 15.68859882 2 13 C-1.17088582 9.06372795 -1.38270052 5.9751068 -1 1 C-0.67 0.67 -0.34 0.34 0 0 Z " fill="#533520" transform="translate(76,76)"/>
<path d="M0 0 C0 0.66 0 1.32 0 2 C-2.97181166 2.88125838 -5.95315825 3.72475105 -8.9375 4.5625 C-9.76830078 4.80935547 -10.59910156 5.05621094 -11.45507812 5.31054688 C-17.39872241 6.95256534 -21.91438008 7.02552828 -28 6 C-28 5.67 -28 5.34 -28 5 C-26.90945312 4.83564453 -26.90945312 4.83564453 -25.796875 4.66796875 C-19.28244166 3.64069272 -12.95887364 2.31410279 -6.59375 0.5859375 C-4 0 -4 0 0 0 Z " fill="#492F1B" transform="translate(157,285)"/>
<path d="M0 0 C0.99 0.33 1.98 0.66 3 1 C-2.29805411 11.16184148 -2.29805411 11.16184148 -6 14 C-6.99 14 -7.98 14 -9 14 C-8.67 14.99 -8.34 15.98 -8 17 C-8.99 16.67 -9.98 16.34 -11 16 C-9.20893191 11.98800747 -6.6085779 9.20252518 -3.65625 6 C-2.06105306 4.07372445 -1.01567082 2.27510263 0 0 Z " fill="#352213" transform="translate(143,89)"/>
<path d="M0 0 C0.66 0.99 1.32 1.98 2 3 C1.1028125 3.2784375 1.1028125 3.2784375 0.1875 3.5625 C-3.11048641 5.72974821 -4.18571797 8.26636611 -5 12 C-5.24031346 16.6784428 -5.17525278 21.32010172 -5 26 C-7.98490605 23.01509395 -7.79089996 20.06178476 -8.09765625 15.9609375 C-7.90574914 10.14231396 -5.53439543 5.74750591 -1.75 1.4375 C-1.1725 0.963125 -0.595 0.48875 0 0 Z " fill="#412D1F" transform="translate(107,46)"/>
<path d="M0 0 C2.6875 -0.375 2.6875 -0.375 6 0 C10.0839265 4.0839265 11.96388468 6.86919613 12.0625 12.6875 C12.041875 13.780625 12.02125 14.87375 12 16 C11.67 16 11.34 16 11 16 C10.82984375 15.31292969 10.6596875 14.62585937 10.484375 13.91796875 C10.24203125 13.01691406 9.9996875 12.11585937 9.75 11.1875 C9.51796875 10.29417969 9.2859375 9.40085937 9.046875 8.48046875 C7.82553204 5.5866151 6.66473844 4.59884307 4 3 C1.85266073 2.29485154 1.85266073 2.29485154 0 2 C0 1.34 0 0.68 0 0 Z " fill="#331F13" transform="translate(108,46)"/>
<path d="M0 0 C0 3 0 3 -1.4375 5.5 C-5.04819568 9.02262994 -9.88069016 11 -15 11 C-14.67 10.01 -14.34 9.02 -14 8 C-13.154375 7.731875 -12.30875 7.46375 -11.4375 7.1875 C-6.91775366 5.62613308 -3.69043228 2.97857225 0 0 Z " fill="#D5A463" transform="translate(115,108)"/>
<path d="M0 0 C0.66 0.33 1.32 0.66 2 1 C-0.85064637 4.02881176 -3.81255092 6.77504073 -7.0625 9.375 C-8.03896484 10.16003906 -8.03896484 10.16003906 -9.03515625 10.9609375 C-11 12 -11 12 -13.24609375 11.6640625 C-13.82488281 11.44492188 -14.40367188 11.22578125 -15 11 C-14.00419922 10.31164062 -14.00419922 10.31164062 -12.98828125 9.609375 C-8.55201036 6.52665246 -4.15375984 3.46146654 0 0 Z " fill="#DFB170" transform="translate(117,104)"/>
<path d="M0 0 C-1 2 -1 2 -4.1875 3.1875 C-10.38871502 4.64994376 -16.73496823 3.65114094 -23 3 C-23 2.67 -23 2.34 -23 2 C-22.13117188 1.95101562 -21.26234375 1.90203125 -20.3671875 1.8515625 C-19.21476562 1.77679688 -18.06234375 1.70203125 -16.875 1.625 C-15.16957031 1.52058594 -15.16957031 1.52058594 -13.4296875 1.4140625 C-0.41019417 -0.15776699 -0.41019417 -0.15776699 0 0 Z " fill="#503A28" transform="translate(112,97)"/>
<path d="M0 0 C10.55808656 1.92710706 10.55808656 1.92710706 15 4 C14.67 4.66 14.34 5.32 14 6 C9.05 5.01 4.1 4.02 -1 3 C-0.67 2.01 -0.34 1.02 0 0 Z " fill="#352316" transform="translate(108,9)"/>
<path d="M0 0 C2.04224637 0.11514149 4.08380159 0.24257326 6.125 0.375 C7.26195312 0.44460938 8.39890625 0.51421875 9.5703125 0.5859375 C12.95393616 0.99443876 15.81612441 1.80967569 19 3 C19 3.33 19 3.66 19 4 C16.95775363 3.88485851 14.91619841 3.75742674 12.875 3.625 C11.73804688 3.55539062 10.60109375 3.48578125 9.4296875 3.4140625 C6.04606384 3.00556124 3.18387559 2.19032431 0 1 C0 0.67 0 0.34 0 0 Z " fill="#432C1B" transform="translate(51,289)"/>
<path d="M0 0 C0.66 1.32 1.32 2.64 2 4 C-4.93 3.505 -4.93 3.505 -12 3 C-7.58119757 0.05413171 -5.32232661 -0.0985616 0 0 Z " fill="#D1A76B" transform="translate(87,126)"/>
<path d="M0 0 C3.96 0 7.92 0 12 0 C11.67 0.99 11.34 1.98 11 3 C7.37 3 3.74 3 0 3 C0 2.01 0 1.02 0 0 Z " fill="#4C3726" transform="translate(96,9)"/>
<path d="M0 0 C0.99 0.33 1.98 0.66 3 1 C2.525625 1.804375 2.05125 2.60875 1.5625 3.4375 C-0.29359618 7.66939929 -0.70559978 11.43172078 -1 16 C-1.33 16 -1.66 16 -2 16 C-3.45295405 6.00437637 -3.45295405 6.00437637 -1.5625 1.8125 C-1.046875 1.214375 -0.53125 0.61625 0 0 Z " fill="#533B26" transform="translate(21,249)"/>
<path d="M0 0 C0.33 0.99 0.66 1.98 1 3 C-0.26839526 3.50615298 -1.53983102 4.00469099 -2.8125 4.5 C-3.87404297 4.91765625 -3.87404297 4.91765625 -4.95703125 5.34375 C-7 6 -7 6 -10 6 C-10 5.34 -10 4.68 -10 4 C-10.66 3.67 -11.32 3.34 -12 3 C-8.04 2.01 -4.08 1.02 0 0 Z " fill="#422E1C" transform="translate(145,124)"/>
<path d="M0 0 C2.29141286 -0.05384521 4.58318188 -0.09272087 6.875 -0.125 C8.78925781 -0.15980469 8.78925781 -0.15980469 10.7421875 -0.1953125 C14 0 14 0 16 2 C15 3 15 3 12.12890625 3.1328125 C10.95199219 3.13023438 9.77507812 3.12765625 8.5625 3.125 C7.38816406 3.12757812 6.21382813 3.13015625 5.00390625 3.1328125 C2 3 2 3 0 2 C0 1.34 0 0.68 0 0 Z " fill="#CFA265" transform="translate(81,87)"/>
<path d="M0 0 C7.42857143 -0.28571429 7.42857143 -0.28571429 11 2 C10.67 2.66 10.34 3.32 10 4 C8.66923011 4.34342449 7.33568021 4.67619874 6 5 C5.34 5.66 4.68 6.32 4 7 C3.01 6.67 2.02 6.34 1 6 C1.99 5.01 2.98 4.02 4 3 C2.68 2.01 1.36 1.02 0 0 Z " fill="#402F20" transform="translate(115,85)"/>
<path d="M0 0 C-1 3 -1 3 -4.375 4.75 C-8 6 -8 6 -11 5 C-7.92351092 1.43774949 -4.70156256 0 0 0 Z " fill="#382412" transform="translate(172,307)"/>
<path d="M0 0 C0.66 0 1.32 0 2 0 C0.42527704 4.46171506 -1.59377029 9.79688514 -6 12 C-5.55946315 7.15409462 -3.25494123 3.51858133 0 0 Z " fill="#D7A665" transform="translate(135,87)"/>
<path d="M0 0 C-1.32 2.31 -2.64 4.62 -4 7 C-4.433125 6.54625 -4.86625 6.0925 -5.3125 5.625 C-7.10798342 3.79975666 -7.10798342 3.79975666 -10 2 C-8.71211992 1.46987262 -7.41953322 0.9511671 -6.125 0.4375 C-5.40570313 0.14746094 -4.68640625 -0.14257812 -3.9453125 -0.44140625 C-2 -1 -2 -1 0 0 Z " fill="#793924" transform="translate(111,99)"/>
<path d="M0 0 C0.66 0 1.32 0 2 0 C2 3.63 2 7.26 2 11 C1.01 10.67 0.02 10.34 -1 10 C-0.67 6.7 -0.34 3.4 0 0 Z " fill="#402E1D" transform="translate(127,158)"/>
<path d="M0 0 C0.33 0 0.66 0 1 0 C1.33 2.64 1.66 5.28 2 8 C2.33 8 2.66 8 3 8 C3 9.65 3 11.3 3 13 C2.34 13 1.68 13 1 13 C0.67 13.99 0.34 14.98 0 16 C0 10.72 0 5.44 0 0 Z " fill="#4E3522" transform="translate(149,53)"/>
<path d="M0 0 C0.66 0.66 1.32 1.32 2 2 C-0.97 4.475 -0.97 4.475 -4 7 C-4.66 6.34 -5.32 5.68 -6 5 C-2.25 1.125 -2.25 1.125 0 0 Z " fill="#C49153" transform="translate(152,117)"/>
<path d="M0 0 C0.33 0.99 0.66 1.98 1 3 C1.66 3 2.32 3 3 3 C3 5.64 3 8.28 3 11 C2.01 10.34 1.02 9.68 0 9 C-0.29296875 6.8359375 -0.29296875 6.8359375 -0.1875 4.375 C-0.16042969 3.55773437 -0.13335937 2.74046875 -0.10546875 1.8984375 C-0.05326172 0.95871094 -0.05326172 0.95871094 0 0 Z " fill="#271B0D" transform="translate(126,133)"/>
<path d="M0 0 C0 0.66 0 1.32 0 2 C1.32 2.33 2.64 2.66 4 3 C0.37 3 -3.26 3 -7 3 C-7.33 2.34 -7.66 1.68 -8 1 C-5.23735711 0.40267181 -2.83967231 0 0 0 Z " fill="#C69456" transform="translate(109,119)"/>
<path d="M0 0 C-0.33 0.66 -0.66 1.32 -1 2 C-3.97 2 -6.94 2 -10 2 C-6.80505194 -1.19494806 -4.22040044 -1.35655728 0 0 Z " fill="#E0B170" transform="translate(101,117)"/>
<path d="M0 0 C3.48539917 0.64544429 6.02819057 2.10134397 9 4 C8.01 4.66 7.02 5.32 6 6 C3.96166576 4.7260411 1.96147874 3.38938077 0 2 C0 1.34 0 0.68 0 0 Z " fill="#D9AD6E" transform="translate(66,104)"/>
<path d="M0 0 C-4.455 2.97 -4.455 2.97 -9 6 C-9.33 5.34 -9.66 4.68 -10 4 C-4.5 -1.125 -4.5 -1.125 0 0 Z " fill="#C59254" transform="translate(134,102)"/>
<path d="M0 0 C0.66 0 1.32 0 2 0 C1.34 2.64 0.68 5.28 0 8 C-0.99 8 -1.98 8 -3 8 C-2.25 2.25 -2.25 2.25 0 0 Z " fill="#422A19" transform="translate(150,66)"/>
<path d="M0 0 C3.2542015 2.83430453 4.5206753 4.68607774 5 9 C4.34 9 3.68 9 3 9 C-0.22265625 3.7265625 -0.22265625 3.7265625 -1 2 C-0.67 1.34 -0.34 0.68 0 0 Z " fill="#503C2C" transform="translate(81,48)"/>
<path d="M0 0 C-0.33 0.66 -0.66 1.32 -1 2 C-4.4375 2.75 -4.4375 2.75 -8 3 C-8.66 2.34 -9.32 1.68 -10 1 C-3.71428571 -1.42857143 -3.71428571 -1.42857143 0 0 Z " fill="#482F1D" transform="translate(112,97)"/>
<path d="M0 0 C0.99 0.33 1.98 0.66 3 1 C0.69 2.65 -1.62 4.3 -4 6 C-4.66 5.34 -5.32 4.68 -6 4 C-3.1875 1.9375 -3.1875 1.9375 0 0 Z " fill="#472E1B" transform="translate(172,275)"/>
<path d="M0 0 C3.465 1.98 3.465 1.98 7 4 C6.67 4.99 6.34 5.98 6 7 C1.2 4.53846154 1.2 4.53846154 0.1875 1.8125 C0.125625 1.214375 0.06375 0.61625 0 0 Z " fill="#483221" transform="translate(64,104)"/>
<path d="M0 0 C5.66153846 1.47692308 5.66153846 1.47692308 7.375 4.125 C7.684375 5.053125 7.684375 5.053125 8 6 C4.74456771 5.65120368 3.98126893 4.97866739 1.75 2.4375 C1.1725 1.633125 0.595 0.82875 0 0 Z " fill="#D9A967" transform="translate(23,273)"/>
<path d="M0 0 C0.625 1.8125 0.625 1.8125 1 4 C0.01 5.485 0.01 5.485 -1 7 C-1.66 7 -2.32 7 -3 7 C-2.625 4.0625 -2.625 4.0625 -2 1 C-1.34 0.67 -0.68 0.34 0 0 Z " fill="#3B361A" transform="translate(70,177)"/>
<path d="M0 0 C4.75 0.75 4.75 0.75 7 3 C4.69 3 2.38 3 0 3 C0 2.01 0 1.02 0 0 Z " fill="#C99759" transform="translate(122,126)"/>
<path d="M0 0 C6.75 -0.125 6.75 -0.125 9 1 C8.67 1.99 8.34 2.98 8 4 C5.36 3.01 2.72 2.02 0 1 C0 0.67 0 0.34 0 0 Z " fill="#46321F" transform="translate(118,14)"/>
</svg>
